G75*
%MOIN*%
%OFA0B0*%
%FSLAX25Y25*%
%IPPOS*%
%LPD*%
%AMOC8*
5,1,8,0,0,1.08239X$1,22.5*
%
%ADD10R,0.05131X0.04737*%
%ADD11R,0.04737X0.05131*%
%ADD12R,0.04343X0.03556*%
%ADD13R,0.03556X0.04343*%
%ADD14R,0.02769X0.03753*%
%ADD15R,0.16548X0.14186*%
%ADD16R,0.04934X0.03162*%
%ADD17R,0.01981X0.07099*%
%ADD18R,0.09094X0.09685*%
%ADD19R,0.05524X0.05524*%
%ADD20R,0.20394X0.12205*%
%ADD21R,0.09068X0.09068*%
%ADD22C,0.00500*%
%ADD23R,0.06706X0.06706*%
%ADD24R,0.29343X0.29343*%
%ADD25C,0.00079*%
%ADD26R,0.06824X0.06824*%
%ADD27R,0.03800X0.05300*%
%ADD28R,0.03556X0.01784*%
%ADD29R,0.07296X0.06115*%
%ADD30C,0.08300*%
%ADD31OC8,0.08300*%
%ADD32C,0.01660*%
%ADD33R,0.10643X0.13792*%
%ADD34R,0.14186X0.10052*%
%ADD35C,0.05524*%
%ADD36R,0.04400X0.05600*%
%ADD37R,0.07887X0.13398*%
%ADD38R,0.10052X0.14186*%
%ADD39R,0.06312X0.04737*%
%ADD40C,0.06706*%
%ADD41R,0.05131X0.08280*%
%ADD42R,0.05131X0.05524*%
%ADD43R,0.14186X0.08280*%
%ADD44R,0.03300X0.03300*%
%ADD45R,0.09816X0.20800*%
%ADD46R,0.10308X0.20800*%
%ADD47C,0.04562*%
%ADD48C,0.17300*%
D10*
X0036963Y0046150D03*
X0043656Y0046150D03*
X0043656Y0054150D03*
X0036963Y0054150D03*
X0072559Y0061053D03*
X0072559Y0067746D03*
X0126567Y0151407D03*
X0126567Y0158100D03*
X0150189Y0158100D03*
X0150189Y0151407D03*
X0219929Y0179211D03*
X0226622Y0179211D03*
X0223929Y0169211D03*
X0230622Y0169211D03*
X0226625Y0257709D03*
X0226625Y0264402D03*
X0269528Y0267864D03*
X0269528Y0274557D03*
X0289528Y0274557D03*
X0289528Y0267864D03*
X0321457Y0279659D03*
X0321457Y0286352D03*
X0329953Y0286352D03*
X0329953Y0279659D03*
X0128354Y0221880D03*
X0128354Y0215187D03*
X0116480Y0263226D03*
X0116480Y0269919D03*
X0108016Y0272919D03*
X0108016Y0266226D03*
X0037677Y0262652D03*
X0037677Y0255959D03*
X0028819Y0255959D03*
X0028819Y0262652D03*
X0028929Y0172982D03*
X0028929Y0166289D03*
D11*
X0041622Y0169407D03*
X0041622Y0162715D03*
X0054850Y0178132D03*
X0054850Y0184825D03*
X0100976Y0154163D03*
X0100976Y0147470D03*
X0110819Y0147470D03*
X0110819Y0154163D03*
X0135031Y0152785D03*
X0141724Y0152785D03*
X0152157Y0169124D03*
X0152157Y0175817D03*
X0115630Y0193722D03*
X0108937Y0193722D03*
X0108937Y0202187D03*
X0115630Y0202187D03*
X0131228Y0230888D03*
X0137921Y0230888D03*
X0146626Y0213600D03*
X0153319Y0213600D03*
X0129669Y0248833D03*
X0122976Y0248833D03*
X0121819Y0277337D03*
X0128512Y0277337D03*
X0150228Y0279589D03*
X0156921Y0279589D03*
X0237528Y0264557D03*
X0237528Y0257864D03*
X0279528Y0267864D03*
X0279528Y0274557D03*
X0299528Y0274557D03*
X0299528Y0267864D03*
X0298874Y0237211D03*
X0292181Y0237211D03*
X0276276Y0200557D03*
X0276276Y0193864D03*
X0267276Y0193864D03*
X0267276Y0200557D03*
X0263276Y0180557D03*
X0263276Y0173864D03*
X0226622Y0189211D03*
X0219929Y0189211D03*
X0211803Y0133297D03*
X0205110Y0133297D03*
X0198614Y0133297D03*
X0191921Y0133297D03*
X0086906Y0111400D03*
X0080213Y0111400D03*
X0086809Y0102746D03*
X0086809Y0096053D03*
X0062906Y0120400D03*
X0056213Y0120400D03*
X0062559Y0067746D03*
X0062559Y0061053D03*
X0053604Y0045268D03*
X0053604Y0038575D03*
X0081559Y0061053D03*
X0081559Y0067746D03*
X0038858Y0281281D03*
X0032165Y0281281D03*
D12*
X0061724Y0295423D03*
X0061724Y0300541D03*
X0084244Y0264596D03*
X0084244Y0259478D03*
X0078402Y0257171D03*
X0073307Y0257069D03*
X0073307Y0251951D03*
X0078402Y0252053D03*
X0100370Y0256785D03*
X0100370Y0261904D03*
X0150142Y0236431D03*
X0150142Y0231313D03*
X0186803Y0280738D03*
X0186803Y0285856D03*
X0194677Y0285856D03*
X0194677Y0280738D03*
X0087878Y0187427D03*
X0087878Y0182309D03*
X0083827Y0176825D03*
X0083827Y0171707D03*
X0063402Y0171762D03*
X0063402Y0176880D03*
X0069496Y0193045D03*
X0069496Y0198163D03*
X0078850Y0198344D03*
X0078850Y0193226D03*
X0055362Y0194817D03*
X0055362Y0199935D03*
X0046157Y0207211D03*
X0046157Y0212329D03*
X0037567Y0212077D03*
X0032614Y0212100D03*
X0032614Y0206982D03*
X0037567Y0206959D03*
X0022016Y0194872D03*
X0022016Y0189754D03*
X0070809Y0126085D03*
X0070809Y0120967D03*
X0077354Y0120699D03*
X0077354Y0125817D03*
X0139528Y0085463D03*
X0139528Y0080344D03*
X0147165Y0062463D03*
X0147165Y0057344D03*
X0191591Y0080344D03*
X0191591Y0085463D03*
X0208028Y0062963D03*
X0208028Y0057844D03*
X0250536Y0090746D03*
X0250536Y0095864D03*
X0255209Y0085463D03*
X0255209Y0080344D03*
X0271528Y0062963D03*
X0271528Y0057844D03*
X0323528Y0081594D03*
X0323528Y0086713D03*
X0095028Y0062963D03*
X0095028Y0057844D03*
D13*
X0101969Y0052904D03*
X0101969Y0048404D03*
X0107087Y0048404D03*
X0107087Y0052904D03*
X0107087Y0042372D03*
X0101969Y0042372D03*
X0128469Y0044435D03*
X0133587Y0044435D03*
X0131969Y0051222D03*
X0131969Y0056116D03*
X0137087Y0056116D03*
X0137087Y0051222D03*
X0155031Y0048904D03*
X0155031Y0053904D03*
X0160150Y0053904D03*
X0160150Y0048904D03*
X0160150Y0043904D03*
X0155031Y0043904D03*
X0180031Y0045404D03*
X0185150Y0045404D03*
X0184031Y0050904D03*
X0184031Y0055904D03*
X0189150Y0055904D03*
X0189150Y0050904D03*
X0216969Y0048404D03*
X0222087Y0048404D03*
X0222087Y0053904D03*
X0216969Y0053904D03*
X0216969Y0042904D03*
X0222087Y0042904D03*
X0242969Y0044904D03*
X0248087Y0044904D03*
X0246469Y0050904D03*
X0246469Y0055904D03*
X0251587Y0055904D03*
X0251587Y0050904D03*
X0279931Y0049654D03*
X0279931Y0054404D03*
X0285049Y0054404D03*
X0285049Y0049654D03*
X0285049Y0044904D03*
X0279931Y0044904D03*
X0306969Y0042904D03*
X0312087Y0042904D03*
X0310469Y0048154D03*
X0315587Y0048154D03*
X0315337Y0053404D03*
X0310219Y0053404D03*
X0310961Y0095401D03*
X0305843Y0095401D03*
X0185331Y0095179D03*
X0180213Y0095179D03*
X0132087Y0095967D03*
X0126969Y0095967D03*
X0044047Y0129234D03*
X0038929Y0129234D03*
X0038929Y0134841D03*
X0044047Y0134841D03*
X0105346Y0215179D03*
X0110465Y0215179D03*
X0110465Y0222132D03*
X0110370Y0227100D03*
X0105252Y0227100D03*
X0105346Y0222132D03*
X0049110Y0247219D03*
X0043992Y0247219D03*
X0043094Y0236281D03*
X0037976Y0236281D03*
X0031220Y0233856D03*
X0026102Y0233856D03*
X0031402Y0228337D03*
X0036520Y0228337D03*
X0038780Y0273675D03*
X0033661Y0273675D03*
X0061748Y0307242D03*
X0066866Y0307242D03*
D14*
X0136362Y0259955D03*
X0140956Y0259955D03*
X0145548Y0259955D03*
X0150142Y0259955D03*
X0150142Y0239285D03*
X0145548Y0239285D03*
X0140956Y0239285D03*
X0136362Y0239285D03*
D15*
X0143252Y0249620D03*
D16*
X0143866Y0167982D03*
X0143866Y0160502D03*
X0133236Y0160502D03*
X0133236Y0164242D03*
X0133236Y0167982D03*
X0248213Y0257470D03*
X0258843Y0257470D03*
X0258843Y0261211D03*
X0258843Y0264951D03*
X0248213Y0264951D03*
D17*
X0071149Y0110418D03*
X0068590Y0110418D03*
X0066031Y0110418D03*
X0063472Y0110418D03*
X0060913Y0110418D03*
X0058354Y0110418D03*
X0055795Y0110418D03*
X0055795Y0088371D03*
X0058354Y0088371D03*
X0060913Y0088371D03*
X0063472Y0088371D03*
X0066031Y0088371D03*
X0068590Y0088371D03*
X0071149Y0088371D03*
X0100528Y0084951D03*
X0103087Y0084951D03*
X0105646Y0084951D03*
X0108205Y0084951D03*
X0110764Y0084951D03*
X0113323Y0084951D03*
X0115882Y0084951D03*
X0118441Y0084951D03*
X0121000Y0084951D03*
X0123559Y0084951D03*
X0126118Y0084951D03*
X0128677Y0084951D03*
X0131236Y0084951D03*
X0133795Y0084951D03*
X0152591Y0084951D03*
X0155150Y0084951D03*
X0157709Y0084951D03*
X0160268Y0084951D03*
X0162827Y0084951D03*
X0165386Y0084951D03*
X0167945Y0084951D03*
X0170504Y0084951D03*
X0173063Y0084951D03*
X0175622Y0084951D03*
X0178181Y0084951D03*
X0180740Y0084951D03*
X0183299Y0084951D03*
X0185858Y0084951D03*
X0185858Y0062904D03*
X0183299Y0062904D03*
X0180740Y0062904D03*
X0178181Y0062904D03*
X0175622Y0062904D03*
X0173063Y0062904D03*
X0170504Y0062904D03*
X0167945Y0062904D03*
X0165386Y0062904D03*
X0162827Y0062904D03*
X0160268Y0062904D03*
X0157709Y0062904D03*
X0155150Y0062904D03*
X0152591Y0062904D03*
X0133795Y0062904D03*
X0131236Y0062904D03*
X0128677Y0062904D03*
X0126118Y0062904D03*
X0123559Y0062904D03*
X0121000Y0062904D03*
X0118441Y0062904D03*
X0115882Y0062904D03*
X0113323Y0062904D03*
X0110764Y0062904D03*
X0108205Y0062904D03*
X0105646Y0062904D03*
X0103087Y0062904D03*
X0100528Y0062904D03*
X0214528Y0062904D03*
X0217087Y0062904D03*
X0219646Y0062904D03*
X0222205Y0062904D03*
X0224764Y0062904D03*
X0227323Y0062904D03*
X0229882Y0062904D03*
X0232441Y0062904D03*
X0235000Y0062904D03*
X0237559Y0062904D03*
X0240118Y0062904D03*
X0242677Y0062904D03*
X0245236Y0062904D03*
X0247795Y0062904D03*
X0247795Y0084951D03*
X0245236Y0084951D03*
X0242677Y0084951D03*
X0240118Y0084951D03*
X0237559Y0084951D03*
X0235000Y0084951D03*
X0232441Y0084951D03*
X0229882Y0084951D03*
X0227323Y0084951D03*
X0224764Y0084951D03*
X0222205Y0084951D03*
X0219646Y0084951D03*
X0217087Y0084951D03*
X0214528Y0084951D03*
X0278528Y0084951D03*
X0281087Y0084951D03*
X0283646Y0084951D03*
X0286205Y0084951D03*
X0288764Y0084951D03*
X0291323Y0084951D03*
X0293882Y0084951D03*
X0296441Y0084951D03*
X0299000Y0084951D03*
X0301559Y0084951D03*
X0304118Y0084951D03*
X0306677Y0084951D03*
X0309236Y0084951D03*
X0311795Y0084951D03*
X0311795Y0062904D03*
X0309236Y0062904D03*
X0306677Y0062904D03*
X0304118Y0062904D03*
X0301559Y0062904D03*
X0299000Y0062904D03*
X0296441Y0062904D03*
X0293882Y0062904D03*
X0291323Y0062904D03*
X0288764Y0062904D03*
X0286205Y0062904D03*
X0283646Y0062904D03*
X0281087Y0062904D03*
X0278528Y0062904D03*
D18*
X0063472Y0099394D03*
D19*
X0090142Y0118612D03*
X0066953Y0132313D03*
X0128929Y0178376D03*
X0139953Y0178376D03*
X0070858Y0246683D03*
X0049205Y0255738D03*
X0019480Y0253376D03*
X0037000Y0216565D03*
X0039165Y0292746D03*
X0142535Y0281407D03*
X0297858Y0227785D03*
X0301173Y0255400D03*
D20*
X0295161Y0073927D03*
X0231161Y0073927D03*
X0169224Y0073927D03*
X0117161Y0073927D03*
D21*
X0116059Y0032746D03*
X0101059Y0032746D03*
X0154122Y0032746D03*
X0169122Y0032746D03*
X0215524Y0033100D03*
X0230524Y0033100D03*
X0266035Y0033108D03*
X0281035Y0033108D03*
X0296035Y0033108D03*
X0311035Y0033108D03*
X0318276Y0154711D03*
X0318276Y0169711D03*
X0318276Y0194711D03*
X0318276Y0209711D03*
D22*
X0065150Y0253888D02*
X0058063Y0253888D01*
X0058063Y0257825D01*
X0065150Y0257825D01*
X0065150Y0253888D01*
X0065150Y0253948D02*
X0058063Y0253948D01*
X0058063Y0254447D02*
X0065150Y0254447D01*
X0065150Y0254945D02*
X0058063Y0254945D01*
X0058063Y0255444D02*
X0065150Y0255444D01*
X0065150Y0255942D02*
X0058063Y0255942D01*
X0058063Y0256441D02*
X0065150Y0256441D01*
X0065150Y0256939D02*
X0058063Y0256939D01*
X0058063Y0257438D02*
X0065150Y0257438D01*
D23*
X0099205Y0324242D03*
X0109047Y0324242D03*
X0118890Y0324242D03*
X0128732Y0324242D03*
X0150386Y0324242D03*
X0160228Y0324242D03*
X0170071Y0324242D03*
X0179913Y0324242D03*
X0201567Y0324242D03*
X0211409Y0324242D03*
X0221252Y0324242D03*
X0231094Y0324242D03*
X0252748Y0324242D03*
X0262591Y0324242D03*
X0272433Y0324242D03*
X0282276Y0324242D03*
X0303929Y0324242D03*
X0313772Y0324242D03*
X0323614Y0324242D03*
X0333457Y0324242D03*
X0319528Y0266738D03*
X0319528Y0256896D03*
X0319528Y0247053D03*
X0319528Y0237211D03*
X0015150Y0151998D03*
X0015150Y0142156D03*
X0015150Y0132313D03*
X0015150Y0122470D03*
D24*
X0074402Y0222667D03*
D25*
X0090110Y0221683D02*
X0090137Y0221479D01*
X0090216Y0221289D01*
X0090341Y0221126D01*
X0090504Y0221001D01*
X0090694Y0220923D01*
X0090898Y0220896D01*
X0093929Y0220896D01*
X0093929Y0222470D01*
X0090898Y0222470D01*
X0090694Y0222444D01*
X0090504Y0222365D01*
X0090341Y0222240D01*
X0090216Y0222077D01*
X0090137Y0221887D01*
X0090110Y0221683D01*
X0090115Y0221717D02*
X0093929Y0221717D01*
X0093929Y0221640D02*
X0090116Y0221640D01*
X0090126Y0221563D02*
X0093929Y0221563D01*
X0093929Y0221486D02*
X0090136Y0221486D01*
X0090166Y0221408D02*
X0093929Y0221408D01*
X0093929Y0221331D02*
X0090198Y0221331D01*
X0090243Y0221254D02*
X0093929Y0221254D01*
X0093929Y0221177D02*
X0090302Y0221177D01*
X0090376Y0221099D02*
X0093929Y0221099D01*
X0093929Y0221022D02*
X0090477Y0221022D01*
X0090640Y0220945D02*
X0093929Y0220945D01*
X0093929Y0220502D02*
X0090898Y0220502D01*
X0090694Y0220475D01*
X0090504Y0220396D01*
X0090341Y0220271D01*
X0090216Y0220108D01*
X0090137Y0219918D01*
X0090110Y0219715D01*
X0090137Y0219511D01*
X0090216Y0219321D01*
X0090341Y0219158D01*
X0090504Y0219033D01*
X0090694Y0218954D01*
X0090898Y0218927D01*
X0093929Y0218927D01*
X0093929Y0220502D01*
X0093929Y0220481D02*
X0090741Y0220481D01*
X0090522Y0220404D02*
X0093929Y0220404D01*
X0093929Y0220327D02*
X0090413Y0220327D01*
X0090324Y0220250D02*
X0093929Y0220250D01*
X0093929Y0220172D02*
X0090265Y0220172D01*
X0090210Y0220095D02*
X0093929Y0220095D01*
X0093929Y0220018D02*
X0090178Y0220018D01*
X0090146Y0219941D02*
X0093929Y0219941D01*
X0093929Y0219863D02*
X0090130Y0219863D01*
X0090120Y0219786D02*
X0093929Y0219786D01*
X0093929Y0219709D02*
X0090111Y0219709D01*
X0090121Y0219632D02*
X0093929Y0219632D01*
X0093929Y0219554D02*
X0090131Y0219554D01*
X0090151Y0219477D02*
X0093929Y0219477D01*
X0093929Y0219400D02*
X0090183Y0219400D01*
X0090215Y0219323D02*
X0093929Y0219323D01*
X0093929Y0219245D02*
X0090274Y0219245D01*
X0090333Y0219168D02*
X0093929Y0219168D01*
X0093929Y0219091D02*
X0090428Y0219091D01*
X0090550Y0219014D02*
X0093929Y0219014D01*
X0093929Y0218936D02*
X0090828Y0218936D01*
X0090898Y0218533D02*
X0090694Y0218507D01*
X0090504Y0218428D01*
X0090341Y0218303D01*
X0090216Y0218140D01*
X0090137Y0217950D01*
X0090110Y0217746D01*
X0090137Y0217542D01*
X0090216Y0217352D01*
X0090341Y0217189D01*
X0090504Y0217064D01*
X0090694Y0216985D01*
X0090898Y0216959D01*
X0093929Y0216959D01*
X0093929Y0218533D01*
X0090898Y0218533D01*
X0090612Y0218473D02*
X0093929Y0218473D01*
X0093929Y0218396D02*
X0090462Y0218396D01*
X0090361Y0218318D02*
X0093929Y0218318D01*
X0093929Y0218241D02*
X0090293Y0218241D01*
X0090234Y0218164D02*
X0093929Y0218164D01*
X0093929Y0218087D02*
X0090194Y0218087D01*
X0090162Y0218009D02*
X0093929Y0218009D01*
X0093929Y0217932D02*
X0090135Y0217932D01*
X0090125Y0217855D02*
X0093929Y0217855D01*
X0093929Y0217778D02*
X0090114Y0217778D01*
X0090116Y0217700D02*
X0093929Y0217700D01*
X0093929Y0217623D02*
X0090126Y0217623D01*
X0090137Y0217546D02*
X0093929Y0217546D01*
X0093929Y0217469D02*
X0090168Y0217469D01*
X0090200Y0217391D02*
X0093929Y0217391D01*
X0093929Y0217314D02*
X0090245Y0217314D01*
X0090304Y0217237D02*
X0093929Y0217237D01*
X0093929Y0217160D02*
X0090380Y0217160D01*
X0090480Y0217082D02*
X0093929Y0217082D01*
X0093929Y0217005D02*
X0090647Y0217005D01*
X0090720Y0216542D02*
X0093929Y0216542D01*
X0093929Y0216565D02*
X0090898Y0216565D01*
X0090694Y0216538D01*
X0090504Y0216459D01*
X0090341Y0216334D01*
X0090216Y0216171D01*
X0090137Y0215981D01*
X0090110Y0215778D01*
X0090137Y0215574D01*
X0090216Y0215384D01*
X0090341Y0215221D01*
X0090504Y0215096D01*
X0090694Y0215017D01*
X0090898Y0214990D01*
X0093929Y0214990D01*
X0093929Y0216565D01*
X0093929Y0216464D02*
X0090516Y0216464D01*
X0090410Y0216387D02*
X0093929Y0216387D01*
X0093929Y0216310D02*
X0090322Y0216310D01*
X0090263Y0216233D02*
X0093929Y0216233D01*
X0093929Y0216155D02*
X0090209Y0216155D01*
X0090177Y0216078D02*
X0093929Y0216078D01*
X0093929Y0216001D02*
X0090145Y0216001D01*
X0090129Y0215924D02*
X0093929Y0215924D01*
X0093929Y0215846D02*
X0090119Y0215846D01*
X0090111Y0215769D02*
X0093929Y0215769D01*
X0093929Y0215692D02*
X0090122Y0215692D01*
X0090132Y0215615D02*
X0093929Y0215615D01*
X0093929Y0215537D02*
X0090152Y0215537D01*
X0090184Y0215460D02*
X0093929Y0215460D01*
X0093929Y0215383D02*
X0090217Y0215383D01*
X0090276Y0215306D02*
X0093929Y0215306D01*
X0093929Y0215228D02*
X0090335Y0215228D01*
X0090432Y0215151D02*
X0093929Y0215151D01*
X0093929Y0215074D02*
X0090557Y0215074D01*
X0090849Y0214997D02*
X0093929Y0214997D01*
X0093929Y0214596D02*
X0090898Y0214596D01*
X0090694Y0214570D01*
X0090504Y0214491D01*
X0090341Y0214366D01*
X0090216Y0214203D01*
X0090137Y0214013D01*
X0090110Y0213809D01*
X0090137Y0213605D01*
X0090216Y0213415D01*
X0090341Y0213252D01*
X0090504Y0213127D01*
X0090694Y0213048D01*
X0090898Y0213022D01*
X0093929Y0213022D01*
X0093929Y0214596D01*
X0093929Y0214533D02*
X0090606Y0214533D01*
X0090458Y0214456D02*
X0093929Y0214456D01*
X0093929Y0214379D02*
X0090357Y0214379D01*
X0090291Y0214301D02*
X0093929Y0214301D01*
X0093929Y0214224D02*
X0090232Y0214224D01*
X0090193Y0214147D02*
X0093929Y0214147D01*
X0093929Y0214070D02*
X0090161Y0214070D01*
X0090134Y0213992D02*
X0093929Y0213992D01*
X0093929Y0213915D02*
X0090124Y0213915D01*
X0090114Y0213838D02*
X0093929Y0213838D01*
X0093929Y0213761D02*
X0090117Y0213761D01*
X0090127Y0213683D02*
X0093929Y0213683D01*
X0093929Y0213606D02*
X0090137Y0213606D01*
X0090169Y0213529D02*
X0093929Y0213529D01*
X0093929Y0213452D02*
X0090201Y0213452D01*
X0090247Y0213374D02*
X0093929Y0213374D01*
X0093929Y0213297D02*
X0090307Y0213297D01*
X0090383Y0213220D02*
X0093929Y0213220D01*
X0093929Y0213143D02*
X0090484Y0213143D01*
X0090653Y0213065D02*
X0093929Y0213065D01*
X0093929Y0212628D02*
X0090898Y0212628D01*
X0090694Y0212601D01*
X0090504Y0212522D01*
X0090341Y0212397D01*
X0090216Y0212234D01*
X0090137Y0212044D01*
X0090110Y0211841D01*
X0090137Y0211637D01*
X0090216Y0211447D01*
X0090341Y0211284D01*
X0090504Y0211159D01*
X0090694Y0211080D01*
X0090898Y0211053D01*
X0093929Y0211053D01*
X0093929Y0212628D01*
X0093929Y0212602D02*
X0090699Y0212602D01*
X0090509Y0212524D02*
X0093929Y0212524D01*
X0093929Y0212447D02*
X0090406Y0212447D01*
X0090320Y0212370D02*
X0093929Y0212370D01*
X0093929Y0212293D02*
X0090261Y0212293D01*
X0090208Y0212215D02*
X0093929Y0212215D01*
X0093929Y0212138D02*
X0090176Y0212138D01*
X0090144Y0212061D02*
X0093929Y0212061D01*
X0093929Y0211984D02*
X0090129Y0211984D01*
X0090119Y0211906D02*
X0093929Y0211906D01*
X0093929Y0211829D02*
X0090112Y0211829D01*
X0090122Y0211752D02*
X0093929Y0211752D01*
X0093929Y0211675D02*
X0090132Y0211675D01*
X0090153Y0211597D02*
X0093929Y0211597D01*
X0093929Y0211520D02*
X0090185Y0211520D01*
X0090219Y0211443D02*
X0093929Y0211443D01*
X0093929Y0211366D02*
X0090278Y0211366D01*
X0090337Y0211288D02*
X0093929Y0211288D01*
X0093929Y0211211D02*
X0090435Y0211211D01*
X0090563Y0211134D02*
X0093929Y0211134D01*
X0093929Y0211057D02*
X0090871Y0211057D01*
X0090898Y0210659D02*
X0090694Y0210633D01*
X0090504Y0210554D01*
X0090341Y0210429D01*
X0090216Y0210266D01*
X0090137Y0210076D01*
X0090110Y0209872D01*
X0090137Y0209668D01*
X0090216Y0209478D01*
X0090341Y0209315D01*
X0090504Y0209190D01*
X0090694Y0209111D01*
X0090898Y0209085D01*
X0093929Y0209085D01*
X0093929Y0210659D01*
X0090898Y0210659D01*
X0090599Y0210593D02*
X0093929Y0210593D01*
X0093929Y0210516D02*
X0090454Y0210516D01*
X0090354Y0210439D02*
X0093929Y0210439D01*
X0093929Y0210361D02*
X0090289Y0210361D01*
X0090230Y0210284D02*
X0093929Y0210284D01*
X0093929Y0210207D02*
X0090191Y0210207D01*
X0090159Y0210130D02*
X0093929Y0210130D01*
X0093929Y0210052D02*
X0090134Y0210052D01*
X0090124Y0209975D02*
X0093929Y0209975D01*
X0093929Y0209898D02*
X0090114Y0209898D01*
X0090117Y0209821D02*
X0093929Y0209821D01*
X0093929Y0209743D02*
X0090127Y0209743D01*
X0090138Y0209666D02*
X0093929Y0209666D01*
X0093929Y0209589D02*
X0090170Y0209589D01*
X0090202Y0209512D02*
X0093929Y0209512D01*
X0093929Y0209434D02*
X0090249Y0209434D01*
X0090309Y0209357D02*
X0093929Y0209357D01*
X0093929Y0209280D02*
X0090387Y0209280D01*
X0090488Y0209203D02*
X0093929Y0209203D01*
X0093929Y0209125D02*
X0090660Y0209125D01*
X0090694Y0208664D02*
X0090504Y0208585D01*
X0090341Y0208460D01*
X0090216Y0208297D01*
X0090137Y0208107D01*
X0090110Y0207904D01*
X0090137Y0207700D01*
X0090216Y0207510D01*
X0090341Y0207347D01*
X0090504Y0207222D01*
X0090694Y0207143D01*
X0090898Y0207116D01*
X0093929Y0207116D01*
X0093929Y0208691D01*
X0090898Y0208691D01*
X0090694Y0208664D01*
X0090504Y0208585D01*
X0090341Y0208460D01*
X0090216Y0208297D01*
X0090137Y0208107D01*
X0090110Y0207904D01*
X0090137Y0207700D01*
X0090216Y0207510D01*
X0090341Y0207347D01*
X0090504Y0207222D01*
X0090694Y0207143D01*
X0090898Y0207116D01*
X0093929Y0207116D01*
X0093929Y0208691D01*
X0090898Y0208691D01*
X0090694Y0208664D01*
X0090689Y0208662D02*
X0093929Y0208662D01*
X0090689Y0208662D01*
X0090503Y0208585D02*
X0093929Y0208585D01*
X0090503Y0208585D01*
X0090402Y0208507D02*
X0093929Y0208507D01*
X0090402Y0208507D01*
X0090318Y0208430D02*
X0093929Y0208430D01*
X0090318Y0208430D01*
X0090258Y0208353D02*
X0093929Y0208353D01*
X0090258Y0208353D01*
X0090207Y0208276D02*
X0093929Y0208276D01*
X0090207Y0208276D01*
X0090175Y0208198D02*
X0093929Y0208198D01*
X0090175Y0208198D01*
X0090143Y0208121D02*
X0093929Y0208121D01*
X0090143Y0208121D01*
X0090129Y0208044D02*
X0093929Y0208044D01*
X0090129Y0208044D01*
X0090119Y0207967D02*
X0093929Y0207967D01*
X0090119Y0207967D01*
X0090112Y0207889D02*
X0093929Y0207889D01*
X0090112Y0207889D01*
X0090122Y0207812D02*
X0093929Y0207812D01*
X0090122Y0207812D01*
X0090132Y0207735D02*
X0093929Y0207735D01*
X0090132Y0207735D01*
X0090155Y0207658D02*
X0093929Y0207658D01*
X0090155Y0207658D01*
X0090186Y0207580D02*
X0093929Y0207580D01*
X0090186Y0207580D01*
X0090221Y0207503D02*
X0093929Y0207503D01*
X0090221Y0207503D01*
X0090280Y0207426D02*
X0093929Y0207426D01*
X0090280Y0207426D01*
X0090339Y0207349D02*
X0093929Y0207349D01*
X0090339Y0207349D01*
X0090439Y0207271D02*
X0093929Y0207271D01*
X0090439Y0207271D01*
X0090570Y0207194D02*
X0093929Y0207194D01*
X0090570Y0207194D01*
X0090892Y0207117D02*
X0093929Y0207117D01*
X0090892Y0207117D01*
X0089847Y0206565D02*
X0089722Y0206728D01*
X0089559Y0206853D01*
X0089369Y0206932D01*
X0089165Y0206959D01*
X0088962Y0206932D01*
X0088772Y0206853D01*
X0088609Y0206728D01*
X0088483Y0206565D01*
X0088405Y0206375D01*
X0088378Y0206171D01*
X0088378Y0203140D01*
X0089953Y0203140D01*
X0089953Y0206171D01*
X0089926Y0206375D01*
X0089847Y0206565D01*
X0089839Y0206576D02*
X0088492Y0206576D01*
X0088456Y0206499D02*
X0089875Y0206499D01*
X0089907Y0206422D02*
X0088424Y0206422D01*
X0088401Y0206344D02*
X0089930Y0206344D01*
X0089940Y0206267D02*
X0088391Y0206267D01*
X0088380Y0206190D02*
X0089950Y0206190D01*
X0089953Y0206113D02*
X0088378Y0206113D01*
X0088378Y0206035D02*
X0089953Y0206035D01*
X0089953Y0205958D02*
X0088378Y0205958D01*
X0088378Y0205881D02*
X0089953Y0205881D01*
X0089953Y0205804D02*
X0088378Y0205804D01*
X0088378Y0205726D02*
X0089953Y0205726D01*
X0089953Y0205649D02*
X0088378Y0205649D01*
X0088378Y0205572D02*
X0089953Y0205572D01*
X0089953Y0205495D02*
X0088378Y0205495D01*
X0088378Y0205417D02*
X0089953Y0205417D01*
X0089953Y0205340D02*
X0088378Y0205340D01*
X0088378Y0205263D02*
X0089953Y0205263D01*
X0089953Y0205186D02*
X0088378Y0205186D01*
X0088378Y0205108D02*
X0089953Y0205108D01*
X0089953Y0205031D02*
X0088378Y0205031D01*
X0088378Y0204954D02*
X0089953Y0204954D01*
X0089953Y0204877D02*
X0088378Y0204877D01*
X0088378Y0204799D02*
X0089953Y0204799D01*
X0089953Y0204722D02*
X0088378Y0204722D01*
X0088378Y0204645D02*
X0089953Y0204645D01*
X0089953Y0204568D02*
X0088378Y0204568D01*
X0088378Y0204490D02*
X0089953Y0204490D01*
X0089953Y0204413D02*
X0088378Y0204413D01*
X0088378Y0204336D02*
X0089953Y0204336D01*
X0089953Y0204259D02*
X0088378Y0204259D01*
X0088378Y0204181D02*
X0089953Y0204181D01*
X0089953Y0204104D02*
X0088378Y0204104D01*
X0088378Y0204027D02*
X0089953Y0204027D01*
X0089953Y0203950D02*
X0088378Y0203950D01*
X0088378Y0203872D02*
X0089953Y0203872D01*
X0089953Y0203795D02*
X0088378Y0203795D01*
X0088378Y0203718D02*
X0089953Y0203718D01*
X0089953Y0203641D02*
X0088378Y0203641D01*
X0088378Y0203563D02*
X0089953Y0203563D01*
X0089953Y0203486D02*
X0088378Y0203486D01*
X0088378Y0203409D02*
X0089953Y0203409D01*
X0089953Y0203332D02*
X0088378Y0203332D01*
X0088378Y0203254D02*
X0089953Y0203254D01*
X0089953Y0203177D02*
X0088378Y0203177D01*
X0087984Y0203177D02*
X0086409Y0203177D01*
X0086409Y0203140D02*
X0086409Y0206171D01*
X0086436Y0206375D01*
X0086515Y0206565D01*
X0086640Y0206728D01*
X0086803Y0206853D01*
X0086993Y0206932D01*
X0087197Y0206959D01*
X0087401Y0206932D01*
X0087591Y0206853D01*
X0087754Y0206728D01*
X0087879Y0206565D01*
X0087957Y0206375D01*
X0087984Y0206171D01*
X0087984Y0203140D01*
X0086409Y0203140D01*
X0086409Y0203254D02*
X0087984Y0203254D01*
X0087984Y0203332D02*
X0086409Y0203332D01*
X0086409Y0203409D02*
X0087984Y0203409D01*
X0087984Y0203486D02*
X0086409Y0203486D01*
X0086409Y0203563D02*
X0087984Y0203563D01*
X0087984Y0203641D02*
X0086409Y0203641D01*
X0086409Y0203718D02*
X0087984Y0203718D01*
X0087984Y0203795D02*
X0086409Y0203795D01*
X0086409Y0203872D02*
X0087984Y0203872D01*
X0087984Y0203950D02*
X0086409Y0203950D01*
X0086409Y0204027D02*
X0087984Y0204027D01*
X0087984Y0204104D02*
X0086409Y0204104D01*
X0086409Y0204181D02*
X0087984Y0204181D01*
X0087984Y0204259D02*
X0086409Y0204259D01*
X0086409Y0204336D02*
X0087984Y0204336D01*
X0087984Y0204413D02*
X0086409Y0204413D01*
X0086409Y0204490D02*
X0087984Y0204490D01*
X0087984Y0204568D02*
X0086409Y0204568D01*
X0086409Y0204645D02*
X0087984Y0204645D01*
X0087984Y0204722D02*
X0086409Y0204722D01*
X0086409Y0204799D02*
X0087984Y0204799D01*
X0087984Y0204877D02*
X0086409Y0204877D01*
X0086409Y0204954D02*
X0087984Y0204954D01*
X0087984Y0205031D02*
X0086409Y0205031D01*
X0086409Y0205108D02*
X0087984Y0205108D01*
X0087984Y0205186D02*
X0086409Y0205186D01*
X0086409Y0205263D02*
X0087984Y0205263D01*
X0087984Y0205340D02*
X0086409Y0205340D01*
X0086409Y0205417D02*
X0087984Y0205417D01*
X0087984Y0205495D02*
X0086409Y0205495D01*
X0086409Y0205572D02*
X0087984Y0205572D01*
X0087984Y0205649D02*
X0086409Y0205649D01*
X0086409Y0205726D02*
X0087984Y0205726D01*
X0087984Y0205804D02*
X0086409Y0205804D01*
X0086409Y0205881D02*
X0087984Y0205881D01*
X0087984Y0205958D02*
X0086409Y0205958D01*
X0086409Y0206035D02*
X0087984Y0206035D01*
X0087984Y0206113D02*
X0086409Y0206113D01*
X0086412Y0206190D02*
X0087982Y0206190D01*
X0087972Y0206267D02*
X0086422Y0206267D01*
X0086432Y0206344D02*
X0087961Y0206344D01*
X0087938Y0206422D02*
X0086456Y0206422D01*
X0086488Y0206499D02*
X0087906Y0206499D01*
X0087870Y0206576D02*
X0086524Y0206576D01*
X0086583Y0206653D02*
X0087811Y0206653D01*
X0087750Y0206731D02*
X0086643Y0206731D01*
X0086744Y0206808D02*
X0087650Y0206808D01*
X0087513Y0206885D02*
X0086880Y0206885D01*
X0085938Y0206499D02*
X0084519Y0206499D01*
X0084546Y0206565D02*
X0084468Y0206375D01*
X0084441Y0206171D01*
X0084441Y0203140D01*
X0086016Y0203140D01*
X0086016Y0206171D01*
X0085989Y0206375D01*
X0085910Y0206565D01*
X0085785Y0206728D01*
X0085622Y0206853D01*
X0085432Y0206932D01*
X0085228Y0206959D01*
X0085025Y0206932D01*
X0084835Y0206853D01*
X0084672Y0206728D01*
X0084546Y0206565D01*
X0084555Y0206576D02*
X0085902Y0206576D01*
X0085842Y0206653D02*
X0084614Y0206653D01*
X0084675Y0206731D02*
X0085782Y0206731D01*
X0085681Y0206808D02*
X0084776Y0206808D01*
X0084912Y0206885D02*
X0085545Y0206885D01*
X0085970Y0206422D02*
X0084487Y0206422D01*
X0084464Y0206344D02*
X0085993Y0206344D01*
X0086003Y0206267D02*
X0084454Y0206267D01*
X0084443Y0206190D02*
X0086013Y0206190D01*
X0086016Y0206113D02*
X0084441Y0206113D01*
X0084441Y0206035D02*
X0086016Y0206035D01*
X0086016Y0205958D02*
X0084441Y0205958D01*
X0084441Y0205881D02*
X0086016Y0205881D01*
X0086016Y0205804D02*
X0084441Y0205804D01*
X0084441Y0205726D02*
X0086016Y0205726D01*
X0086016Y0205649D02*
X0084441Y0205649D01*
X0084441Y0205572D02*
X0086016Y0205572D01*
X0086016Y0205495D02*
X0084441Y0205495D01*
X0084441Y0205417D02*
X0086016Y0205417D01*
X0086016Y0205340D02*
X0084441Y0205340D01*
X0084441Y0205263D02*
X0086016Y0205263D01*
X0086016Y0205186D02*
X0084441Y0205186D01*
X0084441Y0205108D02*
X0086016Y0205108D01*
X0086016Y0205031D02*
X0084441Y0205031D01*
X0084441Y0204954D02*
X0086016Y0204954D01*
X0086016Y0204877D02*
X0084441Y0204877D01*
X0084441Y0204799D02*
X0086016Y0204799D01*
X0086016Y0204722D02*
X0084441Y0204722D01*
X0084441Y0204645D02*
X0086016Y0204645D01*
X0086016Y0204568D02*
X0084441Y0204568D01*
X0084441Y0204490D02*
X0086016Y0204490D01*
X0086016Y0204413D02*
X0084441Y0204413D01*
X0084441Y0204336D02*
X0086016Y0204336D01*
X0086016Y0204259D02*
X0084441Y0204259D01*
X0084441Y0204181D02*
X0086016Y0204181D01*
X0086016Y0204104D02*
X0084441Y0204104D01*
X0084441Y0204027D02*
X0086016Y0204027D01*
X0086016Y0203950D02*
X0084441Y0203950D01*
X0084441Y0203872D02*
X0086016Y0203872D01*
X0086016Y0203795D02*
X0084441Y0203795D01*
X0084441Y0203718D02*
X0086016Y0203718D01*
X0086016Y0203641D02*
X0084441Y0203641D01*
X0084441Y0203563D02*
X0086016Y0203563D01*
X0086016Y0203486D02*
X0084441Y0203486D01*
X0084441Y0203409D02*
X0086016Y0203409D01*
X0086016Y0203332D02*
X0084441Y0203332D01*
X0084441Y0203254D02*
X0086016Y0203254D01*
X0086016Y0203177D02*
X0084441Y0203177D01*
X0084047Y0203177D02*
X0082472Y0203177D01*
X0082472Y0203140D02*
X0082472Y0206171D01*
X0082499Y0206375D01*
X0082578Y0206565D01*
X0082703Y0206728D01*
X0082866Y0206853D01*
X0083056Y0206932D01*
X0083260Y0206959D01*
X0083464Y0206932D01*
X0083654Y0206853D01*
X0083817Y0206728D01*
X0083942Y0206565D01*
X0084020Y0206375D01*
X0084047Y0206171D01*
X0084047Y0203140D01*
X0082472Y0203140D01*
X0082472Y0203254D02*
X0084047Y0203254D01*
X0084047Y0203332D02*
X0082472Y0203332D01*
X0082472Y0203409D02*
X0084047Y0203409D01*
X0084047Y0203486D02*
X0082472Y0203486D01*
X0082472Y0203563D02*
X0084047Y0203563D01*
X0084047Y0203641D02*
X0082472Y0203641D01*
X0082472Y0203718D02*
X0084047Y0203718D01*
X0084047Y0203795D02*
X0082472Y0203795D01*
X0082472Y0203872D02*
X0084047Y0203872D01*
X0084047Y0203950D02*
X0082472Y0203950D01*
X0082472Y0204027D02*
X0084047Y0204027D01*
X0084047Y0204104D02*
X0082472Y0204104D01*
X0082472Y0204181D02*
X0084047Y0204181D01*
X0084047Y0204259D02*
X0082472Y0204259D01*
X0082472Y0204336D02*
X0084047Y0204336D01*
X0084047Y0204413D02*
X0082472Y0204413D01*
X0082472Y0204490D02*
X0084047Y0204490D01*
X0084047Y0204568D02*
X0082472Y0204568D01*
X0082472Y0204645D02*
X0084047Y0204645D01*
X0084047Y0204722D02*
X0082472Y0204722D01*
X0082472Y0204799D02*
X0084047Y0204799D01*
X0084047Y0204877D02*
X0082472Y0204877D01*
X0082472Y0204954D02*
X0084047Y0204954D01*
X0084047Y0205031D02*
X0082472Y0205031D01*
X0082472Y0205108D02*
X0084047Y0205108D01*
X0084047Y0205186D02*
X0082472Y0205186D01*
X0082472Y0205263D02*
X0084047Y0205263D01*
X0084047Y0205340D02*
X0082472Y0205340D01*
X0082472Y0205417D02*
X0084047Y0205417D01*
X0084047Y0205495D02*
X0082472Y0205495D01*
X0082472Y0205572D02*
X0084047Y0205572D01*
X0084047Y0205649D02*
X0082472Y0205649D01*
X0082472Y0205726D02*
X0084047Y0205726D01*
X0084047Y0205804D02*
X0082472Y0205804D01*
X0082472Y0205881D02*
X0084047Y0205881D01*
X0084047Y0205958D02*
X0082472Y0205958D01*
X0082472Y0206035D02*
X0084047Y0206035D01*
X0084047Y0206113D02*
X0082472Y0206113D01*
X0082475Y0206190D02*
X0084045Y0206190D01*
X0084035Y0206267D02*
X0082485Y0206267D01*
X0082495Y0206344D02*
X0084024Y0206344D01*
X0084001Y0206422D02*
X0082519Y0206422D01*
X0082551Y0206499D02*
X0083969Y0206499D01*
X0083933Y0206576D02*
X0082587Y0206576D01*
X0082646Y0206653D02*
X0083874Y0206653D01*
X0083813Y0206731D02*
X0082706Y0206731D01*
X0082807Y0206808D02*
X0083713Y0206808D01*
X0083576Y0206885D02*
X0082943Y0206885D01*
X0082001Y0206499D02*
X0080582Y0206499D01*
X0080609Y0206565D02*
X0080531Y0206375D01*
X0080504Y0206171D01*
X0080504Y0203140D01*
X0082079Y0203140D01*
X0082079Y0206171D01*
X0082052Y0206375D01*
X0081973Y0206565D01*
X0081848Y0206728D01*
X0081685Y0206853D01*
X0081495Y0206932D01*
X0081291Y0206959D01*
X0081088Y0206932D01*
X0080898Y0206853D01*
X0080735Y0206728D01*
X0080609Y0206565D01*
X0080618Y0206576D02*
X0081965Y0206576D01*
X0081905Y0206653D02*
X0080677Y0206653D01*
X0080738Y0206731D02*
X0081845Y0206731D01*
X0081744Y0206808D02*
X0080839Y0206808D01*
X0080975Y0206885D02*
X0081608Y0206885D01*
X0082033Y0206422D02*
X0080550Y0206422D01*
X0080527Y0206344D02*
X0082056Y0206344D01*
X0082066Y0206267D02*
X0080517Y0206267D01*
X0080506Y0206190D02*
X0082076Y0206190D01*
X0082079Y0206113D02*
X0080504Y0206113D01*
X0080504Y0206035D02*
X0082079Y0206035D01*
X0082079Y0205958D02*
X0080504Y0205958D01*
X0080504Y0205881D02*
X0082079Y0205881D01*
X0082079Y0205804D02*
X0080504Y0205804D01*
X0080504Y0205726D02*
X0082079Y0205726D01*
X0082079Y0205649D02*
X0080504Y0205649D01*
X0080504Y0205572D02*
X0082079Y0205572D01*
X0082079Y0205495D02*
X0080504Y0205495D01*
X0080504Y0205417D02*
X0082079Y0205417D01*
X0082079Y0205340D02*
X0080504Y0205340D01*
X0080504Y0205263D02*
X0082079Y0205263D01*
X0082079Y0205186D02*
X0080504Y0205186D01*
X0080504Y0205108D02*
X0082079Y0205108D01*
X0082079Y0205031D02*
X0080504Y0205031D01*
X0080504Y0204954D02*
X0082079Y0204954D01*
X0082079Y0204877D02*
X0080504Y0204877D01*
X0080504Y0204799D02*
X0082079Y0204799D01*
X0082079Y0204722D02*
X0080504Y0204722D01*
X0080504Y0204645D02*
X0082079Y0204645D01*
X0082079Y0204568D02*
X0080504Y0204568D01*
X0080504Y0204490D02*
X0082079Y0204490D01*
X0082079Y0204413D02*
X0080504Y0204413D01*
X0080504Y0204336D02*
X0082079Y0204336D01*
X0082079Y0204259D02*
X0080504Y0204259D01*
X0080504Y0204181D02*
X0082079Y0204181D01*
X0082079Y0204104D02*
X0080504Y0204104D01*
X0080504Y0204027D02*
X0082079Y0204027D01*
X0082079Y0203950D02*
X0080504Y0203950D01*
X0080504Y0203872D02*
X0082079Y0203872D01*
X0082079Y0203795D02*
X0080504Y0203795D01*
X0080504Y0203718D02*
X0082079Y0203718D01*
X0082079Y0203641D02*
X0080504Y0203641D01*
X0080504Y0203563D02*
X0082079Y0203563D01*
X0082079Y0203486D02*
X0080504Y0203486D01*
X0080504Y0203409D02*
X0082079Y0203409D01*
X0082079Y0203332D02*
X0080504Y0203332D01*
X0080504Y0203254D02*
X0082079Y0203254D01*
X0082079Y0203177D02*
X0080504Y0203177D01*
X0080110Y0203177D02*
X0078535Y0203177D01*
X0078535Y0203140D02*
X0078535Y0206171D01*
X0078562Y0206375D01*
X0078641Y0206565D01*
X0078766Y0206728D01*
X0078929Y0206853D01*
X0079119Y0206932D01*
X0079323Y0206959D01*
X0079527Y0206932D01*
X0079717Y0206853D01*
X0079880Y0206728D01*
X0080005Y0206565D01*
X0080083Y0206375D01*
X0080110Y0206171D01*
X0080110Y0203140D01*
X0078535Y0203140D01*
X0078535Y0203254D02*
X0080110Y0203254D01*
X0080110Y0203332D02*
X0078535Y0203332D01*
X0078535Y0203409D02*
X0080110Y0203409D01*
X0080110Y0203486D02*
X0078535Y0203486D01*
X0078535Y0203563D02*
X0080110Y0203563D01*
X0080110Y0203641D02*
X0078535Y0203641D01*
X0078535Y0203718D02*
X0080110Y0203718D01*
X0080110Y0203795D02*
X0078535Y0203795D01*
X0078535Y0203872D02*
X0080110Y0203872D01*
X0080110Y0203950D02*
X0078535Y0203950D01*
X0078535Y0204027D02*
X0080110Y0204027D01*
X0080110Y0204104D02*
X0078535Y0204104D01*
X0078535Y0204181D02*
X0080110Y0204181D01*
X0080110Y0204259D02*
X0078535Y0204259D01*
X0078535Y0204336D02*
X0080110Y0204336D01*
X0080110Y0204413D02*
X0078535Y0204413D01*
X0078535Y0204490D02*
X0080110Y0204490D01*
X0080110Y0204568D02*
X0078535Y0204568D01*
X0078535Y0204645D02*
X0080110Y0204645D01*
X0080110Y0204722D02*
X0078535Y0204722D01*
X0078535Y0204799D02*
X0080110Y0204799D01*
X0080110Y0204877D02*
X0078535Y0204877D01*
X0078535Y0204954D02*
X0080110Y0204954D01*
X0080110Y0205031D02*
X0078535Y0205031D01*
X0078535Y0205108D02*
X0080110Y0205108D01*
X0080110Y0205186D02*
X0078535Y0205186D01*
X0078535Y0205263D02*
X0080110Y0205263D01*
X0080110Y0205340D02*
X0078535Y0205340D01*
X0078535Y0205417D02*
X0080110Y0205417D01*
X0080110Y0205495D02*
X0078535Y0205495D01*
X0078535Y0205572D02*
X0080110Y0205572D01*
X0080110Y0205649D02*
X0078535Y0205649D01*
X0078535Y0205726D02*
X0080110Y0205726D01*
X0080110Y0205804D02*
X0078535Y0205804D01*
X0078535Y0205881D02*
X0080110Y0205881D01*
X0080110Y0205958D02*
X0078535Y0205958D01*
X0078535Y0206035D02*
X0080110Y0206035D01*
X0080110Y0206113D02*
X0078535Y0206113D01*
X0078538Y0206190D02*
X0080108Y0206190D01*
X0080098Y0206267D02*
X0078548Y0206267D01*
X0078558Y0206344D02*
X0080087Y0206344D01*
X0080064Y0206422D02*
X0078582Y0206422D01*
X0078614Y0206499D02*
X0080032Y0206499D01*
X0079996Y0206576D02*
X0078649Y0206576D01*
X0078709Y0206653D02*
X0079937Y0206653D01*
X0079876Y0206731D02*
X0078769Y0206731D01*
X0078870Y0206808D02*
X0079776Y0206808D01*
X0079639Y0206885D02*
X0079006Y0206885D01*
X0078064Y0206499D02*
X0076645Y0206499D01*
X0076672Y0206565D02*
X0076594Y0206375D01*
X0076567Y0206171D01*
X0076567Y0203140D01*
X0078142Y0203140D01*
X0078142Y0206171D01*
X0078115Y0206375D01*
X0078036Y0206565D01*
X0077911Y0206728D01*
X0077748Y0206853D01*
X0077558Y0206932D01*
X0077354Y0206959D01*
X0077151Y0206932D01*
X0076961Y0206853D01*
X0076798Y0206728D01*
X0076672Y0206565D01*
X0076681Y0206576D02*
X0078028Y0206576D01*
X0077968Y0206653D02*
X0076740Y0206653D01*
X0076801Y0206731D02*
X0077908Y0206731D01*
X0077807Y0206808D02*
X0076902Y0206808D01*
X0077038Y0206885D02*
X0077671Y0206885D01*
X0078096Y0206422D02*
X0076613Y0206422D01*
X0076590Y0206344D02*
X0078119Y0206344D01*
X0078129Y0206267D02*
X0076580Y0206267D01*
X0076569Y0206190D02*
X0078139Y0206190D01*
X0078142Y0206113D02*
X0076567Y0206113D01*
X0076567Y0206035D02*
X0078142Y0206035D01*
X0078142Y0205958D02*
X0076567Y0205958D01*
X0076567Y0205881D02*
X0078142Y0205881D01*
X0078142Y0205804D02*
X0076567Y0205804D01*
X0076567Y0205726D02*
X0078142Y0205726D01*
X0078142Y0205649D02*
X0076567Y0205649D01*
X0076567Y0205572D02*
X0078142Y0205572D01*
X0078142Y0205495D02*
X0076567Y0205495D01*
X0076567Y0205417D02*
X0078142Y0205417D01*
X0078142Y0205340D02*
X0076567Y0205340D01*
X0076567Y0205263D02*
X0078142Y0205263D01*
X0078142Y0205186D02*
X0076567Y0205186D01*
X0076567Y0205108D02*
X0078142Y0205108D01*
X0078142Y0205031D02*
X0076567Y0205031D01*
X0076567Y0204954D02*
X0078142Y0204954D01*
X0078142Y0204877D02*
X0076567Y0204877D01*
X0076567Y0204799D02*
X0078142Y0204799D01*
X0078142Y0204722D02*
X0076567Y0204722D01*
X0076567Y0204645D02*
X0078142Y0204645D01*
X0078142Y0204568D02*
X0076567Y0204568D01*
X0076567Y0204490D02*
X0078142Y0204490D01*
X0078142Y0204413D02*
X0076567Y0204413D01*
X0076567Y0204336D02*
X0078142Y0204336D01*
X0078142Y0204259D02*
X0076567Y0204259D01*
X0076567Y0204181D02*
X0078142Y0204181D01*
X0078142Y0204104D02*
X0076567Y0204104D01*
X0076567Y0204027D02*
X0078142Y0204027D01*
X0078142Y0203950D02*
X0076567Y0203950D01*
X0076567Y0203872D02*
X0078142Y0203872D01*
X0078142Y0203795D02*
X0076567Y0203795D01*
X0076567Y0203718D02*
X0078142Y0203718D01*
X0078142Y0203641D02*
X0076567Y0203641D01*
X0076567Y0203563D02*
X0078142Y0203563D01*
X0078142Y0203486D02*
X0076567Y0203486D01*
X0076567Y0203409D02*
X0078142Y0203409D01*
X0078142Y0203332D02*
X0076567Y0203332D01*
X0076567Y0203254D02*
X0078142Y0203254D01*
X0078142Y0203177D02*
X0076567Y0203177D01*
X0076173Y0203177D02*
X0074598Y0203177D01*
X0074598Y0203140D02*
X0074598Y0206171D01*
X0074625Y0206375D01*
X0074704Y0206565D01*
X0074829Y0206728D01*
X0074992Y0206853D01*
X0075182Y0206932D01*
X0075386Y0206959D01*
X0075590Y0206932D01*
X0075780Y0206853D01*
X0075943Y0206728D01*
X0076068Y0206565D01*
X0076146Y0206375D01*
X0076173Y0206171D01*
X0076173Y0203140D01*
X0074598Y0203140D01*
X0074598Y0203254D02*
X0076173Y0203254D01*
X0076173Y0203332D02*
X0074598Y0203332D01*
X0074598Y0203409D02*
X0076173Y0203409D01*
X0076173Y0203486D02*
X0074598Y0203486D01*
X0074598Y0203563D02*
X0076173Y0203563D01*
X0076173Y0203641D02*
X0074598Y0203641D01*
X0074598Y0203718D02*
X0076173Y0203718D01*
X0076173Y0203795D02*
X0074598Y0203795D01*
X0074598Y0203872D02*
X0076173Y0203872D01*
X0076173Y0203950D02*
X0074598Y0203950D01*
X0074598Y0204027D02*
X0076173Y0204027D01*
X0076173Y0204104D02*
X0074598Y0204104D01*
X0074598Y0204181D02*
X0076173Y0204181D01*
X0076173Y0204259D02*
X0074598Y0204259D01*
X0074598Y0204336D02*
X0076173Y0204336D01*
X0076173Y0204413D02*
X0074598Y0204413D01*
X0074598Y0204490D02*
X0076173Y0204490D01*
X0076173Y0204568D02*
X0074598Y0204568D01*
X0074598Y0204645D02*
X0076173Y0204645D01*
X0076173Y0204722D02*
X0074598Y0204722D01*
X0074598Y0204799D02*
X0076173Y0204799D01*
X0076173Y0204877D02*
X0074598Y0204877D01*
X0074598Y0204954D02*
X0076173Y0204954D01*
X0076173Y0205031D02*
X0074598Y0205031D01*
X0074598Y0205108D02*
X0076173Y0205108D01*
X0076173Y0205186D02*
X0074598Y0205186D01*
X0074598Y0205263D02*
X0076173Y0205263D01*
X0076173Y0205340D02*
X0074598Y0205340D01*
X0074598Y0205417D02*
X0076173Y0205417D01*
X0076173Y0205495D02*
X0074598Y0205495D01*
X0074598Y0205572D02*
X0076173Y0205572D01*
X0076173Y0205649D02*
X0074598Y0205649D01*
X0074598Y0205726D02*
X0076173Y0205726D01*
X0076173Y0205804D02*
X0074598Y0205804D01*
X0074598Y0205881D02*
X0076173Y0205881D01*
X0076173Y0205958D02*
X0074598Y0205958D01*
X0074598Y0206035D02*
X0076173Y0206035D01*
X0076173Y0206113D02*
X0074598Y0206113D01*
X0074601Y0206190D02*
X0076171Y0206190D01*
X0076161Y0206267D02*
X0074611Y0206267D01*
X0074621Y0206344D02*
X0076150Y0206344D01*
X0076127Y0206422D02*
X0074645Y0206422D01*
X0074677Y0206499D02*
X0076095Y0206499D01*
X0076059Y0206576D02*
X0074712Y0206576D01*
X0074772Y0206653D02*
X0076000Y0206653D01*
X0075939Y0206731D02*
X0074832Y0206731D01*
X0074933Y0206808D02*
X0075839Y0206808D01*
X0075702Y0206885D02*
X0075069Y0206885D01*
X0074127Y0206499D02*
X0072708Y0206499D01*
X0072735Y0206565D02*
X0072657Y0206375D01*
X0072630Y0206171D01*
X0072630Y0203140D01*
X0074205Y0203140D01*
X0074205Y0206171D01*
X0074178Y0206375D01*
X0074099Y0206565D01*
X0073974Y0206728D01*
X0073811Y0206853D01*
X0073621Y0206932D01*
X0073417Y0206959D01*
X0073214Y0206932D01*
X0073024Y0206853D01*
X0072861Y0206728D01*
X0072735Y0206565D01*
X0072744Y0206576D02*
X0074091Y0206576D01*
X0074031Y0206653D02*
X0072803Y0206653D01*
X0072864Y0206731D02*
X0073971Y0206731D01*
X0073870Y0206808D02*
X0072965Y0206808D01*
X0073101Y0206885D02*
X0073734Y0206885D01*
X0074159Y0206422D02*
X0072676Y0206422D01*
X0072653Y0206344D02*
X0074182Y0206344D01*
X0074192Y0206267D02*
X0072643Y0206267D01*
X0072632Y0206190D02*
X0074202Y0206190D01*
X0074205Y0206113D02*
X0072630Y0206113D01*
X0072630Y0206035D02*
X0074205Y0206035D01*
X0074205Y0205958D02*
X0072630Y0205958D01*
X0072630Y0205881D02*
X0074205Y0205881D01*
X0074205Y0205804D02*
X0072630Y0205804D01*
X0072630Y0205726D02*
X0074205Y0205726D01*
X0074205Y0205649D02*
X0072630Y0205649D01*
X0072630Y0205572D02*
X0074205Y0205572D01*
X0074205Y0205495D02*
X0072630Y0205495D01*
X0072630Y0205417D02*
X0074205Y0205417D01*
X0074205Y0205340D02*
X0072630Y0205340D01*
X0072630Y0205263D02*
X0074205Y0205263D01*
X0074205Y0205186D02*
X0072630Y0205186D01*
X0072630Y0205108D02*
X0074205Y0205108D01*
X0074205Y0205031D02*
X0072630Y0205031D01*
X0072630Y0204954D02*
X0074205Y0204954D01*
X0074205Y0204877D02*
X0072630Y0204877D01*
X0072630Y0204799D02*
X0074205Y0204799D01*
X0074205Y0204722D02*
X0072630Y0204722D01*
X0072630Y0204645D02*
X0074205Y0204645D01*
X0074205Y0204568D02*
X0072630Y0204568D01*
X0072630Y0204490D02*
X0074205Y0204490D01*
X0074205Y0204413D02*
X0072630Y0204413D01*
X0072630Y0204336D02*
X0074205Y0204336D01*
X0074205Y0204259D02*
X0072630Y0204259D01*
X0072630Y0204181D02*
X0074205Y0204181D01*
X0074205Y0204104D02*
X0072630Y0204104D01*
X0072630Y0204027D02*
X0074205Y0204027D01*
X0074205Y0203950D02*
X0072630Y0203950D01*
X0072630Y0203872D02*
X0074205Y0203872D01*
X0074205Y0203795D02*
X0072630Y0203795D01*
X0072630Y0203718D02*
X0074205Y0203718D01*
X0074205Y0203641D02*
X0072630Y0203641D01*
X0072630Y0203563D02*
X0074205Y0203563D01*
X0074205Y0203486D02*
X0072630Y0203486D01*
X0072630Y0203409D02*
X0074205Y0203409D01*
X0074205Y0203332D02*
X0072630Y0203332D01*
X0072630Y0203254D02*
X0074205Y0203254D01*
X0074205Y0203177D02*
X0072630Y0203177D01*
X0072236Y0203177D02*
X0070661Y0203177D01*
X0070661Y0203140D02*
X0070661Y0206171D01*
X0070688Y0206375D01*
X0070767Y0206565D01*
X0070892Y0206728D01*
X0071055Y0206853D01*
X0071245Y0206932D01*
X0071449Y0206959D01*
X0071653Y0206932D01*
X0071843Y0206853D01*
X0072006Y0206728D01*
X0072131Y0206565D01*
X0072209Y0206375D01*
X0072236Y0206171D01*
X0072236Y0203140D01*
X0070661Y0203140D01*
X0070661Y0203254D02*
X0072236Y0203254D01*
X0072236Y0203332D02*
X0070661Y0203332D01*
X0070661Y0203409D02*
X0072236Y0203409D01*
X0072236Y0203486D02*
X0070661Y0203486D01*
X0070661Y0203563D02*
X0072236Y0203563D01*
X0072236Y0203641D02*
X0070661Y0203641D01*
X0070661Y0203718D02*
X0072236Y0203718D01*
X0072236Y0203795D02*
X0070661Y0203795D01*
X0070661Y0203872D02*
X0072236Y0203872D01*
X0072236Y0203950D02*
X0070661Y0203950D01*
X0070661Y0204027D02*
X0072236Y0204027D01*
X0072236Y0204104D02*
X0070661Y0204104D01*
X0070661Y0204181D02*
X0072236Y0204181D01*
X0072236Y0204259D02*
X0070661Y0204259D01*
X0070661Y0204336D02*
X0072236Y0204336D01*
X0072236Y0204413D02*
X0070661Y0204413D01*
X0070661Y0204490D02*
X0072236Y0204490D01*
X0072236Y0204568D02*
X0070661Y0204568D01*
X0070661Y0204645D02*
X0072236Y0204645D01*
X0072236Y0204722D02*
X0070661Y0204722D01*
X0070661Y0204799D02*
X0072236Y0204799D01*
X0072236Y0204877D02*
X0070661Y0204877D01*
X0070661Y0204954D02*
X0072236Y0204954D01*
X0072236Y0205031D02*
X0070661Y0205031D01*
X0070661Y0205108D02*
X0072236Y0205108D01*
X0072236Y0205186D02*
X0070661Y0205186D01*
X0070661Y0205263D02*
X0072236Y0205263D01*
X0072236Y0205340D02*
X0070661Y0205340D01*
X0070661Y0205417D02*
X0072236Y0205417D01*
X0072236Y0205495D02*
X0070661Y0205495D01*
X0070661Y0205572D02*
X0072236Y0205572D01*
X0072236Y0205649D02*
X0070661Y0205649D01*
X0070661Y0205726D02*
X0072236Y0205726D01*
X0072236Y0205804D02*
X0070661Y0205804D01*
X0070661Y0205881D02*
X0072236Y0205881D01*
X0072236Y0205958D02*
X0070661Y0205958D01*
X0070661Y0206035D02*
X0072236Y0206035D01*
X0072236Y0206113D02*
X0070661Y0206113D01*
X0070664Y0206190D02*
X0072234Y0206190D01*
X0072224Y0206267D02*
X0070674Y0206267D01*
X0070684Y0206344D02*
X0072213Y0206344D01*
X0072190Y0206422D02*
X0070708Y0206422D01*
X0070740Y0206499D02*
X0072158Y0206499D01*
X0072122Y0206576D02*
X0070775Y0206576D01*
X0070835Y0206653D02*
X0072063Y0206653D01*
X0072002Y0206731D02*
X0070895Y0206731D01*
X0070996Y0206808D02*
X0071902Y0206808D01*
X0071765Y0206885D02*
X0071132Y0206885D01*
X0070190Y0206499D02*
X0068771Y0206499D01*
X0068798Y0206565D02*
X0068720Y0206375D01*
X0068693Y0206171D01*
X0068693Y0203140D01*
X0070268Y0203140D01*
X0070268Y0206171D01*
X0070241Y0206375D01*
X0070162Y0206565D01*
X0070037Y0206728D01*
X0069874Y0206853D01*
X0069684Y0206932D01*
X0069480Y0206959D01*
X0069277Y0206932D01*
X0069087Y0206853D01*
X0068924Y0206728D01*
X0068798Y0206565D01*
X0068807Y0206576D02*
X0070154Y0206576D01*
X0070094Y0206653D02*
X0068866Y0206653D01*
X0068927Y0206731D02*
X0070034Y0206731D01*
X0069933Y0206808D02*
X0069028Y0206808D01*
X0069164Y0206885D02*
X0069797Y0206885D01*
X0070222Y0206422D02*
X0068739Y0206422D01*
X0068716Y0206344D02*
X0070245Y0206344D01*
X0070255Y0206267D02*
X0068706Y0206267D01*
X0068695Y0206190D02*
X0070265Y0206190D01*
X0070268Y0206113D02*
X0068693Y0206113D01*
X0068693Y0206035D02*
X0070268Y0206035D01*
X0070268Y0205958D02*
X0068693Y0205958D01*
X0068693Y0205881D02*
X0070268Y0205881D01*
X0070268Y0205804D02*
X0068693Y0205804D01*
X0068693Y0205726D02*
X0070268Y0205726D01*
X0070268Y0205649D02*
X0068693Y0205649D01*
X0068693Y0205572D02*
X0070268Y0205572D01*
X0070268Y0205495D02*
X0068693Y0205495D01*
X0068693Y0205417D02*
X0070268Y0205417D01*
X0070268Y0205340D02*
X0068693Y0205340D01*
X0068693Y0205263D02*
X0070268Y0205263D01*
X0070268Y0205186D02*
X0068693Y0205186D01*
X0068693Y0205108D02*
X0070268Y0205108D01*
X0070268Y0205031D02*
X0068693Y0205031D01*
X0068693Y0204954D02*
X0070268Y0204954D01*
X0070268Y0204877D02*
X0068693Y0204877D01*
X0068693Y0204799D02*
X0070268Y0204799D01*
X0070268Y0204722D02*
X0068693Y0204722D01*
X0068693Y0204645D02*
X0070268Y0204645D01*
X0070268Y0204568D02*
X0068693Y0204568D01*
X0068693Y0204490D02*
X0070268Y0204490D01*
X0070268Y0204413D02*
X0068693Y0204413D01*
X0068693Y0204336D02*
X0070268Y0204336D01*
X0070268Y0204259D02*
X0068693Y0204259D01*
X0068693Y0204181D02*
X0070268Y0204181D01*
X0070268Y0204104D02*
X0068693Y0204104D01*
X0068693Y0204027D02*
X0070268Y0204027D01*
X0070268Y0203950D02*
X0068693Y0203950D01*
X0068693Y0203872D02*
X0070268Y0203872D01*
X0070268Y0203795D02*
X0068693Y0203795D01*
X0068693Y0203718D02*
X0070268Y0203718D01*
X0070268Y0203641D02*
X0068693Y0203641D01*
X0068693Y0203563D02*
X0070268Y0203563D01*
X0070268Y0203486D02*
X0068693Y0203486D01*
X0068693Y0203409D02*
X0070268Y0203409D01*
X0070268Y0203332D02*
X0068693Y0203332D01*
X0068693Y0203254D02*
X0070268Y0203254D01*
X0070268Y0203177D02*
X0068693Y0203177D01*
X0068299Y0203177D02*
X0066724Y0203177D01*
X0066724Y0203140D02*
X0066724Y0206171D01*
X0066751Y0206375D01*
X0066830Y0206565D01*
X0066955Y0206728D01*
X0067118Y0206853D01*
X0067308Y0206932D01*
X0067512Y0206959D01*
X0067716Y0206932D01*
X0067906Y0206853D01*
X0068069Y0206728D01*
X0068194Y0206565D01*
X0068272Y0206375D01*
X0068299Y0206171D01*
X0068299Y0203140D01*
X0066724Y0203140D01*
X0066724Y0203254D02*
X0068299Y0203254D01*
X0068299Y0203332D02*
X0066724Y0203332D01*
X0066724Y0203409D02*
X0068299Y0203409D01*
X0068299Y0203486D02*
X0066724Y0203486D01*
X0066724Y0203563D02*
X0068299Y0203563D01*
X0068299Y0203641D02*
X0066724Y0203641D01*
X0066724Y0203718D02*
X0068299Y0203718D01*
X0068299Y0203795D02*
X0066724Y0203795D01*
X0066724Y0203872D02*
X0068299Y0203872D01*
X0068299Y0203950D02*
X0066724Y0203950D01*
X0066724Y0204027D02*
X0068299Y0204027D01*
X0068299Y0204104D02*
X0066724Y0204104D01*
X0066724Y0204181D02*
X0068299Y0204181D01*
X0068299Y0204259D02*
X0066724Y0204259D01*
X0066724Y0204336D02*
X0068299Y0204336D01*
X0068299Y0204413D02*
X0066724Y0204413D01*
X0066724Y0204490D02*
X0068299Y0204490D01*
X0068299Y0204568D02*
X0066724Y0204568D01*
X0066724Y0204645D02*
X0068299Y0204645D01*
X0068299Y0204722D02*
X0066724Y0204722D01*
X0066724Y0204799D02*
X0068299Y0204799D01*
X0068299Y0204877D02*
X0066724Y0204877D01*
X0066724Y0204954D02*
X0068299Y0204954D01*
X0068299Y0205031D02*
X0066724Y0205031D01*
X0066724Y0205108D02*
X0068299Y0205108D01*
X0068299Y0205186D02*
X0066724Y0205186D01*
X0066724Y0205263D02*
X0068299Y0205263D01*
X0068299Y0205340D02*
X0066724Y0205340D01*
X0066724Y0205417D02*
X0068299Y0205417D01*
X0068299Y0205495D02*
X0066724Y0205495D01*
X0066724Y0205572D02*
X0068299Y0205572D01*
X0068299Y0205649D02*
X0066724Y0205649D01*
X0066724Y0205726D02*
X0068299Y0205726D01*
X0068299Y0205804D02*
X0066724Y0205804D01*
X0066724Y0205881D02*
X0068299Y0205881D01*
X0068299Y0205958D02*
X0066724Y0205958D01*
X0066724Y0206035D02*
X0068299Y0206035D01*
X0068299Y0206113D02*
X0066724Y0206113D01*
X0066727Y0206190D02*
X0068297Y0206190D01*
X0068287Y0206267D02*
X0066737Y0206267D01*
X0066747Y0206344D02*
X0068276Y0206344D01*
X0068253Y0206422D02*
X0066771Y0206422D01*
X0066803Y0206499D02*
X0068221Y0206499D01*
X0068185Y0206576D02*
X0066838Y0206576D01*
X0066898Y0206653D02*
X0068126Y0206653D01*
X0068065Y0206731D02*
X0066958Y0206731D01*
X0067059Y0206808D02*
X0067965Y0206808D01*
X0067828Y0206885D02*
X0067195Y0206885D01*
X0066253Y0206499D02*
X0064834Y0206499D01*
X0064861Y0206565D02*
X0064783Y0206375D01*
X0064756Y0206171D01*
X0064756Y0203140D01*
X0066331Y0203140D01*
X0066331Y0206171D01*
X0066304Y0206375D01*
X0066225Y0206565D01*
X0066100Y0206728D01*
X0065937Y0206853D01*
X0065747Y0206932D01*
X0065543Y0206959D01*
X0065340Y0206932D01*
X0065150Y0206853D01*
X0064987Y0206728D01*
X0064861Y0206565D01*
X0064870Y0206576D02*
X0066217Y0206576D01*
X0066157Y0206653D02*
X0064929Y0206653D01*
X0064990Y0206731D02*
X0066097Y0206731D01*
X0065996Y0206808D02*
X0065091Y0206808D01*
X0065227Y0206885D02*
X0065860Y0206885D01*
X0066285Y0206422D02*
X0064802Y0206422D01*
X0064779Y0206344D02*
X0066308Y0206344D01*
X0066318Y0206267D02*
X0064769Y0206267D01*
X0064758Y0206190D02*
X0066328Y0206190D01*
X0066331Y0206113D02*
X0064756Y0206113D01*
X0064756Y0206035D02*
X0066331Y0206035D01*
X0066331Y0205958D02*
X0064756Y0205958D01*
X0064756Y0205881D02*
X0066331Y0205881D01*
X0066331Y0205804D02*
X0064756Y0205804D01*
X0064756Y0205726D02*
X0066331Y0205726D01*
X0066331Y0205649D02*
X0064756Y0205649D01*
X0064756Y0205572D02*
X0066331Y0205572D01*
X0066331Y0205495D02*
X0064756Y0205495D01*
X0064756Y0205417D02*
X0066331Y0205417D01*
X0066331Y0205340D02*
X0064756Y0205340D01*
X0064756Y0205263D02*
X0066331Y0205263D01*
X0066331Y0205186D02*
X0064756Y0205186D01*
X0064756Y0205108D02*
X0066331Y0205108D01*
X0066331Y0205031D02*
X0064756Y0205031D01*
X0064756Y0204954D02*
X0066331Y0204954D01*
X0066331Y0204877D02*
X0064756Y0204877D01*
X0064756Y0204799D02*
X0066331Y0204799D01*
X0066331Y0204722D02*
X0064756Y0204722D01*
X0064756Y0204645D02*
X0066331Y0204645D01*
X0066331Y0204568D02*
X0064756Y0204568D01*
X0064756Y0204490D02*
X0066331Y0204490D01*
X0066331Y0204413D02*
X0064756Y0204413D01*
X0064756Y0204336D02*
X0066331Y0204336D01*
X0066331Y0204259D02*
X0064756Y0204259D01*
X0064756Y0204181D02*
X0066331Y0204181D01*
X0066331Y0204104D02*
X0064756Y0204104D01*
X0064756Y0204027D02*
X0066331Y0204027D01*
X0066331Y0203950D02*
X0064756Y0203950D01*
X0064756Y0203872D02*
X0066331Y0203872D01*
X0066331Y0203795D02*
X0064756Y0203795D01*
X0064756Y0203718D02*
X0066331Y0203718D01*
X0066331Y0203641D02*
X0064756Y0203641D01*
X0064756Y0203563D02*
X0066331Y0203563D01*
X0066331Y0203486D02*
X0064756Y0203486D01*
X0064756Y0203409D02*
X0066331Y0203409D01*
X0066331Y0203332D02*
X0064756Y0203332D01*
X0064756Y0203254D02*
X0066331Y0203254D01*
X0066331Y0203177D02*
X0064756Y0203177D01*
X0064362Y0203177D02*
X0062787Y0203177D01*
X0062787Y0203140D02*
X0062787Y0206171D01*
X0062814Y0206375D01*
X0062893Y0206565D01*
X0063018Y0206728D01*
X0063181Y0206853D01*
X0063371Y0206932D01*
X0063575Y0206959D01*
X0063779Y0206932D01*
X0063969Y0206853D01*
X0064132Y0206728D01*
X0064257Y0206565D01*
X0064335Y0206375D01*
X0064362Y0206171D01*
X0064362Y0203140D01*
X0062787Y0203140D01*
X0062787Y0203254D02*
X0064362Y0203254D01*
X0064362Y0203332D02*
X0062787Y0203332D01*
X0062787Y0203409D02*
X0064362Y0203409D01*
X0064362Y0203486D02*
X0062787Y0203486D01*
X0062787Y0203563D02*
X0064362Y0203563D01*
X0064362Y0203641D02*
X0062787Y0203641D01*
X0062787Y0203718D02*
X0064362Y0203718D01*
X0064362Y0203795D02*
X0062787Y0203795D01*
X0062787Y0203872D02*
X0064362Y0203872D01*
X0064362Y0203950D02*
X0062787Y0203950D01*
X0062787Y0204027D02*
X0064362Y0204027D01*
X0064362Y0204104D02*
X0062787Y0204104D01*
X0062787Y0204181D02*
X0064362Y0204181D01*
X0064362Y0204259D02*
X0062787Y0204259D01*
X0062787Y0204336D02*
X0064362Y0204336D01*
X0064362Y0204413D02*
X0062787Y0204413D01*
X0062787Y0204490D02*
X0064362Y0204490D01*
X0064362Y0204568D02*
X0062787Y0204568D01*
X0062787Y0204645D02*
X0064362Y0204645D01*
X0064362Y0204722D02*
X0062787Y0204722D01*
X0062787Y0204799D02*
X0064362Y0204799D01*
X0064362Y0204877D02*
X0062787Y0204877D01*
X0062787Y0204954D02*
X0064362Y0204954D01*
X0064362Y0205031D02*
X0062787Y0205031D01*
X0062787Y0205108D02*
X0064362Y0205108D01*
X0064362Y0205186D02*
X0062787Y0205186D01*
X0062787Y0205263D02*
X0064362Y0205263D01*
X0064362Y0205340D02*
X0062787Y0205340D01*
X0062787Y0205417D02*
X0064362Y0205417D01*
X0064362Y0205495D02*
X0062787Y0205495D01*
X0062787Y0205572D02*
X0064362Y0205572D01*
X0064362Y0205649D02*
X0062787Y0205649D01*
X0062787Y0205726D02*
X0064362Y0205726D01*
X0064362Y0205804D02*
X0062787Y0205804D01*
X0062787Y0205881D02*
X0064362Y0205881D01*
X0064362Y0205958D02*
X0062787Y0205958D01*
X0062787Y0206035D02*
X0064362Y0206035D01*
X0064362Y0206113D02*
X0062787Y0206113D01*
X0062790Y0206190D02*
X0064360Y0206190D01*
X0064350Y0206267D02*
X0062800Y0206267D01*
X0062810Y0206344D02*
X0064339Y0206344D01*
X0064316Y0206422D02*
X0062834Y0206422D01*
X0062866Y0206499D02*
X0064284Y0206499D01*
X0064248Y0206576D02*
X0062901Y0206576D01*
X0062961Y0206653D02*
X0064189Y0206653D01*
X0064128Y0206731D02*
X0063021Y0206731D01*
X0063122Y0206808D02*
X0064028Y0206808D01*
X0063891Y0206885D02*
X0063258Y0206885D01*
X0062316Y0206499D02*
X0060897Y0206499D01*
X0060924Y0206565D02*
X0060846Y0206375D01*
X0060819Y0206171D01*
X0060819Y0203140D01*
X0062394Y0203140D01*
X0062394Y0206171D01*
X0062367Y0206375D01*
X0062288Y0206565D01*
X0062163Y0206728D01*
X0062000Y0206853D01*
X0061810Y0206932D01*
X0061606Y0206959D01*
X0061403Y0206932D01*
X0061213Y0206853D01*
X0061050Y0206728D01*
X0060924Y0206565D01*
X0060933Y0206576D02*
X0062280Y0206576D01*
X0062220Y0206653D02*
X0060992Y0206653D01*
X0061053Y0206731D02*
X0062160Y0206731D01*
X0062059Y0206808D02*
X0061154Y0206808D01*
X0061290Y0206885D02*
X0061923Y0206885D01*
X0062348Y0206422D02*
X0060865Y0206422D01*
X0060842Y0206344D02*
X0062371Y0206344D01*
X0062381Y0206267D02*
X0060832Y0206267D01*
X0060821Y0206190D02*
X0062391Y0206190D01*
X0062394Y0206113D02*
X0060819Y0206113D01*
X0060819Y0206035D02*
X0062394Y0206035D01*
X0062394Y0205958D02*
X0060819Y0205958D01*
X0060819Y0205881D02*
X0062394Y0205881D01*
X0062394Y0205804D02*
X0060819Y0205804D01*
X0060819Y0205726D02*
X0062394Y0205726D01*
X0062394Y0205649D02*
X0060819Y0205649D01*
X0060819Y0205572D02*
X0062394Y0205572D01*
X0062394Y0205495D02*
X0060819Y0205495D01*
X0060819Y0205417D02*
X0062394Y0205417D01*
X0062394Y0205340D02*
X0060819Y0205340D01*
X0060819Y0205263D02*
X0062394Y0205263D01*
X0062394Y0205186D02*
X0060819Y0205186D01*
X0060819Y0205108D02*
X0062394Y0205108D01*
X0062394Y0205031D02*
X0060819Y0205031D01*
X0060819Y0204954D02*
X0062394Y0204954D01*
X0062394Y0204877D02*
X0060819Y0204877D01*
X0060819Y0204799D02*
X0062394Y0204799D01*
X0062394Y0204722D02*
X0060819Y0204722D01*
X0060819Y0204645D02*
X0062394Y0204645D01*
X0062394Y0204568D02*
X0060819Y0204568D01*
X0060819Y0204490D02*
X0062394Y0204490D01*
X0062394Y0204413D02*
X0060819Y0204413D01*
X0060819Y0204336D02*
X0062394Y0204336D01*
X0062394Y0204259D02*
X0060819Y0204259D01*
X0060819Y0204181D02*
X0062394Y0204181D01*
X0062394Y0204104D02*
X0060819Y0204104D01*
X0060819Y0204027D02*
X0062394Y0204027D01*
X0062394Y0203950D02*
X0060819Y0203950D01*
X0060819Y0203872D02*
X0062394Y0203872D01*
X0062394Y0203795D02*
X0060819Y0203795D01*
X0060819Y0203718D02*
X0062394Y0203718D01*
X0062394Y0203641D02*
X0060819Y0203641D01*
X0060819Y0203563D02*
X0062394Y0203563D01*
X0062394Y0203486D02*
X0060819Y0203486D01*
X0060819Y0203409D02*
X0062394Y0203409D01*
X0062394Y0203332D02*
X0060819Y0203332D01*
X0060819Y0203254D02*
X0062394Y0203254D01*
X0062394Y0203177D02*
X0060819Y0203177D01*
X0060425Y0203177D02*
X0058850Y0203177D01*
X0058850Y0203140D02*
X0058850Y0206171D01*
X0058877Y0206375D01*
X0058956Y0206565D01*
X0059081Y0206728D01*
X0059244Y0206853D01*
X0059434Y0206932D01*
X0059638Y0206959D01*
X0059842Y0206932D01*
X0060031Y0206853D01*
X0060195Y0206728D01*
X0060320Y0206565D01*
X0060398Y0206375D01*
X0060425Y0206171D01*
X0060425Y0203140D01*
X0058850Y0203140D01*
X0058850Y0203254D02*
X0060425Y0203254D01*
X0060425Y0203332D02*
X0058850Y0203332D01*
X0058850Y0203409D02*
X0060425Y0203409D01*
X0060425Y0203486D02*
X0058850Y0203486D01*
X0058850Y0203563D02*
X0060425Y0203563D01*
X0060425Y0203641D02*
X0058850Y0203641D01*
X0058850Y0203718D02*
X0060425Y0203718D01*
X0060425Y0203795D02*
X0058850Y0203795D01*
X0058850Y0203872D02*
X0060425Y0203872D01*
X0060425Y0203950D02*
X0058850Y0203950D01*
X0058850Y0204027D02*
X0060425Y0204027D01*
X0060425Y0204104D02*
X0058850Y0204104D01*
X0058850Y0204181D02*
X0060425Y0204181D01*
X0060425Y0204259D02*
X0058850Y0204259D01*
X0058850Y0204336D02*
X0060425Y0204336D01*
X0060425Y0204413D02*
X0058850Y0204413D01*
X0058850Y0204490D02*
X0060425Y0204490D01*
X0060425Y0204568D02*
X0058850Y0204568D01*
X0058850Y0204645D02*
X0060425Y0204645D01*
X0060425Y0204722D02*
X0058850Y0204722D01*
X0058850Y0204799D02*
X0060425Y0204799D01*
X0060425Y0204877D02*
X0058850Y0204877D01*
X0058850Y0204954D02*
X0060425Y0204954D01*
X0060425Y0205031D02*
X0058850Y0205031D01*
X0058850Y0205108D02*
X0060425Y0205108D01*
X0060425Y0205186D02*
X0058850Y0205186D01*
X0058850Y0205263D02*
X0060425Y0205263D01*
X0060425Y0205340D02*
X0058850Y0205340D01*
X0058850Y0205417D02*
X0060425Y0205417D01*
X0060425Y0205495D02*
X0058850Y0205495D01*
X0058850Y0205572D02*
X0060425Y0205572D01*
X0060425Y0205649D02*
X0058850Y0205649D01*
X0058850Y0205726D02*
X0060425Y0205726D01*
X0060425Y0205804D02*
X0058850Y0205804D01*
X0058850Y0205881D02*
X0060425Y0205881D01*
X0060425Y0205958D02*
X0058850Y0205958D01*
X0058850Y0206035D02*
X0060425Y0206035D01*
X0060425Y0206113D02*
X0058850Y0206113D01*
X0058853Y0206190D02*
X0060423Y0206190D01*
X0060413Y0206267D02*
X0058863Y0206267D01*
X0058873Y0206344D02*
X0060402Y0206344D01*
X0060379Y0206422D02*
X0058897Y0206422D01*
X0058929Y0206499D02*
X0060347Y0206499D01*
X0060311Y0206576D02*
X0058964Y0206576D01*
X0059024Y0206653D02*
X0060252Y0206653D01*
X0060191Y0206731D02*
X0059084Y0206731D01*
X0059185Y0206808D02*
X0060091Y0206808D01*
X0059954Y0206885D02*
X0059321Y0206885D01*
X0058582Y0207503D02*
X0054874Y0207503D01*
X0054874Y0207426D02*
X0058523Y0207426D01*
X0058464Y0207349D02*
X0054874Y0207349D01*
X0054874Y0207271D02*
X0058364Y0207271D01*
X0058299Y0207222D02*
X0058462Y0207347D01*
X0058587Y0207510D01*
X0058666Y0207700D01*
X0058693Y0207904D01*
X0058666Y0208107D01*
X0058587Y0208297D01*
X0058462Y0208460D01*
X0058299Y0208585D01*
X0058109Y0208664D01*
X0057906Y0208691D01*
X0054874Y0208691D01*
X0054874Y0207116D01*
X0057906Y0207116D01*
X0058109Y0207143D01*
X0058299Y0207222D01*
X0058233Y0207194D02*
X0054874Y0207194D01*
X0054874Y0207117D02*
X0057911Y0207117D01*
X0058617Y0207580D02*
X0054874Y0207580D01*
X0054874Y0207658D02*
X0058649Y0207658D01*
X0058671Y0207735D02*
X0054874Y0207735D01*
X0054874Y0207812D02*
X0058681Y0207812D01*
X0058691Y0207889D02*
X0054874Y0207889D01*
X0054874Y0207967D02*
X0058685Y0207967D01*
X0058674Y0208044D02*
X0054874Y0208044D01*
X0054874Y0208121D02*
X0058660Y0208121D01*
X0058628Y0208198D02*
X0054874Y0208198D01*
X0054874Y0208276D02*
X0058596Y0208276D01*
X0058545Y0208353D02*
X0054874Y0208353D01*
X0054874Y0208430D02*
X0058485Y0208430D01*
X0058401Y0208507D02*
X0054874Y0208507D01*
X0054874Y0208585D02*
X0058300Y0208585D01*
X0058115Y0208662D02*
X0054874Y0208662D01*
X0054874Y0209085D02*
X0057906Y0209085D01*
X0058109Y0209111D01*
X0058299Y0209190D01*
X0058462Y0209315D01*
X0058587Y0209478D01*
X0058666Y0209668D01*
X0058693Y0209872D01*
X0058666Y0210076D01*
X0058587Y0210266D01*
X0058462Y0210429D01*
X0058299Y0210554D01*
X0058109Y0210633D01*
X0057906Y0210659D01*
X0054874Y0210659D01*
X0054874Y0209085D01*
X0054874Y0209125D02*
X0058143Y0209125D01*
X0058316Y0209203D02*
X0054874Y0209203D01*
X0054874Y0209280D02*
X0058416Y0209280D01*
X0058494Y0209357D02*
X0054874Y0209357D01*
X0054874Y0209434D02*
X0058554Y0209434D01*
X0058601Y0209512D02*
X0054874Y0209512D01*
X0054874Y0209589D02*
X0058633Y0209589D01*
X0058665Y0209666D02*
X0054874Y0209666D01*
X0054874Y0209743D02*
X0058676Y0209743D01*
X0058686Y0209821D02*
X0054874Y0209821D01*
X0054874Y0209898D02*
X0058690Y0209898D01*
X0058679Y0209975D02*
X0054874Y0209975D01*
X0054874Y0210052D02*
X0058669Y0210052D01*
X0058644Y0210130D02*
X0054874Y0210130D01*
X0054874Y0210207D02*
X0058612Y0210207D01*
X0058573Y0210284D02*
X0054874Y0210284D01*
X0054874Y0210361D02*
X0058514Y0210361D01*
X0058449Y0210439D02*
X0054874Y0210439D01*
X0054874Y0210516D02*
X0058349Y0210516D01*
X0058204Y0210593D02*
X0054874Y0210593D01*
X0054874Y0211053D02*
X0057906Y0211053D01*
X0058109Y0211080D01*
X0058299Y0211159D01*
X0058462Y0211284D01*
X0058587Y0211447D01*
X0058666Y0211637D01*
X0058693Y0211841D01*
X0058666Y0212044D01*
X0058587Y0212234D01*
X0058462Y0212397D01*
X0058299Y0212522D01*
X0058109Y0212601D01*
X0057906Y0212628D01*
X0054874Y0212628D01*
X0054874Y0211053D01*
X0054874Y0211057D02*
X0057933Y0211057D01*
X0058240Y0211134D02*
X0054874Y0211134D01*
X0054874Y0211211D02*
X0058368Y0211211D01*
X0058466Y0211288D02*
X0054874Y0211288D01*
X0054874Y0211366D02*
X0058525Y0211366D01*
X0058584Y0211443D02*
X0054874Y0211443D01*
X0054874Y0211520D02*
X0058618Y0211520D01*
X0058650Y0211597D02*
X0054874Y0211597D01*
X0054874Y0211675D02*
X0058671Y0211675D01*
X0058681Y0211752D02*
X0054874Y0211752D01*
X0054874Y0211829D02*
X0058691Y0211829D01*
X0058684Y0211906D02*
X0054874Y0211906D01*
X0054874Y0211984D02*
X0058674Y0211984D01*
X0058659Y0212061D02*
X0054874Y0212061D01*
X0054874Y0212138D02*
X0058627Y0212138D01*
X0058595Y0212215D02*
X0054874Y0212215D01*
X0054874Y0212293D02*
X0058543Y0212293D01*
X0058483Y0212370D02*
X0054874Y0212370D01*
X0054874Y0212447D02*
X0058397Y0212447D01*
X0058294Y0212524D02*
X0054874Y0212524D01*
X0054874Y0212602D02*
X0058105Y0212602D01*
X0058109Y0213048D02*
X0058299Y0213127D01*
X0058462Y0213252D01*
X0058587Y0213415D01*
X0058666Y0213605D01*
X0058693Y0213809D01*
X0058666Y0214013D01*
X0058587Y0214203D01*
X0058462Y0214366D01*
X0058299Y0214491D01*
X0058109Y0214570D01*
X0057906Y0214596D01*
X0054874Y0214596D01*
X0054874Y0213022D01*
X0057906Y0213022D01*
X0058109Y0213048D01*
X0058150Y0213065D02*
X0054874Y0213065D01*
X0054874Y0213143D02*
X0058319Y0213143D01*
X0058420Y0213220D02*
X0054874Y0213220D01*
X0054874Y0213297D02*
X0058497Y0213297D01*
X0058556Y0213374D02*
X0054874Y0213374D01*
X0054874Y0213452D02*
X0058602Y0213452D01*
X0058634Y0213529D02*
X0054874Y0213529D01*
X0054874Y0213606D02*
X0058666Y0213606D01*
X0058676Y0213683D02*
X0054874Y0213683D01*
X0054874Y0213761D02*
X0058687Y0213761D01*
X0058689Y0213838D02*
X0054874Y0213838D01*
X0054874Y0213915D02*
X0058679Y0213915D01*
X0058669Y0213992D02*
X0054874Y0213992D01*
X0054874Y0214070D02*
X0058643Y0214070D01*
X0058611Y0214147D02*
X0054874Y0214147D01*
X0054874Y0214224D02*
X0058571Y0214224D01*
X0058512Y0214301D02*
X0054874Y0214301D01*
X0054874Y0214379D02*
X0058446Y0214379D01*
X0058345Y0214456D02*
X0054874Y0214456D01*
X0054874Y0214533D02*
X0058198Y0214533D01*
X0058109Y0215017D02*
X0058299Y0215096D01*
X0058462Y0215221D01*
X0058587Y0215384D01*
X0058666Y0215574D01*
X0058693Y0215778D01*
X0058666Y0215981D01*
X0058587Y0216171D01*
X0058462Y0216334D01*
X0058299Y0216459D01*
X0058109Y0216538D01*
X0057906Y0216565D01*
X0054874Y0216565D01*
X0054874Y0214990D01*
X0057906Y0214990D01*
X0058109Y0215017D01*
X0058246Y0215074D02*
X0054874Y0215074D01*
X0054874Y0215151D02*
X0058371Y0215151D01*
X0058468Y0215228D02*
X0054874Y0215228D01*
X0054874Y0215306D02*
X0058527Y0215306D01*
X0058587Y0215383D02*
X0054874Y0215383D01*
X0054874Y0215460D02*
X0058619Y0215460D01*
X0058651Y0215537D02*
X0054874Y0215537D01*
X0054874Y0215615D02*
X0058671Y0215615D01*
X0058682Y0215692D02*
X0054874Y0215692D01*
X0054874Y0215769D02*
X0058692Y0215769D01*
X0058684Y0215846D02*
X0054874Y0215846D01*
X0054874Y0215924D02*
X0058674Y0215924D01*
X0058658Y0216001D02*
X0054874Y0216001D01*
X0054874Y0216078D02*
X0058626Y0216078D01*
X0058594Y0216155D02*
X0054874Y0216155D01*
X0054874Y0216233D02*
X0058540Y0216233D01*
X0058481Y0216310D02*
X0054874Y0216310D01*
X0054874Y0216387D02*
X0058394Y0216387D01*
X0058288Y0216464D02*
X0054874Y0216464D01*
X0054874Y0216542D02*
X0058083Y0216542D01*
X0058109Y0216985D02*
X0058299Y0217064D01*
X0058462Y0217189D01*
X0058587Y0217352D01*
X0058666Y0217542D01*
X0058693Y0217746D01*
X0058666Y0217950D01*
X0058587Y0218140D01*
X0058462Y0218303D01*
X0058299Y0218428D01*
X0058109Y0218507D01*
X0057906Y0218533D01*
X0054874Y0218533D01*
X0054874Y0216959D01*
X0057906Y0216959D01*
X0058109Y0216985D01*
X0058157Y0217005D02*
X0054874Y0217005D01*
X0054874Y0217082D02*
X0058323Y0217082D01*
X0058424Y0217160D02*
X0054874Y0217160D01*
X0054874Y0217237D02*
X0058499Y0217237D01*
X0058558Y0217314D02*
X0054874Y0217314D01*
X0054874Y0217391D02*
X0058604Y0217391D01*
X0058636Y0217469D02*
X0054874Y0217469D01*
X0054874Y0217546D02*
X0058667Y0217546D01*
X0058677Y0217623D02*
X0054874Y0217623D01*
X0054874Y0217700D02*
X0058687Y0217700D01*
X0058689Y0217778D02*
X0054874Y0217778D01*
X0054874Y0217855D02*
X0058679Y0217855D01*
X0058668Y0217932D02*
X0054874Y0217932D01*
X0054874Y0218009D02*
X0058641Y0218009D01*
X0058609Y0218087D02*
X0054874Y0218087D01*
X0054874Y0218164D02*
X0058569Y0218164D01*
X0058510Y0218241D02*
X0054874Y0218241D01*
X0054874Y0218318D02*
X0058442Y0218318D01*
X0058341Y0218396D02*
X0054874Y0218396D01*
X0054874Y0218473D02*
X0058191Y0218473D01*
X0058109Y0218954D02*
X0058299Y0219033D01*
X0058462Y0219158D01*
X0058587Y0219321D01*
X0058666Y0219511D01*
X0058693Y0219715D01*
X0058666Y0219918D01*
X0058587Y0220108D01*
X0058462Y0220271D01*
X0058299Y0220396D01*
X0058109Y0220475D01*
X0057906Y0220502D01*
X0054874Y0220502D01*
X0054874Y0218927D01*
X0057906Y0218927D01*
X0058109Y0218954D01*
X0057975Y0218936D02*
X0054874Y0218936D01*
X0054874Y0219014D02*
X0058253Y0219014D01*
X0058375Y0219091D02*
X0054874Y0219091D01*
X0054874Y0219168D02*
X0058470Y0219168D01*
X0058529Y0219245D02*
X0054874Y0219245D01*
X0054874Y0219323D02*
X0058588Y0219323D01*
X0058620Y0219400D02*
X0054874Y0219400D01*
X0054874Y0219477D02*
X0058652Y0219477D01*
X0058672Y0219554D02*
X0054874Y0219554D01*
X0054874Y0219632D02*
X0058682Y0219632D01*
X0058692Y0219709D02*
X0054874Y0219709D01*
X0054874Y0219786D02*
X0058684Y0219786D01*
X0058673Y0219863D02*
X0054874Y0219863D01*
X0054874Y0219941D02*
X0058657Y0219941D01*
X0058625Y0220018D02*
X0054874Y0220018D01*
X0054874Y0220095D02*
X0058593Y0220095D01*
X0058538Y0220172D02*
X0054874Y0220172D01*
X0054874Y0220250D02*
X0058479Y0220250D01*
X0058390Y0220327D02*
X0054874Y0220327D01*
X0054874Y0220404D02*
X0058281Y0220404D01*
X0058062Y0220481D02*
X0054874Y0220481D01*
X0054874Y0220896D02*
X0057906Y0220896D01*
X0058109Y0220923D01*
X0058299Y0221001D01*
X0058462Y0221126D01*
X0058587Y0221289D01*
X0058666Y0221479D01*
X0058693Y0221683D01*
X0058666Y0221887D01*
X0058587Y0222077D01*
X0058462Y0222240D01*
X0058299Y0222365D01*
X0058109Y0222444D01*
X0057906Y0222470D01*
X0054874Y0222470D01*
X0054874Y0220896D01*
X0054874Y0220945D02*
X0058163Y0220945D01*
X0058327Y0221022D02*
X0054874Y0221022D01*
X0054874Y0221099D02*
X0058427Y0221099D01*
X0058501Y0221177D02*
X0054874Y0221177D01*
X0054874Y0221254D02*
X0058560Y0221254D01*
X0058605Y0221331D02*
X0054874Y0221331D01*
X0054874Y0221408D02*
X0058637Y0221408D01*
X0058667Y0221486D02*
X0054874Y0221486D01*
X0054874Y0221563D02*
X0058677Y0221563D01*
X0058687Y0221640D02*
X0054874Y0221640D01*
X0054874Y0221717D02*
X0058688Y0221717D01*
X0058678Y0221795D02*
X0054874Y0221795D01*
X0054874Y0221872D02*
X0058668Y0221872D01*
X0058640Y0221949D02*
X0054874Y0221949D01*
X0054874Y0222026D02*
X0058608Y0222026D01*
X0058567Y0222104D02*
X0054874Y0222104D01*
X0054874Y0222181D02*
X0058508Y0222181D01*
X0058438Y0222258D02*
X0054874Y0222258D01*
X0054874Y0222335D02*
X0058338Y0222335D01*
X0058184Y0222413D02*
X0054874Y0222413D01*
X0054874Y0222864D02*
X0057906Y0222864D01*
X0058109Y0222891D01*
X0058299Y0222970D01*
X0058462Y0223095D01*
X0058587Y0223258D01*
X0058666Y0223448D01*
X0058693Y0223652D01*
X0058666Y0223855D01*
X0058587Y0224045D01*
X0058462Y0224208D01*
X0058299Y0224333D01*
X0058109Y0224412D01*
X0057906Y0224439D01*
X0054874Y0224439D01*
X0054874Y0222864D01*
X0054874Y0222876D02*
X0057997Y0222876D01*
X0058260Y0222953D02*
X0054874Y0222953D01*
X0054874Y0223031D02*
X0058379Y0223031D01*
X0058472Y0223108D02*
X0054874Y0223108D01*
X0054874Y0223185D02*
X0058532Y0223185D01*
X0058589Y0223262D02*
X0054874Y0223262D01*
X0054874Y0223340D02*
X0058621Y0223340D01*
X0058653Y0223417D02*
X0054874Y0223417D01*
X0054874Y0223494D02*
X0058672Y0223494D01*
X0058682Y0223571D02*
X0054874Y0223571D01*
X0054874Y0223649D02*
X0058693Y0223649D01*
X0058683Y0223726D02*
X0054874Y0223726D01*
X0054874Y0223803D02*
X0058673Y0223803D01*
X0058656Y0223880D02*
X0054874Y0223880D01*
X0054874Y0223958D02*
X0058624Y0223958D01*
X0058592Y0224035D02*
X0054874Y0224035D01*
X0054874Y0224112D02*
X0058536Y0224112D01*
X0058477Y0224189D02*
X0054874Y0224189D01*
X0054874Y0224267D02*
X0058386Y0224267D01*
X0058274Y0224344D02*
X0054874Y0224344D01*
X0054874Y0224421D02*
X0058040Y0224421D01*
X0057906Y0224833D02*
X0058109Y0224860D01*
X0058299Y0224938D01*
X0058462Y0225063D01*
X0058587Y0225226D01*
X0058666Y0225416D01*
X0058693Y0225620D01*
X0058666Y0225824D01*
X0058587Y0226014D01*
X0058462Y0226177D01*
X0058299Y0226302D01*
X0058109Y0226381D01*
X0057906Y0226407D01*
X0054874Y0226407D01*
X0054874Y0224833D01*
X0057906Y0224833D01*
X0058170Y0224885D02*
X0054874Y0224885D01*
X0054874Y0224962D02*
X0058330Y0224962D01*
X0058431Y0225039D02*
X0054874Y0225039D01*
X0054874Y0225116D02*
X0058503Y0225116D01*
X0058562Y0225194D02*
X0054874Y0225194D01*
X0054874Y0225271D02*
X0058606Y0225271D01*
X0058638Y0225348D02*
X0054874Y0225348D01*
X0054874Y0225425D02*
X0058667Y0225425D01*
X0058677Y0225503D02*
X0054874Y0225503D01*
X0054874Y0225580D02*
X0058688Y0225580D01*
X0058688Y0225657D02*
X0054874Y0225657D01*
X0054874Y0225734D02*
X0058678Y0225734D01*
X0058668Y0225812D02*
X0054874Y0225812D01*
X0054874Y0225889D02*
X0058639Y0225889D01*
X0058607Y0225966D02*
X0054874Y0225966D01*
X0054874Y0226044D02*
X0058565Y0226044D01*
X0058505Y0226121D02*
X0054874Y0226121D01*
X0054874Y0226198D02*
X0058435Y0226198D01*
X0058334Y0226275D02*
X0054874Y0226275D01*
X0054874Y0226353D02*
X0058177Y0226353D01*
X0058109Y0226828D02*
X0058299Y0226907D01*
X0058462Y0227032D01*
X0058587Y0227195D01*
X0058666Y0227385D01*
X0058693Y0227589D01*
X0058666Y0227792D01*
X0058587Y0227982D01*
X0058462Y0228145D01*
X0058299Y0228270D01*
X0058109Y0228349D01*
X0057906Y0228376D01*
X0054874Y0228376D01*
X0054874Y0226801D01*
X0057906Y0226801D01*
X0058109Y0226828D01*
X0058018Y0226816D02*
X0054874Y0226816D01*
X0054874Y0226893D02*
X0058267Y0226893D01*
X0058382Y0226971D02*
X0054874Y0226971D01*
X0054874Y0227048D02*
X0058475Y0227048D01*
X0058534Y0227125D02*
X0054874Y0227125D01*
X0054874Y0227202D02*
X0058590Y0227202D01*
X0058622Y0227280D02*
X0054874Y0227280D01*
X0054874Y0227357D02*
X0058654Y0227357D01*
X0058673Y0227434D02*
X0054874Y0227434D01*
X0054874Y0227511D02*
X0058683Y0227511D01*
X0058693Y0227589D02*
X0054874Y0227589D01*
X0054874Y0227666D02*
X0058683Y0227666D01*
X0058673Y0227743D02*
X0054874Y0227743D01*
X0054874Y0227820D02*
X0058655Y0227820D01*
X0058623Y0227898D02*
X0054874Y0227898D01*
X0054874Y0227975D02*
X0058591Y0227975D01*
X0058534Y0228052D02*
X0054874Y0228052D01*
X0054874Y0228129D02*
X0058475Y0228129D01*
X0058383Y0228207D02*
X0054874Y0228207D01*
X0054874Y0228284D02*
X0058267Y0228284D01*
X0058019Y0228361D02*
X0054874Y0228361D01*
X0054874Y0228770D02*
X0057906Y0228770D01*
X0058109Y0228797D01*
X0058299Y0228875D01*
X0058462Y0229000D01*
X0058587Y0229163D01*
X0058666Y0229353D01*
X0058693Y0229557D01*
X0058666Y0229761D01*
X0058587Y0229951D01*
X0058462Y0230114D01*
X0058299Y0230239D01*
X0058109Y0230318D01*
X0057906Y0230344D01*
X0054874Y0230344D01*
X0054874Y0228770D01*
X0054874Y0228825D02*
X0058177Y0228825D01*
X0058334Y0228902D02*
X0054874Y0228902D01*
X0054874Y0228979D02*
X0058435Y0228979D01*
X0058505Y0229056D02*
X0054874Y0229056D01*
X0054874Y0229134D02*
X0058565Y0229134D01*
X0058607Y0229211D02*
X0054874Y0229211D01*
X0054874Y0229288D02*
X0058639Y0229288D01*
X0058668Y0229365D02*
X0054874Y0229365D01*
X0054874Y0229443D02*
X0058678Y0229443D01*
X0058688Y0229520D02*
X0054874Y0229520D01*
X0054874Y0229597D02*
X0058688Y0229597D01*
X0058677Y0229674D02*
X0054874Y0229674D01*
X0054874Y0229752D02*
X0058667Y0229752D01*
X0058638Y0229829D02*
X0054874Y0229829D01*
X0054874Y0229906D02*
X0058606Y0229906D01*
X0058562Y0229983D02*
X0054874Y0229983D01*
X0054874Y0230061D02*
X0058503Y0230061D01*
X0058431Y0230138D02*
X0054874Y0230138D01*
X0054874Y0230215D02*
X0058330Y0230215D01*
X0058170Y0230292D02*
X0054874Y0230292D01*
X0054874Y0230738D02*
X0057906Y0230738D01*
X0058109Y0230765D01*
X0058299Y0230844D01*
X0058462Y0230969D01*
X0058587Y0231132D01*
X0058666Y0231322D01*
X0058693Y0231526D01*
X0058666Y0231729D01*
X0058587Y0231919D01*
X0058462Y0232082D01*
X0058299Y0232208D01*
X0058109Y0232286D01*
X0057906Y0232313D01*
X0054874Y0232313D01*
X0054874Y0230738D01*
X0054874Y0230756D02*
X0058040Y0230756D01*
X0058274Y0230833D02*
X0054874Y0230833D01*
X0054874Y0230910D02*
X0058386Y0230910D01*
X0058477Y0230988D02*
X0054874Y0230988D01*
X0054874Y0231065D02*
X0058536Y0231065D01*
X0058592Y0231142D02*
X0054874Y0231142D01*
X0054874Y0231219D02*
X0058624Y0231219D01*
X0058656Y0231297D02*
X0054874Y0231297D01*
X0054874Y0231374D02*
X0058673Y0231374D01*
X0058683Y0231451D02*
X0054874Y0231451D01*
X0054874Y0231528D02*
X0058693Y0231528D01*
X0058682Y0231606D02*
X0054874Y0231606D01*
X0054874Y0231683D02*
X0058672Y0231683D01*
X0058653Y0231760D02*
X0054874Y0231760D01*
X0054874Y0231837D02*
X0058621Y0231837D01*
X0058589Y0231915D02*
X0054874Y0231915D01*
X0054874Y0231992D02*
X0058532Y0231992D01*
X0058472Y0232069D02*
X0054874Y0232069D01*
X0054874Y0232146D02*
X0058379Y0232146D01*
X0058260Y0232224D02*
X0054874Y0232224D01*
X0054874Y0232301D02*
X0057998Y0232301D01*
X0057906Y0232707D02*
X0058109Y0232734D01*
X0058299Y0232812D01*
X0058462Y0232937D01*
X0058587Y0233100D01*
X0058666Y0233290D01*
X0058693Y0233494D01*
X0058666Y0233698D01*
X0058587Y0233888D01*
X0058462Y0234051D01*
X0058299Y0234176D01*
X0058109Y0234255D01*
X0057906Y0234281D01*
X0054874Y0234281D01*
X0054874Y0232707D01*
X0057906Y0232707D01*
X0058184Y0232764D02*
X0054874Y0232764D01*
X0054874Y0232842D02*
X0058338Y0232842D01*
X0058438Y0232919D02*
X0054874Y0232919D01*
X0054874Y0232996D02*
X0058507Y0232996D01*
X0058567Y0233073D02*
X0054874Y0233073D01*
X0054874Y0233151D02*
X0058608Y0233151D01*
X0058640Y0233228D02*
X0054874Y0233228D01*
X0054874Y0233305D02*
X0058668Y0233305D01*
X0058678Y0233382D02*
X0054874Y0233382D01*
X0054874Y0233460D02*
X0058688Y0233460D01*
X0058687Y0233537D02*
X0054874Y0233537D01*
X0054874Y0233614D02*
X0058677Y0233614D01*
X0058667Y0233691D02*
X0054874Y0233691D01*
X0054874Y0233769D02*
X0058637Y0233769D01*
X0058605Y0233846D02*
X0054874Y0233846D01*
X0054874Y0233923D02*
X0058560Y0233923D01*
X0058501Y0234000D02*
X0054874Y0234000D01*
X0054874Y0234078D02*
X0058427Y0234078D01*
X0058327Y0234155D02*
X0054874Y0234155D01*
X0054874Y0234232D02*
X0058164Y0234232D01*
X0058109Y0234702D02*
X0058299Y0234781D01*
X0058462Y0234906D01*
X0058587Y0235069D01*
X0058666Y0235259D01*
X0058693Y0235463D01*
X0058666Y0235666D01*
X0058587Y0235856D01*
X0058462Y0236019D01*
X0058299Y0236145D01*
X0058109Y0236223D01*
X0057906Y0236250D01*
X0054874Y0236250D01*
X0054874Y0234675D01*
X0057906Y0234675D01*
X0058109Y0234702D01*
X0058061Y0234696D02*
X0054874Y0234696D01*
X0054874Y0234773D02*
X0058280Y0234773D01*
X0058390Y0234850D02*
X0054874Y0234850D01*
X0054874Y0234927D02*
X0058479Y0234927D01*
X0058538Y0235005D02*
X0054874Y0235005D01*
X0054874Y0235082D02*
X0058593Y0235082D01*
X0058625Y0235159D02*
X0054874Y0235159D01*
X0054874Y0235236D02*
X0058657Y0235236D01*
X0058673Y0235314D02*
X0054874Y0235314D01*
X0054874Y0235391D02*
X0058683Y0235391D01*
X0058692Y0235468D02*
X0054874Y0235468D01*
X0054874Y0235545D02*
X0058682Y0235545D01*
X0058672Y0235623D02*
X0054874Y0235623D01*
X0054874Y0235700D02*
X0058652Y0235700D01*
X0058620Y0235777D02*
X0054874Y0235777D01*
X0054874Y0235854D02*
X0058588Y0235854D01*
X0058530Y0235932D02*
X0054874Y0235932D01*
X0054874Y0236009D02*
X0058470Y0236009D01*
X0058375Y0236086D02*
X0054874Y0236086D01*
X0054874Y0236163D02*
X0058254Y0236163D01*
X0057976Y0236241D02*
X0054874Y0236241D01*
X0054874Y0236644D02*
X0057906Y0236644D01*
X0058109Y0236671D01*
X0058299Y0236749D01*
X0058462Y0236874D01*
X0058587Y0237037D01*
X0058666Y0237227D01*
X0058693Y0237431D01*
X0058666Y0237635D01*
X0058587Y0237825D01*
X0058462Y0237988D01*
X0058299Y0238113D01*
X0058109Y0238192D01*
X0057906Y0238219D01*
X0054874Y0238219D01*
X0054874Y0236644D01*
X0054874Y0236704D02*
X0058191Y0236704D01*
X0058341Y0236781D02*
X0054874Y0236781D01*
X0054874Y0236859D02*
X0058442Y0236859D01*
X0058510Y0236936D02*
X0054874Y0236936D01*
X0054874Y0237013D02*
X0058569Y0237013D01*
X0058609Y0237090D02*
X0054874Y0237090D01*
X0054874Y0237168D02*
X0058641Y0237168D01*
X0058668Y0237245D02*
X0054874Y0237245D01*
X0054874Y0237322D02*
X0058679Y0237322D01*
X0058689Y0237399D02*
X0054874Y0237399D01*
X0054874Y0237477D02*
X0058687Y0237477D01*
X0058677Y0237554D02*
X0054874Y0237554D01*
X0054874Y0237631D02*
X0058667Y0237631D01*
X0058636Y0237708D02*
X0054874Y0237708D01*
X0054874Y0237786D02*
X0058604Y0237786D01*
X0058558Y0237863D02*
X0054874Y0237863D01*
X0054874Y0237940D02*
X0058499Y0237940D01*
X0058424Y0238017D02*
X0054874Y0238017D01*
X0054874Y0238095D02*
X0058323Y0238095D01*
X0058157Y0238172D02*
X0054874Y0238172D01*
X0058877Y0238960D02*
X0058956Y0238770D01*
X0059081Y0238607D01*
X0059244Y0238481D01*
X0059434Y0238403D01*
X0059638Y0238376D01*
X0059842Y0238403D01*
X0060031Y0238481D01*
X0060030Y0238481D02*
X0059245Y0238481D01*
X0059144Y0238558D02*
X0060132Y0238558D01*
X0060195Y0238607D02*
X0060320Y0238770D01*
X0060398Y0238960D01*
X0060425Y0239163D01*
X0060425Y0242195D01*
X0058850Y0242195D01*
X0058850Y0239163D01*
X0058877Y0238960D01*
X0058883Y0238945D02*
X0060392Y0238945D01*
X0060407Y0239022D02*
X0058869Y0239022D01*
X0058859Y0239099D02*
X0060417Y0239099D01*
X0060425Y0239176D02*
X0058850Y0239176D01*
X0058850Y0239254D02*
X0060425Y0239254D01*
X0060425Y0239331D02*
X0058850Y0239331D01*
X0058850Y0239408D02*
X0060425Y0239408D01*
X0060425Y0239485D02*
X0058850Y0239485D01*
X0058850Y0239563D02*
X0060425Y0239563D01*
X0060425Y0239640D02*
X0058850Y0239640D01*
X0058850Y0239717D02*
X0060425Y0239717D01*
X0060425Y0239794D02*
X0058850Y0239794D01*
X0058850Y0239872D02*
X0060425Y0239872D01*
X0060425Y0239949D02*
X0058850Y0239949D01*
X0058850Y0240026D02*
X0060425Y0240026D01*
X0060425Y0240103D02*
X0058850Y0240103D01*
X0058850Y0240181D02*
X0060425Y0240181D01*
X0060425Y0240258D02*
X0058850Y0240258D01*
X0058850Y0240335D02*
X0060425Y0240335D01*
X0060425Y0240412D02*
X0058850Y0240412D01*
X0058850Y0240490D02*
X0060425Y0240490D01*
X0060425Y0240567D02*
X0058850Y0240567D01*
X0058850Y0240644D02*
X0060425Y0240644D01*
X0060425Y0240721D02*
X0058850Y0240721D01*
X0058850Y0240799D02*
X0060425Y0240799D01*
X0060425Y0240876D02*
X0058850Y0240876D01*
X0058850Y0240953D02*
X0060425Y0240953D01*
X0060425Y0241030D02*
X0058850Y0241030D01*
X0058850Y0241108D02*
X0060425Y0241108D01*
X0060425Y0241185D02*
X0058850Y0241185D01*
X0058850Y0241262D02*
X0060425Y0241262D01*
X0060425Y0241339D02*
X0058850Y0241339D01*
X0058850Y0241417D02*
X0060425Y0241417D01*
X0060425Y0241494D02*
X0058850Y0241494D01*
X0058850Y0241571D02*
X0060425Y0241571D01*
X0060425Y0241648D02*
X0058850Y0241648D01*
X0058850Y0241726D02*
X0060425Y0241726D01*
X0060425Y0241803D02*
X0058850Y0241803D01*
X0058850Y0241880D02*
X0060425Y0241880D01*
X0060425Y0241957D02*
X0058850Y0241957D01*
X0058850Y0242035D02*
X0060425Y0242035D01*
X0060425Y0242112D02*
X0058850Y0242112D01*
X0058850Y0242189D02*
X0060425Y0242189D01*
X0060819Y0242189D02*
X0062394Y0242189D01*
X0062394Y0242195D02*
X0062394Y0239163D01*
X0062367Y0238960D01*
X0062288Y0238770D01*
X0062163Y0238607D01*
X0062000Y0238481D01*
X0061810Y0238403D01*
X0061606Y0238376D01*
X0061403Y0238403D01*
X0061213Y0238481D01*
X0061050Y0238607D01*
X0060924Y0238770D01*
X0060846Y0238960D01*
X0060819Y0239163D01*
X0060819Y0242195D01*
X0062394Y0242195D01*
X0062394Y0242112D02*
X0060819Y0242112D01*
X0060819Y0242035D02*
X0062394Y0242035D01*
X0062394Y0241957D02*
X0060819Y0241957D01*
X0060819Y0241880D02*
X0062394Y0241880D01*
X0062394Y0241803D02*
X0060819Y0241803D01*
X0060819Y0241726D02*
X0062394Y0241726D01*
X0062394Y0241648D02*
X0060819Y0241648D01*
X0060819Y0241571D02*
X0062394Y0241571D01*
X0062394Y0241494D02*
X0060819Y0241494D01*
X0060819Y0241417D02*
X0062394Y0241417D01*
X0062394Y0241339D02*
X0060819Y0241339D01*
X0060819Y0241262D02*
X0062394Y0241262D01*
X0062394Y0241185D02*
X0060819Y0241185D01*
X0060819Y0241108D02*
X0062394Y0241108D01*
X0062394Y0241030D02*
X0060819Y0241030D01*
X0060819Y0240953D02*
X0062394Y0240953D01*
X0062394Y0240876D02*
X0060819Y0240876D01*
X0060819Y0240799D02*
X0062394Y0240799D01*
X0062394Y0240721D02*
X0060819Y0240721D01*
X0060819Y0240644D02*
X0062394Y0240644D01*
X0062394Y0240567D02*
X0060819Y0240567D01*
X0060819Y0240490D02*
X0062394Y0240490D01*
X0062394Y0240412D02*
X0060819Y0240412D01*
X0060819Y0240335D02*
X0062394Y0240335D01*
X0062394Y0240258D02*
X0060819Y0240258D01*
X0060819Y0240181D02*
X0062394Y0240181D01*
X0062394Y0240103D02*
X0060819Y0240103D01*
X0060819Y0240026D02*
X0062394Y0240026D01*
X0062394Y0239949D02*
X0060819Y0239949D01*
X0060819Y0239872D02*
X0062394Y0239872D01*
X0062394Y0239794D02*
X0060819Y0239794D01*
X0060819Y0239717D02*
X0062394Y0239717D01*
X0062394Y0239640D02*
X0060819Y0239640D01*
X0060819Y0239563D02*
X0062394Y0239563D01*
X0062394Y0239485D02*
X0060819Y0239485D01*
X0060819Y0239408D02*
X0062394Y0239408D01*
X0062394Y0239331D02*
X0060819Y0239331D01*
X0060819Y0239254D02*
X0062394Y0239254D01*
X0062394Y0239176D02*
X0060819Y0239176D01*
X0060827Y0239099D02*
X0062385Y0239099D01*
X0062375Y0239022D02*
X0060838Y0239022D01*
X0060852Y0238945D02*
X0062361Y0238945D01*
X0062329Y0238867D02*
X0060884Y0238867D01*
X0060916Y0238790D02*
X0062297Y0238790D01*
X0062245Y0238713D02*
X0060968Y0238713D01*
X0061027Y0238635D02*
X0062185Y0238635D01*
X0062100Y0238558D02*
X0061113Y0238558D01*
X0061214Y0238481D02*
X0061999Y0238481D01*
X0061812Y0238404D02*
X0061400Y0238404D01*
X0060360Y0238867D02*
X0058915Y0238867D01*
X0058947Y0238790D02*
X0060328Y0238790D01*
X0060276Y0238713D02*
X0059000Y0238713D01*
X0059059Y0238635D02*
X0060217Y0238635D01*
X0060195Y0238607D02*
X0060031Y0238481D01*
X0059844Y0238404D02*
X0059432Y0238404D01*
X0062814Y0238960D02*
X0062893Y0238770D01*
X0063018Y0238607D01*
X0063181Y0238481D01*
X0063371Y0238403D01*
X0063575Y0238376D01*
X0063779Y0238403D01*
X0063969Y0238481D01*
X0064132Y0238607D01*
X0064257Y0238770D01*
X0064335Y0238960D01*
X0064362Y0239163D01*
X0064362Y0242195D01*
X0062787Y0242195D01*
X0062787Y0239163D01*
X0062814Y0238960D01*
X0062820Y0238945D02*
X0064329Y0238945D01*
X0064344Y0239022D02*
X0062806Y0239022D01*
X0062796Y0239099D02*
X0064354Y0239099D01*
X0064362Y0239176D02*
X0062787Y0239176D01*
X0062787Y0239254D02*
X0064362Y0239254D01*
X0064362Y0239331D02*
X0062787Y0239331D01*
X0062787Y0239408D02*
X0064362Y0239408D01*
X0064362Y0239485D02*
X0062787Y0239485D01*
X0062787Y0239563D02*
X0064362Y0239563D01*
X0064362Y0239640D02*
X0062787Y0239640D01*
X0062787Y0239717D02*
X0064362Y0239717D01*
X0064362Y0239794D02*
X0062787Y0239794D01*
X0062787Y0239872D02*
X0064362Y0239872D01*
X0064362Y0239949D02*
X0062787Y0239949D01*
X0062787Y0240026D02*
X0064362Y0240026D01*
X0064362Y0240103D02*
X0062787Y0240103D01*
X0062787Y0240181D02*
X0064362Y0240181D01*
X0064362Y0240258D02*
X0062787Y0240258D01*
X0062787Y0240335D02*
X0064362Y0240335D01*
X0064362Y0240412D02*
X0062787Y0240412D01*
X0062787Y0240490D02*
X0064362Y0240490D01*
X0064362Y0240567D02*
X0062787Y0240567D01*
X0062787Y0240644D02*
X0064362Y0240644D01*
X0064362Y0240721D02*
X0062787Y0240721D01*
X0062787Y0240799D02*
X0064362Y0240799D01*
X0064362Y0240876D02*
X0062787Y0240876D01*
X0062787Y0240953D02*
X0064362Y0240953D01*
X0064362Y0241030D02*
X0062787Y0241030D01*
X0062787Y0241108D02*
X0064362Y0241108D01*
X0064362Y0241185D02*
X0062787Y0241185D01*
X0062787Y0241262D02*
X0064362Y0241262D01*
X0064362Y0241339D02*
X0062787Y0241339D01*
X0062787Y0241417D02*
X0064362Y0241417D01*
X0064362Y0241494D02*
X0062787Y0241494D01*
X0062787Y0241571D02*
X0064362Y0241571D01*
X0064362Y0241648D02*
X0062787Y0241648D01*
X0062787Y0241726D02*
X0064362Y0241726D01*
X0064362Y0241803D02*
X0062787Y0241803D01*
X0062787Y0241880D02*
X0064362Y0241880D01*
X0064362Y0241957D02*
X0062787Y0241957D01*
X0062787Y0242035D02*
X0064362Y0242035D01*
X0064362Y0242112D02*
X0062787Y0242112D01*
X0062787Y0242189D02*
X0064362Y0242189D01*
X0064756Y0242189D02*
X0066331Y0242189D01*
X0066331Y0242195D02*
X0066331Y0239163D01*
X0066304Y0238960D01*
X0066225Y0238770D01*
X0066100Y0238607D01*
X0065937Y0238481D01*
X0065747Y0238403D01*
X0065543Y0238376D01*
X0065340Y0238403D01*
X0065150Y0238481D01*
X0064987Y0238607D01*
X0064861Y0238770D01*
X0064783Y0238960D01*
X0064756Y0239163D01*
X0064756Y0242195D01*
X0066331Y0242195D01*
X0066331Y0242112D02*
X0064756Y0242112D01*
X0064756Y0242035D02*
X0066331Y0242035D01*
X0066331Y0241957D02*
X0064756Y0241957D01*
X0064756Y0241880D02*
X0066331Y0241880D01*
X0066331Y0241803D02*
X0064756Y0241803D01*
X0064756Y0241726D02*
X0066331Y0241726D01*
X0066331Y0241648D02*
X0064756Y0241648D01*
X0064756Y0241571D02*
X0066331Y0241571D01*
X0066331Y0241494D02*
X0064756Y0241494D01*
X0064756Y0241417D02*
X0066331Y0241417D01*
X0066331Y0241339D02*
X0064756Y0241339D01*
X0064756Y0241262D02*
X0066331Y0241262D01*
X0066331Y0241185D02*
X0064756Y0241185D01*
X0064756Y0241108D02*
X0066331Y0241108D01*
X0066331Y0241030D02*
X0064756Y0241030D01*
X0064756Y0240953D02*
X0066331Y0240953D01*
X0066331Y0240876D02*
X0064756Y0240876D01*
X0064756Y0240799D02*
X0066331Y0240799D01*
X0066331Y0240721D02*
X0064756Y0240721D01*
X0064756Y0240644D02*
X0066331Y0240644D01*
X0066331Y0240567D02*
X0064756Y0240567D01*
X0064756Y0240490D02*
X0066331Y0240490D01*
X0066331Y0240412D02*
X0064756Y0240412D01*
X0064756Y0240335D02*
X0066331Y0240335D01*
X0066331Y0240258D02*
X0064756Y0240258D01*
X0064756Y0240181D02*
X0066331Y0240181D01*
X0066331Y0240103D02*
X0064756Y0240103D01*
X0064756Y0240026D02*
X0066331Y0240026D01*
X0066331Y0239949D02*
X0064756Y0239949D01*
X0064756Y0239872D02*
X0066331Y0239872D01*
X0066331Y0239794D02*
X0064756Y0239794D01*
X0064756Y0239717D02*
X0066331Y0239717D01*
X0066331Y0239640D02*
X0064756Y0239640D01*
X0064756Y0239563D02*
X0066331Y0239563D01*
X0066331Y0239485D02*
X0064756Y0239485D01*
X0064756Y0239408D02*
X0066331Y0239408D01*
X0066331Y0239331D02*
X0064756Y0239331D01*
X0064756Y0239254D02*
X0066331Y0239254D01*
X0066331Y0239176D02*
X0064756Y0239176D01*
X0064764Y0239099D02*
X0066322Y0239099D01*
X0066312Y0239022D02*
X0064775Y0239022D01*
X0064789Y0238945D02*
X0066298Y0238945D01*
X0066266Y0238867D02*
X0064821Y0238867D01*
X0064853Y0238790D02*
X0066234Y0238790D01*
X0066182Y0238713D02*
X0064905Y0238713D01*
X0064964Y0238635D02*
X0066122Y0238635D01*
X0066037Y0238558D02*
X0065050Y0238558D01*
X0065151Y0238481D02*
X0065936Y0238481D01*
X0065749Y0238404D02*
X0065337Y0238404D01*
X0064297Y0238867D02*
X0062852Y0238867D01*
X0062884Y0238790D02*
X0064265Y0238790D01*
X0064213Y0238713D02*
X0062937Y0238713D01*
X0062996Y0238635D02*
X0064154Y0238635D01*
X0064069Y0238558D02*
X0063081Y0238558D01*
X0063182Y0238481D02*
X0063967Y0238481D01*
X0063781Y0238404D02*
X0063369Y0238404D01*
X0066751Y0238960D02*
X0066830Y0238770D01*
X0066955Y0238607D01*
X0067118Y0238481D01*
X0067308Y0238403D01*
X0067512Y0238376D01*
X0067716Y0238403D01*
X0067906Y0238481D01*
X0068069Y0238607D01*
X0068194Y0238770D01*
X0068272Y0238960D01*
X0068299Y0239163D01*
X0068299Y0242195D01*
X0066724Y0242195D01*
X0066724Y0239163D01*
X0066751Y0238960D01*
X0066757Y0238945D02*
X0068266Y0238945D01*
X0068281Y0239022D02*
X0066743Y0239022D01*
X0066733Y0239099D02*
X0068291Y0239099D01*
X0068299Y0239176D02*
X0066724Y0239176D01*
X0066724Y0239254D02*
X0068299Y0239254D01*
X0068299Y0239331D02*
X0066724Y0239331D01*
X0066724Y0239408D02*
X0068299Y0239408D01*
X0068299Y0239485D02*
X0066724Y0239485D01*
X0066724Y0239563D02*
X0068299Y0239563D01*
X0068299Y0239640D02*
X0066724Y0239640D01*
X0066724Y0239717D02*
X0068299Y0239717D01*
X0068299Y0239794D02*
X0066724Y0239794D01*
X0066724Y0239872D02*
X0068299Y0239872D01*
X0068299Y0239949D02*
X0066724Y0239949D01*
X0066724Y0240026D02*
X0068299Y0240026D01*
X0068299Y0240103D02*
X0066724Y0240103D01*
X0066724Y0240181D02*
X0068299Y0240181D01*
X0068299Y0240258D02*
X0066724Y0240258D01*
X0066724Y0240335D02*
X0068299Y0240335D01*
X0068299Y0240412D02*
X0066724Y0240412D01*
X0066724Y0240490D02*
X0068299Y0240490D01*
X0068299Y0240567D02*
X0066724Y0240567D01*
X0066724Y0240644D02*
X0068299Y0240644D01*
X0068299Y0240721D02*
X0066724Y0240721D01*
X0066724Y0240799D02*
X0068299Y0240799D01*
X0068299Y0240876D02*
X0066724Y0240876D01*
X0066724Y0240953D02*
X0068299Y0240953D01*
X0068299Y0241030D02*
X0066724Y0241030D01*
X0066724Y0241108D02*
X0068299Y0241108D01*
X0068299Y0241185D02*
X0066724Y0241185D01*
X0066724Y0241262D02*
X0068299Y0241262D01*
X0068299Y0241339D02*
X0066724Y0241339D01*
X0066724Y0241417D02*
X0068299Y0241417D01*
X0068299Y0241494D02*
X0066724Y0241494D01*
X0066724Y0241571D02*
X0068299Y0241571D01*
X0068299Y0241648D02*
X0066724Y0241648D01*
X0066724Y0241726D02*
X0068299Y0241726D01*
X0068299Y0241803D02*
X0066724Y0241803D01*
X0066724Y0241880D02*
X0068299Y0241880D01*
X0068299Y0241957D02*
X0066724Y0241957D01*
X0066724Y0242035D02*
X0068299Y0242035D01*
X0068299Y0242112D02*
X0066724Y0242112D01*
X0066724Y0242189D02*
X0068299Y0242189D01*
X0068693Y0242189D02*
X0070268Y0242189D01*
X0070268Y0242195D02*
X0070268Y0239163D01*
X0070241Y0238960D01*
X0070162Y0238770D01*
X0070037Y0238607D01*
X0069874Y0238481D01*
X0069684Y0238403D01*
X0069480Y0238376D01*
X0069277Y0238403D01*
X0069087Y0238481D01*
X0068924Y0238607D01*
X0068798Y0238770D01*
X0068720Y0238960D01*
X0068693Y0239163D01*
X0068693Y0242195D01*
X0070268Y0242195D01*
X0070268Y0242112D02*
X0068693Y0242112D01*
X0068693Y0242035D02*
X0070268Y0242035D01*
X0070268Y0241957D02*
X0068693Y0241957D01*
X0068693Y0241880D02*
X0070268Y0241880D01*
X0070268Y0241803D02*
X0068693Y0241803D01*
X0068693Y0241726D02*
X0070268Y0241726D01*
X0070268Y0241648D02*
X0068693Y0241648D01*
X0068693Y0241571D02*
X0070268Y0241571D01*
X0070268Y0241494D02*
X0068693Y0241494D01*
X0068693Y0241417D02*
X0070268Y0241417D01*
X0070268Y0241339D02*
X0068693Y0241339D01*
X0068693Y0241262D02*
X0070268Y0241262D01*
X0070268Y0241185D02*
X0068693Y0241185D01*
X0068693Y0241108D02*
X0070268Y0241108D01*
X0070268Y0241030D02*
X0068693Y0241030D01*
X0068693Y0240953D02*
X0070268Y0240953D01*
X0070268Y0240876D02*
X0068693Y0240876D01*
X0068693Y0240799D02*
X0070268Y0240799D01*
X0070268Y0240721D02*
X0068693Y0240721D01*
X0068693Y0240644D02*
X0070268Y0240644D01*
X0070268Y0240567D02*
X0068693Y0240567D01*
X0068693Y0240490D02*
X0070268Y0240490D01*
X0070268Y0240412D02*
X0068693Y0240412D01*
X0068693Y0240335D02*
X0070268Y0240335D01*
X0070268Y0240258D02*
X0068693Y0240258D01*
X0068693Y0240181D02*
X0070268Y0240181D01*
X0070268Y0240103D02*
X0068693Y0240103D01*
X0068693Y0240026D02*
X0070268Y0240026D01*
X0070268Y0239949D02*
X0068693Y0239949D01*
X0068693Y0239872D02*
X0070268Y0239872D01*
X0070268Y0239794D02*
X0068693Y0239794D01*
X0068693Y0239717D02*
X0070268Y0239717D01*
X0070268Y0239640D02*
X0068693Y0239640D01*
X0068693Y0239563D02*
X0070268Y0239563D01*
X0070268Y0239485D02*
X0068693Y0239485D01*
X0068693Y0239408D02*
X0070268Y0239408D01*
X0070268Y0239331D02*
X0068693Y0239331D01*
X0068693Y0239254D02*
X0070268Y0239254D01*
X0070268Y0239176D02*
X0068693Y0239176D01*
X0068701Y0239099D02*
X0070259Y0239099D01*
X0070249Y0239022D02*
X0068712Y0239022D01*
X0068726Y0238945D02*
X0070235Y0238945D01*
X0070203Y0238867D02*
X0068758Y0238867D01*
X0068790Y0238790D02*
X0070171Y0238790D01*
X0070119Y0238713D02*
X0068842Y0238713D01*
X0068901Y0238635D02*
X0070059Y0238635D01*
X0069974Y0238558D02*
X0068987Y0238558D01*
X0069088Y0238481D02*
X0069873Y0238481D01*
X0069686Y0238404D02*
X0069274Y0238404D01*
X0068234Y0238867D02*
X0066789Y0238867D01*
X0066821Y0238790D02*
X0068202Y0238790D01*
X0068150Y0238713D02*
X0066874Y0238713D01*
X0066933Y0238635D02*
X0068091Y0238635D01*
X0068006Y0238558D02*
X0067018Y0238558D01*
X0067119Y0238481D02*
X0067904Y0238481D01*
X0067718Y0238404D02*
X0067306Y0238404D01*
X0070688Y0238960D02*
X0070767Y0238770D01*
X0070892Y0238607D01*
X0071055Y0238481D01*
X0071245Y0238403D01*
X0071449Y0238376D01*
X0071653Y0238403D01*
X0071843Y0238481D01*
X0072006Y0238607D01*
X0072131Y0238770D01*
X0072209Y0238960D01*
X0072236Y0239163D01*
X0072236Y0242195D01*
X0070661Y0242195D01*
X0070661Y0239163D01*
X0070688Y0238960D01*
X0070695Y0238945D02*
X0072203Y0238945D01*
X0072218Y0239022D02*
X0070680Y0239022D01*
X0070670Y0239099D02*
X0072228Y0239099D01*
X0072236Y0239176D02*
X0070661Y0239176D01*
X0070661Y0239254D02*
X0072236Y0239254D01*
X0072236Y0239331D02*
X0070661Y0239331D01*
X0070661Y0239408D02*
X0072236Y0239408D01*
X0072236Y0239485D02*
X0070661Y0239485D01*
X0070661Y0239563D02*
X0072236Y0239563D01*
X0072236Y0239640D02*
X0070661Y0239640D01*
X0070661Y0239717D02*
X0072236Y0239717D01*
X0072236Y0239794D02*
X0070661Y0239794D01*
X0070661Y0239872D02*
X0072236Y0239872D01*
X0072236Y0239949D02*
X0070661Y0239949D01*
X0070661Y0240026D02*
X0072236Y0240026D01*
X0072236Y0240103D02*
X0070661Y0240103D01*
X0070661Y0240181D02*
X0072236Y0240181D01*
X0072236Y0240258D02*
X0070661Y0240258D01*
X0070661Y0240335D02*
X0072236Y0240335D01*
X0072236Y0240412D02*
X0070661Y0240412D01*
X0070661Y0240490D02*
X0072236Y0240490D01*
X0072236Y0240567D02*
X0070661Y0240567D01*
X0070661Y0240644D02*
X0072236Y0240644D01*
X0072236Y0240721D02*
X0070661Y0240721D01*
X0070661Y0240799D02*
X0072236Y0240799D01*
X0072236Y0240876D02*
X0070661Y0240876D01*
X0070661Y0240953D02*
X0072236Y0240953D01*
X0072236Y0241030D02*
X0070661Y0241030D01*
X0070661Y0241108D02*
X0072236Y0241108D01*
X0072236Y0241185D02*
X0070661Y0241185D01*
X0070661Y0241262D02*
X0072236Y0241262D01*
X0072236Y0241339D02*
X0070661Y0241339D01*
X0070661Y0241417D02*
X0072236Y0241417D01*
X0072236Y0241494D02*
X0070661Y0241494D01*
X0070661Y0241571D02*
X0072236Y0241571D01*
X0072236Y0241648D02*
X0070661Y0241648D01*
X0070661Y0241726D02*
X0072236Y0241726D01*
X0072236Y0241803D02*
X0070661Y0241803D01*
X0070661Y0241880D02*
X0072236Y0241880D01*
X0072236Y0241957D02*
X0070661Y0241957D01*
X0070661Y0242035D02*
X0072236Y0242035D01*
X0072236Y0242112D02*
X0070661Y0242112D01*
X0070661Y0242189D02*
X0072236Y0242189D01*
X0072630Y0242189D02*
X0074205Y0242189D01*
X0074205Y0242195D02*
X0074205Y0239163D01*
X0074178Y0238960D01*
X0074099Y0238770D01*
X0073974Y0238607D01*
X0073811Y0238481D01*
X0073621Y0238403D01*
X0073417Y0238376D01*
X0073214Y0238403D01*
X0073024Y0238481D01*
X0072861Y0238607D01*
X0072735Y0238770D01*
X0072657Y0238960D01*
X0072630Y0239163D01*
X0072630Y0242195D01*
X0074205Y0242195D01*
X0074205Y0242112D02*
X0072630Y0242112D01*
X0072630Y0242035D02*
X0074205Y0242035D01*
X0074205Y0241957D02*
X0072630Y0241957D01*
X0072630Y0241880D02*
X0074205Y0241880D01*
X0074205Y0241803D02*
X0072630Y0241803D01*
X0072630Y0241726D02*
X0074205Y0241726D01*
X0074205Y0241648D02*
X0072630Y0241648D01*
X0072630Y0241571D02*
X0074205Y0241571D01*
X0074205Y0241494D02*
X0072630Y0241494D01*
X0072630Y0241417D02*
X0074205Y0241417D01*
X0074205Y0241339D02*
X0072630Y0241339D01*
X0072630Y0241262D02*
X0074205Y0241262D01*
X0074205Y0241185D02*
X0072630Y0241185D01*
X0072630Y0241108D02*
X0074205Y0241108D01*
X0074205Y0241030D02*
X0072630Y0241030D01*
X0072630Y0240953D02*
X0074205Y0240953D01*
X0074205Y0240876D02*
X0072630Y0240876D01*
X0072630Y0240799D02*
X0074205Y0240799D01*
X0074205Y0240721D02*
X0072630Y0240721D01*
X0072630Y0240644D02*
X0074205Y0240644D01*
X0074205Y0240567D02*
X0072630Y0240567D01*
X0072630Y0240490D02*
X0074205Y0240490D01*
X0074205Y0240412D02*
X0072630Y0240412D01*
X0072630Y0240335D02*
X0074205Y0240335D01*
X0074205Y0240258D02*
X0072630Y0240258D01*
X0072630Y0240181D02*
X0074205Y0240181D01*
X0074205Y0240103D02*
X0072630Y0240103D01*
X0072630Y0240026D02*
X0074205Y0240026D01*
X0074205Y0239949D02*
X0072630Y0239949D01*
X0072630Y0239872D02*
X0074205Y0239872D01*
X0074205Y0239794D02*
X0072630Y0239794D01*
X0072630Y0239717D02*
X0074205Y0239717D01*
X0074205Y0239640D02*
X0072630Y0239640D01*
X0072630Y0239563D02*
X0074205Y0239563D01*
X0074205Y0239485D02*
X0072630Y0239485D01*
X0072630Y0239408D02*
X0074205Y0239408D01*
X0074205Y0239331D02*
X0072630Y0239331D01*
X0072630Y0239254D02*
X0074205Y0239254D01*
X0074205Y0239176D02*
X0072630Y0239176D01*
X0072638Y0239099D02*
X0074196Y0239099D01*
X0074186Y0239022D02*
X0072649Y0239022D01*
X0072663Y0238945D02*
X0074172Y0238945D01*
X0074140Y0238867D02*
X0072695Y0238867D01*
X0072727Y0238790D02*
X0074108Y0238790D01*
X0074056Y0238713D02*
X0072779Y0238713D01*
X0072838Y0238635D02*
X0073996Y0238635D01*
X0073911Y0238558D02*
X0072924Y0238558D01*
X0073025Y0238481D02*
X0073810Y0238481D01*
X0073623Y0238404D02*
X0073211Y0238404D01*
X0072171Y0238867D02*
X0070726Y0238867D01*
X0070758Y0238790D02*
X0072139Y0238790D01*
X0072087Y0238713D02*
X0070811Y0238713D01*
X0070870Y0238635D02*
X0072028Y0238635D01*
X0071943Y0238558D02*
X0070955Y0238558D01*
X0071056Y0238481D02*
X0071841Y0238481D01*
X0071655Y0238404D02*
X0071243Y0238404D01*
X0074625Y0238960D02*
X0074704Y0238770D01*
X0074829Y0238607D01*
X0074992Y0238481D01*
X0075182Y0238403D01*
X0075386Y0238376D01*
X0075590Y0238403D01*
X0075780Y0238481D01*
X0075943Y0238607D01*
X0076068Y0238770D01*
X0076146Y0238960D01*
X0076173Y0239163D01*
X0076173Y0242195D01*
X0074598Y0242195D01*
X0074598Y0239163D01*
X0074625Y0238960D01*
X0074632Y0238945D02*
X0076140Y0238945D01*
X0076155Y0239022D02*
X0074617Y0239022D01*
X0074607Y0239099D02*
X0076165Y0239099D01*
X0076173Y0239176D02*
X0074598Y0239176D01*
X0074598Y0239254D02*
X0076173Y0239254D01*
X0076173Y0239331D02*
X0074598Y0239331D01*
X0074598Y0239408D02*
X0076173Y0239408D01*
X0076173Y0239485D02*
X0074598Y0239485D01*
X0074598Y0239563D02*
X0076173Y0239563D01*
X0076173Y0239640D02*
X0074598Y0239640D01*
X0074598Y0239717D02*
X0076173Y0239717D01*
X0076173Y0239794D02*
X0074598Y0239794D01*
X0074598Y0239872D02*
X0076173Y0239872D01*
X0076173Y0239949D02*
X0074598Y0239949D01*
X0074598Y0240026D02*
X0076173Y0240026D01*
X0076173Y0240103D02*
X0074598Y0240103D01*
X0074598Y0240181D02*
X0076173Y0240181D01*
X0076173Y0240258D02*
X0074598Y0240258D01*
X0074598Y0240335D02*
X0076173Y0240335D01*
X0076173Y0240412D02*
X0074598Y0240412D01*
X0074598Y0240490D02*
X0076173Y0240490D01*
X0076173Y0240567D02*
X0074598Y0240567D01*
X0074598Y0240644D02*
X0076173Y0240644D01*
X0076173Y0240721D02*
X0074598Y0240721D01*
X0074598Y0240799D02*
X0076173Y0240799D01*
X0076173Y0240876D02*
X0074598Y0240876D01*
X0074598Y0240953D02*
X0076173Y0240953D01*
X0076173Y0241030D02*
X0074598Y0241030D01*
X0074598Y0241108D02*
X0076173Y0241108D01*
X0076173Y0241185D02*
X0074598Y0241185D01*
X0074598Y0241262D02*
X0076173Y0241262D01*
X0076173Y0241339D02*
X0074598Y0241339D01*
X0074598Y0241417D02*
X0076173Y0241417D01*
X0076173Y0241494D02*
X0074598Y0241494D01*
X0074598Y0241571D02*
X0076173Y0241571D01*
X0076173Y0241648D02*
X0074598Y0241648D01*
X0074598Y0241726D02*
X0076173Y0241726D01*
X0076173Y0241803D02*
X0074598Y0241803D01*
X0074598Y0241880D02*
X0076173Y0241880D01*
X0076173Y0241957D02*
X0074598Y0241957D01*
X0074598Y0242035D02*
X0076173Y0242035D01*
X0076173Y0242112D02*
X0074598Y0242112D01*
X0074598Y0242189D02*
X0076173Y0242189D01*
X0076567Y0242189D02*
X0078142Y0242189D01*
X0078142Y0242195D02*
X0078142Y0239163D01*
X0078115Y0238960D01*
X0078036Y0238770D01*
X0077911Y0238607D01*
X0077748Y0238481D01*
X0077558Y0238403D01*
X0077354Y0238376D01*
X0077151Y0238403D01*
X0076961Y0238481D01*
X0076798Y0238607D01*
X0076672Y0238770D01*
X0076594Y0238960D01*
X0076567Y0239163D01*
X0076567Y0242195D01*
X0078142Y0242195D01*
X0078142Y0242112D02*
X0076567Y0242112D01*
X0076567Y0242035D02*
X0078142Y0242035D01*
X0078142Y0241957D02*
X0076567Y0241957D01*
X0076567Y0241880D02*
X0078142Y0241880D01*
X0078142Y0241803D02*
X0076567Y0241803D01*
X0076567Y0241726D02*
X0078142Y0241726D01*
X0078142Y0241648D02*
X0076567Y0241648D01*
X0076567Y0241571D02*
X0078142Y0241571D01*
X0078142Y0241494D02*
X0076567Y0241494D01*
X0076567Y0241417D02*
X0078142Y0241417D01*
X0078142Y0241339D02*
X0076567Y0241339D01*
X0076567Y0241262D02*
X0078142Y0241262D01*
X0078142Y0241185D02*
X0076567Y0241185D01*
X0076567Y0241108D02*
X0078142Y0241108D01*
X0078142Y0241030D02*
X0076567Y0241030D01*
X0076567Y0240953D02*
X0078142Y0240953D01*
X0078142Y0240876D02*
X0076567Y0240876D01*
X0076567Y0240799D02*
X0078142Y0240799D01*
X0078142Y0240721D02*
X0076567Y0240721D01*
X0076567Y0240644D02*
X0078142Y0240644D01*
X0078142Y0240567D02*
X0076567Y0240567D01*
X0076567Y0240490D02*
X0078142Y0240490D01*
X0078142Y0240412D02*
X0076567Y0240412D01*
X0076567Y0240335D02*
X0078142Y0240335D01*
X0078142Y0240258D02*
X0076567Y0240258D01*
X0076567Y0240181D02*
X0078142Y0240181D01*
X0078142Y0240103D02*
X0076567Y0240103D01*
X0076567Y0240026D02*
X0078142Y0240026D01*
X0078142Y0239949D02*
X0076567Y0239949D01*
X0076567Y0239872D02*
X0078142Y0239872D01*
X0078142Y0239794D02*
X0076567Y0239794D01*
X0076567Y0239717D02*
X0078142Y0239717D01*
X0078142Y0239640D02*
X0076567Y0239640D01*
X0076567Y0239563D02*
X0078142Y0239563D01*
X0078142Y0239485D02*
X0076567Y0239485D01*
X0076567Y0239408D02*
X0078142Y0239408D01*
X0078142Y0239331D02*
X0076567Y0239331D01*
X0076567Y0239254D02*
X0078142Y0239254D01*
X0078142Y0239176D02*
X0076567Y0239176D01*
X0076575Y0239099D02*
X0078133Y0239099D01*
X0078123Y0239022D02*
X0076586Y0239022D01*
X0076600Y0238945D02*
X0078109Y0238945D01*
X0078077Y0238867D02*
X0076632Y0238867D01*
X0076664Y0238790D02*
X0078045Y0238790D01*
X0077993Y0238713D02*
X0076716Y0238713D01*
X0076775Y0238635D02*
X0077933Y0238635D01*
X0077848Y0238558D02*
X0076861Y0238558D01*
X0076962Y0238481D02*
X0077747Y0238481D01*
X0077560Y0238404D02*
X0077148Y0238404D01*
X0076108Y0238867D02*
X0074663Y0238867D01*
X0074695Y0238790D02*
X0076076Y0238790D01*
X0076024Y0238713D02*
X0074748Y0238713D01*
X0074807Y0238635D02*
X0075965Y0238635D01*
X0075880Y0238558D02*
X0074892Y0238558D01*
X0074993Y0238481D02*
X0075778Y0238481D01*
X0075592Y0238404D02*
X0075180Y0238404D01*
X0078562Y0238960D02*
X0078641Y0238770D01*
X0078766Y0238607D01*
X0078929Y0238481D01*
X0079119Y0238403D01*
X0079323Y0238376D01*
X0079527Y0238403D01*
X0079717Y0238481D01*
X0079880Y0238607D01*
X0080005Y0238770D01*
X0080083Y0238960D01*
X0080110Y0239163D01*
X0080110Y0242195D01*
X0078535Y0242195D01*
X0078535Y0239163D01*
X0078562Y0238960D01*
X0078569Y0238945D02*
X0080077Y0238945D01*
X0080092Y0239022D02*
X0078554Y0239022D01*
X0078544Y0239099D02*
X0080102Y0239099D01*
X0080110Y0239176D02*
X0078535Y0239176D01*
X0078535Y0239254D02*
X0080110Y0239254D01*
X0080110Y0239331D02*
X0078535Y0239331D01*
X0078535Y0239408D02*
X0080110Y0239408D01*
X0080110Y0239485D02*
X0078535Y0239485D01*
X0078535Y0239563D02*
X0080110Y0239563D01*
X0080110Y0239640D02*
X0078535Y0239640D01*
X0078535Y0239717D02*
X0080110Y0239717D01*
X0080110Y0239794D02*
X0078535Y0239794D01*
X0078535Y0239872D02*
X0080110Y0239872D01*
X0080110Y0239949D02*
X0078535Y0239949D01*
X0078535Y0240026D02*
X0080110Y0240026D01*
X0080110Y0240103D02*
X0078535Y0240103D01*
X0078535Y0240181D02*
X0080110Y0240181D01*
X0080110Y0240258D02*
X0078535Y0240258D01*
X0078535Y0240335D02*
X0080110Y0240335D01*
X0080110Y0240412D02*
X0078535Y0240412D01*
X0078535Y0240490D02*
X0080110Y0240490D01*
X0080110Y0240567D02*
X0078535Y0240567D01*
X0078535Y0240644D02*
X0080110Y0240644D01*
X0080110Y0240721D02*
X0078535Y0240721D01*
X0078535Y0240799D02*
X0080110Y0240799D01*
X0080110Y0240876D02*
X0078535Y0240876D01*
X0078535Y0240953D02*
X0080110Y0240953D01*
X0080110Y0241030D02*
X0078535Y0241030D01*
X0078535Y0241108D02*
X0080110Y0241108D01*
X0080110Y0241185D02*
X0078535Y0241185D01*
X0078535Y0241262D02*
X0080110Y0241262D01*
X0080110Y0241339D02*
X0078535Y0241339D01*
X0078535Y0241417D02*
X0080110Y0241417D01*
X0080110Y0241494D02*
X0078535Y0241494D01*
X0078535Y0241571D02*
X0080110Y0241571D01*
X0080110Y0241648D02*
X0078535Y0241648D01*
X0078535Y0241726D02*
X0080110Y0241726D01*
X0080110Y0241803D02*
X0078535Y0241803D01*
X0078535Y0241880D02*
X0080110Y0241880D01*
X0080110Y0241957D02*
X0078535Y0241957D01*
X0078535Y0242035D02*
X0080110Y0242035D01*
X0080110Y0242112D02*
X0078535Y0242112D01*
X0078535Y0242189D02*
X0080110Y0242189D01*
X0080504Y0242189D02*
X0082079Y0242189D01*
X0082079Y0242195D02*
X0082079Y0239163D01*
X0082052Y0238960D01*
X0081973Y0238770D01*
X0081848Y0238607D01*
X0081685Y0238481D01*
X0081495Y0238403D01*
X0081291Y0238376D01*
X0081088Y0238403D01*
X0080898Y0238481D01*
X0080735Y0238607D01*
X0080609Y0238770D01*
X0080531Y0238960D01*
X0080504Y0239163D01*
X0080504Y0242195D01*
X0082079Y0242195D01*
X0082079Y0242112D02*
X0080504Y0242112D01*
X0080504Y0242035D02*
X0082079Y0242035D01*
X0082079Y0241957D02*
X0080504Y0241957D01*
X0080504Y0241880D02*
X0082079Y0241880D01*
X0082079Y0241803D02*
X0080504Y0241803D01*
X0080504Y0241726D02*
X0082079Y0241726D01*
X0082079Y0241648D02*
X0080504Y0241648D01*
X0080504Y0241571D02*
X0082079Y0241571D01*
X0082079Y0241494D02*
X0080504Y0241494D01*
X0080504Y0241417D02*
X0082079Y0241417D01*
X0082079Y0241339D02*
X0080504Y0241339D01*
X0080504Y0241262D02*
X0082079Y0241262D01*
X0082079Y0241185D02*
X0080504Y0241185D01*
X0080504Y0241108D02*
X0082079Y0241108D01*
X0082079Y0241030D02*
X0080504Y0241030D01*
X0080504Y0240953D02*
X0082079Y0240953D01*
X0082079Y0240876D02*
X0080504Y0240876D01*
X0080504Y0240799D02*
X0082079Y0240799D01*
X0082079Y0240721D02*
X0080504Y0240721D01*
X0080504Y0240644D02*
X0082079Y0240644D01*
X0082079Y0240567D02*
X0080504Y0240567D01*
X0080504Y0240490D02*
X0082079Y0240490D01*
X0082079Y0240412D02*
X0080504Y0240412D01*
X0080504Y0240335D02*
X0082079Y0240335D01*
X0082079Y0240258D02*
X0080504Y0240258D01*
X0080504Y0240181D02*
X0082079Y0240181D01*
X0082079Y0240103D02*
X0080504Y0240103D01*
X0080504Y0240026D02*
X0082079Y0240026D01*
X0082079Y0239949D02*
X0080504Y0239949D01*
X0080504Y0239872D02*
X0082079Y0239872D01*
X0082079Y0239794D02*
X0080504Y0239794D01*
X0080504Y0239717D02*
X0082079Y0239717D01*
X0082079Y0239640D02*
X0080504Y0239640D01*
X0080504Y0239563D02*
X0082079Y0239563D01*
X0082079Y0239485D02*
X0080504Y0239485D01*
X0080504Y0239408D02*
X0082079Y0239408D01*
X0082079Y0239331D02*
X0080504Y0239331D01*
X0080504Y0239254D02*
X0082079Y0239254D01*
X0082079Y0239176D02*
X0080504Y0239176D01*
X0080512Y0239099D02*
X0082070Y0239099D01*
X0082060Y0239022D02*
X0080523Y0239022D01*
X0080537Y0238945D02*
X0082046Y0238945D01*
X0082014Y0238867D02*
X0080569Y0238867D01*
X0080601Y0238790D02*
X0081982Y0238790D01*
X0081930Y0238713D02*
X0080653Y0238713D01*
X0080712Y0238635D02*
X0081870Y0238635D01*
X0081785Y0238558D02*
X0080798Y0238558D01*
X0080899Y0238481D02*
X0081684Y0238481D01*
X0081497Y0238404D02*
X0081085Y0238404D01*
X0080045Y0238867D02*
X0078601Y0238867D01*
X0078633Y0238790D02*
X0080013Y0238790D01*
X0079961Y0238713D02*
X0078685Y0238713D01*
X0078744Y0238635D02*
X0079902Y0238635D01*
X0079817Y0238558D02*
X0078829Y0238558D01*
X0078930Y0238481D02*
X0079715Y0238481D01*
X0079529Y0238404D02*
X0079117Y0238404D01*
X0082499Y0238960D02*
X0082578Y0238770D01*
X0082703Y0238607D01*
X0082866Y0238481D01*
X0083056Y0238403D01*
X0083260Y0238376D01*
X0083464Y0238403D01*
X0083654Y0238481D01*
X0083817Y0238607D01*
X0083942Y0238770D01*
X0084020Y0238960D01*
X0084047Y0239163D01*
X0084047Y0242195D01*
X0082472Y0242195D01*
X0082472Y0239163D01*
X0082499Y0238960D01*
X0082506Y0238945D02*
X0084014Y0238945D01*
X0084029Y0239022D02*
X0082491Y0239022D01*
X0082481Y0239099D02*
X0084039Y0239099D01*
X0084047Y0239176D02*
X0082472Y0239176D01*
X0082472Y0239254D02*
X0084047Y0239254D01*
X0084047Y0239331D02*
X0082472Y0239331D01*
X0082472Y0239408D02*
X0084047Y0239408D01*
X0084047Y0239485D02*
X0082472Y0239485D01*
X0082472Y0239563D02*
X0084047Y0239563D01*
X0084047Y0239640D02*
X0082472Y0239640D01*
X0082472Y0239717D02*
X0084047Y0239717D01*
X0084047Y0239794D02*
X0082472Y0239794D01*
X0082472Y0239872D02*
X0084047Y0239872D01*
X0084047Y0239949D02*
X0082472Y0239949D01*
X0082472Y0240026D02*
X0084047Y0240026D01*
X0084047Y0240103D02*
X0082472Y0240103D01*
X0082472Y0240181D02*
X0084047Y0240181D01*
X0084047Y0240258D02*
X0082472Y0240258D01*
X0082472Y0240335D02*
X0084047Y0240335D01*
X0084047Y0240412D02*
X0082472Y0240412D01*
X0082472Y0240490D02*
X0084047Y0240490D01*
X0084047Y0240567D02*
X0082472Y0240567D01*
X0082472Y0240644D02*
X0084047Y0240644D01*
X0084047Y0240721D02*
X0082472Y0240721D01*
X0082472Y0240799D02*
X0084047Y0240799D01*
X0084047Y0240876D02*
X0082472Y0240876D01*
X0082472Y0240953D02*
X0084047Y0240953D01*
X0084047Y0241030D02*
X0082472Y0241030D01*
X0082472Y0241108D02*
X0084047Y0241108D01*
X0084047Y0241185D02*
X0082472Y0241185D01*
X0082472Y0241262D02*
X0084047Y0241262D01*
X0084047Y0241339D02*
X0082472Y0241339D01*
X0082472Y0241417D02*
X0084047Y0241417D01*
X0084047Y0241494D02*
X0082472Y0241494D01*
X0082472Y0241571D02*
X0084047Y0241571D01*
X0084047Y0241648D02*
X0082472Y0241648D01*
X0082472Y0241726D02*
X0084047Y0241726D01*
X0084047Y0241803D02*
X0082472Y0241803D01*
X0082472Y0241880D02*
X0084047Y0241880D01*
X0084047Y0241957D02*
X0082472Y0241957D01*
X0082472Y0242035D02*
X0084047Y0242035D01*
X0084047Y0242112D02*
X0082472Y0242112D01*
X0082472Y0242189D02*
X0084047Y0242189D01*
X0084441Y0242189D02*
X0086016Y0242189D01*
X0086016Y0242195D02*
X0086016Y0239163D01*
X0085989Y0238960D01*
X0085910Y0238770D01*
X0085785Y0238607D01*
X0085622Y0238481D01*
X0085432Y0238403D01*
X0085228Y0238376D01*
X0085025Y0238403D01*
X0084835Y0238481D01*
X0084672Y0238607D01*
X0084546Y0238770D01*
X0084468Y0238960D01*
X0084441Y0239163D01*
X0084441Y0242195D01*
X0086016Y0242195D01*
X0086016Y0242112D02*
X0084441Y0242112D01*
X0084441Y0242035D02*
X0086016Y0242035D01*
X0086016Y0241957D02*
X0084441Y0241957D01*
X0084441Y0241880D02*
X0086016Y0241880D01*
X0086016Y0241803D02*
X0084441Y0241803D01*
X0084441Y0241726D02*
X0086016Y0241726D01*
X0086016Y0241648D02*
X0084441Y0241648D01*
X0084441Y0241571D02*
X0086016Y0241571D01*
X0086016Y0241494D02*
X0084441Y0241494D01*
X0084441Y0241417D02*
X0086016Y0241417D01*
X0086016Y0241339D02*
X0084441Y0241339D01*
X0084441Y0241262D02*
X0086016Y0241262D01*
X0086016Y0241185D02*
X0084441Y0241185D01*
X0084441Y0241108D02*
X0086016Y0241108D01*
X0086016Y0241030D02*
X0084441Y0241030D01*
X0084441Y0240953D02*
X0086016Y0240953D01*
X0086016Y0240876D02*
X0084441Y0240876D01*
X0084441Y0240799D02*
X0086016Y0240799D01*
X0086016Y0240721D02*
X0084441Y0240721D01*
X0084441Y0240644D02*
X0086016Y0240644D01*
X0086016Y0240567D02*
X0084441Y0240567D01*
X0084441Y0240490D02*
X0086016Y0240490D01*
X0086016Y0240412D02*
X0084441Y0240412D01*
X0084441Y0240335D02*
X0086016Y0240335D01*
X0086016Y0240258D02*
X0084441Y0240258D01*
X0084441Y0240181D02*
X0086016Y0240181D01*
X0086016Y0240103D02*
X0084441Y0240103D01*
X0084441Y0240026D02*
X0086016Y0240026D01*
X0086016Y0239949D02*
X0084441Y0239949D01*
X0084441Y0239872D02*
X0086016Y0239872D01*
X0086016Y0239794D02*
X0084441Y0239794D01*
X0084441Y0239717D02*
X0086016Y0239717D01*
X0086016Y0239640D02*
X0084441Y0239640D01*
X0084441Y0239563D02*
X0086016Y0239563D01*
X0086016Y0239485D02*
X0084441Y0239485D01*
X0084441Y0239408D02*
X0086016Y0239408D01*
X0086016Y0239331D02*
X0084441Y0239331D01*
X0084441Y0239254D02*
X0086016Y0239254D01*
X0086016Y0239176D02*
X0084441Y0239176D01*
X0084449Y0239099D02*
X0086007Y0239099D01*
X0085997Y0239022D02*
X0084460Y0239022D01*
X0084474Y0238945D02*
X0085983Y0238945D01*
X0085951Y0238867D02*
X0084506Y0238867D01*
X0084538Y0238790D02*
X0085919Y0238790D01*
X0085867Y0238713D02*
X0084590Y0238713D01*
X0084649Y0238635D02*
X0085807Y0238635D01*
X0085722Y0238558D02*
X0084735Y0238558D01*
X0084836Y0238481D02*
X0085621Y0238481D01*
X0085434Y0238404D02*
X0085022Y0238404D01*
X0083982Y0238867D02*
X0082538Y0238867D01*
X0082570Y0238790D02*
X0083950Y0238790D01*
X0083898Y0238713D02*
X0082622Y0238713D01*
X0082681Y0238635D02*
X0083839Y0238635D01*
X0083754Y0238558D02*
X0082766Y0238558D01*
X0082867Y0238481D02*
X0083652Y0238481D01*
X0083466Y0238404D02*
X0083054Y0238404D01*
X0086436Y0238960D02*
X0086515Y0238770D01*
X0086640Y0238607D01*
X0086803Y0238481D01*
X0086993Y0238403D01*
X0087197Y0238376D01*
X0087401Y0238403D01*
X0087591Y0238481D01*
X0087754Y0238607D01*
X0087879Y0238770D01*
X0087957Y0238960D01*
X0087984Y0239163D01*
X0087984Y0242195D01*
X0086409Y0242195D01*
X0086409Y0239163D01*
X0086436Y0238960D01*
X0086443Y0238945D02*
X0087951Y0238945D01*
X0087966Y0239022D02*
X0086428Y0239022D01*
X0086418Y0239099D02*
X0087976Y0239099D01*
X0087984Y0239176D02*
X0086409Y0239176D01*
X0086409Y0239254D02*
X0087984Y0239254D01*
X0087984Y0239331D02*
X0086409Y0239331D01*
X0086409Y0239408D02*
X0087984Y0239408D01*
X0087984Y0239485D02*
X0086409Y0239485D01*
X0086409Y0239563D02*
X0087984Y0239563D01*
X0087984Y0239640D02*
X0086409Y0239640D01*
X0086409Y0239717D02*
X0087984Y0239717D01*
X0087984Y0239794D02*
X0086409Y0239794D01*
X0086409Y0239872D02*
X0087984Y0239872D01*
X0087984Y0239949D02*
X0086409Y0239949D01*
X0086409Y0240026D02*
X0087984Y0240026D01*
X0087984Y0240103D02*
X0086409Y0240103D01*
X0086409Y0240181D02*
X0087984Y0240181D01*
X0087984Y0240258D02*
X0086409Y0240258D01*
X0086409Y0240335D02*
X0087984Y0240335D01*
X0087984Y0240412D02*
X0086409Y0240412D01*
X0086409Y0240490D02*
X0087984Y0240490D01*
X0087984Y0240567D02*
X0086409Y0240567D01*
X0086409Y0240644D02*
X0087984Y0240644D01*
X0087984Y0240721D02*
X0086409Y0240721D01*
X0086409Y0240799D02*
X0087984Y0240799D01*
X0087984Y0240876D02*
X0086409Y0240876D01*
X0086409Y0240953D02*
X0087984Y0240953D01*
X0087984Y0241030D02*
X0086409Y0241030D01*
X0086409Y0241108D02*
X0087984Y0241108D01*
X0087984Y0241185D02*
X0086409Y0241185D01*
X0086409Y0241262D02*
X0087984Y0241262D01*
X0087984Y0241339D02*
X0086409Y0241339D01*
X0086409Y0241417D02*
X0087984Y0241417D01*
X0087984Y0241494D02*
X0086409Y0241494D01*
X0086409Y0241571D02*
X0087984Y0241571D01*
X0087984Y0241648D02*
X0086409Y0241648D01*
X0086409Y0241726D02*
X0087984Y0241726D01*
X0087984Y0241803D02*
X0086409Y0241803D01*
X0086409Y0241880D02*
X0087984Y0241880D01*
X0087984Y0241957D02*
X0086409Y0241957D01*
X0086409Y0242035D02*
X0087984Y0242035D01*
X0087984Y0242112D02*
X0086409Y0242112D01*
X0086409Y0242189D02*
X0087984Y0242189D01*
X0088378Y0242189D02*
X0089953Y0242189D01*
X0089953Y0242195D02*
X0089953Y0239163D01*
X0089926Y0238960D01*
X0089847Y0238770D01*
X0089722Y0238607D01*
X0089559Y0238481D01*
X0089369Y0238403D01*
X0089165Y0238376D01*
X0088962Y0238403D01*
X0088772Y0238481D01*
X0088609Y0238607D01*
X0088483Y0238770D01*
X0088405Y0238960D01*
X0088378Y0239163D01*
X0088378Y0242195D01*
X0089953Y0242195D01*
X0089953Y0242112D02*
X0088378Y0242112D01*
X0088378Y0242035D02*
X0089953Y0242035D01*
X0089953Y0241957D02*
X0088378Y0241957D01*
X0088378Y0241880D02*
X0089953Y0241880D01*
X0089953Y0241803D02*
X0088378Y0241803D01*
X0088378Y0241726D02*
X0089953Y0241726D01*
X0089953Y0241648D02*
X0088378Y0241648D01*
X0088378Y0241571D02*
X0089953Y0241571D01*
X0089953Y0241494D02*
X0088378Y0241494D01*
X0088378Y0241417D02*
X0089953Y0241417D01*
X0089953Y0241339D02*
X0088378Y0241339D01*
X0088378Y0241262D02*
X0089953Y0241262D01*
X0089953Y0241185D02*
X0088378Y0241185D01*
X0088378Y0241108D02*
X0089953Y0241108D01*
X0089953Y0241030D02*
X0088378Y0241030D01*
X0088378Y0240953D02*
X0089953Y0240953D01*
X0089953Y0240876D02*
X0088378Y0240876D01*
X0088378Y0240799D02*
X0089953Y0240799D01*
X0089953Y0240721D02*
X0088378Y0240721D01*
X0088378Y0240644D02*
X0089953Y0240644D01*
X0089953Y0240567D02*
X0088378Y0240567D01*
X0088378Y0240490D02*
X0089953Y0240490D01*
X0089953Y0240412D02*
X0088378Y0240412D01*
X0088378Y0240335D02*
X0089953Y0240335D01*
X0089953Y0240258D02*
X0088378Y0240258D01*
X0088378Y0240181D02*
X0089953Y0240181D01*
X0089953Y0240103D02*
X0088378Y0240103D01*
X0088378Y0240026D02*
X0089953Y0240026D01*
X0089953Y0239949D02*
X0088378Y0239949D01*
X0088378Y0239872D02*
X0089953Y0239872D01*
X0089953Y0239794D02*
X0088378Y0239794D01*
X0088378Y0239717D02*
X0089953Y0239717D01*
X0089953Y0239640D02*
X0088378Y0239640D01*
X0088378Y0239563D02*
X0089953Y0239563D01*
X0089953Y0239485D02*
X0088378Y0239485D01*
X0088378Y0239408D02*
X0089953Y0239408D01*
X0089953Y0239331D02*
X0088378Y0239331D01*
X0088378Y0239254D02*
X0089953Y0239254D01*
X0089953Y0239176D02*
X0088378Y0239176D01*
X0088386Y0239099D02*
X0089944Y0239099D01*
X0089934Y0239022D02*
X0088397Y0239022D01*
X0088411Y0238945D02*
X0089920Y0238945D01*
X0089888Y0238867D02*
X0088443Y0238867D01*
X0088475Y0238790D02*
X0089856Y0238790D01*
X0089804Y0238713D02*
X0088527Y0238713D01*
X0088586Y0238635D02*
X0089744Y0238635D01*
X0089659Y0238558D02*
X0088672Y0238558D01*
X0088773Y0238481D02*
X0089558Y0238481D01*
X0089371Y0238404D02*
X0088959Y0238404D01*
X0087919Y0238867D02*
X0086475Y0238867D01*
X0086507Y0238790D02*
X0087887Y0238790D01*
X0087835Y0238713D02*
X0086559Y0238713D01*
X0086618Y0238635D02*
X0087776Y0238635D01*
X0087691Y0238558D02*
X0086703Y0238558D01*
X0086804Y0238481D02*
X0087589Y0238481D01*
X0087403Y0238404D02*
X0086991Y0238404D01*
X0090137Y0237635D02*
X0090110Y0237431D01*
X0090137Y0237227D01*
X0090216Y0237037D01*
X0090341Y0236874D01*
X0090504Y0236749D01*
X0090694Y0236671D01*
X0090898Y0236644D01*
X0093929Y0236644D01*
X0093929Y0238219D01*
X0090898Y0238219D01*
X0090694Y0238192D01*
X0090504Y0238113D01*
X0090341Y0237988D01*
X0090216Y0237825D01*
X0090137Y0237635D01*
X0090137Y0237631D02*
X0093929Y0237631D01*
X0093929Y0237554D02*
X0090126Y0237554D01*
X0090116Y0237477D02*
X0093929Y0237477D01*
X0093929Y0237399D02*
X0090114Y0237399D01*
X0090125Y0237322D02*
X0093929Y0237322D01*
X0093929Y0237245D02*
X0090135Y0237245D01*
X0090162Y0237168D02*
X0093929Y0237168D01*
X0093929Y0237090D02*
X0090194Y0237090D01*
X0090234Y0237013D02*
X0093929Y0237013D01*
X0093929Y0236936D02*
X0090294Y0236936D01*
X0090361Y0236859D02*
X0093929Y0236859D01*
X0093929Y0236781D02*
X0090462Y0236781D01*
X0090613Y0236704D02*
X0093929Y0236704D01*
X0093929Y0236250D02*
X0090898Y0236250D01*
X0090694Y0236223D01*
X0090504Y0236145D01*
X0090341Y0236019D01*
X0090216Y0235856D01*
X0090137Y0235666D01*
X0090110Y0235463D01*
X0090137Y0235259D01*
X0090216Y0235069D01*
X0090341Y0234906D01*
X0090504Y0234781D01*
X0090694Y0234702D01*
X0090898Y0234675D01*
X0093929Y0234675D01*
X0093929Y0236250D01*
X0093929Y0236241D02*
X0090827Y0236241D01*
X0090550Y0236163D02*
X0093929Y0236163D01*
X0093929Y0236086D02*
X0090428Y0236086D01*
X0090333Y0236009D02*
X0093929Y0236009D01*
X0093929Y0235932D02*
X0090274Y0235932D01*
X0090215Y0235854D02*
X0093929Y0235854D01*
X0093929Y0235777D02*
X0090183Y0235777D01*
X0090151Y0235700D02*
X0093929Y0235700D01*
X0093929Y0235623D02*
X0090131Y0235623D01*
X0090121Y0235545D02*
X0093929Y0235545D01*
X0093929Y0235468D02*
X0090111Y0235468D01*
X0090120Y0235391D02*
X0093929Y0235391D01*
X0093929Y0235314D02*
X0090130Y0235314D01*
X0090146Y0235236D02*
X0093929Y0235236D01*
X0093929Y0235159D02*
X0090178Y0235159D01*
X0090210Y0235082D02*
X0093929Y0235082D01*
X0093929Y0235005D02*
X0090265Y0235005D01*
X0090324Y0234927D02*
X0093929Y0234927D01*
X0093929Y0234850D02*
X0090413Y0234850D01*
X0090523Y0234773D02*
X0093929Y0234773D01*
X0093929Y0234696D02*
X0090742Y0234696D01*
X0090898Y0234281D02*
X0090694Y0234255D01*
X0090504Y0234176D01*
X0090341Y0234051D01*
X0090216Y0233888D01*
X0090137Y0233698D01*
X0090110Y0233494D01*
X0090137Y0233290D01*
X0090216Y0233100D01*
X0090341Y0232937D01*
X0090504Y0232812D01*
X0090694Y0232734D01*
X0090898Y0232707D01*
X0093929Y0232707D01*
X0093929Y0234281D01*
X0090898Y0234281D01*
X0090640Y0234232D02*
X0093929Y0234232D01*
X0093929Y0234155D02*
X0090476Y0234155D01*
X0090376Y0234078D02*
X0093929Y0234078D01*
X0093929Y0234000D02*
X0090302Y0234000D01*
X0090243Y0233923D02*
X0093929Y0233923D01*
X0093929Y0233846D02*
X0090198Y0233846D01*
X0090166Y0233769D02*
X0093929Y0233769D01*
X0093929Y0233691D02*
X0090136Y0233691D01*
X0090126Y0233614D02*
X0093929Y0233614D01*
X0093929Y0233537D02*
X0090116Y0233537D01*
X0090115Y0233460D02*
X0093929Y0233460D01*
X0093929Y0233382D02*
X0090125Y0233382D01*
X0090135Y0233305D02*
X0093929Y0233305D01*
X0093929Y0233228D02*
X0090163Y0233228D01*
X0090195Y0233151D02*
X0093929Y0233151D01*
X0093929Y0233073D02*
X0090236Y0233073D01*
X0090296Y0232996D02*
X0093929Y0232996D01*
X0093929Y0232919D02*
X0090365Y0232919D01*
X0090466Y0232842D02*
X0093929Y0232842D01*
X0093929Y0232764D02*
X0090619Y0232764D01*
X0090694Y0232286D02*
X0090504Y0232208D01*
X0090341Y0232082D01*
X0090216Y0231919D01*
X0090137Y0231729D01*
X0090110Y0231526D01*
X0090137Y0231322D01*
X0090216Y0231132D01*
X0090341Y0230969D01*
X0090504Y0230844D01*
X0090694Y0230765D01*
X0090898Y0230738D01*
X0093929Y0230738D01*
X0093929Y0232313D01*
X0090898Y0232313D01*
X0090694Y0232286D01*
X0090806Y0232301D02*
X0093929Y0232301D01*
X0093929Y0232224D02*
X0090543Y0232224D01*
X0090424Y0232146D02*
X0093929Y0232146D01*
X0093929Y0232069D02*
X0090331Y0232069D01*
X0090271Y0231992D02*
X0093929Y0231992D01*
X0093929Y0231915D02*
X0090214Y0231915D01*
X0090182Y0231837D02*
X0093929Y0231837D01*
X0093929Y0231760D02*
X0090150Y0231760D01*
X0090131Y0231683D02*
X0093929Y0231683D01*
X0093929Y0231606D02*
X0090121Y0231606D01*
X0090111Y0231528D02*
X0093929Y0231528D01*
X0093929Y0231451D02*
X0090120Y0231451D01*
X0090130Y0231374D02*
X0093929Y0231374D01*
X0093929Y0231297D02*
X0090148Y0231297D01*
X0090179Y0231219D02*
X0093929Y0231219D01*
X0093929Y0231142D02*
X0090211Y0231142D01*
X0090267Y0231065D02*
X0093929Y0231065D01*
X0093929Y0230988D02*
X0090326Y0230988D01*
X0090417Y0230910D02*
X0093929Y0230910D01*
X0093929Y0230833D02*
X0090529Y0230833D01*
X0090764Y0230756D02*
X0093929Y0230756D01*
X0093929Y0230344D02*
X0090898Y0230344D01*
X0090694Y0230318D01*
X0090504Y0230239D01*
X0090341Y0230114D01*
X0090216Y0229951D01*
X0090137Y0229761D01*
X0090110Y0229557D01*
X0090137Y0229353D01*
X0090216Y0229163D01*
X0090341Y0229000D01*
X0090504Y0228875D01*
X0090694Y0228797D01*
X0090898Y0228770D01*
X0093929Y0228770D01*
X0093929Y0230344D01*
X0093929Y0230292D02*
X0090633Y0230292D01*
X0090473Y0230215D02*
X0093929Y0230215D01*
X0093929Y0230138D02*
X0090372Y0230138D01*
X0090300Y0230061D02*
X0093929Y0230061D01*
X0093929Y0229983D02*
X0090241Y0229983D01*
X0090197Y0229906D02*
X0093929Y0229906D01*
X0093929Y0229829D02*
X0090165Y0229829D01*
X0090136Y0229752D02*
X0093929Y0229752D01*
X0093929Y0229674D02*
X0090126Y0229674D01*
X0090116Y0229597D02*
X0093929Y0229597D01*
X0093929Y0229520D02*
X0090115Y0229520D01*
X0090125Y0229443D02*
X0093929Y0229443D01*
X0093929Y0229365D02*
X0090135Y0229365D01*
X0090164Y0229288D02*
X0093929Y0229288D01*
X0093929Y0229211D02*
X0090196Y0229211D01*
X0090239Y0229134D02*
X0093929Y0229134D01*
X0093929Y0229056D02*
X0090298Y0229056D01*
X0090369Y0228979D02*
X0093929Y0228979D01*
X0093929Y0228902D02*
X0090469Y0228902D01*
X0090626Y0228825D02*
X0093929Y0228825D01*
X0093929Y0228376D02*
X0090898Y0228376D01*
X0090694Y0228349D01*
X0090504Y0228270D01*
X0090341Y0228145D01*
X0090216Y0227982D01*
X0090137Y0227792D01*
X0090110Y0227589D01*
X0090137Y0227385D01*
X0090216Y0227195D01*
X0090341Y0227032D01*
X0090504Y0226907D01*
X0090694Y0226828D01*
X0090898Y0226801D01*
X0093929Y0226801D01*
X0093929Y0228376D01*
X0093929Y0228361D02*
X0090784Y0228361D01*
X0090536Y0228284D02*
X0093929Y0228284D01*
X0093929Y0228207D02*
X0090421Y0228207D01*
X0090329Y0228129D02*
X0093929Y0228129D01*
X0093929Y0228052D02*
X0090269Y0228052D01*
X0090213Y0227975D02*
X0093929Y0227975D01*
X0093929Y0227898D02*
X0090181Y0227898D01*
X0090149Y0227820D02*
X0093929Y0227820D01*
X0093929Y0227743D02*
X0090131Y0227743D01*
X0090120Y0227666D02*
X0093929Y0227666D01*
X0093929Y0227589D02*
X0090110Y0227589D01*
X0090120Y0227511D02*
X0093929Y0227511D01*
X0093929Y0227434D02*
X0090131Y0227434D01*
X0090149Y0227357D02*
X0093929Y0227357D01*
X0093929Y0227280D02*
X0090181Y0227280D01*
X0090213Y0227202D02*
X0093929Y0227202D01*
X0093929Y0227125D02*
X0090269Y0227125D01*
X0090329Y0227048D02*
X0093929Y0227048D01*
X0093929Y0226971D02*
X0090421Y0226971D01*
X0090536Y0226893D02*
X0093929Y0226893D01*
X0093929Y0226816D02*
X0090785Y0226816D01*
X0090898Y0226407D02*
X0090694Y0226381D01*
X0090504Y0226302D01*
X0090341Y0226177D01*
X0090216Y0226014D01*
X0090137Y0225824D01*
X0090110Y0225620D01*
X0090137Y0225416D01*
X0090216Y0225226D01*
X0090341Y0225063D01*
X0090504Y0224938D01*
X0090694Y0224860D01*
X0090898Y0224833D01*
X0093929Y0224833D01*
X0093929Y0226407D01*
X0090898Y0226407D01*
X0090626Y0226353D02*
X0093929Y0226353D01*
X0093929Y0226275D02*
X0090469Y0226275D01*
X0090368Y0226198D02*
X0093929Y0226198D01*
X0093929Y0226121D02*
X0090298Y0226121D01*
X0090239Y0226044D02*
X0093929Y0226044D01*
X0093929Y0225966D02*
X0090196Y0225966D01*
X0090164Y0225889D02*
X0093929Y0225889D01*
X0093929Y0225812D02*
X0090135Y0225812D01*
X0090125Y0225734D02*
X0093929Y0225734D01*
X0093929Y0225657D02*
X0090115Y0225657D01*
X0090116Y0225580D02*
X0093929Y0225580D01*
X0093929Y0225503D02*
X0090126Y0225503D01*
X0090136Y0225425D02*
X0093929Y0225425D01*
X0093929Y0225348D02*
X0090165Y0225348D01*
X0090197Y0225271D02*
X0093929Y0225271D01*
X0093929Y0225194D02*
X0090241Y0225194D01*
X0090300Y0225116D02*
X0093929Y0225116D01*
X0093929Y0225039D02*
X0090372Y0225039D01*
X0090473Y0224962D02*
X0093929Y0224962D01*
X0093929Y0224885D02*
X0090633Y0224885D01*
X0090694Y0224412D02*
X0090504Y0224333D01*
X0090341Y0224208D01*
X0090216Y0224045D01*
X0090137Y0223855D01*
X0090110Y0223652D01*
X0090137Y0223448D01*
X0090216Y0223258D01*
X0090341Y0223095D01*
X0090504Y0222970D01*
X0090694Y0222891D01*
X0090898Y0222864D01*
X0093929Y0222864D01*
X0093929Y0224439D01*
X0090898Y0224439D01*
X0090694Y0224412D01*
X0090763Y0224421D02*
X0093929Y0224421D01*
X0093929Y0224344D02*
X0090529Y0224344D01*
X0090417Y0224267D02*
X0093929Y0224267D01*
X0093929Y0224189D02*
X0090326Y0224189D01*
X0090267Y0224112D02*
X0093929Y0224112D01*
X0093929Y0224035D02*
X0090211Y0224035D01*
X0090179Y0223958D02*
X0093929Y0223958D01*
X0093929Y0223880D02*
X0090147Y0223880D01*
X0090130Y0223803D02*
X0093929Y0223803D01*
X0093929Y0223726D02*
X0090120Y0223726D01*
X0090111Y0223649D02*
X0093929Y0223649D01*
X0093929Y0223571D02*
X0090121Y0223571D01*
X0090131Y0223494D02*
X0093929Y0223494D01*
X0093929Y0223417D02*
X0090150Y0223417D01*
X0090182Y0223340D02*
X0093929Y0223340D01*
X0093929Y0223262D02*
X0090214Y0223262D01*
X0090271Y0223185D02*
X0093929Y0223185D01*
X0093929Y0223108D02*
X0090331Y0223108D01*
X0090424Y0223031D02*
X0093929Y0223031D01*
X0093929Y0222953D02*
X0090543Y0222953D01*
X0090806Y0222876D02*
X0093929Y0222876D01*
X0093929Y0222413D02*
X0090619Y0222413D01*
X0090465Y0222335D02*
X0093929Y0222335D01*
X0093929Y0222258D02*
X0090365Y0222258D01*
X0090296Y0222181D02*
X0093929Y0222181D01*
X0093929Y0222104D02*
X0090236Y0222104D01*
X0090195Y0222026D02*
X0093929Y0222026D01*
X0093929Y0221949D02*
X0090163Y0221949D01*
X0090135Y0221872D02*
X0093929Y0221872D01*
X0093929Y0221795D02*
X0090125Y0221795D01*
X0089482Y0206885D02*
X0088849Y0206885D01*
X0088713Y0206808D02*
X0089618Y0206808D01*
X0089719Y0206731D02*
X0088612Y0206731D01*
X0088551Y0206653D02*
X0089779Y0206653D01*
X0057954Y0214997D02*
X0054874Y0214997D01*
X0090168Y0237708D02*
X0093929Y0237708D01*
X0093929Y0237786D02*
X0090200Y0237786D01*
X0090245Y0237863D02*
X0093929Y0237863D01*
X0093929Y0237940D02*
X0090304Y0237940D01*
X0090379Y0238017D02*
X0093929Y0238017D01*
X0093929Y0238095D02*
X0090480Y0238095D01*
X0090646Y0238172D02*
X0093929Y0238172D01*
D26*
X0106902Y0294557D03*
X0116902Y0294557D03*
X0116902Y0304557D03*
X0106902Y0304557D03*
X0126902Y0304557D03*
X0136902Y0304557D03*
X0136902Y0294557D03*
X0126902Y0294557D03*
X0146902Y0294557D03*
X0156902Y0294557D03*
X0156902Y0304557D03*
X0146902Y0304557D03*
X0166902Y0304557D03*
X0176902Y0304557D03*
X0176902Y0294557D03*
X0166902Y0294557D03*
X0186902Y0294557D03*
X0196902Y0294557D03*
X0196902Y0304557D03*
X0186902Y0304557D03*
X0206902Y0304557D03*
X0216902Y0304557D03*
X0226902Y0304557D03*
X0226902Y0294557D03*
X0216902Y0294557D03*
X0206902Y0294557D03*
X0236902Y0294557D03*
X0246902Y0294557D03*
X0246902Y0304557D03*
X0236902Y0304557D03*
X0256902Y0304557D03*
X0266902Y0304557D03*
X0266902Y0294557D03*
X0256902Y0294557D03*
X0276902Y0294557D03*
X0286902Y0294557D03*
X0286902Y0304557D03*
X0276902Y0304557D03*
X0296902Y0304557D03*
X0306902Y0304557D03*
X0306902Y0294557D03*
X0296902Y0294557D03*
X0316902Y0294557D03*
X0326902Y0294557D03*
X0326902Y0304557D03*
X0316902Y0304557D03*
X0316902Y0114557D03*
X0326902Y0114557D03*
X0326902Y0104557D03*
X0316902Y0104557D03*
X0306902Y0104557D03*
X0296902Y0104557D03*
X0296902Y0114557D03*
X0306902Y0114557D03*
X0286902Y0114557D03*
X0276902Y0114557D03*
X0276902Y0104557D03*
X0286902Y0104557D03*
X0266902Y0104557D03*
X0256902Y0104557D03*
X0256902Y0114557D03*
X0266902Y0114557D03*
X0246902Y0114557D03*
X0236902Y0114557D03*
X0236902Y0104557D03*
X0246902Y0104557D03*
X0226902Y0104557D03*
X0216902Y0104557D03*
X0206902Y0104557D03*
X0206902Y0114557D03*
X0216902Y0114557D03*
X0226902Y0114557D03*
X0196902Y0114557D03*
X0186902Y0114557D03*
X0186902Y0104557D03*
X0196902Y0104557D03*
X0176902Y0104557D03*
X0166902Y0104557D03*
X0166902Y0114557D03*
X0176902Y0114557D03*
X0156902Y0114557D03*
X0146902Y0114557D03*
X0146902Y0104557D03*
X0156902Y0104557D03*
X0136902Y0104557D03*
X0126902Y0104557D03*
X0126902Y0114557D03*
X0136902Y0114557D03*
X0116902Y0114557D03*
X0106902Y0114557D03*
X0106902Y0104557D03*
X0116902Y0104557D03*
D27*
X0237776Y0174961D03*
X0242776Y0174961D03*
X0247776Y0174961D03*
X0252776Y0174961D03*
X0252776Y0195461D03*
X0247776Y0195461D03*
X0242776Y0195461D03*
X0237776Y0195461D03*
D28*
X0286665Y0195242D03*
X0286665Y0197211D03*
X0286665Y0199179D03*
X0297886Y0199179D03*
X0297886Y0197211D03*
X0297886Y0195242D03*
D29*
X0292276Y0197211D03*
D30*
X0255824Y0032759D03*
X0196646Y0030187D03*
X0143890Y0030581D03*
X0086213Y0030581D03*
D31*
X0086213Y0050581D03*
X0143890Y0050581D03*
X0196646Y0050187D03*
D32*
X0264261Y0053371D02*
X0265091Y0054201D01*
X0266254Y0051708D01*
X0265313Y0049125D01*
X0262820Y0047962D01*
X0260237Y0048903D01*
X0259074Y0051396D01*
X0260015Y0053979D01*
X0262508Y0055142D01*
X0265091Y0054201D01*
X0264180Y0053208D01*
X0264907Y0051649D01*
X0264320Y0050036D01*
X0262761Y0049309D01*
X0261148Y0049896D01*
X0260421Y0051455D01*
X0261008Y0053068D01*
X0262567Y0053795D01*
X0264180Y0053208D01*
X0263270Y0052214D01*
X0263561Y0051590D01*
X0263326Y0050946D01*
X0262702Y0050655D01*
X0262058Y0050890D01*
X0261767Y0051514D01*
X0262002Y0052158D01*
X0262626Y0052449D01*
X0263270Y0052214D01*
D33*
X0250110Y0133211D03*
X0277276Y0133211D03*
X0270110Y0161211D03*
X0297276Y0161211D03*
X0051559Y0073400D03*
X0024394Y0073400D03*
D34*
X0033372Y0097081D03*
X0033372Y0120900D03*
D35*
X0242000Y0236352D03*
X0261685Y0236352D03*
D36*
X0275078Y0253211D03*
X0287978Y0253211D03*
D37*
X0280252Y0211211D03*
X0302299Y0211211D03*
X0254299Y0211211D03*
X0232252Y0211211D03*
D38*
X0233276Y0151211D03*
X0209457Y0151211D03*
D39*
X0248945Y0157470D03*
X0248945Y0164951D03*
X0257606Y0161211D03*
D40*
X0110819Y0162628D03*
X0110819Y0182313D03*
D41*
X0078528Y0178187D03*
X0068685Y0178187D03*
D42*
X0089362Y0252785D03*
X0094874Y0252785D03*
X0094874Y0259478D03*
X0089362Y0259478D03*
D43*
X0022339Y0220541D03*
X0022339Y0205187D03*
X0041606Y0193368D03*
X0041606Y0178014D03*
D44*
X0059591Y0181494D03*
X0074189Y0197258D03*
X0090709Y0197211D03*
X0095709Y0197211D03*
X0122209Y0222711D03*
X0022512Y0172982D03*
D45*
X0061606Y0322116D03*
D46*
X0078860Y0322116D03*
X0044352Y0322116D03*
D47*
X0213984Y0184187D03*
X0215276Y0171211D03*
X0233276Y0185211D03*
X0241276Y0185211D03*
X0249276Y0185211D03*
X0257276Y0185211D03*
X0261276Y0191211D03*
X0259276Y0199211D03*
X0231276Y0197211D03*
X0261276Y0167211D03*
X0241276Y0165211D03*
X0291276Y0139211D03*
X0299276Y0139211D03*
X0307276Y0139211D03*
X0307276Y0131211D03*
X0299276Y0131211D03*
X0291276Y0131211D03*
X0311528Y0245211D03*
D48*
X0334441Y0032904D03*
X0023417Y0316368D03*
M02*
