G75*
%MOIN*%
%OFA0B0*%
%FSLAX25Y25*%
%IPPOS*%
%LPD*%
%AMOC8*
5,1,8,0,0,1.08239X$1,22.5*
%
%ADD10R,0.14186X0.08280*%
%ADD11R,0.07099X0.07898*%
%ADD12R,0.13398X0.07887*%
%ADD13R,0.04737X0.05131*%
%ADD14R,0.05131X0.04737*%
%ADD15R,0.05524X0.05524*%
%ADD16R,0.09068X0.09068*%
%ADD17R,0.06706X0.06706*%
%ADD18R,0.03162X0.05131*%
%ADD19R,0.06824X0.06824*%
%ADD20R,0.07887X0.07099*%
%ADD21R,0.03556X0.04343*%
%ADD22R,0.04343X0.03556*%
%ADD23C,0.08300*%
%ADD24OC8,0.08300*%
%ADD25C,0.01660*%
%ADD26C,0.05524*%
%ADD27C,0.06706*%
%ADD28R,0.10308X0.20800*%
%ADD29C,0.04562*%
%ADD30C,0.17300*%
D10*
X0024559Y0210400D03*
X0024559Y0225754D03*
D11*
X0276898Y0063453D03*
X0288094Y0063453D03*
X0304409Y0063457D03*
X0315606Y0063457D03*
D12*
X0232933Y0062970D03*
X0232933Y0085018D03*
X0170657Y0084821D03*
X0170657Y0062774D03*
X0117209Y0062774D03*
X0117209Y0084821D03*
D13*
X0074795Y0139990D03*
X0068102Y0139990D03*
X0060622Y0162825D03*
X0053929Y0162825D03*
X0034638Y0170699D03*
X0027945Y0170699D03*
X0104323Y0315974D03*
X0111016Y0315974D03*
X0116528Y0315974D03*
X0123220Y0315974D03*
X0128732Y0315974D03*
X0135425Y0315974D03*
X0143693Y0315974D03*
X0150386Y0315974D03*
X0155898Y0315974D03*
X0162591Y0315974D03*
X0168102Y0315974D03*
X0174795Y0315974D03*
X0180307Y0315974D03*
X0187000Y0315974D03*
X0194874Y0316368D03*
X0201567Y0316368D03*
X0231094Y0316565D03*
X0237787Y0316565D03*
X0246055Y0316368D03*
X0252748Y0316368D03*
X0282276Y0316368D03*
X0288969Y0316368D03*
X0297236Y0316368D03*
X0303929Y0316368D03*
X0333457Y0316368D03*
X0340150Y0316368D03*
D14*
X0096252Y0316171D03*
X0096252Y0309478D03*
X0043102Y0154360D03*
X0043102Y0147667D03*
D15*
X0066953Y0132313D03*
X0090142Y0118612D03*
X0037000Y0216565D03*
X0070858Y0246683D03*
X0049205Y0255738D03*
X0019480Y0253376D03*
X0039165Y0292746D03*
X0142535Y0281407D03*
X0297858Y0227785D03*
X0301173Y0255400D03*
D16*
X0318276Y0209711D03*
X0318276Y0194711D03*
X0318276Y0169711D03*
X0318276Y0154711D03*
X0311035Y0033108D03*
X0296035Y0033108D03*
X0281035Y0033108D03*
X0266035Y0033108D03*
X0230524Y0033100D03*
X0215524Y0033100D03*
X0169122Y0032746D03*
X0154122Y0032746D03*
X0116059Y0032746D03*
X0101059Y0032746D03*
D17*
X0015150Y0122470D03*
X0015150Y0132313D03*
X0015150Y0142156D03*
X0015150Y0151998D03*
X0099205Y0324242D03*
X0109047Y0324242D03*
X0118890Y0324242D03*
X0128732Y0324242D03*
X0150386Y0324242D03*
X0160228Y0324242D03*
X0170071Y0324242D03*
X0179913Y0324242D03*
X0201567Y0324242D03*
X0211409Y0324242D03*
X0221252Y0324242D03*
X0231094Y0324242D03*
X0252748Y0324242D03*
X0262591Y0324242D03*
X0272433Y0324242D03*
X0282276Y0324242D03*
X0303929Y0324242D03*
X0313772Y0324242D03*
X0323614Y0324242D03*
X0333457Y0324242D03*
X0319528Y0266738D03*
X0319528Y0256896D03*
X0319528Y0247053D03*
X0319528Y0237211D03*
D18*
X0061016Y0156329D03*
X0057276Y0156329D03*
X0053535Y0156329D03*
X0053535Y0145699D03*
X0057276Y0145699D03*
X0061016Y0145699D03*
X0035031Y0153573D03*
X0031291Y0153573D03*
X0027551Y0153573D03*
X0027551Y0164203D03*
X0031291Y0164203D03*
X0035031Y0164203D03*
D19*
X0106902Y0114557D03*
X0116902Y0114557D03*
X0126902Y0114557D03*
X0136902Y0114557D03*
X0146902Y0114557D03*
X0156902Y0114557D03*
X0166902Y0114557D03*
X0176902Y0114557D03*
X0186902Y0114557D03*
X0196902Y0114557D03*
X0206902Y0114557D03*
X0216902Y0114557D03*
X0226902Y0114557D03*
X0236902Y0114557D03*
X0246902Y0114557D03*
X0256902Y0114557D03*
X0266902Y0114557D03*
X0276902Y0114557D03*
X0286902Y0114557D03*
X0296902Y0114557D03*
X0306902Y0114557D03*
X0316902Y0114557D03*
X0326902Y0114557D03*
X0326902Y0104557D03*
X0316902Y0104557D03*
X0306902Y0104557D03*
X0296902Y0104557D03*
X0286902Y0104557D03*
X0276902Y0104557D03*
X0266902Y0104557D03*
X0256902Y0104557D03*
X0246902Y0104557D03*
X0236902Y0104557D03*
X0226902Y0104557D03*
X0216902Y0104557D03*
X0206902Y0104557D03*
X0196902Y0104557D03*
X0186902Y0104557D03*
X0176902Y0104557D03*
X0166902Y0104557D03*
X0156902Y0104557D03*
X0146902Y0104557D03*
X0136902Y0104557D03*
X0126902Y0104557D03*
X0116902Y0104557D03*
X0106902Y0104557D03*
X0106902Y0294557D03*
X0116902Y0294557D03*
X0116902Y0304557D03*
X0106902Y0304557D03*
X0126902Y0304557D03*
X0136902Y0304557D03*
X0136902Y0294557D03*
X0126902Y0294557D03*
X0146902Y0294557D03*
X0156902Y0294557D03*
X0156902Y0304557D03*
X0146902Y0304557D03*
X0166902Y0304557D03*
X0176902Y0304557D03*
X0176902Y0294557D03*
X0166902Y0294557D03*
X0186902Y0294557D03*
X0196902Y0294557D03*
X0196902Y0304557D03*
X0186902Y0304557D03*
X0206902Y0304557D03*
X0216902Y0304557D03*
X0226902Y0304557D03*
X0226902Y0294557D03*
X0216902Y0294557D03*
X0206902Y0294557D03*
X0236902Y0294557D03*
X0246902Y0294557D03*
X0246902Y0304557D03*
X0236902Y0304557D03*
X0256902Y0304557D03*
X0266902Y0304557D03*
X0266902Y0294557D03*
X0256902Y0294557D03*
X0276902Y0294557D03*
X0286902Y0294557D03*
X0286902Y0304557D03*
X0276902Y0304557D03*
X0296902Y0304557D03*
X0306902Y0304557D03*
X0306902Y0294557D03*
X0296902Y0294557D03*
X0316902Y0294557D03*
X0326902Y0294557D03*
X0326902Y0304557D03*
X0316902Y0304557D03*
D20*
X0092079Y0181754D03*
X0083185Y0181754D03*
X0083185Y0170730D03*
X0092079Y0170730D03*
D21*
X0053929Y0169124D03*
X0048811Y0169124D03*
X0025976Y0178573D03*
X0020858Y0178573D03*
X0028732Y0147077D03*
X0033850Y0147077D03*
X0054717Y0139203D03*
X0059835Y0139203D03*
D22*
X0067118Y0148061D03*
X0067118Y0153179D03*
X0043102Y0160266D03*
X0043102Y0165384D03*
D23*
X0086213Y0030581D03*
X0143890Y0030581D03*
X0196646Y0030187D03*
X0255824Y0032759D03*
D24*
X0196646Y0050187D03*
X0143890Y0050581D03*
X0086213Y0050581D03*
D25*
X0264261Y0053371D02*
X0265091Y0054201D01*
X0266254Y0051708D01*
X0265313Y0049125D01*
X0262820Y0047962D01*
X0260237Y0048903D01*
X0259074Y0051396D01*
X0260015Y0053979D01*
X0262508Y0055142D01*
X0265091Y0054201D01*
X0264180Y0053208D01*
X0264907Y0051649D01*
X0264320Y0050036D01*
X0262761Y0049309D01*
X0261148Y0049896D01*
X0260421Y0051455D01*
X0261008Y0053068D01*
X0262567Y0053795D01*
X0264180Y0053208D01*
X0263270Y0052214D01*
X0263561Y0051590D01*
X0263326Y0050946D01*
X0262702Y0050655D01*
X0262058Y0050890D01*
X0261767Y0051514D01*
X0262002Y0052158D01*
X0262626Y0052449D01*
X0263270Y0052214D01*
D26*
X0261685Y0236352D03*
X0242000Y0236352D03*
D27*
X0110819Y0182313D03*
X0110819Y0162628D03*
D28*
X0078860Y0322116D03*
X0044352Y0322116D03*
D29*
X0213984Y0184187D03*
X0215276Y0171211D03*
X0233276Y0185211D03*
X0241276Y0185211D03*
X0249276Y0185211D03*
X0257276Y0185211D03*
X0261276Y0191211D03*
X0259276Y0199211D03*
X0231276Y0197211D03*
X0261276Y0167211D03*
X0241276Y0165211D03*
X0291276Y0139211D03*
X0299276Y0139211D03*
X0307276Y0139211D03*
X0307276Y0131211D03*
X0299276Y0131211D03*
X0291276Y0131211D03*
X0311528Y0245211D03*
D30*
X0334441Y0032904D03*
X0023417Y0316368D03*
M02*
