G75*
%MOIN*%
%OFA0B0*%
%FSLAX25Y25*%
%IPPOS*%
%LPD*%
%AMOC8*
5,1,8,0,0,1.08239X$1,22.5*
%
%ADD10C,0.00500*%
%ADD11C,0.00394*%
%ADD12C,0.00400*%
D10*
X0082213Y0039581D02*
X0086213Y0039581D01*
X0090213Y0039581D01*
X0086213Y0039581D02*
X0086213Y0035081D01*
X0073713Y0040581D02*
X0073717Y0040888D01*
X0073728Y0041194D01*
X0073747Y0041501D01*
X0073773Y0041806D01*
X0073807Y0042111D01*
X0073848Y0042415D01*
X0073897Y0042718D01*
X0073953Y0043020D01*
X0074017Y0043320D01*
X0074088Y0043618D01*
X0074166Y0043915D01*
X0074251Y0044210D01*
X0074344Y0044502D01*
X0074444Y0044792D01*
X0074551Y0045080D01*
X0074665Y0045365D01*
X0074785Y0045647D01*
X0074913Y0045925D01*
X0075048Y0046201D01*
X0075189Y0046473D01*
X0075337Y0046742D01*
X0075491Y0047007D01*
X0075652Y0047268D01*
X0075820Y0047526D01*
X0075993Y0047779D01*
X0076173Y0048027D01*
X0076359Y0048271D01*
X0076550Y0048511D01*
X0076748Y0048746D01*
X0076951Y0048975D01*
X0077160Y0049200D01*
X0077374Y0049420D01*
X0077594Y0049634D01*
X0077819Y0049843D01*
X0078048Y0050046D01*
X0078283Y0050244D01*
X0078523Y0050435D01*
X0078767Y0050621D01*
X0079015Y0050801D01*
X0079268Y0050974D01*
X0079526Y0051142D01*
X0079787Y0051303D01*
X0080052Y0051457D01*
X0080321Y0051605D01*
X0080593Y0051746D01*
X0080869Y0051881D01*
X0081147Y0052009D01*
X0081429Y0052129D01*
X0081714Y0052243D01*
X0082002Y0052350D01*
X0082292Y0052450D01*
X0082584Y0052543D01*
X0082879Y0052628D01*
X0083176Y0052706D01*
X0083474Y0052777D01*
X0083774Y0052841D01*
X0084076Y0052897D01*
X0084379Y0052946D01*
X0084683Y0052987D01*
X0084988Y0053021D01*
X0085293Y0053047D01*
X0085600Y0053066D01*
X0085906Y0053077D01*
X0086213Y0053081D01*
X0086520Y0053077D01*
X0086826Y0053066D01*
X0087133Y0053047D01*
X0087438Y0053021D01*
X0087743Y0052987D01*
X0088047Y0052946D01*
X0088350Y0052897D01*
X0088652Y0052841D01*
X0088952Y0052777D01*
X0089250Y0052706D01*
X0089547Y0052628D01*
X0089842Y0052543D01*
X0090134Y0052450D01*
X0090424Y0052350D01*
X0090712Y0052243D01*
X0090997Y0052129D01*
X0091279Y0052009D01*
X0091557Y0051881D01*
X0091833Y0051746D01*
X0092105Y0051605D01*
X0092374Y0051457D01*
X0092639Y0051303D01*
X0092900Y0051142D01*
X0093158Y0050974D01*
X0093411Y0050801D01*
X0093659Y0050621D01*
X0093903Y0050435D01*
X0094143Y0050244D01*
X0094378Y0050046D01*
X0094607Y0049843D01*
X0094832Y0049634D01*
X0095052Y0049420D01*
X0095266Y0049200D01*
X0095475Y0048975D01*
X0095678Y0048746D01*
X0095876Y0048511D01*
X0096067Y0048271D01*
X0096253Y0048027D01*
X0096433Y0047779D01*
X0096606Y0047526D01*
X0096774Y0047268D01*
X0096935Y0047007D01*
X0097089Y0046742D01*
X0097237Y0046473D01*
X0097378Y0046201D01*
X0097513Y0045925D01*
X0097641Y0045647D01*
X0097761Y0045365D01*
X0097875Y0045080D01*
X0097982Y0044792D01*
X0098082Y0044502D01*
X0098175Y0044210D01*
X0098260Y0043915D01*
X0098338Y0043618D01*
X0098409Y0043320D01*
X0098473Y0043020D01*
X0098529Y0042718D01*
X0098578Y0042415D01*
X0098619Y0042111D01*
X0098653Y0041806D01*
X0098679Y0041501D01*
X0098698Y0041194D01*
X0098709Y0040888D01*
X0098713Y0040581D01*
X0098709Y0040274D01*
X0098698Y0039968D01*
X0098679Y0039661D01*
X0098653Y0039356D01*
X0098619Y0039051D01*
X0098578Y0038747D01*
X0098529Y0038444D01*
X0098473Y0038142D01*
X0098409Y0037842D01*
X0098338Y0037544D01*
X0098260Y0037247D01*
X0098175Y0036952D01*
X0098082Y0036660D01*
X0097982Y0036370D01*
X0097875Y0036082D01*
X0097761Y0035797D01*
X0097641Y0035515D01*
X0097513Y0035237D01*
X0097378Y0034961D01*
X0097237Y0034689D01*
X0097089Y0034420D01*
X0096935Y0034155D01*
X0096774Y0033894D01*
X0096606Y0033636D01*
X0096433Y0033383D01*
X0096253Y0033135D01*
X0096067Y0032891D01*
X0095876Y0032651D01*
X0095678Y0032416D01*
X0095475Y0032187D01*
X0095266Y0031962D01*
X0095052Y0031742D01*
X0094832Y0031528D01*
X0094607Y0031319D01*
X0094378Y0031116D01*
X0094143Y0030918D01*
X0093903Y0030727D01*
X0093659Y0030541D01*
X0093411Y0030361D01*
X0093158Y0030188D01*
X0092900Y0030020D01*
X0092639Y0029859D01*
X0092374Y0029705D01*
X0092105Y0029557D01*
X0091833Y0029416D01*
X0091557Y0029281D01*
X0091279Y0029153D01*
X0090997Y0029033D01*
X0090712Y0028919D01*
X0090424Y0028812D01*
X0090134Y0028712D01*
X0089842Y0028619D01*
X0089547Y0028534D01*
X0089250Y0028456D01*
X0088952Y0028385D01*
X0088652Y0028321D01*
X0088350Y0028265D01*
X0088047Y0028216D01*
X0087743Y0028175D01*
X0087438Y0028141D01*
X0087133Y0028115D01*
X0086826Y0028096D01*
X0086520Y0028085D01*
X0086213Y0028081D01*
X0085906Y0028085D01*
X0085600Y0028096D01*
X0085293Y0028115D01*
X0084988Y0028141D01*
X0084683Y0028175D01*
X0084379Y0028216D01*
X0084076Y0028265D01*
X0083774Y0028321D01*
X0083474Y0028385D01*
X0083176Y0028456D01*
X0082879Y0028534D01*
X0082584Y0028619D01*
X0082292Y0028712D01*
X0082002Y0028812D01*
X0081714Y0028919D01*
X0081429Y0029033D01*
X0081147Y0029153D01*
X0080869Y0029281D01*
X0080593Y0029416D01*
X0080321Y0029557D01*
X0080052Y0029705D01*
X0079787Y0029859D01*
X0079526Y0030020D01*
X0079268Y0030188D01*
X0079015Y0030361D01*
X0078767Y0030541D01*
X0078523Y0030727D01*
X0078283Y0030918D01*
X0078048Y0031116D01*
X0077819Y0031319D01*
X0077594Y0031528D01*
X0077374Y0031742D01*
X0077160Y0031962D01*
X0076951Y0032187D01*
X0076748Y0032416D01*
X0076550Y0032651D01*
X0076359Y0032891D01*
X0076173Y0033135D01*
X0075993Y0033383D01*
X0075820Y0033636D01*
X0075652Y0033894D01*
X0075491Y0034155D01*
X0075337Y0034420D01*
X0075189Y0034689D01*
X0075048Y0034961D01*
X0074913Y0035237D01*
X0074785Y0035515D01*
X0074665Y0035797D01*
X0074551Y0036082D01*
X0074444Y0036370D01*
X0074344Y0036660D01*
X0074251Y0036952D01*
X0074166Y0037247D01*
X0074088Y0037544D01*
X0074017Y0037842D01*
X0073953Y0038142D01*
X0073897Y0038444D01*
X0073848Y0038747D01*
X0073807Y0039051D01*
X0073773Y0039356D01*
X0073747Y0039661D01*
X0073728Y0039968D01*
X0073717Y0040274D01*
X0073713Y0040581D01*
X0086213Y0041581D02*
X0086213Y0046081D01*
X0086213Y0041581D02*
X0086037Y0041583D01*
X0085861Y0041590D01*
X0085685Y0041601D01*
X0085509Y0041616D01*
X0085334Y0041635D01*
X0085159Y0041659D01*
X0084985Y0041686D01*
X0084812Y0041718D01*
X0084640Y0041754D01*
X0084468Y0041794D01*
X0084297Y0041837D01*
X0084128Y0041885D01*
X0083959Y0041937D01*
X0083792Y0041993D01*
X0083627Y0042053D01*
X0083462Y0042117D01*
X0083300Y0042185D01*
X0083139Y0042257D01*
X0082979Y0042332D01*
X0082822Y0042411D01*
X0082667Y0042494D01*
X0082513Y0042581D01*
X0086213Y0041581D02*
X0086389Y0041583D01*
X0086565Y0041590D01*
X0086741Y0041601D01*
X0086917Y0041616D01*
X0087092Y0041635D01*
X0087267Y0041659D01*
X0087441Y0041686D01*
X0087614Y0041718D01*
X0087786Y0041754D01*
X0087958Y0041794D01*
X0088129Y0041837D01*
X0088298Y0041885D01*
X0088467Y0041937D01*
X0088634Y0041993D01*
X0088799Y0042053D01*
X0088964Y0042117D01*
X0089126Y0042185D01*
X0089287Y0042257D01*
X0089447Y0042332D01*
X0089604Y0042411D01*
X0089759Y0042494D01*
X0089913Y0042581D01*
X0089759Y0042494D01*
X0089604Y0042411D01*
X0089447Y0042332D01*
X0089287Y0042257D01*
X0089126Y0042185D01*
X0088964Y0042117D01*
X0088799Y0042053D01*
X0088634Y0041993D01*
X0088467Y0041937D01*
X0088298Y0041885D01*
X0088129Y0041837D01*
X0087958Y0041794D01*
X0087786Y0041754D01*
X0087614Y0041718D01*
X0087441Y0041686D01*
X0087267Y0041659D01*
X0087092Y0041635D01*
X0086917Y0041616D01*
X0086741Y0041601D01*
X0086565Y0041590D01*
X0086389Y0041583D01*
X0086213Y0041581D01*
X0086389Y0041583D01*
X0086565Y0041590D01*
X0086741Y0041601D01*
X0086917Y0041616D01*
X0087092Y0041635D01*
X0087267Y0041659D01*
X0087441Y0041686D01*
X0087614Y0041718D01*
X0087786Y0041754D01*
X0087958Y0041794D01*
X0088129Y0041837D01*
X0088298Y0041885D01*
X0088467Y0041937D01*
X0088634Y0041993D01*
X0088799Y0042053D01*
X0088964Y0042117D01*
X0089126Y0042185D01*
X0089287Y0042257D01*
X0089447Y0042332D01*
X0089604Y0042411D01*
X0089759Y0042494D01*
X0089913Y0042581D01*
X0110909Y0066997D02*
X0110909Y0080597D01*
X0123509Y0080597D02*
X0123509Y0066997D01*
X0143890Y0041581D02*
X0144066Y0041583D01*
X0144242Y0041590D01*
X0144418Y0041601D01*
X0144594Y0041616D01*
X0144769Y0041635D01*
X0144944Y0041659D01*
X0145118Y0041686D01*
X0145291Y0041718D01*
X0145463Y0041754D01*
X0145635Y0041794D01*
X0145806Y0041837D01*
X0145975Y0041885D01*
X0146144Y0041937D01*
X0146311Y0041993D01*
X0146476Y0042053D01*
X0146641Y0042117D01*
X0146803Y0042185D01*
X0146964Y0042257D01*
X0147124Y0042332D01*
X0147281Y0042411D01*
X0147436Y0042494D01*
X0147590Y0042581D01*
X0147890Y0039581D02*
X0143890Y0039581D01*
X0139890Y0039581D01*
X0143890Y0039581D02*
X0143890Y0035081D01*
X0131390Y0040581D02*
X0131394Y0040888D01*
X0131405Y0041194D01*
X0131424Y0041501D01*
X0131450Y0041806D01*
X0131484Y0042111D01*
X0131525Y0042415D01*
X0131574Y0042718D01*
X0131630Y0043020D01*
X0131694Y0043320D01*
X0131765Y0043618D01*
X0131843Y0043915D01*
X0131928Y0044210D01*
X0132021Y0044502D01*
X0132121Y0044792D01*
X0132228Y0045080D01*
X0132342Y0045365D01*
X0132462Y0045647D01*
X0132590Y0045925D01*
X0132725Y0046201D01*
X0132866Y0046473D01*
X0133014Y0046742D01*
X0133168Y0047007D01*
X0133329Y0047268D01*
X0133497Y0047526D01*
X0133670Y0047779D01*
X0133850Y0048027D01*
X0134036Y0048271D01*
X0134227Y0048511D01*
X0134425Y0048746D01*
X0134628Y0048975D01*
X0134837Y0049200D01*
X0135051Y0049420D01*
X0135271Y0049634D01*
X0135496Y0049843D01*
X0135725Y0050046D01*
X0135960Y0050244D01*
X0136200Y0050435D01*
X0136444Y0050621D01*
X0136692Y0050801D01*
X0136945Y0050974D01*
X0137203Y0051142D01*
X0137464Y0051303D01*
X0137729Y0051457D01*
X0137998Y0051605D01*
X0138270Y0051746D01*
X0138546Y0051881D01*
X0138824Y0052009D01*
X0139106Y0052129D01*
X0139391Y0052243D01*
X0139679Y0052350D01*
X0139969Y0052450D01*
X0140261Y0052543D01*
X0140556Y0052628D01*
X0140853Y0052706D01*
X0141151Y0052777D01*
X0141451Y0052841D01*
X0141753Y0052897D01*
X0142056Y0052946D01*
X0142360Y0052987D01*
X0142665Y0053021D01*
X0142970Y0053047D01*
X0143277Y0053066D01*
X0143583Y0053077D01*
X0143890Y0053081D01*
X0144197Y0053077D01*
X0144503Y0053066D01*
X0144810Y0053047D01*
X0145115Y0053021D01*
X0145420Y0052987D01*
X0145724Y0052946D01*
X0146027Y0052897D01*
X0146329Y0052841D01*
X0146629Y0052777D01*
X0146927Y0052706D01*
X0147224Y0052628D01*
X0147519Y0052543D01*
X0147811Y0052450D01*
X0148101Y0052350D01*
X0148389Y0052243D01*
X0148674Y0052129D01*
X0148956Y0052009D01*
X0149234Y0051881D01*
X0149510Y0051746D01*
X0149782Y0051605D01*
X0150051Y0051457D01*
X0150316Y0051303D01*
X0150577Y0051142D01*
X0150835Y0050974D01*
X0151088Y0050801D01*
X0151336Y0050621D01*
X0151580Y0050435D01*
X0151820Y0050244D01*
X0152055Y0050046D01*
X0152284Y0049843D01*
X0152509Y0049634D01*
X0152729Y0049420D01*
X0152943Y0049200D01*
X0153152Y0048975D01*
X0153355Y0048746D01*
X0153553Y0048511D01*
X0153744Y0048271D01*
X0153930Y0048027D01*
X0154110Y0047779D01*
X0154283Y0047526D01*
X0154451Y0047268D01*
X0154612Y0047007D01*
X0154766Y0046742D01*
X0154914Y0046473D01*
X0155055Y0046201D01*
X0155190Y0045925D01*
X0155318Y0045647D01*
X0155438Y0045365D01*
X0155552Y0045080D01*
X0155659Y0044792D01*
X0155759Y0044502D01*
X0155852Y0044210D01*
X0155937Y0043915D01*
X0156015Y0043618D01*
X0156086Y0043320D01*
X0156150Y0043020D01*
X0156206Y0042718D01*
X0156255Y0042415D01*
X0156296Y0042111D01*
X0156330Y0041806D01*
X0156356Y0041501D01*
X0156375Y0041194D01*
X0156386Y0040888D01*
X0156390Y0040581D01*
X0156386Y0040274D01*
X0156375Y0039968D01*
X0156356Y0039661D01*
X0156330Y0039356D01*
X0156296Y0039051D01*
X0156255Y0038747D01*
X0156206Y0038444D01*
X0156150Y0038142D01*
X0156086Y0037842D01*
X0156015Y0037544D01*
X0155937Y0037247D01*
X0155852Y0036952D01*
X0155759Y0036660D01*
X0155659Y0036370D01*
X0155552Y0036082D01*
X0155438Y0035797D01*
X0155318Y0035515D01*
X0155190Y0035237D01*
X0155055Y0034961D01*
X0154914Y0034689D01*
X0154766Y0034420D01*
X0154612Y0034155D01*
X0154451Y0033894D01*
X0154283Y0033636D01*
X0154110Y0033383D01*
X0153930Y0033135D01*
X0153744Y0032891D01*
X0153553Y0032651D01*
X0153355Y0032416D01*
X0153152Y0032187D01*
X0152943Y0031962D01*
X0152729Y0031742D01*
X0152509Y0031528D01*
X0152284Y0031319D01*
X0152055Y0031116D01*
X0151820Y0030918D01*
X0151580Y0030727D01*
X0151336Y0030541D01*
X0151088Y0030361D01*
X0150835Y0030188D01*
X0150577Y0030020D01*
X0150316Y0029859D01*
X0150051Y0029705D01*
X0149782Y0029557D01*
X0149510Y0029416D01*
X0149234Y0029281D01*
X0148956Y0029153D01*
X0148674Y0029033D01*
X0148389Y0028919D01*
X0148101Y0028812D01*
X0147811Y0028712D01*
X0147519Y0028619D01*
X0147224Y0028534D01*
X0146927Y0028456D01*
X0146629Y0028385D01*
X0146329Y0028321D01*
X0146027Y0028265D01*
X0145724Y0028216D01*
X0145420Y0028175D01*
X0145115Y0028141D01*
X0144810Y0028115D01*
X0144503Y0028096D01*
X0144197Y0028085D01*
X0143890Y0028081D01*
X0143583Y0028085D01*
X0143277Y0028096D01*
X0142970Y0028115D01*
X0142665Y0028141D01*
X0142360Y0028175D01*
X0142056Y0028216D01*
X0141753Y0028265D01*
X0141451Y0028321D01*
X0141151Y0028385D01*
X0140853Y0028456D01*
X0140556Y0028534D01*
X0140261Y0028619D01*
X0139969Y0028712D01*
X0139679Y0028812D01*
X0139391Y0028919D01*
X0139106Y0029033D01*
X0138824Y0029153D01*
X0138546Y0029281D01*
X0138270Y0029416D01*
X0137998Y0029557D01*
X0137729Y0029705D01*
X0137464Y0029859D01*
X0137203Y0030020D01*
X0136945Y0030188D01*
X0136692Y0030361D01*
X0136444Y0030541D01*
X0136200Y0030727D01*
X0135960Y0030918D01*
X0135725Y0031116D01*
X0135496Y0031319D01*
X0135271Y0031528D01*
X0135051Y0031742D01*
X0134837Y0031962D01*
X0134628Y0032187D01*
X0134425Y0032416D01*
X0134227Y0032651D01*
X0134036Y0032891D01*
X0133850Y0033135D01*
X0133670Y0033383D01*
X0133497Y0033636D01*
X0133329Y0033894D01*
X0133168Y0034155D01*
X0133014Y0034420D01*
X0132866Y0034689D01*
X0132725Y0034961D01*
X0132590Y0035237D01*
X0132462Y0035515D01*
X0132342Y0035797D01*
X0132228Y0036082D01*
X0132121Y0036370D01*
X0132021Y0036660D01*
X0131928Y0036952D01*
X0131843Y0037247D01*
X0131765Y0037544D01*
X0131694Y0037842D01*
X0131630Y0038142D01*
X0131574Y0038444D01*
X0131525Y0038747D01*
X0131484Y0039051D01*
X0131450Y0039356D01*
X0131424Y0039661D01*
X0131405Y0039968D01*
X0131394Y0040274D01*
X0131390Y0040581D01*
X0143890Y0041581D02*
X0143890Y0046081D01*
X0143890Y0041581D02*
X0143714Y0041583D01*
X0143538Y0041590D01*
X0143362Y0041601D01*
X0143186Y0041616D01*
X0143011Y0041635D01*
X0142836Y0041659D01*
X0142662Y0041686D01*
X0142489Y0041718D01*
X0142317Y0041754D01*
X0142145Y0041794D01*
X0141974Y0041837D01*
X0141805Y0041885D01*
X0141636Y0041937D01*
X0141469Y0041993D01*
X0141304Y0042053D01*
X0141139Y0042117D01*
X0140977Y0042185D01*
X0140816Y0042257D01*
X0140656Y0042332D01*
X0140499Y0042411D01*
X0140344Y0042494D01*
X0140190Y0042581D01*
X0143890Y0041581D02*
X0144066Y0041583D01*
X0144242Y0041590D01*
X0144418Y0041601D01*
X0144594Y0041616D01*
X0144769Y0041635D01*
X0144944Y0041659D01*
X0145118Y0041686D01*
X0145291Y0041718D01*
X0145463Y0041754D01*
X0145635Y0041794D01*
X0145806Y0041837D01*
X0145975Y0041885D01*
X0146144Y0041937D01*
X0146311Y0041993D01*
X0146476Y0042053D01*
X0146641Y0042117D01*
X0146803Y0042185D01*
X0146964Y0042257D01*
X0147124Y0042332D01*
X0147281Y0042411D01*
X0147436Y0042494D01*
X0147590Y0042581D01*
X0147436Y0042494D01*
X0147281Y0042411D01*
X0147124Y0042332D01*
X0146964Y0042257D01*
X0146803Y0042185D01*
X0146641Y0042117D01*
X0146476Y0042053D01*
X0146311Y0041993D01*
X0146144Y0041937D01*
X0145975Y0041885D01*
X0145806Y0041837D01*
X0145635Y0041794D01*
X0145463Y0041754D01*
X0145291Y0041718D01*
X0145118Y0041686D01*
X0144944Y0041659D01*
X0144769Y0041635D01*
X0144594Y0041616D01*
X0144418Y0041601D01*
X0144242Y0041590D01*
X0144066Y0041583D01*
X0143890Y0041581D01*
X0164357Y0066997D02*
X0164357Y0080597D01*
X0176957Y0080597D02*
X0176957Y0066997D01*
X0196646Y0041187D02*
X0196822Y0041189D01*
X0196998Y0041196D01*
X0197174Y0041207D01*
X0197350Y0041222D01*
X0197525Y0041241D01*
X0197700Y0041265D01*
X0197874Y0041292D01*
X0198047Y0041324D01*
X0198219Y0041360D01*
X0198391Y0041400D01*
X0198562Y0041443D01*
X0198731Y0041491D01*
X0198900Y0041543D01*
X0199067Y0041599D01*
X0199232Y0041659D01*
X0199397Y0041723D01*
X0199559Y0041791D01*
X0199720Y0041863D01*
X0199880Y0041938D01*
X0200037Y0042017D01*
X0200192Y0042100D01*
X0200346Y0042187D01*
X0200646Y0039187D02*
X0196646Y0039187D01*
X0192646Y0039187D01*
X0196646Y0039187D02*
X0196646Y0034687D01*
X0184146Y0040187D02*
X0184150Y0040494D01*
X0184161Y0040800D01*
X0184180Y0041107D01*
X0184206Y0041412D01*
X0184240Y0041717D01*
X0184281Y0042021D01*
X0184330Y0042324D01*
X0184386Y0042626D01*
X0184450Y0042926D01*
X0184521Y0043224D01*
X0184599Y0043521D01*
X0184684Y0043816D01*
X0184777Y0044108D01*
X0184877Y0044398D01*
X0184984Y0044686D01*
X0185098Y0044971D01*
X0185218Y0045253D01*
X0185346Y0045531D01*
X0185481Y0045807D01*
X0185622Y0046079D01*
X0185770Y0046348D01*
X0185924Y0046613D01*
X0186085Y0046874D01*
X0186253Y0047132D01*
X0186426Y0047385D01*
X0186606Y0047633D01*
X0186792Y0047877D01*
X0186983Y0048117D01*
X0187181Y0048352D01*
X0187384Y0048581D01*
X0187593Y0048806D01*
X0187807Y0049026D01*
X0188027Y0049240D01*
X0188252Y0049449D01*
X0188481Y0049652D01*
X0188716Y0049850D01*
X0188956Y0050041D01*
X0189200Y0050227D01*
X0189448Y0050407D01*
X0189701Y0050580D01*
X0189959Y0050748D01*
X0190220Y0050909D01*
X0190485Y0051063D01*
X0190754Y0051211D01*
X0191026Y0051352D01*
X0191302Y0051487D01*
X0191580Y0051615D01*
X0191862Y0051735D01*
X0192147Y0051849D01*
X0192435Y0051956D01*
X0192725Y0052056D01*
X0193017Y0052149D01*
X0193312Y0052234D01*
X0193609Y0052312D01*
X0193907Y0052383D01*
X0194207Y0052447D01*
X0194509Y0052503D01*
X0194812Y0052552D01*
X0195116Y0052593D01*
X0195421Y0052627D01*
X0195726Y0052653D01*
X0196033Y0052672D01*
X0196339Y0052683D01*
X0196646Y0052687D01*
X0196953Y0052683D01*
X0197259Y0052672D01*
X0197566Y0052653D01*
X0197871Y0052627D01*
X0198176Y0052593D01*
X0198480Y0052552D01*
X0198783Y0052503D01*
X0199085Y0052447D01*
X0199385Y0052383D01*
X0199683Y0052312D01*
X0199980Y0052234D01*
X0200275Y0052149D01*
X0200567Y0052056D01*
X0200857Y0051956D01*
X0201145Y0051849D01*
X0201430Y0051735D01*
X0201712Y0051615D01*
X0201990Y0051487D01*
X0202266Y0051352D01*
X0202538Y0051211D01*
X0202807Y0051063D01*
X0203072Y0050909D01*
X0203333Y0050748D01*
X0203591Y0050580D01*
X0203844Y0050407D01*
X0204092Y0050227D01*
X0204336Y0050041D01*
X0204576Y0049850D01*
X0204811Y0049652D01*
X0205040Y0049449D01*
X0205265Y0049240D01*
X0205485Y0049026D01*
X0205699Y0048806D01*
X0205908Y0048581D01*
X0206111Y0048352D01*
X0206309Y0048117D01*
X0206500Y0047877D01*
X0206686Y0047633D01*
X0206866Y0047385D01*
X0207039Y0047132D01*
X0207207Y0046874D01*
X0207368Y0046613D01*
X0207522Y0046348D01*
X0207670Y0046079D01*
X0207811Y0045807D01*
X0207946Y0045531D01*
X0208074Y0045253D01*
X0208194Y0044971D01*
X0208308Y0044686D01*
X0208415Y0044398D01*
X0208515Y0044108D01*
X0208608Y0043816D01*
X0208693Y0043521D01*
X0208771Y0043224D01*
X0208842Y0042926D01*
X0208906Y0042626D01*
X0208962Y0042324D01*
X0209011Y0042021D01*
X0209052Y0041717D01*
X0209086Y0041412D01*
X0209112Y0041107D01*
X0209131Y0040800D01*
X0209142Y0040494D01*
X0209146Y0040187D01*
X0209142Y0039880D01*
X0209131Y0039574D01*
X0209112Y0039267D01*
X0209086Y0038962D01*
X0209052Y0038657D01*
X0209011Y0038353D01*
X0208962Y0038050D01*
X0208906Y0037748D01*
X0208842Y0037448D01*
X0208771Y0037150D01*
X0208693Y0036853D01*
X0208608Y0036558D01*
X0208515Y0036266D01*
X0208415Y0035976D01*
X0208308Y0035688D01*
X0208194Y0035403D01*
X0208074Y0035121D01*
X0207946Y0034843D01*
X0207811Y0034567D01*
X0207670Y0034295D01*
X0207522Y0034026D01*
X0207368Y0033761D01*
X0207207Y0033500D01*
X0207039Y0033242D01*
X0206866Y0032989D01*
X0206686Y0032741D01*
X0206500Y0032497D01*
X0206309Y0032257D01*
X0206111Y0032022D01*
X0205908Y0031793D01*
X0205699Y0031568D01*
X0205485Y0031348D01*
X0205265Y0031134D01*
X0205040Y0030925D01*
X0204811Y0030722D01*
X0204576Y0030524D01*
X0204336Y0030333D01*
X0204092Y0030147D01*
X0203844Y0029967D01*
X0203591Y0029794D01*
X0203333Y0029626D01*
X0203072Y0029465D01*
X0202807Y0029311D01*
X0202538Y0029163D01*
X0202266Y0029022D01*
X0201990Y0028887D01*
X0201712Y0028759D01*
X0201430Y0028639D01*
X0201145Y0028525D01*
X0200857Y0028418D01*
X0200567Y0028318D01*
X0200275Y0028225D01*
X0199980Y0028140D01*
X0199683Y0028062D01*
X0199385Y0027991D01*
X0199085Y0027927D01*
X0198783Y0027871D01*
X0198480Y0027822D01*
X0198176Y0027781D01*
X0197871Y0027747D01*
X0197566Y0027721D01*
X0197259Y0027702D01*
X0196953Y0027691D01*
X0196646Y0027687D01*
X0196339Y0027691D01*
X0196033Y0027702D01*
X0195726Y0027721D01*
X0195421Y0027747D01*
X0195116Y0027781D01*
X0194812Y0027822D01*
X0194509Y0027871D01*
X0194207Y0027927D01*
X0193907Y0027991D01*
X0193609Y0028062D01*
X0193312Y0028140D01*
X0193017Y0028225D01*
X0192725Y0028318D01*
X0192435Y0028418D01*
X0192147Y0028525D01*
X0191862Y0028639D01*
X0191580Y0028759D01*
X0191302Y0028887D01*
X0191026Y0029022D01*
X0190754Y0029163D01*
X0190485Y0029311D01*
X0190220Y0029465D01*
X0189959Y0029626D01*
X0189701Y0029794D01*
X0189448Y0029967D01*
X0189200Y0030147D01*
X0188956Y0030333D01*
X0188716Y0030524D01*
X0188481Y0030722D01*
X0188252Y0030925D01*
X0188027Y0031134D01*
X0187807Y0031348D01*
X0187593Y0031568D01*
X0187384Y0031793D01*
X0187181Y0032022D01*
X0186983Y0032257D01*
X0186792Y0032497D01*
X0186606Y0032741D01*
X0186426Y0032989D01*
X0186253Y0033242D01*
X0186085Y0033500D01*
X0185924Y0033761D01*
X0185770Y0034026D01*
X0185622Y0034295D01*
X0185481Y0034567D01*
X0185346Y0034843D01*
X0185218Y0035121D01*
X0185098Y0035403D01*
X0184984Y0035688D01*
X0184877Y0035976D01*
X0184777Y0036266D01*
X0184684Y0036558D01*
X0184599Y0036853D01*
X0184521Y0037150D01*
X0184450Y0037448D01*
X0184386Y0037748D01*
X0184330Y0038050D01*
X0184281Y0038353D01*
X0184240Y0038657D01*
X0184206Y0038962D01*
X0184180Y0039267D01*
X0184161Y0039574D01*
X0184150Y0039880D01*
X0184146Y0040187D01*
X0196646Y0041187D02*
X0196646Y0045687D01*
X0196646Y0041187D02*
X0196470Y0041189D01*
X0196294Y0041196D01*
X0196118Y0041207D01*
X0195942Y0041222D01*
X0195767Y0041241D01*
X0195592Y0041265D01*
X0195418Y0041292D01*
X0195245Y0041324D01*
X0195073Y0041360D01*
X0194901Y0041400D01*
X0194730Y0041443D01*
X0194561Y0041491D01*
X0194392Y0041543D01*
X0194225Y0041599D01*
X0194060Y0041659D01*
X0193895Y0041723D01*
X0193733Y0041791D01*
X0193572Y0041863D01*
X0193412Y0041938D01*
X0193255Y0042017D01*
X0193100Y0042100D01*
X0192946Y0042187D01*
X0196646Y0041187D02*
X0196822Y0041189D01*
X0196998Y0041196D01*
X0197174Y0041207D01*
X0197350Y0041222D01*
X0197525Y0041241D01*
X0197700Y0041265D01*
X0197874Y0041292D01*
X0198047Y0041324D01*
X0198219Y0041360D01*
X0198391Y0041400D01*
X0198562Y0041443D01*
X0198731Y0041491D01*
X0198900Y0041543D01*
X0199067Y0041599D01*
X0199232Y0041659D01*
X0199397Y0041723D01*
X0199559Y0041791D01*
X0199720Y0041863D01*
X0199880Y0041938D01*
X0200037Y0042017D01*
X0200192Y0042100D01*
X0200346Y0042187D01*
X0200192Y0042100D01*
X0200037Y0042017D01*
X0199880Y0041938D01*
X0199720Y0041863D01*
X0199559Y0041791D01*
X0199397Y0041723D01*
X0199232Y0041659D01*
X0199067Y0041599D01*
X0198900Y0041543D01*
X0198731Y0041491D01*
X0198562Y0041443D01*
X0198391Y0041400D01*
X0198219Y0041360D01*
X0198047Y0041324D01*
X0197874Y0041292D01*
X0197700Y0041265D01*
X0197525Y0041241D01*
X0197350Y0041222D01*
X0197174Y0041207D01*
X0196998Y0041196D01*
X0196822Y0041189D01*
X0196646Y0041187D01*
X0226633Y0067194D02*
X0226633Y0080794D01*
X0239233Y0080794D02*
X0239233Y0067194D01*
X0250976Y0041384D02*
X0251152Y0041386D01*
X0251328Y0041393D01*
X0251504Y0041404D01*
X0251680Y0041419D01*
X0251855Y0041438D01*
X0252030Y0041462D01*
X0252204Y0041489D01*
X0252377Y0041521D01*
X0252549Y0041557D01*
X0252721Y0041597D01*
X0252892Y0041640D01*
X0253061Y0041688D01*
X0253230Y0041740D01*
X0253397Y0041796D01*
X0253562Y0041856D01*
X0253727Y0041920D01*
X0253889Y0041988D01*
X0254050Y0042060D01*
X0254210Y0042135D01*
X0254367Y0042214D01*
X0254522Y0042297D01*
X0254676Y0042384D01*
X0254976Y0039384D02*
X0250976Y0039384D01*
X0246976Y0039384D01*
X0250976Y0039384D02*
X0250976Y0034884D01*
X0238476Y0040384D02*
X0238480Y0040691D01*
X0238491Y0040997D01*
X0238510Y0041304D01*
X0238536Y0041609D01*
X0238570Y0041914D01*
X0238611Y0042218D01*
X0238660Y0042521D01*
X0238716Y0042823D01*
X0238780Y0043123D01*
X0238851Y0043421D01*
X0238929Y0043718D01*
X0239014Y0044013D01*
X0239107Y0044305D01*
X0239207Y0044595D01*
X0239314Y0044883D01*
X0239428Y0045168D01*
X0239548Y0045450D01*
X0239676Y0045728D01*
X0239811Y0046004D01*
X0239952Y0046276D01*
X0240100Y0046545D01*
X0240254Y0046810D01*
X0240415Y0047071D01*
X0240583Y0047329D01*
X0240756Y0047582D01*
X0240936Y0047830D01*
X0241122Y0048074D01*
X0241313Y0048314D01*
X0241511Y0048549D01*
X0241714Y0048778D01*
X0241923Y0049003D01*
X0242137Y0049223D01*
X0242357Y0049437D01*
X0242582Y0049646D01*
X0242811Y0049849D01*
X0243046Y0050047D01*
X0243286Y0050238D01*
X0243530Y0050424D01*
X0243778Y0050604D01*
X0244031Y0050777D01*
X0244289Y0050945D01*
X0244550Y0051106D01*
X0244815Y0051260D01*
X0245084Y0051408D01*
X0245356Y0051549D01*
X0245632Y0051684D01*
X0245910Y0051812D01*
X0246192Y0051932D01*
X0246477Y0052046D01*
X0246765Y0052153D01*
X0247055Y0052253D01*
X0247347Y0052346D01*
X0247642Y0052431D01*
X0247939Y0052509D01*
X0248237Y0052580D01*
X0248537Y0052644D01*
X0248839Y0052700D01*
X0249142Y0052749D01*
X0249446Y0052790D01*
X0249751Y0052824D01*
X0250056Y0052850D01*
X0250363Y0052869D01*
X0250669Y0052880D01*
X0250976Y0052884D01*
X0251283Y0052880D01*
X0251589Y0052869D01*
X0251896Y0052850D01*
X0252201Y0052824D01*
X0252506Y0052790D01*
X0252810Y0052749D01*
X0253113Y0052700D01*
X0253415Y0052644D01*
X0253715Y0052580D01*
X0254013Y0052509D01*
X0254310Y0052431D01*
X0254605Y0052346D01*
X0254897Y0052253D01*
X0255187Y0052153D01*
X0255475Y0052046D01*
X0255760Y0051932D01*
X0256042Y0051812D01*
X0256320Y0051684D01*
X0256596Y0051549D01*
X0256868Y0051408D01*
X0257137Y0051260D01*
X0257402Y0051106D01*
X0257663Y0050945D01*
X0257921Y0050777D01*
X0258174Y0050604D01*
X0258422Y0050424D01*
X0258666Y0050238D01*
X0258906Y0050047D01*
X0259141Y0049849D01*
X0259370Y0049646D01*
X0259595Y0049437D01*
X0259815Y0049223D01*
X0260029Y0049003D01*
X0260238Y0048778D01*
X0260441Y0048549D01*
X0260639Y0048314D01*
X0260830Y0048074D01*
X0261016Y0047830D01*
X0261196Y0047582D01*
X0261369Y0047329D01*
X0261537Y0047071D01*
X0261698Y0046810D01*
X0261852Y0046545D01*
X0262000Y0046276D01*
X0262141Y0046004D01*
X0262276Y0045728D01*
X0262404Y0045450D01*
X0262524Y0045168D01*
X0262638Y0044883D01*
X0262745Y0044595D01*
X0262845Y0044305D01*
X0262938Y0044013D01*
X0263023Y0043718D01*
X0263101Y0043421D01*
X0263172Y0043123D01*
X0263236Y0042823D01*
X0263292Y0042521D01*
X0263341Y0042218D01*
X0263382Y0041914D01*
X0263416Y0041609D01*
X0263442Y0041304D01*
X0263461Y0040997D01*
X0263472Y0040691D01*
X0263476Y0040384D01*
X0263472Y0040077D01*
X0263461Y0039771D01*
X0263442Y0039464D01*
X0263416Y0039159D01*
X0263382Y0038854D01*
X0263341Y0038550D01*
X0263292Y0038247D01*
X0263236Y0037945D01*
X0263172Y0037645D01*
X0263101Y0037347D01*
X0263023Y0037050D01*
X0262938Y0036755D01*
X0262845Y0036463D01*
X0262745Y0036173D01*
X0262638Y0035885D01*
X0262524Y0035600D01*
X0262404Y0035318D01*
X0262276Y0035040D01*
X0262141Y0034764D01*
X0262000Y0034492D01*
X0261852Y0034223D01*
X0261698Y0033958D01*
X0261537Y0033697D01*
X0261369Y0033439D01*
X0261196Y0033186D01*
X0261016Y0032938D01*
X0260830Y0032694D01*
X0260639Y0032454D01*
X0260441Y0032219D01*
X0260238Y0031990D01*
X0260029Y0031765D01*
X0259815Y0031545D01*
X0259595Y0031331D01*
X0259370Y0031122D01*
X0259141Y0030919D01*
X0258906Y0030721D01*
X0258666Y0030530D01*
X0258422Y0030344D01*
X0258174Y0030164D01*
X0257921Y0029991D01*
X0257663Y0029823D01*
X0257402Y0029662D01*
X0257137Y0029508D01*
X0256868Y0029360D01*
X0256596Y0029219D01*
X0256320Y0029084D01*
X0256042Y0028956D01*
X0255760Y0028836D01*
X0255475Y0028722D01*
X0255187Y0028615D01*
X0254897Y0028515D01*
X0254605Y0028422D01*
X0254310Y0028337D01*
X0254013Y0028259D01*
X0253715Y0028188D01*
X0253415Y0028124D01*
X0253113Y0028068D01*
X0252810Y0028019D01*
X0252506Y0027978D01*
X0252201Y0027944D01*
X0251896Y0027918D01*
X0251589Y0027899D01*
X0251283Y0027888D01*
X0250976Y0027884D01*
X0250669Y0027888D01*
X0250363Y0027899D01*
X0250056Y0027918D01*
X0249751Y0027944D01*
X0249446Y0027978D01*
X0249142Y0028019D01*
X0248839Y0028068D01*
X0248537Y0028124D01*
X0248237Y0028188D01*
X0247939Y0028259D01*
X0247642Y0028337D01*
X0247347Y0028422D01*
X0247055Y0028515D01*
X0246765Y0028615D01*
X0246477Y0028722D01*
X0246192Y0028836D01*
X0245910Y0028956D01*
X0245632Y0029084D01*
X0245356Y0029219D01*
X0245084Y0029360D01*
X0244815Y0029508D01*
X0244550Y0029662D01*
X0244289Y0029823D01*
X0244031Y0029991D01*
X0243778Y0030164D01*
X0243530Y0030344D01*
X0243286Y0030530D01*
X0243046Y0030721D01*
X0242811Y0030919D01*
X0242582Y0031122D01*
X0242357Y0031331D01*
X0242137Y0031545D01*
X0241923Y0031765D01*
X0241714Y0031990D01*
X0241511Y0032219D01*
X0241313Y0032454D01*
X0241122Y0032694D01*
X0240936Y0032938D01*
X0240756Y0033186D01*
X0240583Y0033439D01*
X0240415Y0033697D01*
X0240254Y0033958D01*
X0240100Y0034223D01*
X0239952Y0034492D01*
X0239811Y0034764D01*
X0239676Y0035040D01*
X0239548Y0035318D01*
X0239428Y0035600D01*
X0239314Y0035885D01*
X0239207Y0036173D01*
X0239107Y0036463D01*
X0239014Y0036755D01*
X0238929Y0037050D01*
X0238851Y0037347D01*
X0238780Y0037645D01*
X0238716Y0037945D01*
X0238660Y0038247D01*
X0238611Y0038550D01*
X0238570Y0038854D01*
X0238536Y0039159D01*
X0238510Y0039464D01*
X0238491Y0039771D01*
X0238480Y0040077D01*
X0238476Y0040384D01*
X0250976Y0041384D02*
X0250976Y0045884D01*
X0250976Y0041384D02*
X0250800Y0041386D01*
X0250624Y0041393D01*
X0250448Y0041404D01*
X0250272Y0041419D01*
X0250097Y0041438D01*
X0249922Y0041462D01*
X0249748Y0041489D01*
X0249575Y0041521D01*
X0249403Y0041557D01*
X0249231Y0041597D01*
X0249060Y0041640D01*
X0248891Y0041688D01*
X0248722Y0041740D01*
X0248555Y0041796D01*
X0248390Y0041856D01*
X0248225Y0041920D01*
X0248063Y0041988D01*
X0247902Y0042060D01*
X0247742Y0042135D01*
X0247585Y0042214D01*
X0247430Y0042297D01*
X0247276Y0042384D01*
X0250976Y0041384D02*
X0251152Y0041386D01*
X0251328Y0041393D01*
X0251504Y0041404D01*
X0251680Y0041419D01*
X0251855Y0041438D01*
X0252030Y0041462D01*
X0252204Y0041489D01*
X0252377Y0041521D01*
X0252549Y0041557D01*
X0252721Y0041597D01*
X0252892Y0041640D01*
X0253061Y0041688D01*
X0253230Y0041740D01*
X0253397Y0041796D01*
X0253562Y0041856D01*
X0253727Y0041920D01*
X0253889Y0041988D01*
X0254050Y0042060D01*
X0254210Y0042135D01*
X0254367Y0042214D01*
X0254522Y0042297D01*
X0254676Y0042384D01*
X0254522Y0042297D01*
X0254367Y0042214D01*
X0254210Y0042135D01*
X0254050Y0042060D01*
X0253889Y0041988D01*
X0253727Y0041920D01*
X0253562Y0041856D01*
X0253397Y0041796D01*
X0253230Y0041740D01*
X0253061Y0041688D01*
X0252892Y0041640D01*
X0252721Y0041597D01*
X0252549Y0041557D01*
X0252377Y0041521D01*
X0252204Y0041489D01*
X0252030Y0041462D01*
X0251855Y0041438D01*
X0251680Y0041419D01*
X0251504Y0041404D01*
X0251328Y0041393D01*
X0251152Y0041386D01*
X0250976Y0041384D01*
X0213575Y0180935D02*
X0174205Y0180935D01*
X0174205Y0200620D02*
X0150937Y0200620D01*
X0168155Y0204557D02*
X0168157Y0204671D01*
X0168163Y0204786D01*
X0168173Y0204899D01*
X0168187Y0205013D01*
X0168204Y0205126D01*
X0168226Y0205238D01*
X0168252Y0205350D01*
X0168281Y0205460D01*
X0168314Y0205569D01*
X0168351Y0205678D01*
X0168392Y0205784D01*
X0168437Y0205890D01*
X0168485Y0205994D01*
X0168536Y0206096D01*
X0168592Y0206196D01*
X0168650Y0206294D01*
X0168712Y0206390D01*
X0168777Y0206484D01*
X0168846Y0206575D01*
X0168918Y0206665D01*
X0168992Y0206751D01*
X0169070Y0206835D01*
X0169150Y0206916D01*
X0169234Y0206995D01*
X0169320Y0207070D01*
X0169408Y0207143D01*
X0169499Y0207212D01*
X0169592Y0207278D01*
X0169688Y0207341D01*
X0169786Y0207400D01*
X0169885Y0207456D01*
X0169987Y0207509D01*
X0170090Y0207558D01*
X0170195Y0207603D01*
X0170302Y0207645D01*
X0170409Y0207683D01*
X0170518Y0207717D01*
X0170629Y0207747D01*
X0170740Y0207774D01*
X0170852Y0207796D01*
X0170965Y0207815D01*
X0171078Y0207830D01*
X0171192Y0207841D01*
X0171306Y0207848D01*
X0171420Y0207851D01*
X0171535Y0207850D01*
X0171649Y0207845D01*
X0171763Y0207836D01*
X0171877Y0207823D01*
X0171990Y0207806D01*
X0172102Y0207786D01*
X0172214Y0207761D01*
X0172325Y0207733D01*
X0172434Y0207700D01*
X0172543Y0207664D01*
X0172650Y0207624D01*
X0172756Y0207581D01*
X0172860Y0207534D01*
X0172962Y0207483D01*
X0173063Y0207429D01*
X0173162Y0207371D01*
X0173258Y0207310D01*
X0173353Y0207245D01*
X0173445Y0207178D01*
X0173535Y0207107D01*
X0173622Y0207033D01*
X0173706Y0206956D01*
X0173788Y0206876D01*
X0173867Y0206793D01*
X0173944Y0206708D01*
X0174017Y0206620D01*
X0174087Y0206530D01*
X0174154Y0206437D01*
X0174217Y0206342D01*
X0174278Y0206245D01*
X0174334Y0206146D01*
X0174388Y0206045D01*
X0174438Y0205942D01*
X0174484Y0205837D01*
X0174527Y0205731D01*
X0174565Y0205624D01*
X0174601Y0205515D01*
X0174632Y0205405D01*
X0174660Y0205294D01*
X0174683Y0205182D01*
X0174703Y0205069D01*
X0174719Y0204956D01*
X0174731Y0204843D01*
X0174739Y0204728D01*
X0174743Y0204614D01*
X0174743Y0204500D01*
X0174739Y0204386D01*
X0174731Y0204271D01*
X0174719Y0204158D01*
X0174703Y0204045D01*
X0174683Y0203932D01*
X0174660Y0203820D01*
X0174632Y0203709D01*
X0174601Y0203599D01*
X0174565Y0203490D01*
X0174527Y0203383D01*
X0174484Y0203277D01*
X0174438Y0203172D01*
X0174388Y0203069D01*
X0174334Y0202968D01*
X0174278Y0202869D01*
X0174217Y0202772D01*
X0174154Y0202677D01*
X0174087Y0202584D01*
X0174017Y0202494D01*
X0173944Y0202406D01*
X0173867Y0202321D01*
X0173788Y0202238D01*
X0173706Y0202158D01*
X0173622Y0202081D01*
X0173535Y0202007D01*
X0173445Y0201936D01*
X0173353Y0201869D01*
X0173258Y0201804D01*
X0173162Y0201743D01*
X0173063Y0201685D01*
X0172962Y0201631D01*
X0172860Y0201580D01*
X0172756Y0201533D01*
X0172650Y0201490D01*
X0172543Y0201450D01*
X0172434Y0201414D01*
X0172325Y0201381D01*
X0172214Y0201353D01*
X0172102Y0201328D01*
X0171990Y0201308D01*
X0171877Y0201291D01*
X0171763Y0201278D01*
X0171649Y0201269D01*
X0171535Y0201264D01*
X0171420Y0201263D01*
X0171306Y0201266D01*
X0171192Y0201273D01*
X0171078Y0201284D01*
X0170965Y0201299D01*
X0170852Y0201318D01*
X0170740Y0201340D01*
X0170629Y0201367D01*
X0170518Y0201397D01*
X0170409Y0201431D01*
X0170302Y0201469D01*
X0170195Y0201511D01*
X0170090Y0201556D01*
X0169987Y0201605D01*
X0169885Y0201658D01*
X0169786Y0201714D01*
X0169688Y0201773D01*
X0169592Y0201836D01*
X0169499Y0201902D01*
X0169408Y0201971D01*
X0169320Y0202044D01*
X0169234Y0202119D01*
X0169150Y0202198D01*
X0169070Y0202279D01*
X0168992Y0202363D01*
X0168918Y0202449D01*
X0168846Y0202539D01*
X0168777Y0202630D01*
X0168712Y0202724D01*
X0168650Y0202820D01*
X0168592Y0202918D01*
X0168536Y0203018D01*
X0168485Y0203120D01*
X0168437Y0203224D01*
X0168392Y0203330D01*
X0168351Y0203436D01*
X0168314Y0203545D01*
X0168281Y0203654D01*
X0168252Y0203764D01*
X0168226Y0203876D01*
X0168204Y0203988D01*
X0168187Y0204101D01*
X0168173Y0204215D01*
X0168163Y0204328D01*
X0168157Y0204443D01*
X0168155Y0204557D01*
X0174205Y0200620D02*
X0174329Y0200622D01*
X0174452Y0200628D01*
X0174576Y0200637D01*
X0174698Y0200651D01*
X0174821Y0200668D01*
X0174943Y0200690D01*
X0175064Y0200715D01*
X0175184Y0200744D01*
X0175303Y0200776D01*
X0175422Y0200813D01*
X0175539Y0200853D01*
X0175654Y0200896D01*
X0175769Y0200944D01*
X0175881Y0200995D01*
X0175992Y0201049D01*
X0176102Y0201107D01*
X0176209Y0201168D01*
X0176315Y0201233D01*
X0176418Y0201301D01*
X0176519Y0201372D01*
X0176618Y0201446D01*
X0176715Y0201523D01*
X0176809Y0201604D01*
X0176900Y0201687D01*
X0176989Y0201773D01*
X0177075Y0201862D01*
X0177158Y0201953D01*
X0177239Y0202047D01*
X0177316Y0202144D01*
X0177390Y0202243D01*
X0177461Y0202344D01*
X0177529Y0202447D01*
X0177594Y0202553D01*
X0177655Y0202660D01*
X0177713Y0202770D01*
X0177767Y0202881D01*
X0177818Y0202993D01*
X0177866Y0203108D01*
X0177909Y0203223D01*
X0177949Y0203340D01*
X0177986Y0203459D01*
X0178018Y0203578D01*
X0178047Y0203698D01*
X0178072Y0203819D01*
X0178094Y0203941D01*
X0178111Y0204064D01*
X0178125Y0204186D01*
X0178134Y0204310D01*
X0178140Y0204433D01*
X0178142Y0204557D01*
X0178140Y0204681D01*
X0178134Y0204804D01*
X0178125Y0204928D01*
X0178111Y0205050D01*
X0178094Y0205173D01*
X0178072Y0205295D01*
X0178047Y0205416D01*
X0178018Y0205536D01*
X0177986Y0205655D01*
X0177949Y0205774D01*
X0177909Y0205891D01*
X0177866Y0206006D01*
X0177818Y0206121D01*
X0177767Y0206233D01*
X0177713Y0206344D01*
X0177655Y0206454D01*
X0177594Y0206561D01*
X0177529Y0206667D01*
X0177461Y0206770D01*
X0177390Y0206871D01*
X0177316Y0206970D01*
X0177239Y0207067D01*
X0177158Y0207161D01*
X0177075Y0207252D01*
X0176989Y0207341D01*
X0176900Y0207427D01*
X0176809Y0207510D01*
X0176715Y0207591D01*
X0176618Y0207668D01*
X0176519Y0207742D01*
X0176418Y0207813D01*
X0176315Y0207881D01*
X0176209Y0207946D01*
X0176102Y0208007D01*
X0175992Y0208065D01*
X0175881Y0208119D01*
X0175769Y0208170D01*
X0175654Y0208218D01*
X0175539Y0208261D01*
X0175422Y0208301D01*
X0175303Y0208338D01*
X0175184Y0208370D01*
X0175064Y0208399D01*
X0174943Y0208424D01*
X0174821Y0208446D01*
X0174698Y0208463D01*
X0174576Y0208477D01*
X0174452Y0208486D01*
X0174329Y0208492D01*
X0174205Y0208494D01*
X0150583Y0204557D02*
X0150590Y0203986D01*
X0150611Y0203416D01*
X0150645Y0202846D01*
X0150693Y0202277D01*
X0150755Y0201710D01*
X0150831Y0201144D01*
X0150920Y0200580D01*
X0151023Y0200019D01*
X0151140Y0199460D01*
X0151269Y0198904D01*
X0151413Y0198351D01*
X0151569Y0197802D01*
X0151739Y0197257D01*
X0151922Y0196717D01*
X0152118Y0196181D01*
X0152327Y0195649D01*
X0152549Y0195123D01*
X0152783Y0194603D01*
X0153030Y0194088D01*
X0153289Y0193579D01*
X0153560Y0193077D01*
X0153844Y0192582D01*
X0154139Y0192093D01*
X0154446Y0191612D01*
X0154764Y0191138D01*
X0155094Y0190672D01*
X0155435Y0190215D01*
X0155788Y0189765D01*
X0156150Y0189325D01*
X0156524Y0188893D01*
X0156907Y0188470D01*
X0157301Y0188057D01*
X0157705Y0187653D01*
X0158118Y0187259D01*
X0158541Y0186876D01*
X0158973Y0186502D01*
X0159413Y0186140D01*
X0159863Y0185787D01*
X0160320Y0185446D01*
X0160786Y0185116D01*
X0161260Y0184798D01*
X0161741Y0184491D01*
X0162230Y0184196D01*
X0162725Y0183912D01*
X0163227Y0183641D01*
X0163736Y0183382D01*
X0164251Y0183135D01*
X0164771Y0182901D01*
X0165297Y0182679D01*
X0165829Y0182470D01*
X0166365Y0182274D01*
X0166905Y0182091D01*
X0167450Y0181921D01*
X0167999Y0181765D01*
X0168552Y0181621D01*
X0169108Y0181492D01*
X0169667Y0181375D01*
X0170228Y0181272D01*
X0170792Y0181183D01*
X0171358Y0181107D01*
X0171925Y0181045D01*
X0172494Y0180997D01*
X0173064Y0180963D01*
X0173634Y0180942D01*
X0174205Y0180935D01*
X0150583Y0204557D02*
X0150590Y0205128D01*
X0150611Y0205698D01*
X0150645Y0206268D01*
X0150693Y0206837D01*
X0150755Y0207404D01*
X0150831Y0207970D01*
X0150920Y0208534D01*
X0151023Y0209095D01*
X0151140Y0209654D01*
X0151269Y0210210D01*
X0151413Y0210763D01*
X0151569Y0211312D01*
X0151739Y0211857D01*
X0151922Y0212397D01*
X0152118Y0212933D01*
X0152327Y0213465D01*
X0152549Y0213991D01*
X0152783Y0214511D01*
X0153030Y0215026D01*
X0153289Y0215535D01*
X0153560Y0216037D01*
X0153844Y0216532D01*
X0154139Y0217021D01*
X0154446Y0217502D01*
X0154764Y0217976D01*
X0155094Y0218442D01*
X0155435Y0218899D01*
X0155788Y0219349D01*
X0156150Y0219789D01*
X0156524Y0220221D01*
X0156907Y0220644D01*
X0157301Y0221057D01*
X0157705Y0221461D01*
X0158118Y0221855D01*
X0158541Y0222238D01*
X0158973Y0222612D01*
X0159413Y0222974D01*
X0159863Y0223327D01*
X0160320Y0223668D01*
X0160786Y0223998D01*
X0161260Y0224316D01*
X0161741Y0224623D01*
X0162230Y0224918D01*
X0162725Y0225202D01*
X0163227Y0225473D01*
X0163736Y0225732D01*
X0164251Y0225979D01*
X0164771Y0226213D01*
X0165297Y0226435D01*
X0165829Y0226644D01*
X0166365Y0226840D01*
X0166905Y0227023D01*
X0167450Y0227193D01*
X0167999Y0227349D01*
X0168552Y0227493D01*
X0169108Y0227622D01*
X0169667Y0227739D01*
X0170228Y0227842D01*
X0170792Y0227931D01*
X0171358Y0228007D01*
X0171925Y0228069D01*
X0172494Y0228117D01*
X0173064Y0228151D01*
X0173634Y0228172D01*
X0174205Y0228179D01*
X0213575Y0228179D01*
X0213575Y0180935D01*
X0106298Y0204557D02*
X0106322Y0206513D01*
X0106394Y0208469D01*
X0106514Y0210421D01*
X0106682Y0212371D01*
X0106898Y0214315D01*
X0107161Y0216254D01*
X0107472Y0218186D01*
X0107830Y0220109D01*
X0108235Y0222023D01*
X0108687Y0223927D01*
X0109186Y0225819D01*
X0109731Y0227698D01*
X0110322Y0229563D01*
X0110958Y0231413D01*
X0111640Y0233247D01*
X0112366Y0235064D01*
X0113137Y0236862D01*
X0113952Y0238641D01*
X0114810Y0240399D01*
X0115711Y0242136D01*
X0116654Y0243850D01*
X0117640Y0245540D01*
X0118666Y0247206D01*
X0119733Y0248846D01*
X0120840Y0250459D01*
X0121986Y0252045D01*
X0123171Y0253602D01*
X0124393Y0255130D01*
X0125653Y0256627D01*
X0126949Y0258092D01*
X0128280Y0259526D01*
X0129647Y0260926D01*
X0131047Y0262293D01*
X0132481Y0263624D01*
X0133946Y0264920D01*
X0135443Y0266180D01*
X0136971Y0267402D01*
X0138528Y0268587D01*
X0140114Y0269733D01*
X0141727Y0270840D01*
X0143367Y0271907D01*
X0145033Y0272933D01*
X0146723Y0273919D01*
X0148437Y0274862D01*
X0150174Y0275763D01*
X0151932Y0276621D01*
X0153711Y0277436D01*
X0155509Y0278207D01*
X0157326Y0278933D01*
X0159160Y0279615D01*
X0161010Y0280251D01*
X0162875Y0280842D01*
X0164754Y0281387D01*
X0166646Y0281886D01*
X0168550Y0282338D01*
X0170464Y0282743D01*
X0172387Y0283101D01*
X0174319Y0283412D01*
X0176258Y0283675D01*
X0178202Y0283891D01*
X0180152Y0284059D01*
X0182104Y0284179D01*
X0184060Y0284251D01*
X0186016Y0284275D01*
X0187972Y0284251D01*
X0189928Y0284179D01*
X0191880Y0284059D01*
X0193830Y0283891D01*
X0195774Y0283675D01*
X0197713Y0283412D01*
X0199645Y0283101D01*
X0201568Y0282743D01*
X0203482Y0282338D01*
X0205386Y0281886D01*
X0207278Y0281387D01*
X0209157Y0280842D01*
X0211022Y0280251D01*
X0212872Y0279615D01*
X0214706Y0278933D01*
X0216523Y0278207D01*
X0218321Y0277436D01*
X0220100Y0276621D01*
X0221858Y0275763D01*
X0223595Y0274862D01*
X0225309Y0273919D01*
X0226999Y0272933D01*
X0228665Y0271907D01*
X0230305Y0270840D01*
X0231918Y0269733D01*
X0233504Y0268587D01*
X0235061Y0267402D01*
X0236589Y0266180D01*
X0238086Y0264920D01*
X0239551Y0263624D01*
X0240985Y0262293D01*
X0242385Y0260926D01*
X0243752Y0259526D01*
X0245083Y0258092D01*
X0246379Y0256627D01*
X0247639Y0255130D01*
X0248861Y0253602D01*
X0250046Y0252045D01*
X0251192Y0250459D01*
X0252299Y0248846D01*
X0253366Y0247206D01*
X0254392Y0245540D01*
X0255378Y0243850D01*
X0256321Y0242136D01*
X0257222Y0240399D01*
X0258080Y0238641D01*
X0258895Y0236862D01*
X0259666Y0235064D01*
X0260392Y0233247D01*
X0261074Y0231413D01*
X0261710Y0229563D01*
X0262301Y0227698D01*
X0262846Y0225819D01*
X0263345Y0223927D01*
X0263797Y0222023D01*
X0264202Y0220109D01*
X0264560Y0218186D01*
X0264871Y0216254D01*
X0265134Y0214315D01*
X0265350Y0212371D01*
X0265518Y0210421D01*
X0265638Y0208469D01*
X0265710Y0206513D01*
X0265734Y0204557D01*
X0265710Y0202601D01*
X0265638Y0200645D01*
X0265518Y0198693D01*
X0265350Y0196743D01*
X0265134Y0194799D01*
X0264871Y0192860D01*
X0264560Y0190928D01*
X0264202Y0189005D01*
X0263797Y0187091D01*
X0263345Y0185187D01*
X0262846Y0183295D01*
X0262301Y0181416D01*
X0261710Y0179551D01*
X0261074Y0177701D01*
X0260392Y0175867D01*
X0259666Y0174050D01*
X0258895Y0172252D01*
X0258080Y0170473D01*
X0257222Y0168715D01*
X0256321Y0166978D01*
X0255378Y0165264D01*
X0254392Y0163574D01*
X0253366Y0161908D01*
X0252299Y0160268D01*
X0251192Y0158655D01*
X0250046Y0157069D01*
X0248861Y0155512D01*
X0247639Y0153984D01*
X0246379Y0152487D01*
X0245083Y0151022D01*
X0243752Y0149588D01*
X0242385Y0148188D01*
X0240985Y0146821D01*
X0239551Y0145490D01*
X0238086Y0144194D01*
X0236589Y0142934D01*
X0235061Y0141712D01*
X0233504Y0140527D01*
X0231918Y0139381D01*
X0230305Y0138274D01*
X0228665Y0137207D01*
X0226999Y0136181D01*
X0225309Y0135195D01*
X0223595Y0134252D01*
X0221858Y0133351D01*
X0220100Y0132493D01*
X0218321Y0131678D01*
X0216523Y0130907D01*
X0214706Y0130181D01*
X0212872Y0129499D01*
X0211022Y0128863D01*
X0209157Y0128272D01*
X0207278Y0127727D01*
X0205386Y0127228D01*
X0203482Y0126776D01*
X0201568Y0126371D01*
X0199645Y0126013D01*
X0197713Y0125702D01*
X0195774Y0125439D01*
X0193830Y0125223D01*
X0191880Y0125055D01*
X0189928Y0124935D01*
X0187972Y0124863D01*
X0186016Y0124839D01*
X0184060Y0124863D01*
X0182104Y0124935D01*
X0180152Y0125055D01*
X0178202Y0125223D01*
X0176258Y0125439D01*
X0174319Y0125702D01*
X0172387Y0126013D01*
X0170464Y0126371D01*
X0168550Y0126776D01*
X0166646Y0127228D01*
X0164754Y0127727D01*
X0162875Y0128272D01*
X0161010Y0128863D01*
X0159160Y0129499D01*
X0157326Y0130181D01*
X0155509Y0130907D01*
X0153711Y0131678D01*
X0151932Y0132493D01*
X0150174Y0133351D01*
X0148437Y0134252D01*
X0146723Y0135195D01*
X0145033Y0136181D01*
X0143367Y0137207D01*
X0141727Y0138274D01*
X0140114Y0139381D01*
X0138528Y0140527D01*
X0136971Y0141712D01*
X0135443Y0142934D01*
X0133946Y0144194D01*
X0132481Y0145490D01*
X0131047Y0146821D01*
X0129647Y0148188D01*
X0128280Y0149588D01*
X0126949Y0151022D01*
X0125653Y0152487D01*
X0124393Y0153984D01*
X0123171Y0155512D01*
X0121986Y0157069D01*
X0120840Y0158655D01*
X0119733Y0160268D01*
X0118666Y0161908D01*
X0117640Y0163574D01*
X0116654Y0165264D01*
X0115711Y0166978D01*
X0114810Y0168715D01*
X0113952Y0170473D01*
X0113137Y0172252D01*
X0112366Y0174050D01*
X0111640Y0175867D01*
X0110958Y0177701D01*
X0110322Y0179551D01*
X0109731Y0181416D01*
X0109186Y0183295D01*
X0108687Y0185187D01*
X0108235Y0187091D01*
X0107830Y0189005D01*
X0107472Y0190928D01*
X0107161Y0192860D01*
X0106898Y0194799D01*
X0106682Y0196743D01*
X0106514Y0198693D01*
X0106394Y0200645D01*
X0106322Y0202601D01*
X0106298Y0204557D01*
X0095579Y0178142D02*
X0095579Y0174342D01*
X0088579Y0174342D02*
X0088579Y0178142D01*
X0086685Y0178142D02*
X0086685Y0174342D01*
X0079685Y0174342D02*
X0079685Y0178142D01*
X0058076Y0164725D02*
X0056476Y0164725D01*
X0056476Y0160925D02*
X0058076Y0160925D01*
X0063776Y0154514D02*
X0063776Y0147514D01*
X0065718Y0150020D02*
X0065718Y0151220D01*
X0068518Y0151220D02*
X0068518Y0150020D01*
X0070649Y0141890D02*
X0072249Y0141890D01*
X0072249Y0138090D02*
X0070649Y0138090D01*
X0057876Y0137803D02*
X0056676Y0137803D01*
X0056676Y0140603D02*
X0057876Y0140603D01*
X0050776Y0147514D02*
X0050776Y0154514D01*
X0045002Y0151814D02*
X0045002Y0150214D01*
X0041202Y0150214D02*
X0041202Y0151814D01*
X0037791Y0155388D02*
X0037791Y0162388D01*
X0041702Y0162225D02*
X0041702Y0163425D01*
X0044502Y0163425D02*
X0044502Y0162225D01*
X0050770Y0167724D02*
X0051970Y0167724D01*
X0051970Y0170524D02*
X0050770Y0170524D01*
X0032091Y0168799D02*
X0030491Y0168799D01*
X0030491Y0172599D02*
X0032091Y0172599D01*
X0024017Y0177173D02*
X0022817Y0177173D01*
X0022817Y0179973D02*
X0024017Y0179973D01*
X0024791Y0162388D02*
X0024791Y0155388D01*
X0021650Y0155234D02*
X0021650Y0161734D01*
X0012150Y0161734D01*
X0013650Y0158434D02*
X0013652Y0158511D01*
X0013658Y0158588D01*
X0013668Y0158665D01*
X0013682Y0158741D01*
X0013699Y0158816D01*
X0013721Y0158890D01*
X0013746Y0158963D01*
X0013776Y0159035D01*
X0013808Y0159105D01*
X0013845Y0159173D01*
X0013884Y0159239D01*
X0013927Y0159303D01*
X0013974Y0159365D01*
X0014023Y0159424D01*
X0014076Y0159481D01*
X0014131Y0159535D01*
X0014189Y0159586D01*
X0014250Y0159634D01*
X0014313Y0159679D01*
X0014378Y0159720D01*
X0014445Y0159758D01*
X0014514Y0159793D01*
X0014585Y0159823D01*
X0014657Y0159851D01*
X0014731Y0159874D01*
X0014805Y0159894D01*
X0014881Y0159910D01*
X0014957Y0159922D01*
X0015034Y0159930D01*
X0015111Y0159934D01*
X0015189Y0159934D01*
X0015266Y0159930D01*
X0015343Y0159922D01*
X0015419Y0159910D01*
X0015495Y0159894D01*
X0015569Y0159874D01*
X0015643Y0159851D01*
X0015715Y0159823D01*
X0015786Y0159793D01*
X0015855Y0159758D01*
X0015922Y0159720D01*
X0015987Y0159679D01*
X0016050Y0159634D01*
X0016111Y0159586D01*
X0016169Y0159535D01*
X0016224Y0159481D01*
X0016277Y0159424D01*
X0016326Y0159365D01*
X0016373Y0159303D01*
X0016416Y0159239D01*
X0016455Y0159173D01*
X0016492Y0159105D01*
X0016524Y0159035D01*
X0016554Y0158963D01*
X0016579Y0158890D01*
X0016601Y0158816D01*
X0016618Y0158741D01*
X0016632Y0158665D01*
X0016642Y0158588D01*
X0016648Y0158511D01*
X0016650Y0158434D01*
X0016648Y0158357D01*
X0016642Y0158280D01*
X0016632Y0158203D01*
X0016618Y0158127D01*
X0016601Y0158052D01*
X0016579Y0157978D01*
X0016554Y0157905D01*
X0016524Y0157833D01*
X0016492Y0157763D01*
X0016455Y0157695D01*
X0016416Y0157629D01*
X0016373Y0157565D01*
X0016326Y0157503D01*
X0016277Y0157444D01*
X0016224Y0157387D01*
X0016169Y0157333D01*
X0016111Y0157282D01*
X0016050Y0157234D01*
X0015987Y0157189D01*
X0015922Y0157148D01*
X0015855Y0157110D01*
X0015786Y0157075D01*
X0015715Y0157045D01*
X0015643Y0157017D01*
X0015569Y0156994D01*
X0015495Y0156974D01*
X0015419Y0156958D01*
X0015343Y0156946D01*
X0015266Y0156938D01*
X0015189Y0156934D01*
X0015111Y0156934D01*
X0015034Y0156938D01*
X0014957Y0156946D01*
X0014881Y0156958D01*
X0014805Y0156974D01*
X0014731Y0156994D01*
X0014657Y0157017D01*
X0014585Y0157045D01*
X0014514Y0157075D01*
X0014445Y0157110D01*
X0014378Y0157148D01*
X0014313Y0157189D01*
X0014250Y0157234D01*
X0014189Y0157282D01*
X0014131Y0157333D01*
X0014076Y0157387D01*
X0014023Y0157444D01*
X0013974Y0157503D01*
X0013927Y0157565D01*
X0013884Y0157629D01*
X0013845Y0157695D01*
X0013808Y0157763D01*
X0013776Y0157833D01*
X0013746Y0157905D01*
X0013721Y0157978D01*
X0013699Y0158052D01*
X0013682Y0158127D01*
X0013668Y0158203D01*
X0013658Y0158280D01*
X0013652Y0158357D01*
X0013650Y0158434D01*
X0012850Y0155634D02*
X0011550Y0155634D01*
X0011550Y0154234D01*
X0012150Y0161734D02*
X0011896Y0161731D01*
X0011643Y0161722D01*
X0011389Y0161706D01*
X0011137Y0161685D01*
X0010884Y0161657D01*
X0010633Y0161624D01*
X0010382Y0161584D01*
X0010133Y0161538D01*
X0009884Y0161487D01*
X0009637Y0161429D01*
X0009392Y0161365D01*
X0009148Y0161296D01*
X0008905Y0161220D01*
X0008665Y0161139D01*
X0008427Y0161052D01*
X0008191Y0160959D01*
X0007957Y0160860D01*
X0007725Y0160756D01*
X0007496Y0160646D01*
X0007270Y0160531D01*
X0007047Y0160411D01*
X0006827Y0160285D01*
X0006610Y0160153D01*
X0006396Y0160017D01*
X0006185Y0159875D01*
X0005978Y0159729D01*
X0005775Y0159577D01*
X0005575Y0159421D01*
X0005379Y0159259D01*
X0005187Y0159093D01*
X0004999Y0158923D01*
X0004816Y0158748D01*
X0004636Y0158568D01*
X0004461Y0158385D01*
X0004291Y0158197D01*
X0004125Y0158005D01*
X0003963Y0157809D01*
X0003807Y0157609D01*
X0003655Y0157406D01*
X0003509Y0157199D01*
X0003367Y0156988D01*
X0003231Y0156774D01*
X0003099Y0156557D01*
X0002973Y0156337D01*
X0002853Y0156114D01*
X0002738Y0155888D01*
X0002628Y0155659D01*
X0002524Y0155427D01*
X0002425Y0155193D01*
X0002332Y0154957D01*
X0002245Y0154719D01*
X0002164Y0154479D01*
X0002088Y0154236D01*
X0002019Y0153992D01*
X0001955Y0153747D01*
X0001897Y0153500D01*
X0001846Y0153251D01*
X0001800Y0153002D01*
X0001760Y0152751D01*
X0001727Y0152500D01*
X0001699Y0152247D01*
X0001678Y0151995D01*
X0001662Y0151741D01*
X0001653Y0151488D01*
X0001650Y0151234D01*
X0001650Y0123234D01*
X0011550Y0124684D02*
X0011550Y0126084D01*
X0012850Y0126084D01*
X0001650Y0123234D02*
X0001653Y0122980D01*
X0001662Y0122727D01*
X0001678Y0122473D01*
X0001699Y0122221D01*
X0001727Y0121968D01*
X0001760Y0121717D01*
X0001800Y0121466D01*
X0001846Y0121217D01*
X0001897Y0120968D01*
X0001955Y0120721D01*
X0002019Y0120476D01*
X0002088Y0120232D01*
X0002164Y0119989D01*
X0002245Y0119749D01*
X0002332Y0119511D01*
X0002425Y0119275D01*
X0002524Y0119041D01*
X0002628Y0118809D01*
X0002738Y0118580D01*
X0002853Y0118354D01*
X0002973Y0118131D01*
X0003099Y0117911D01*
X0003231Y0117694D01*
X0003367Y0117480D01*
X0003509Y0117269D01*
X0003655Y0117062D01*
X0003807Y0116859D01*
X0003963Y0116659D01*
X0004125Y0116463D01*
X0004291Y0116271D01*
X0004461Y0116083D01*
X0004636Y0115900D01*
X0004816Y0115720D01*
X0004999Y0115545D01*
X0005187Y0115375D01*
X0005379Y0115209D01*
X0005575Y0115047D01*
X0005775Y0114891D01*
X0005978Y0114739D01*
X0006185Y0114593D01*
X0006396Y0114451D01*
X0006610Y0114315D01*
X0006827Y0114183D01*
X0007047Y0114057D01*
X0007270Y0113937D01*
X0007496Y0113822D01*
X0007725Y0113712D01*
X0007957Y0113608D01*
X0008191Y0113509D01*
X0008427Y0113416D01*
X0008665Y0113329D01*
X0008905Y0113248D01*
X0009148Y0113172D01*
X0009392Y0113103D01*
X0009637Y0113039D01*
X0009884Y0112981D01*
X0010133Y0112930D01*
X0010382Y0112884D01*
X0010633Y0112844D01*
X0010884Y0112811D01*
X0011137Y0112783D01*
X0011389Y0112762D01*
X0011643Y0112746D01*
X0011896Y0112737D01*
X0012150Y0112734D01*
X0021650Y0112734D01*
X0021650Y0119234D01*
X0019650Y0122234D01*
X0019650Y0152234D01*
X0021650Y0155234D01*
X0018750Y0149784D02*
X0018750Y0148384D01*
X0017450Y0148384D01*
X0012850Y0145784D02*
X0011550Y0145784D01*
X0011550Y0144384D01*
X0017450Y0138534D02*
X0018750Y0138534D01*
X0018750Y0139934D01*
X0012850Y0135934D02*
X0011550Y0135934D01*
X0011550Y0134534D01*
X0017450Y0128684D02*
X0018750Y0128684D01*
X0018750Y0130084D01*
X0018750Y0120234D02*
X0018750Y0118834D01*
X0017450Y0118834D01*
X0030691Y0145677D02*
X0031891Y0145677D01*
X0031891Y0148477D02*
X0030691Y0148477D01*
X0031059Y0214577D02*
X0031059Y0221577D01*
X0018059Y0221577D02*
X0018059Y0214577D01*
X0094352Y0312025D02*
X0094352Y0313625D01*
X0098152Y0313625D02*
X0098152Y0312025D01*
X0106869Y0314074D02*
X0108469Y0314074D01*
X0108469Y0317874D02*
X0106869Y0317874D01*
X0119074Y0317874D02*
X0120674Y0317874D01*
X0120674Y0314074D02*
X0119074Y0314074D01*
X0131279Y0314074D02*
X0132879Y0314074D01*
X0132879Y0317874D02*
X0131279Y0317874D01*
X0146239Y0317874D02*
X0147839Y0317874D01*
X0147839Y0314074D02*
X0146239Y0314074D01*
X0158444Y0314074D02*
X0160044Y0314074D01*
X0160044Y0317874D02*
X0158444Y0317874D01*
X0170649Y0317874D02*
X0172249Y0317874D01*
X0172249Y0314074D02*
X0170649Y0314074D01*
X0182854Y0314074D02*
X0184454Y0314074D01*
X0184454Y0317874D02*
X0182854Y0317874D01*
X0197420Y0318268D02*
X0199020Y0318268D01*
X0199020Y0314468D02*
X0197420Y0314468D01*
X0233641Y0314665D02*
X0235241Y0314665D01*
X0235241Y0318465D02*
X0233641Y0318465D01*
X0248602Y0318268D02*
X0250202Y0318268D01*
X0250202Y0314468D02*
X0248602Y0314468D01*
X0284822Y0314468D02*
X0286422Y0314468D01*
X0286422Y0318268D02*
X0284822Y0318268D01*
X0299783Y0318268D02*
X0301383Y0318268D01*
X0301383Y0314468D02*
X0299783Y0314468D01*
X0336003Y0314468D02*
X0337603Y0314468D01*
X0337603Y0318268D02*
X0336003Y0318268D01*
X0153717Y0258168D02*
X0153717Y0257774D01*
D11*
X0150937Y0208494D02*
X0174205Y0208494D01*
D12*
X0218064Y0207703D02*
X0219532Y0206235D01*
X0222468Y0206235D01*
X0222468Y0204751D02*
X0222468Y0202549D01*
X0221734Y0201815D01*
X0221000Y0201815D01*
X0220266Y0202549D01*
X0220266Y0204751D01*
X0220266Y0206235D02*
X0220266Y0209171D01*
X0219532Y0209171D02*
X0218064Y0207703D01*
X0219532Y0209171D02*
X0222468Y0209171D01*
X0222468Y0204751D02*
X0218064Y0204751D01*
X0218064Y0202549D01*
X0218798Y0201815D01*
X0219532Y0201815D01*
X0220266Y0202549D01*
X0220266Y0195911D02*
X0220266Y0193709D01*
X0221000Y0192975D01*
X0221734Y0192975D01*
X0222468Y0193709D01*
X0222468Y0195911D01*
X0218064Y0195911D01*
X0218064Y0193709D01*
X0218798Y0192975D01*
X0219532Y0192975D01*
X0220266Y0193709D01*
X0218798Y0191491D02*
X0221734Y0191491D01*
X0222468Y0190758D01*
X0222468Y0189290D01*
X0221734Y0188556D01*
X0218798Y0188556D02*
X0218064Y0189290D01*
X0218064Y0190758D01*
X0218798Y0191491D01*
X0218064Y0215074D02*
X0222468Y0215074D01*
X0218064Y0218010D01*
X0222468Y0218010D01*
X0222468Y0219494D02*
X0218064Y0219494D01*
X0218064Y0222430D02*
X0222468Y0219494D01*
X0222468Y0222430D02*
X0218064Y0222430D01*
M02*
