%
M48
M72
T01C0.0130
T02C0.0181
T03C0.0236
T04C0.0315
T05C0.0320
T06C0.0394
T07C0.0402
T08C0.0551
T09C0.1250
%
T01
X4785Y5612
X5179Y5612
X6754Y5612
X7147Y5612
X6948Y7542
X6156Y7740
X7556Y8340
X7556Y8940
X7556Y9540
X6956Y9740
X6956Y10140
X6556Y10140
X6556Y9740
X6156Y9740
X6156Y10140
X5756Y10140
X5756Y9740
X4756Y10540
X5156Y10940
X4762Y11359
X5156Y11540
X4756Y12140
X4356Y10940
X2356Y11540
X1463Y11496
X1463Y11102
X1463Y10708
X6161Y12719
X8326Y12227
X10176Y14125
X11680Y14664
X12074Y14664
X12468Y14664
X13838Y16066
X13838Y16460
X13838Y16853
X14428Y17247
X14625Y17641
X14625Y18034
X15570Y18212
X15413Y18723
X15050Y19101
X15216Y19523
X14153Y20219
X14546Y20613
X14153Y21007
X13759Y20613
X12184Y20219
X12184Y19826
X12578Y19432
X12972Y19038
X12578Y18645
X12184Y19038
X10216Y17070
X10609Y16676
X10216Y16282
X9822Y15889
X9428Y16282
X9035Y15889
X9428Y15495
X9822Y16676
X7671Y16921
X6971Y16921
X7599Y18566
X7271Y18921
X6550Y19562
X5471Y19021
X5077Y19415
X4571Y19971
X4571Y20321
X5099Y20816
X5287Y21184
X6242Y21066
X6642Y21066
X7042Y21066
X7442Y21066
X7842Y21066
X8242Y21066
X8642Y21066
X8642Y21466
X8642Y21866
X8642Y22266
X8642Y22666
X8642Y23066
X8642Y23466
X8242Y23466
X8242Y23066
X8242Y22666
X8242Y22266
X8242Y21866
X8242Y21466
X7842Y21466
X7842Y21866
X7842Y22266
X7842Y22666
X7842Y23066
X7842Y23466
X7442Y23466
X7442Y23066
X7442Y22666
X7442Y22266
X7442Y21866
X7442Y21466
X7042Y21466
X7042Y21866
X7042Y22266
X7042Y22666
X7042Y23066
X7042Y23466
X6642Y23466
X6642Y23066
X6642Y22666
X6642Y22266
X6642Y21866
X6642Y21466
X6242Y21466
X6242Y21866
X6242Y22266
X6242Y22666
X6242Y23066
X6242Y23466
X6515Y24401
X6554Y24743
X6598Y25062
X6751Y25349
X6759Y25668
X6672Y25983
X6554Y26255
X6554Y26570
X6554Y26885
X6554Y27200
X6554Y27515
X6554Y27830
X6554Y28145
X6554Y28460
X6554Y28775
X6554Y29090
X6554Y29405
X6554Y29719
X6566Y30050
X6791Y30298
X7066Y30495
X7066Y30889
X6814Y31160
X5767Y30979
X5767Y30664
X5767Y30349
X5767Y30034
X5767Y29719
X5767Y29405
X5767Y29090
X5767Y28775
X5767Y28460
X5767Y28145
X5767Y27830
X5767Y27515
X5767Y27200
X5767Y26885
X5767Y26570
X5767Y26255
X5629Y25964
X5550Y25653
X5570Y25330
X5755Y25066
X5767Y24747
X4625Y23999
X3966Y24003
X4451Y25157
X3671Y26821
X2971Y26821
X2771Y27521
X2471Y28021
X2617Y29562
X1436Y29562
X4980Y29562
X5491Y31145
X7735Y29562
X8523Y29562
X8523Y28381
X7735Y28381
X7342Y27200
X7342Y26263
X7834Y26243
X8424Y26971
X9487Y26558
X10037Y26820
X10805Y27848
X11631Y27651
X12947Y26931
X13341Y26931
X12947Y26537
X12632Y26045
X12494Y25671
X12321Y24271
X11471Y22921
X11671Y22321
X12199Y21866
X13349Y21866
X14424Y22777
X14424Y23151
X15728Y24944
X16121Y24944
X16121Y25338
X15728Y25338
X14561Y26911
X15014Y27305
X15058Y28684
X14665Y28684
X15452Y28684
X15846Y28684
X17775Y28172
X19192Y28960
X20058Y27700
X21444Y27448
X20924Y26440
X21129Y25999
X20846Y25731
X23753Y27121
X24353Y27121
X25353Y27121
X25353Y26721
X25353Y26321
X26397Y25712
X26633Y25357
X26889Y25712
X26753Y26321
X27353Y26321
X27953Y26321
X29094Y27990
X29488Y27990
X29882Y27990
X31476Y28172
X31476Y28782
X33050Y27306
X33424Y27168
X32972Y26676
X33838Y25908
X33562Y27582
X33543Y28094
X33838Y29275
X33838Y29668
X34231Y29668
X34231Y29275
X34231Y30062
X33838Y30062
X33838Y30456
X34231Y30456
X31082Y31637
X27302Y31597
X26357Y31637
X25964Y28723
X27145Y28487
X21444Y28676
X18700Y32168
X14369Y32168
X13582Y32168
X9763Y30318
X4980Y27594
X8464Y25219
X10871Y23221
X10071Y22221
X8471Y19721
X8271Y18921
X9971Y19221
X5125Y17342
X4771Y16121
X4861Y15298
X1948Y16282
X1554Y16676
X1161Y16676
X1161Y17070
X1554Y17070
X1554Y17464
X1161Y17464
X2735Y18645
X3129Y18645
X3129Y19038
X3523Y18645
X3917Y18645
X3129Y18251
X2771Y19821
X2220Y19893
X1688Y19814
X3288Y20304
X3741Y20304
X3971Y22121
X4409Y22448
X4928Y22797
X2617Y23767
X2220Y23227
X15566Y16050
X15846Y16479
X15995Y15416
X16121Y15007
X19172Y12739
X20680Y12267
X21054Y12641
X21550Y12605
X21515Y12129
X23192Y11282
X22503Y9952
X23543Y9412
X24031Y9814
X24369Y9806
X24645Y9570
X25491Y9688
X25964Y9196
X26192Y8908
X26121Y8546
X26968Y9137
X26480Y9448
X26940Y9790
X27298Y9779
X28483Y9885
X29645Y9452
X29999Y9688
X30157Y9255
X30669Y9097
X31633Y9531
X32753Y8590
X33509Y8184
X34296Y8184
X34296Y7003
X33509Y7003
X33509Y5822
X32953Y5390
X32271Y4359
X31878Y4365
X31678Y5765
X31278Y5765
X30753Y6990
X30353Y7390
X29953Y6990
X29553Y7390
X29153Y6990
X28753Y7390
X28353Y6990
X28353Y7790
X29153Y7790
X29953Y7790
X30753Y7790
X29389Y5712
X29389Y5338
X29153Y5023
X29192Y4649
X28877Y4452
X28857Y4078
X29291Y4019
X29468Y4353
X29881Y4314
X29881Y4688
X27349Y4825
X27349Y4431
X27349Y5219
X25472Y4668
X23483Y4570
X23129Y4570
X22775Y4570
X23103Y5019
X23103Y5369
X23103Y5719
X22753Y6990
X23153Y7390
X23553Y6990
X23953Y7390
X24353Y6990
X24353Y7790
X23553Y7790
X22753Y7790
X22353Y7390
X21953Y6990
X21953Y7790
X20653Y8637
X20566Y8964
X20078Y9369
X19893Y9090
X19535Y9538
X18893Y9550
X19704Y8586
X18159Y7790
X17759Y7390
X17359Y6990
X16959Y7390
X16559Y6990
X16159Y7390
X15759Y6990
X15759Y7790
X16559Y7790
X17359Y7790
X18159Y6990
X16948Y5669
X16948Y5280
X16948Y4886
X16948Y4491
X16594Y4491
X17302Y4491
X19074Y4609
X20929Y4451
X20929Y4845
X20929Y5238
X17578Y9058
X16739Y9420
X16259Y9436
X14901Y9058
X14428Y8468
X14094Y9342
X13637Y9365
X13680Y9885
X12046Y9373
X11810Y9101
X11511Y9314
X11231Y9546
X10570Y9255
X10553Y7790
X10953Y7390
X11353Y6990
X11753Y7390
X12153Y6990
X12553Y7390
X12953Y6990
X12953Y7790
X12153Y7790
X11353Y7790
X10553Y6990
X11703Y5590
X11703Y5240
X11703Y4890
X11716Y4465
X12083Y4462
X11333Y4452
X9509Y4431
X9509Y4825
X9509Y5219
X8156Y8140
X8156Y8740
X8156Y9340
X2556Y5940
X13838Y4727
X14965Y4471
X15083Y4864
X15083Y5258
X21255Y9597
X26771Y12267
X32657Y12503
X34296Y5822
X29507Y19038
X29113Y19038
X30354Y20003
X32972Y20771
T02
X7861Y30861
X4460Y30861
T03
X21398Y18419
X21528Y17121
X23328Y18521
X24128Y18521
X24928Y18521
X25728Y18521
X26128Y19121
X25928Y19921
X23128Y19721
X26128Y16721
X24128Y16521
X29128Y13921
X29928Y13921
X30728Y13921
X30728Y13121
X29928Y13121
X29128Y13121
X31153Y24521
T04
X30117Y25540
X29786Y22779
X26169Y23635
X24200Y23635
X14254Y28141
X7086Y24668
X4920Y25574
X1948Y25338
X3700Y21656
X3917Y29275
X6695Y13231
X9014Y11861
T05
X8621Y5058
X8621Y3058
X14389Y3058
X14389Y5058
X19665Y5019
X19665Y3019
X25582Y3276
X26266Y5155
T06
X11082Y16263
X11082Y18231
X1515Y15200
X1515Y14216
X1515Y13231
X1515Y12247
X9920Y32424
X10905Y32424
X11889Y32424
X12873Y32424
X15039Y32424
X16023Y32424
X17007Y32424
X17991Y32424
X20157Y32424
X21141Y32424
X22125Y32424
X23109Y32424
X25275Y32424
X26259Y32424
X27243Y32424
X28228Y32424
X30393Y32424
X31377Y32424
X32361Y32424
X33346Y32424
X31953Y26674
X31953Y25690
X31953Y24705
X31953Y23721
T07
X31690Y29456
X31690Y30456
X32690Y30456
X32690Y29456
X30690Y29456
X30690Y30456
X29690Y30456
X29690Y29456
X28690Y29456
X28690Y30456
X27690Y30456
X27690Y29456
X26690Y29456
X26690Y30456
X25690Y30456
X25690Y29456
X24690Y29456
X24690Y30456
X23690Y30456
X23690Y29456
X22690Y29456
X22690Y30456
X21690Y30456
X20690Y30456
X20690Y29456
X21690Y29456
X19690Y29456
X19690Y30456
X18690Y30456
X18690Y29456
X17690Y29456
X17690Y30456
X16690Y30456
X16690Y29456
X15690Y29456
X15690Y30456
X14690Y30456
X14690Y29456
X13690Y29456
X13690Y30456
X12690Y30456
X12690Y29456
X11690Y29456
X11690Y30456
X10690Y30456
X10690Y29456
X10690Y11456
X11690Y11456
X12690Y11456
X13690Y11456
X14690Y11456
X15690Y11456
X16690Y11456
X17690Y11456
X18690Y11456
X19690Y11456
X20690Y11456
X21690Y11456
X22690Y11456
X23690Y11456
X24690Y11456
X25690Y11456
X26690Y11456
X27690Y11456
X28690Y11456
X29690Y11456
X30690Y11456
X31690Y11456
X32690Y11456
X32690Y10456
X31690Y10456
X30690Y10456
X29690Y10456
X28690Y10456
X27690Y10456
X26690Y10456
X25690Y10456
X24690Y10456
X23690Y10456
X22690Y10456
X21690Y10456
X20690Y10456
X19690Y10456
X18690Y10456
X17690Y10456
X16690Y10456
X15690Y10456
X14690Y10456
X13690Y10456
X12690Y10456
X11690Y10456
X10690Y10456
T08
X10106Y3275
X11606Y3275
X15412Y3275
X16912Y3275
X21552Y3310
X23052Y3310
X26604Y3311
X28104Y3311
X29604Y3311
X31104Y3311
X31828Y15471
X31828Y16971
X31828Y19471
X31828Y20971
T09
X33444Y3290
X2342Y31637
M30
