G75*
%MOIN*%
%OFA0B0*%
%FSLAX25Y25*%
%IPPOS*%
%LPD*%
%AMOC8*
5,1,8,0,0,1.08239X$1,22.5*
%
%ADD10C,0.00000*%
D10*
X0023417Y0017156D02*
X0350189Y0017156D01*
X0350189Y0332116D01*
X0007669Y0332116D01*
X0007669Y0032904D01*
X0015543Y0032904D01*
X0015733Y0032902D01*
X0015923Y0032895D01*
X0016113Y0032883D01*
X0016303Y0032867D01*
X0016492Y0032847D01*
X0016681Y0032821D01*
X0016869Y0032792D01*
X0017056Y0032757D01*
X0017242Y0032718D01*
X0017427Y0032675D01*
X0017612Y0032627D01*
X0017795Y0032575D01*
X0017976Y0032519D01*
X0018156Y0032458D01*
X0018335Y0032392D01*
X0018512Y0032323D01*
X0018688Y0032249D01*
X0018861Y0032171D01*
X0019033Y0032088D01*
X0019202Y0032002D01*
X0019370Y0031912D01*
X0019535Y0031817D01*
X0019698Y0031719D01*
X0019858Y0031616D01*
X0020016Y0031510D01*
X0020171Y0031400D01*
X0020324Y0031287D01*
X0020474Y0031169D01*
X0020620Y0031048D01*
X0020764Y0030924D01*
X0020905Y0030796D01*
X0021043Y0030665D01*
X0021178Y0030530D01*
X0021309Y0030392D01*
X0021437Y0030251D01*
X0021561Y0030107D01*
X0021682Y0029961D01*
X0021800Y0029811D01*
X0021913Y0029658D01*
X0022023Y0029503D01*
X0022129Y0029345D01*
X0022232Y0029185D01*
X0022330Y0029022D01*
X0022425Y0028857D01*
X0022515Y0028689D01*
X0022601Y0028520D01*
X0022684Y0028348D01*
X0022762Y0028175D01*
X0022836Y0027999D01*
X0022905Y0027822D01*
X0022971Y0027643D01*
X0023032Y0027463D01*
X0023088Y0027282D01*
X0023140Y0027099D01*
X0023188Y0026914D01*
X0023231Y0026729D01*
X0023270Y0026543D01*
X0023305Y0026356D01*
X0023334Y0026168D01*
X0023360Y0025979D01*
X0023380Y0025790D01*
X0023396Y0025600D01*
X0023408Y0025410D01*
X0023415Y0025220D01*
X0023417Y0025030D01*
X0023417Y0017156D01*
M02*
