G75*
%MOIN*%
%OFA0B0*%
%FSLAX25Y25*%
%IPPOS*%
%LPD*%
%AMOC8*
5,1,8,0,0,1.08239X$1,22.5*
%
%ADD10C,0.00394*%
%ADD11C,0.01600*%
%ADD12C,0.02400*%
%ADD13C,0.00700*%
%ADD14C,0.00500*%
%ADD15C,0.00400*%
D10*
X0032197Y0061250D02*
X0032197Y0085738D01*
X0255150Y0180069D02*
X0255150Y0180187D01*
X0285504Y0249833D02*
X0285504Y0256722D01*
X0285386Y0256722D01*
D11*
X0215595Y0266084D02*
X0215595Y0218356D01*
X0208039Y0218356D01*
X0208039Y0225060D01*
X0207015Y0259606D02*
X0207015Y0266084D01*
X0215595Y0266084D01*
X0207015Y0259606D02*
X0206995Y0259606D01*
X0012816Y0316368D02*
X0012819Y0316628D01*
X0012829Y0316888D01*
X0012845Y0317148D01*
X0012867Y0317407D01*
X0012896Y0317666D01*
X0012931Y0317923D01*
X0012972Y0318180D01*
X0013020Y0318436D01*
X0013074Y0318691D01*
X0013134Y0318944D01*
X0013200Y0319195D01*
X0013272Y0319445D01*
X0013351Y0319693D01*
X0013436Y0319939D01*
X0013526Y0320183D01*
X0013623Y0320425D01*
X0013725Y0320664D01*
X0013834Y0320901D01*
X0013948Y0321134D01*
X0014068Y0321365D01*
X0014193Y0321593D01*
X0014324Y0321818D01*
X0014461Y0322040D01*
X0014603Y0322258D01*
X0014750Y0322472D01*
X0014902Y0322683D01*
X0015060Y0322890D01*
X0015222Y0323093D01*
X0015390Y0323292D01*
X0015562Y0323487D01*
X0015739Y0323678D01*
X0015921Y0323864D01*
X0016107Y0324046D01*
X0016298Y0324223D01*
X0016493Y0324395D01*
X0016692Y0324563D01*
X0016895Y0324725D01*
X0017102Y0324883D01*
X0017313Y0325035D01*
X0017527Y0325182D01*
X0017745Y0325324D01*
X0017967Y0325461D01*
X0018192Y0325592D01*
X0018420Y0325717D01*
X0018651Y0325837D01*
X0018884Y0325951D01*
X0019121Y0326060D01*
X0019360Y0326162D01*
X0019602Y0326259D01*
X0019846Y0326349D01*
X0020092Y0326434D01*
X0020340Y0326513D01*
X0020590Y0326585D01*
X0020841Y0326651D01*
X0021094Y0326711D01*
X0021349Y0326765D01*
X0021605Y0326813D01*
X0021862Y0326854D01*
X0022119Y0326889D01*
X0022378Y0326918D01*
X0022637Y0326940D01*
X0022897Y0326956D01*
X0023157Y0326966D01*
X0023417Y0326969D01*
X0023677Y0326966D01*
X0023937Y0326956D01*
X0024197Y0326940D01*
X0024456Y0326918D01*
X0024715Y0326889D01*
X0024972Y0326854D01*
X0025229Y0326813D01*
X0025485Y0326765D01*
X0025740Y0326711D01*
X0025993Y0326651D01*
X0026244Y0326585D01*
X0026494Y0326513D01*
X0026742Y0326434D01*
X0026988Y0326349D01*
X0027232Y0326259D01*
X0027474Y0326162D01*
X0027713Y0326060D01*
X0027950Y0325951D01*
X0028183Y0325837D01*
X0028414Y0325717D01*
X0028642Y0325592D01*
X0028867Y0325461D01*
X0029089Y0325324D01*
X0029307Y0325182D01*
X0029521Y0325035D01*
X0029732Y0324883D01*
X0029939Y0324725D01*
X0030142Y0324563D01*
X0030341Y0324395D01*
X0030536Y0324223D01*
X0030727Y0324046D01*
X0030913Y0323864D01*
X0031095Y0323678D01*
X0031272Y0323487D01*
X0031444Y0323292D01*
X0031612Y0323093D01*
X0031774Y0322890D01*
X0031932Y0322683D01*
X0032084Y0322472D01*
X0032231Y0322258D01*
X0032373Y0322040D01*
X0032510Y0321818D01*
X0032641Y0321593D01*
X0032766Y0321365D01*
X0032886Y0321134D01*
X0033000Y0320901D01*
X0033109Y0320664D01*
X0033211Y0320425D01*
X0033308Y0320183D01*
X0033398Y0319939D01*
X0033483Y0319693D01*
X0033562Y0319445D01*
X0033634Y0319195D01*
X0033700Y0318944D01*
X0033760Y0318691D01*
X0033814Y0318436D01*
X0033862Y0318180D01*
X0033903Y0317923D01*
X0033938Y0317666D01*
X0033967Y0317407D01*
X0033989Y0317148D01*
X0034005Y0316888D01*
X0034015Y0316628D01*
X0034018Y0316368D01*
X0034015Y0316108D01*
X0034005Y0315848D01*
X0033989Y0315588D01*
X0033967Y0315329D01*
X0033938Y0315070D01*
X0033903Y0314813D01*
X0033862Y0314556D01*
X0033814Y0314300D01*
X0033760Y0314045D01*
X0033700Y0313792D01*
X0033634Y0313541D01*
X0033562Y0313291D01*
X0033483Y0313043D01*
X0033398Y0312797D01*
X0033308Y0312553D01*
X0033211Y0312311D01*
X0033109Y0312072D01*
X0033000Y0311835D01*
X0032886Y0311602D01*
X0032766Y0311371D01*
X0032641Y0311143D01*
X0032510Y0310918D01*
X0032373Y0310696D01*
X0032231Y0310478D01*
X0032084Y0310264D01*
X0031932Y0310053D01*
X0031774Y0309846D01*
X0031612Y0309643D01*
X0031444Y0309444D01*
X0031272Y0309249D01*
X0031095Y0309058D01*
X0030913Y0308872D01*
X0030727Y0308690D01*
X0030536Y0308513D01*
X0030341Y0308341D01*
X0030142Y0308173D01*
X0029939Y0308011D01*
X0029732Y0307853D01*
X0029521Y0307701D01*
X0029307Y0307554D01*
X0029089Y0307412D01*
X0028867Y0307275D01*
X0028642Y0307144D01*
X0028414Y0307019D01*
X0028183Y0306899D01*
X0027950Y0306785D01*
X0027713Y0306676D01*
X0027474Y0306574D01*
X0027232Y0306477D01*
X0026988Y0306387D01*
X0026742Y0306302D01*
X0026494Y0306223D01*
X0026244Y0306151D01*
X0025993Y0306085D01*
X0025740Y0306025D01*
X0025485Y0305971D01*
X0025229Y0305923D01*
X0024972Y0305882D01*
X0024715Y0305847D01*
X0024456Y0305818D01*
X0024197Y0305796D01*
X0023937Y0305780D01*
X0023677Y0305770D01*
X0023417Y0305767D01*
X0023157Y0305770D01*
X0022897Y0305780D01*
X0022637Y0305796D01*
X0022378Y0305818D01*
X0022119Y0305847D01*
X0021862Y0305882D01*
X0021605Y0305923D01*
X0021349Y0305971D01*
X0021094Y0306025D01*
X0020841Y0306085D01*
X0020590Y0306151D01*
X0020340Y0306223D01*
X0020092Y0306302D01*
X0019846Y0306387D01*
X0019602Y0306477D01*
X0019360Y0306574D01*
X0019121Y0306676D01*
X0018884Y0306785D01*
X0018651Y0306899D01*
X0018420Y0307019D01*
X0018192Y0307144D01*
X0017967Y0307275D01*
X0017745Y0307412D01*
X0017527Y0307554D01*
X0017313Y0307701D01*
X0017102Y0307853D01*
X0016895Y0308011D01*
X0016692Y0308173D01*
X0016493Y0308341D01*
X0016298Y0308513D01*
X0016107Y0308690D01*
X0015921Y0308872D01*
X0015739Y0309058D01*
X0015562Y0309249D01*
X0015390Y0309444D01*
X0015222Y0309643D01*
X0015060Y0309846D01*
X0014902Y0310053D01*
X0014750Y0310264D01*
X0014603Y0310478D01*
X0014461Y0310696D01*
X0014324Y0310918D01*
X0014193Y0311143D01*
X0014068Y0311371D01*
X0013948Y0311602D01*
X0013834Y0311835D01*
X0013725Y0312072D01*
X0013623Y0312311D01*
X0013526Y0312553D01*
X0013436Y0312797D01*
X0013351Y0313043D01*
X0013272Y0313291D01*
X0013200Y0313541D01*
X0013134Y0313792D01*
X0013074Y0314045D01*
X0013020Y0314300D01*
X0012972Y0314556D01*
X0012931Y0314813D01*
X0012896Y0315070D01*
X0012867Y0315329D01*
X0012845Y0315588D01*
X0012829Y0315848D01*
X0012819Y0316108D01*
X0012816Y0316368D01*
X0324137Y0032904D02*
X0324140Y0033157D01*
X0324149Y0033410D01*
X0324165Y0033662D01*
X0324187Y0033914D01*
X0324214Y0034165D01*
X0324249Y0034416D01*
X0324289Y0034666D01*
X0324335Y0034914D01*
X0324387Y0035162D01*
X0324446Y0035408D01*
X0324510Y0035652D01*
X0324581Y0035895D01*
X0324657Y0036136D01*
X0324739Y0036375D01*
X0324827Y0036612D01*
X0324921Y0036847D01*
X0325021Y0037080D01*
X0325126Y0037310D01*
X0325237Y0037537D01*
X0325354Y0037761D01*
X0325476Y0037983D01*
X0325603Y0038201D01*
X0325736Y0038417D01*
X0325874Y0038629D01*
X0326017Y0038837D01*
X0326165Y0039042D01*
X0326318Y0039243D01*
X0326476Y0039441D01*
X0326639Y0039634D01*
X0326806Y0039824D01*
X0326978Y0040009D01*
X0327155Y0040190D01*
X0327336Y0040367D01*
X0327521Y0040539D01*
X0327711Y0040706D01*
X0327904Y0040869D01*
X0328102Y0041027D01*
X0328303Y0041180D01*
X0328508Y0041328D01*
X0328716Y0041471D01*
X0328928Y0041609D01*
X0329144Y0041742D01*
X0329362Y0041869D01*
X0329584Y0041991D01*
X0329808Y0042108D01*
X0330035Y0042219D01*
X0330265Y0042324D01*
X0330498Y0042424D01*
X0330733Y0042518D01*
X0330970Y0042606D01*
X0331209Y0042688D01*
X0331450Y0042764D01*
X0331693Y0042835D01*
X0331937Y0042899D01*
X0332183Y0042958D01*
X0332431Y0043010D01*
X0332679Y0043056D01*
X0332929Y0043096D01*
X0333180Y0043131D01*
X0333431Y0043158D01*
X0333683Y0043180D01*
X0333935Y0043196D01*
X0334188Y0043205D01*
X0334441Y0043208D01*
X0334694Y0043205D01*
X0334947Y0043196D01*
X0335199Y0043180D01*
X0335451Y0043158D01*
X0335702Y0043131D01*
X0335953Y0043096D01*
X0336203Y0043056D01*
X0336451Y0043010D01*
X0336699Y0042958D01*
X0336945Y0042899D01*
X0337189Y0042835D01*
X0337432Y0042764D01*
X0337673Y0042688D01*
X0337912Y0042606D01*
X0338149Y0042518D01*
X0338384Y0042424D01*
X0338617Y0042324D01*
X0338847Y0042219D01*
X0339074Y0042108D01*
X0339298Y0041991D01*
X0339520Y0041869D01*
X0339738Y0041742D01*
X0339954Y0041609D01*
X0340166Y0041471D01*
X0340374Y0041328D01*
X0340579Y0041180D01*
X0340780Y0041027D01*
X0340978Y0040869D01*
X0341171Y0040706D01*
X0341361Y0040539D01*
X0341546Y0040367D01*
X0341727Y0040190D01*
X0341904Y0040009D01*
X0342076Y0039824D01*
X0342243Y0039634D01*
X0342406Y0039441D01*
X0342564Y0039243D01*
X0342717Y0039042D01*
X0342865Y0038837D01*
X0343008Y0038629D01*
X0343146Y0038417D01*
X0343279Y0038201D01*
X0343406Y0037983D01*
X0343528Y0037761D01*
X0343645Y0037537D01*
X0343756Y0037310D01*
X0343861Y0037080D01*
X0343961Y0036847D01*
X0344055Y0036612D01*
X0344143Y0036375D01*
X0344225Y0036136D01*
X0344301Y0035895D01*
X0344372Y0035652D01*
X0344436Y0035408D01*
X0344495Y0035162D01*
X0344547Y0034914D01*
X0344593Y0034666D01*
X0344633Y0034416D01*
X0344668Y0034165D01*
X0344695Y0033914D01*
X0344717Y0033662D01*
X0344733Y0033410D01*
X0344742Y0033157D01*
X0344745Y0032904D01*
X0344742Y0032651D01*
X0344733Y0032398D01*
X0344717Y0032146D01*
X0344695Y0031894D01*
X0344668Y0031643D01*
X0344633Y0031392D01*
X0344593Y0031142D01*
X0344547Y0030894D01*
X0344495Y0030646D01*
X0344436Y0030400D01*
X0344372Y0030156D01*
X0344301Y0029913D01*
X0344225Y0029672D01*
X0344143Y0029433D01*
X0344055Y0029196D01*
X0343961Y0028961D01*
X0343861Y0028728D01*
X0343756Y0028498D01*
X0343645Y0028271D01*
X0343528Y0028047D01*
X0343406Y0027825D01*
X0343279Y0027607D01*
X0343146Y0027391D01*
X0343008Y0027179D01*
X0342865Y0026971D01*
X0342717Y0026766D01*
X0342564Y0026565D01*
X0342406Y0026367D01*
X0342243Y0026174D01*
X0342076Y0025984D01*
X0341904Y0025799D01*
X0341727Y0025618D01*
X0341546Y0025441D01*
X0341361Y0025269D01*
X0341171Y0025102D01*
X0340978Y0024939D01*
X0340780Y0024781D01*
X0340579Y0024628D01*
X0340374Y0024480D01*
X0340166Y0024337D01*
X0339954Y0024199D01*
X0339738Y0024066D01*
X0339520Y0023939D01*
X0339298Y0023817D01*
X0339074Y0023700D01*
X0338847Y0023589D01*
X0338617Y0023484D01*
X0338384Y0023384D01*
X0338149Y0023290D01*
X0337912Y0023202D01*
X0337673Y0023120D01*
X0337432Y0023044D01*
X0337189Y0022973D01*
X0336945Y0022909D01*
X0336699Y0022850D01*
X0336451Y0022798D01*
X0336203Y0022752D01*
X0335953Y0022712D01*
X0335702Y0022677D01*
X0335451Y0022650D01*
X0335199Y0022628D01*
X0334947Y0022612D01*
X0334694Y0022603D01*
X0334441Y0022600D01*
X0334188Y0022603D01*
X0333935Y0022612D01*
X0333683Y0022628D01*
X0333431Y0022650D01*
X0333180Y0022677D01*
X0332929Y0022712D01*
X0332679Y0022752D01*
X0332431Y0022798D01*
X0332183Y0022850D01*
X0331937Y0022909D01*
X0331693Y0022973D01*
X0331450Y0023044D01*
X0331209Y0023120D01*
X0330970Y0023202D01*
X0330733Y0023290D01*
X0330498Y0023384D01*
X0330265Y0023484D01*
X0330035Y0023589D01*
X0329808Y0023700D01*
X0329584Y0023817D01*
X0329362Y0023939D01*
X0329144Y0024066D01*
X0328928Y0024199D01*
X0328716Y0024337D01*
X0328508Y0024480D01*
X0328303Y0024628D01*
X0328102Y0024781D01*
X0327904Y0024939D01*
X0327711Y0025102D01*
X0327521Y0025269D01*
X0327336Y0025441D01*
X0327155Y0025618D01*
X0326978Y0025799D01*
X0326806Y0025984D01*
X0326639Y0026174D01*
X0326476Y0026367D01*
X0326318Y0026565D01*
X0326165Y0026766D01*
X0326017Y0026971D01*
X0325874Y0027179D01*
X0325736Y0027391D01*
X0325603Y0027607D01*
X0325476Y0027825D01*
X0325354Y0028047D01*
X0325237Y0028271D01*
X0325126Y0028498D01*
X0325021Y0028728D01*
X0324921Y0028961D01*
X0324827Y0029196D01*
X0324739Y0029433D01*
X0324657Y0029672D01*
X0324581Y0029913D01*
X0324510Y0030156D01*
X0324446Y0030400D01*
X0324387Y0030646D01*
X0324335Y0030894D01*
X0324289Y0031142D01*
X0324249Y0031392D01*
X0324214Y0031643D01*
X0324187Y0031894D01*
X0324165Y0032146D01*
X0324149Y0032398D01*
X0324140Y0032651D01*
X0324137Y0032904D01*
D12*
X0195545Y0144946D02*
X0167922Y0144946D01*
X0167922Y0158758D01*
X0172526Y0163362D01*
X0181733Y0163362D01*
X0186337Y0158758D01*
X0186337Y0144946D01*
X0186337Y0154154D02*
X0195545Y0163362D01*
X0190941Y0172570D02*
X0195545Y0177174D01*
X0195545Y0186382D01*
X0190941Y0190986D01*
X0172526Y0190986D01*
X0167922Y0186382D01*
X0167922Y0177174D01*
X0172526Y0172570D01*
X0190941Y0172570D01*
X0186337Y0200194D02*
X0167922Y0200194D01*
X0186337Y0200194D02*
X0195545Y0209402D01*
X0186337Y0218609D01*
X0167922Y0218609D01*
X0167922Y0227817D02*
X0195545Y0227817D01*
X0195545Y0246233D01*
X0195545Y0255441D02*
X0167922Y0255441D01*
X0167922Y0269253D01*
X0172526Y0273857D01*
X0181733Y0273857D01*
X0186337Y0269253D01*
X0186337Y0255441D01*
X0186337Y0264649D02*
X0195545Y0273857D01*
X0167922Y0246233D02*
X0167922Y0227817D01*
X0181733Y0227817D02*
X0181733Y0237025D01*
D13*
X0202188Y0239859D02*
X0210495Y0239859D01*
X0210495Y0237090D02*
X0210495Y0242628D01*
X0210495Y0245377D02*
X0210495Y0246762D01*
X0209111Y0246762D01*
X0209111Y0245377D01*
X0210495Y0245377D01*
X0209111Y0249521D02*
X0203573Y0249521D01*
X0202188Y0250905D01*
X0202188Y0253674D01*
X0203573Y0255059D01*
X0209111Y0249521D01*
X0210495Y0250905D01*
X0210495Y0253674D01*
X0209111Y0255059D01*
X0203573Y0255059D01*
X0202188Y0239859D02*
X0204957Y0237090D01*
X0204957Y0234341D02*
X0210495Y0231572D01*
X0204957Y0228803D01*
D14*
X0040909Y0044100D02*
X0039709Y0044100D01*
X0039709Y0048250D02*
X0040909Y0048250D01*
X0040909Y0052100D02*
X0039709Y0052100D01*
X0039709Y0056250D02*
X0040909Y0056250D01*
X0052059Y0060800D02*
X0023659Y0060800D01*
X0032059Y0060900D02*
X0032059Y0066608D01*
X0032059Y0070545D02*
X0032059Y0076254D01*
X0032059Y0080191D02*
X0032059Y0085900D01*
X0023759Y0086000D02*
X0052159Y0086000D01*
X0052972Y0090394D02*
X0052972Y0108394D01*
X0058759Y0118500D02*
X0060359Y0118500D01*
X0060359Y0122300D02*
X0058759Y0122300D01*
X0069409Y0122826D02*
X0069409Y0124126D01*
X0072209Y0124126D02*
X0072209Y0122826D01*
X0075954Y0122658D02*
X0075954Y0123958D01*
X0078754Y0123958D02*
X0078754Y0122658D01*
X0082759Y0113300D02*
X0084359Y0113300D01*
X0084359Y0109500D02*
X0082759Y0109500D01*
X0073972Y0108394D02*
X0073972Y0090394D01*
X0084759Y0098800D02*
X0084759Y0100000D01*
X0088909Y0100000D02*
X0088909Y0098800D01*
X0101402Y0099557D02*
X0101402Y0119557D01*
X0332402Y0119557D01*
X0332402Y0099557D01*
X0101402Y0099557D01*
X0098028Y0080904D02*
X0136028Y0080904D01*
X0136828Y0079404D02*
X0136828Y0068404D01*
X0136028Y0066904D02*
X0098028Y0066904D01*
X0097528Y0068904D02*
X0097528Y0078904D01*
X0098778Y0068654D02*
X0098780Y0068698D01*
X0098786Y0068742D01*
X0098796Y0068785D01*
X0098809Y0068827D01*
X0098826Y0068868D01*
X0098847Y0068907D01*
X0098871Y0068944D01*
X0098898Y0068979D01*
X0098928Y0069011D01*
X0098961Y0069041D01*
X0098997Y0069067D01*
X0099034Y0069091D01*
X0099074Y0069110D01*
X0099115Y0069127D01*
X0099158Y0069139D01*
X0099201Y0069148D01*
X0099245Y0069153D01*
X0099289Y0069154D01*
X0099333Y0069151D01*
X0099377Y0069144D01*
X0099420Y0069133D01*
X0099462Y0069119D01*
X0099502Y0069101D01*
X0099541Y0069079D01*
X0099577Y0069055D01*
X0099611Y0069027D01*
X0099643Y0068996D01*
X0099672Y0068962D01*
X0099698Y0068926D01*
X0099720Y0068888D01*
X0099739Y0068848D01*
X0099754Y0068806D01*
X0099766Y0068764D01*
X0099774Y0068720D01*
X0099778Y0068676D01*
X0099778Y0068632D01*
X0099774Y0068588D01*
X0099766Y0068544D01*
X0099754Y0068502D01*
X0099739Y0068460D01*
X0099720Y0068420D01*
X0099698Y0068382D01*
X0099672Y0068346D01*
X0099643Y0068312D01*
X0099611Y0068281D01*
X0099577Y0068253D01*
X0099541Y0068229D01*
X0099502Y0068207D01*
X0099462Y0068189D01*
X0099420Y0068175D01*
X0099377Y0068164D01*
X0099333Y0068157D01*
X0099289Y0068154D01*
X0099245Y0068155D01*
X0099201Y0068160D01*
X0099158Y0068169D01*
X0099115Y0068181D01*
X0099074Y0068198D01*
X0099034Y0068217D01*
X0098997Y0068241D01*
X0098961Y0068267D01*
X0098928Y0068297D01*
X0098898Y0068329D01*
X0098871Y0068364D01*
X0098847Y0068401D01*
X0098826Y0068440D01*
X0098809Y0068481D01*
X0098796Y0068523D01*
X0098786Y0068566D01*
X0098780Y0068610D01*
X0098778Y0068654D01*
X0096428Y0061004D02*
X0096428Y0059804D01*
X0093628Y0059804D02*
X0093628Y0061004D01*
X0103928Y0054304D02*
X0105128Y0054304D01*
X0105128Y0051504D02*
X0103928Y0051504D01*
X0103928Y0049804D02*
X0105228Y0049804D01*
X0105228Y0047004D02*
X0103928Y0047004D01*
X0103928Y0043772D02*
X0105128Y0043772D01*
X0105128Y0040972D02*
X0103928Y0040972D01*
X0106059Y0031246D02*
X0107059Y0031246D01*
X0107059Y0024746D01*
X0095059Y0024746D01*
X0095059Y0031246D01*
X0096059Y0031246D01*
X0090559Y0035746D02*
X0092559Y0037746D01*
X0124559Y0037746D01*
X0126559Y0035746D01*
X0126559Y0024746D01*
X0122059Y0024746D02*
X0122059Y0031246D01*
X0121059Y0031246D01*
X0122059Y0024746D02*
X0110059Y0024746D01*
X0110059Y0031246D01*
X0111059Y0031246D01*
X0090559Y0035746D02*
X0090559Y0024746D01*
X0091284Y0024320D01*
X0092019Y0023912D01*
X0092764Y0023522D01*
X0093517Y0023149D01*
X0094280Y0022795D01*
X0095051Y0022460D01*
X0095829Y0022143D01*
X0096616Y0021845D01*
X0097409Y0021566D01*
X0098208Y0021306D01*
X0099014Y0021066D01*
X0099825Y0020845D01*
X0100642Y0020644D01*
X0101463Y0020463D01*
X0102288Y0020301D01*
X0103116Y0020160D01*
X0103948Y0020039D01*
X0104783Y0019937D01*
X0105620Y0019856D01*
X0106458Y0019795D01*
X0107298Y0019755D01*
X0108139Y0019735D01*
X0108979Y0019735D01*
X0109820Y0019755D01*
X0110660Y0019795D01*
X0111498Y0019856D01*
X0112335Y0019937D01*
X0113170Y0020039D01*
X0114002Y0020160D01*
X0114830Y0020301D01*
X0115655Y0020463D01*
X0116476Y0020644D01*
X0117293Y0020845D01*
X0118104Y0021066D01*
X0118910Y0021306D01*
X0119709Y0021566D01*
X0120502Y0021845D01*
X0121289Y0022143D01*
X0122067Y0022460D01*
X0122838Y0022795D01*
X0123601Y0023149D01*
X0124354Y0023522D01*
X0125099Y0023912D01*
X0125834Y0024320D01*
X0126559Y0024746D01*
X0143622Y0024746D02*
X0143622Y0035746D01*
X0145622Y0037746D01*
X0177622Y0037746D01*
X0179622Y0035746D01*
X0179622Y0024746D01*
X0175122Y0024746D02*
X0175122Y0031246D01*
X0174122Y0031246D01*
X0175122Y0024746D02*
X0163122Y0024746D01*
X0163122Y0031246D01*
X0164122Y0031246D01*
X0160122Y0031246D02*
X0159122Y0031246D01*
X0160122Y0031246D02*
X0160122Y0024746D01*
X0148122Y0024746D01*
X0148122Y0031246D01*
X0149122Y0031246D01*
X0156991Y0042504D02*
X0158191Y0042504D01*
X0158191Y0045304D02*
X0156991Y0045304D01*
X0156991Y0047504D02*
X0158291Y0047504D01*
X0158291Y0050304D02*
X0156991Y0050304D01*
X0156991Y0052504D02*
X0158191Y0052504D01*
X0158191Y0055304D02*
X0156991Y0055304D01*
X0143622Y0024746D02*
X0144347Y0024320D01*
X0145082Y0023912D01*
X0145827Y0023522D01*
X0146580Y0023149D01*
X0147343Y0022795D01*
X0148114Y0022460D01*
X0148892Y0022143D01*
X0149679Y0021845D01*
X0150472Y0021566D01*
X0151271Y0021306D01*
X0152077Y0021066D01*
X0152888Y0020845D01*
X0153705Y0020644D01*
X0154526Y0020463D01*
X0155351Y0020301D01*
X0156179Y0020160D01*
X0157011Y0020039D01*
X0157846Y0019937D01*
X0158683Y0019856D01*
X0159521Y0019795D01*
X0160361Y0019755D01*
X0161202Y0019735D01*
X0162042Y0019735D01*
X0162883Y0019755D01*
X0163723Y0019795D01*
X0164561Y0019856D01*
X0165398Y0019937D01*
X0166233Y0020039D01*
X0167065Y0020160D01*
X0167893Y0020301D01*
X0168718Y0020463D01*
X0169539Y0020644D01*
X0170356Y0020845D01*
X0171167Y0021066D01*
X0171973Y0021306D01*
X0172772Y0021566D01*
X0173565Y0021845D01*
X0174352Y0022143D01*
X0175130Y0022460D01*
X0175901Y0022795D01*
X0176664Y0023149D01*
X0177417Y0023522D01*
X0178162Y0023912D01*
X0178897Y0024320D01*
X0179622Y0024746D01*
X0181991Y0044004D02*
X0183191Y0044004D01*
X0183191Y0046804D02*
X0181991Y0046804D01*
X0185991Y0049504D02*
X0187291Y0049504D01*
X0187291Y0052304D02*
X0185991Y0052304D01*
X0185891Y0054504D02*
X0187191Y0054504D01*
X0187191Y0057304D02*
X0185891Y0057304D01*
X0188091Y0066904D02*
X0150091Y0066904D01*
X0149591Y0068904D02*
X0149591Y0078904D01*
X0150091Y0080904D02*
X0188091Y0080904D01*
X0188891Y0079404D02*
X0188891Y0068404D01*
X0190191Y0082304D02*
X0190191Y0083504D01*
X0192991Y0083504D02*
X0192991Y0082304D01*
X0183372Y0093779D02*
X0182072Y0093779D01*
X0182072Y0096579D02*
X0183372Y0096579D01*
X0212028Y0080904D02*
X0250028Y0080904D01*
X0250828Y0079404D02*
X0250828Y0068404D01*
X0250028Y0066904D02*
X0212028Y0066904D01*
X0211528Y0068904D02*
X0211528Y0078904D01*
X0212778Y0068654D02*
X0212780Y0068698D01*
X0212786Y0068742D01*
X0212796Y0068785D01*
X0212809Y0068827D01*
X0212826Y0068868D01*
X0212847Y0068907D01*
X0212871Y0068944D01*
X0212898Y0068979D01*
X0212928Y0069011D01*
X0212961Y0069041D01*
X0212997Y0069067D01*
X0213034Y0069091D01*
X0213074Y0069110D01*
X0213115Y0069127D01*
X0213158Y0069139D01*
X0213201Y0069148D01*
X0213245Y0069153D01*
X0213289Y0069154D01*
X0213333Y0069151D01*
X0213377Y0069144D01*
X0213420Y0069133D01*
X0213462Y0069119D01*
X0213502Y0069101D01*
X0213541Y0069079D01*
X0213577Y0069055D01*
X0213611Y0069027D01*
X0213643Y0068996D01*
X0213672Y0068962D01*
X0213698Y0068926D01*
X0213720Y0068888D01*
X0213739Y0068848D01*
X0213754Y0068806D01*
X0213766Y0068764D01*
X0213774Y0068720D01*
X0213778Y0068676D01*
X0213778Y0068632D01*
X0213774Y0068588D01*
X0213766Y0068544D01*
X0213754Y0068502D01*
X0213739Y0068460D01*
X0213720Y0068420D01*
X0213698Y0068382D01*
X0213672Y0068346D01*
X0213643Y0068312D01*
X0213611Y0068281D01*
X0213577Y0068253D01*
X0213541Y0068229D01*
X0213502Y0068207D01*
X0213462Y0068189D01*
X0213420Y0068175D01*
X0213377Y0068164D01*
X0213333Y0068157D01*
X0213289Y0068154D01*
X0213245Y0068155D01*
X0213201Y0068160D01*
X0213158Y0068169D01*
X0213115Y0068181D01*
X0213074Y0068198D01*
X0213034Y0068217D01*
X0212997Y0068241D01*
X0212961Y0068267D01*
X0212928Y0068297D01*
X0212898Y0068329D01*
X0212871Y0068364D01*
X0212847Y0068401D01*
X0212826Y0068440D01*
X0212809Y0068481D01*
X0212796Y0068523D01*
X0212786Y0068566D01*
X0212780Y0068610D01*
X0212778Y0068654D01*
X0209428Y0061004D02*
X0209428Y0059804D01*
X0206628Y0059804D02*
X0206628Y0061004D01*
X0218928Y0055304D02*
X0220128Y0055304D01*
X0220128Y0052504D02*
X0218928Y0052504D01*
X0218928Y0049804D02*
X0220228Y0049804D01*
X0220228Y0047004D02*
X0218928Y0047004D01*
X0218928Y0044304D02*
X0220128Y0044304D01*
X0220128Y0041504D02*
X0218928Y0041504D01*
X0207024Y0038100D02*
X0239024Y0038100D01*
X0241024Y0036100D01*
X0241024Y0025100D01*
X0236524Y0025100D02*
X0236524Y0031600D01*
X0235524Y0031600D01*
X0236524Y0025100D02*
X0224524Y0025100D01*
X0224524Y0031600D01*
X0225524Y0031600D01*
X0221524Y0031600D02*
X0220524Y0031600D01*
X0221524Y0031600D02*
X0221524Y0025100D01*
X0209524Y0025100D01*
X0209524Y0031600D01*
X0210524Y0031600D01*
X0205024Y0036100D02*
X0207024Y0038100D01*
X0205024Y0036100D02*
X0205024Y0025100D01*
X0205749Y0024674D01*
X0206484Y0024266D01*
X0207229Y0023876D01*
X0207982Y0023503D01*
X0208745Y0023149D01*
X0209516Y0022814D01*
X0210294Y0022497D01*
X0211081Y0022199D01*
X0211874Y0021920D01*
X0212673Y0021660D01*
X0213479Y0021420D01*
X0214290Y0021199D01*
X0215107Y0020998D01*
X0215928Y0020817D01*
X0216753Y0020655D01*
X0217581Y0020514D01*
X0218413Y0020393D01*
X0219248Y0020291D01*
X0220085Y0020210D01*
X0220923Y0020149D01*
X0221763Y0020109D01*
X0222604Y0020089D01*
X0223444Y0020089D01*
X0224285Y0020109D01*
X0225125Y0020149D01*
X0225963Y0020210D01*
X0226800Y0020291D01*
X0227635Y0020393D01*
X0228467Y0020514D01*
X0229295Y0020655D01*
X0230120Y0020817D01*
X0230941Y0020998D01*
X0231758Y0021199D01*
X0232569Y0021420D01*
X0233375Y0021660D01*
X0234174Y0021920D01*
X0234967Y0022199D01*
X0235754Y0022497D01*
X0236532Y0022814D01*
X0237303Y0023149D01*
X0238066Y0023503D01*
X0238819Y0023876D01*
X0239564Y0024266D01*
X0240299Y0024674D01*
X0241024Y0025100D01*
X0255535Y0025108D02*
X0255535Y0036108D01*
X0257535Y0038108D01*
X0319535Y0038108D01*
X0321535Y0036108D01*
X0321535Y0025108D01*
X0317035Y0025108D02*
X0317035Y0031608D01*
X0316035Y0031608D01*
X0317035Y0025108D02*
X0305035Y0025108D01*
X0305035Y0031608D01*
X0306035Y0031608D01*
X0302035Y0031608D02*
X0301035Y0031608D01*
X0302035Y0031608D02*
X0302035Y0025108D01*
X0290035Y0025108D01*
X0290035Y0031608D01*
X0291035Y0031608D01*
X0287035Y0031608D02*
X0286035Y0031608D01*
X0287035Y0031608D02*
X0287035Y0025108D01*
X0275035Y0025108D01*
X0275035Y0031608D01*
X0276035Y0031608D01*
X0272035Y0031608D02*
X0271035Y0031608D01*
X0272035Y0031608D02*
X0272035Y0025108D01*
X0260035Y0025108D01*
X0260035Y0031608D01*
X0261035Y0031608D01*
X0246128Y0043504D02*
X0244928Y0043504D01*
X0244928Y0046304D02*
X0246128Y0046304D01*
X0252561Y0061751D02*
X0252561Y0063051D01*
X0255361Y0063051D02*
X0255361Y0061751D01*
X0257561Y0061851D02*
X0257561Y0063151D01*
X0260361Y0063151D02*
X0260361Y0061851D01*
X0270128Y0061004D02*
X0270128Y0059804D01*
X0272928Y0059804D02*
X0272928Y0061004D01*
X0276028Y0066904D02*
X0314028Y0066904D01*
X0314828Y0068404D02*
X0314828Y0079404D01*
X0314028Y0080904D02*
X0276028Y0080904D01*
X0275528Y0078904D02*
X0275528Y0068904D01*
X0276778Y0068654D02*
X0276780Y0068698D01*
X0276786Y0068742D01*
X0276796Y0068785D01*
X0276809Y0068827D01*
X0276826Y0068868D01*
X0276847Y0068907D01*
X0276871Y0068944D01*
X0276898Y0068979D01*
X0276928Y0069011D01*
X0276961Y0069041D01*
X0276997Y0069067D01*
X0277034Y0069091D01*
X0277074Y0069110D01*
X0277115Y0069127D01*
X0277158Y0069139D01*
X0277201Y0069148D01*
X0277245Y0069153D01*
X0277289Y0069154D01*
X0277333Y0069151D01*
X0277377Y0069144D01*
X0277420Y0069133D01*
X0277462Y0069119D01*
X0277502Y0069101D01*
X0277541Y0069079D01*
X0277577Y0069055D01*
X0277611Y0069027D01*
X0277643Y0068996D01*
X0277672Y0068962D01*
X0277698Y0068926D01*
X0277720Y0068888D01*
X0277739Y0068848D01*
X0277754Y0068806D01*
X0277766Y0068764D01*
X0277774Y0068720D01*
X0277778Y0068676D01*
X0277778Y0068632D01*
X0277774Y0068588D01*
X0277766Y0068544D01*
X0277754Y0068502D01*
X0277739Y0068460D01*
X0277720Y0068420D01*
X0277698Y0068382D01*
X0277672Y0068346D01*
X0277643Y0068312D01*
X0277611Y0068281D01*
X0277577Y0068253D01*
X0277541Y0068229D01*
X0277502Y0068207D01*
X0277462Y0068189D01*
X0277420Y0068175D01*
X0277377Y0068164D01*
X0277333Y0068157D01*
X0277289Y0068154D01*
X0277245Y0068155D01*
X0277201Y0068160D01*
X0277158Y0068169D01*
X0277115Y0068181D01*
X0277074Y0068198D01*
X0277034Y0068217D01*
X0276997Y0068241D01*
X0276961Y0068267D01*
X0276928Y0068297D01*
X0276898Y0068329D01*
X0276871Y0068364D01*
X0276847Y0068401D01*
X0276826Y0068440D01*
X0276809Y0068481D01*
X0276796Y0068523D01*
X0276786Y0068566D01*
X0276780Y0068610D01*
X0276778Y0068654D01*
X0281890Y0055804D02*
X0283090Y0055804D01*
X0283090Y0053004D02*
X0281890Y0053004D01*
X0281890Y0051054D02*
X0283190Y0051054D01*
X0283190Y0048254D02*
X0281890Y0048254D01*
X0281890Y0046304D02*
X0283090Y0046304D01*
X0283090Y0043504D02*
X0281890Y0043504D01*
X0308928Y0044304D02*
X0310128Y0044304D01*
X0310128Y0041504D02*
X0308928Y0041504D01*
X0312428Y0046754D02*
X0313728Y0046754D01*
X0313728Y0049554D02*
X0312428Y0049554D01*
X0312078Y0052004D02*
X0313378Y0052004D01*
X0313378Y0054804D02*
X0312078Y0054804D01*
X0322128Y0083554D02*
X0322128Y0084754D01*
X0324928Y0084754D02*
X0324928Y0083554D01*
X0309002Y0094001D02*
X0307702Y0094001D01*
X0307702Y0096801D02*
X0309002Y0096801D01*
X0277776Y0120611D02*
X0249376Y0120611D01*
X0257776Y0120711D02*
X0257776Y0126419D01*
X0257776Y0130356D02*
X0257776Y0136065D01*
X0257776Y0140002D02*
X0257776Y0145711D01*
X0249476Y0145811D02*
X0277876Y0145811D01*
X0277776Y0148711D02*
X0277776Y0154419D01*
X0277776Y0158356D02*
X0277776Y0164065D01*
X0277776Y0168002D02*
X0277776Y0173711D01*
X0269476Y0173811D02*
X0297876Y0173811D01*
X0326276Y0180211D02*
X0326702Y0179486D01*
X0327110Y0178751D01*
X0327500Y0178006D01*
X0327873Y0177253D01*
X0328227Y0176490D01*
X0328562Y0175719D01*
X0328879Y0174941D01*
X0329177Y0174154D01*
X0329456Y0173361D01*
X0329716Y0172562D01*
X0329956Y0171756D01*
X0330177Y0170945D01*
X0330378Y0170128D01*
X0330559Y0169307D01*
X0330721Y0168482D01*
X0330862Y0167654D01*
X0330983Y0166822D01*
X0331085Y0165987D01*
X0331166Y0165150D01*
X0331227Y0164312D01*
X0331267Y0163472D01*
X0331287Y0162631D01*
X0331287Y0161791D01*
X0331267Y0160950D01*
X0331227Y0160110D01*
X0331166Y0159272D01*
X0331085Y0158435D01*
X0330983Y0157600D01*
X0330862Y0156768D01*
X0330721Y0155940D01*
X0330559Y0155115D01*
X0330378Y0154294D01*
X0330177Y0153477D01*
X0329956Y0152666D01*
X0329716Y0151860D01*
X0329456Y0151061D01*
X0329177Y0150268D01*
X0328879Y0149481D01*
X0328562Y0148703D01*
X0328227Y0147932D01*
X0327873Y0147169D01*
X0327500Y0146416D01*
X0327110Y0145671D01*
X0326702Y0144936D01*
X0326276Y0144211D01*
X0315276Y0144211D01*
X0313276Y0146211D01*
X0313276Y0178211D01*
X0315276Y0180211D01*
X0326276Y0180211D01*
X0326276Y0184211D02*
X0315276Y0184211D01*
X0313276Y0186211D01*
X0313276Y0218211D01*
X0315276Y0220211D01*
X0326276Y0220211D01*
X0326276Y0215711D02*
X0319776Y0215711D01*
X0319776Y0214711D01*
X0326276Y0215711D02*
X0326276Y0203711D01*
X0319776Y0203711D01*
X0319776Y0204711D01*
X0319776Y0200711D02*
X0319776Y0199711D01*
X0319776Y0200711D02*
X0326276Y0200711D01*
X0326276Y0188711D01*
X0319776Y0188711D01*
X0319776Y0189711D01*
X0319776Y0175711D02*
X0319776Y0174711D01*
X0319776Y0175711D02*
X0326276Y0175711D01*
X0326276Y0163711D01*
X0319776Y0163711D01*
X0319776Y0164711D01*
X0319776Y0160711D02*
X0319776Y0159711D01*
X0319776Y0160711D02*
X0326276Y0160711D01*
X0326276Y0148711D01*
X0319776Y0148711D01*
X0319776Y0149711D01*
X0297776Y0148611D02*
X0269376Y0148611D01*
X0256276Y0155211D02*
X0256276Y0157211D01*
X0256276Y0155211D02*
X0252276Y0155211D01*
X0256276Y0165211D02*
X0256276Y0167211D01*
X0252276Y0167211D01*
X0255276Y0177211D02*
X0255276Y0179211D01*
X0251234Y0179211D01*
X0247297Y0179211D02*
X0243255Y0179211D01*
X0239318Y0179211D02*
X0235276Y0179211D01*
X0235276Y0177211D01*
X0235276Y0179211D02*
X0235276Y0193211D01*
X0224076Y0191111D02*
X0222476Y0191111D01*
X0222476Y0187311D02*
X0224076Y0187311D01*
X0223876Y0181311D02*
X0222676Y0181311D01*
X0222676Y0177161D02*
X0223876Y0177161D01*
X0226676Y0171311D02*
X0227876Y0171311D01*
X0227876Y0167161D02*
X0226676Y0167161D01*
X0234576Y0164711D02*
X0208076Y0164711D01*
X0208076Y0137711D02*
X0234576Y0137711D01*
X0209257Y0135197D02*
X0207657Y0135197D01*
X0207657Y0131397D02*
X0209257Y0131397D01*
X0196068Y0131397D02*
X0194468Y0131397D01*
X0194468Y0135197D02*
X0196068Y0135197D01*
X0154257Y0171870D02*
X0154257Y0173070D01*
X0150107Y0173070D02*
X0150107Y0171870D01*
X0142051Y0170442D02*
X0135051Y0170442D01*
X0132341Y0174876D02*
X0129241Y0174876D01*
X0132341Y0174876D02*
X0132341Y0181876D01*
X0129241Y0181876D01*
X0132341Y0181876D02*
X0139641Y0181876D01*
X0139641Y0174876D02*
X0132341Y0174876D01*
X0135051Y0158042D02*
X0142051Y0158042D01*
X0139178Y0154685D02*
X0137578Y0154685D01*
X0137578Y0150885D02*
X0139178Y0150885D01*
X0148289Y0153954D02*
X0148289Y0155554D01*
X0152089Y0155554D02*
X0152089Y0153954D01*
X0128467Y0153954D02*
X0128467Y0155554D01*
X0124667Y0155554D02*
X0124667Y0153954D01*
X0112869Y0151417D02*
X0112869Y0150217D01*
X0108719Y0150217D02*
X0108719Y0151417D01*
X0103026Y0151417D02*
X0103026Y0150217D01*
X0098876Y0150217D02*
X0098876Y0151417D01*
X0110819Y0166270D02*
X0110819Y0167270D01*
X0110819Y0167271D02*
X0110891Y0167247D01*
X0110964Y0167228D01*
X0111038Y0167211D01*
X0111113Y0167199D01*
X0111188Y0167191D01*
X0111264Y0167186D01*
X0111339Y0167185D01*
X0111415Y0167188D01*
X0111490Y0167195D01*
X0111565Y0167205D01*
X0111640Y0167220D01*
X0111713Y0167238D01*
X0111786Y0167259D01*
X0111857Y0167285D01*
X0111927Y0167314D01*
X0111995Y0167346D01*
X0112062Y0167382D01*
X0112127Y0167421D01*
X0112190Y0167463D01*
X0112250Y0167508D01*
X0112308Y0167557D01*
X0112364Y0167608D01*
X0112417Y0167662D01*
X0112467Y0167719D01*
X0112515Y0167778D01*
X0112559Y0167839D01*
X0112600Y0167903D01*
X0112638Y0167968D01*
X0112672Y0168036D01*
X0112704Y0168105D01*
X0112731Y0168175D01*
X0112755Y0168247D01*
X0112775Y0168320D01*
X0112792Y0168394D01*
X0112805Y0168468D01*
X0112814Y0168543D01*
X0112819Y0168619D01*
X0112821Y0168695D01*
X0112819Y0168770D01*
X0112819Y0168771D02*
X0112821Y0168846D01*
X0112819Y0168922D01*
X0112814Y0168998D01*
X0112805Y0169073D01*
X0112792Y0169147D01*
X0112775Y0169221D01*
X0112755Y0169294D01*
X0112731Y0169366D01*
X0112704Y0169436D01*
X0112672Y0169505D01*
X0112638Y0169573D01*
X0112600Y0169638D01*
X0112559Y0169702D01*
X0112515Y0169763D01*
X0112467Y0169822D01*
X0112417Y0169879D01*
X0112364Y0169933D01*
X0112308Y0169984D01*
X0112250Y0170033D01*
X0112190Y0170078D01*
X0112127Y0170120D01*
X0112062Y0170159D01*
X0111995Y0170195D01*
X0111927Y0170227D01*
X0111857Y0170256D01*
X0111786Y0170282D01*
X0111713Y0170303D01*
X0111640Y0170321D01*
X0111565Y0170336D01*
X0111490Y0170346D01*
X0111415Y0170353D01*
X0111339Y0170356D01*
X0111264Y0170355D01*
X0111188Y0170350D01*
X0111113Y0170342D01*
X0111038Y0170330D01*
X0110964Y0170313D01*
X0110891Y0170294D01*
X0110819Y0170270D01*
X0110819Y0169771D02*
X0110891Y0169747D01*
X0110964Y0169728D01*
X0111038Y0169711D01*
X0111113Y0169699D01*
X0111188Y0169691D01*
X0111264Y0169686D01*
X0111339Y0169685D01*
X0111415Y0169688D01*
X0111490Y0169695D01*
X0111565Y0169705D01*
X0111640Y0169720D01*
X0111713Y0169738D01*
X0111786Y0169759D01*
X0111857Y0169785D01*
X0111927Y0169814D01*
X0111995Y0169846D01*
X0112062Y0169882D01*
X0112127Y0169921D01*
X0112190Y0169963D01*
X0112250Y0170008D01*
X0112308Y0170057D01*
X0112364Y0170108D01*
X0112417Y0170162D01*
X0112467Y0170219D01*
X0112515Y0170278D01*
X0112559Y0170339D01*
X0112600Y0170403D01*
X0112638Y0170468D01*
X0112672Y0170536D01*
X0112704Y0170605D01*
X0112731Y0170675D01*
X0112755Y0170747D01*
X0112775Y0170820D01*
X0112792Y0170894D01*
X0112805Y0170968D01*
X0112814Y0171043D01*
X0112819Y0171119D01*
X0112821Y0171195D01*
X0112819Y0171270D01*
X0112819Y0171271D02*
X0112821Y0171346D01*
X0112819Y0171422D01*
X0112814Y0171498D01*
X0112805Y0171573D01*
X0112792Y0171647D01*
X0112775Y0171721D01*
X0112755Y0171794D01*
X0112731Y0171866D01*
X0112704Y0171936D01*
X0112672Y0172005D01*
X0112638Y0172073D01*
X0112600Y0172138D01*
X0112559Y0172202D01*
X0112515Y0172263D01*
X0112467Y0172322D01*
X0112417Y0172379D01*
X0112364Y0172433D01*
X0112308Y0172484D01*
X0112250Y0172533D01*
X0112190Y0172578D01*
X0112127Y0172620D01*
X0112062Y0172659D01*
X0111995Y0172695D01*
X0111927Y0172727D01*
X0111857Y0172756D01*
X0111786Y0172782D01*
X0111713Y0172803D01*
X0111640Y0172821D01*
X0111565Y0172836D01*
X0111490Y0172846D01*
X0111415Y0172853D01*
X0111339Y0172856D01*
X0111264Y0172855D01*
X0111188Y0172850D01*
X0111113Y0172842D01*
X0111038Y0172830D01*
X0110964Y0172813D01*
X0110891Y0172794D01*
X0110819Y0172770D01*
X0110790Y0172758D01*
X0110763Y0172743D01*
X0110738Y0172724D01*
X0110715Y0172703D01*
X0110695Y0172679D01*
X0110678Y0172653D01*
X0110664Y0172626D01*
X0110653Y0172597D01*
X0110646Y0172566D01*
X0110642Y0172536D01*
X0110642Y0172504D01*
X0110646Y0172474D01*
X0110653Y0172443D01*
X0110664Y0172414D01*
X0110678Y0172387D01*
X0110695Y0172361D01*
X0110715Y0172337D01*
X0110738Y0172316D01*
X0110763Y0172297D01*
X0110790Y0172282D01*
X0110819Y0172270D01*
X0098071Y0172470D02*
X0098075Y0172783D01*
X0098086Y0173096D01*
X0098106Y0173408D01*
X0098132Y0173720D01*
X0098167Y0174030D01*
X0098209Y0174341D01*
X0098259Y0174649D01*
X0098316Y0174957D01*
X0098381Y0175263D01*
X0098453Y0175568D01*
X0098533Y0175870D01*
X0098620Y0176171D01*
X0098714Y0176469D01*
X0098816Y0176765D01*
X0098925Y0177058D01*
X0099041Y0177348D01*
X0099165Y0177636D01*
X0099295Y0177920D01*
X0099432Y0178202D01*
X0099576Y0178479D01*
X0099727Y0178753D01*
X0099885Y0179024D01*
X0100049Y0179290D01*
X0100219Y0179552D01*
X0100396Y0179810D01*
X0100580Y0180064D01*
X0100769Y0180313D01*
X0100965Y0180557D01*
X0101166Y0180797D01*
X0101373Y0181031D01*
X0101586Y0181260D01*
X0101805Y0181484D01*
X0102029Y0181703D01*
X0102258Y0181916D01*
X0102492Y0182123D01*
X0102732Y0182324D01*
X0102976Y0182520D01*
X0103225Y0182709D01*
X0103479Y0182893D01*
X0103737Y0183070D01*
X0103999Y0183240D01*
X0104265Y0183404D01*
X0104536Y0183562D01*
X0104810Y0183713D01*
X0105087Y0183857D01*
X0105369Y0183994D01*
X0105653Y0184124D01*
X0105941Y0184248D01*
X0106231Y0184364D01*
X0106524Y0184473D01*
X0106820Y0184575D01*
X0107118Y0184669D01*
X0107419Y0184756D01*
X0107721Y0184836D01*
X0108026Y0184908D01*
X0108332Y0184973D01*
X0108640Y0185030D01*
X0108948Y0185080D01*
X0109259Y0185122D01*
X0109569Y0185157D01*
X0109881Y0185183D01*
X0110193Y0185203D01*
X0110506Y0185214D01*
X0110819Y0185218D01*
X0111132Y0185214D01*
X0111445Y0185203D01*
X0111757Y0185183D01*
X0112069Y0185157D01*
X0112379Y0185122D01*
X0112690Y0185080D01*
X0112998Y0185030D01*
X0113306Y0184973D01*
X0113612Y0184908D01*
X0113917Y0184836D01*
X0114219Y0184756D01*
X0114520Y0184669D01*
X0114818Y0184575D01*
X0115114Y0184473D01*
X0115407Y0184364D01*
X0115697Y0184248D01*
X0115985Y0184124D01*
X0116269Y0183994D01*
X0116551Y0183857D01*
X0116828Y0183713D01*
X0117102Y0183562D01*
X0117373Y0183404D01*
X0117639Y0183240D01*
X0117901Y0183070D01*
X0118159Y0182893D01*
X0118413Y0182709D01*
X0118662Y0182520D01*
X0118906Y0182324D01*
X0119146Y0182123D01*
X0119380Y0181916D01*
X0119609Y0181703D01*
X0119833Y0181484D01*
X0120052Y0181260D01*
X0120265Y0181031D01*
X0120472Y0180797D01*
X0120673Y0180557D01*
X0120869Y0180313D01*
X0121058Y0180064D01*
X0121242Y0179810D01*
X0121419Y0179552D01*
X0121589Y0179290D01*
X0121753Y0179024D01*
X0121911Y0178753D01*
X0122062Y0178479D01*
X0122206Y0178202D01*
X0122343Y0177920D01*
X0122473Y0177636D01*
X0122597Y0177348D01*
X0122713Y0177058D01*
X0122822Y0176765D01*
X0122924Y0176469D01*
X0123018Y0176171D01*
X0123105Y0175870D01*
X0123185Y0175568D01*
X0123257Y0175263D01*
X0123322Y0174957D01*
X0123379Y0174649D01*
X0123429Y0174341D01*
X0123471Y0174030D01*
X0123506Y0173720D01*
X0123532Y0173408D01*
X0123552Y0173096D01*
X0123563Y0172783D01*
X0123567Y0172470D01*
X0123563Y0172157D01*
X0123552Y0171844D01*
X0123532Y0171532D01*
X0123506Y0171220D01*
X0123471Y0170910D01*
X0123429Y0170599D01*
X0123379Y0170291D01*
X0123322Y0169983D01*
X0123257Y0169677D01*
X0123185Y0169372D01*
X0123105Y0169070D01*
X0123018Y0168769D01*
X0122924Y0168471D01*
X0122822Y0168175D01*
X0122713Y0167882D01*
X0122597Y0167592D01*
X0122473Y0167304D01*
X0122343Y0167020D01*
X0122206Y0166738D01*
X0122062Y0166461D01*
X0121911Y0166187D01*
X0121753Y0165916D01*
X0121589Y0165650D01*
X0121419Y0165388D01*
X0121242Y0165130D01*
X0121058Y0164876D01*
X0120869Y0164627D01*
X0120673Y0164383D01*
X0120472Y0164143D01*
X0120265Y0163909D01*
X0120052Y0163680D01*
X0119833Y0163456D01*
X0119609Y0163237D01*
X0119380Y0163024D01*
X0119146Y0162817D01*
X0118906Y0162616D01*
X0118662Y0162420D01*
X0118413Y0162231D01*
X0118159Y0162047D01*
X0117901Y0161870D01*
X0117639Y0161700D01*
X0117373Y0161536D01*
X0117102Y0161378D01*
X0116828Y0161227D01*
X0116551Y0161083D01*
X0116269Y0160946D01*
X0115985Y0160816D01*
X0115697Y0160692D01*
X0115407Y0160576D01*
X0115114Y0160467D01*
X0114818Y0160365D01*
X0114520Y0160271D01*
X0114219Y0160184D01*
X0113917Y0160104D01*
X0113612Y0160032D01*
X0113306Y0159967D01*
X0112998Y0159910D01*
X0112690Y0159860D01*
X0112379Y0159818D01*
X0112069Y0159783D01*
X0111757Y0159757D01*
X0111445Y0159737D01*
X0111132Y0159726D01*
X0110819Y0159722D01*
X0110506Y0159726D01*
X0110193Y0159737D01*
X0109881Y0159757D01*
X0109569Y0159783D01*
X0109259Y0159818D01*
X0108948Y0159860D01*
X0108640Y0159910D01*
X0108332Y0159967D01*
X0108026Y0160032D01*
X0107721Y0160104D01*
X0107419Y0160184D01*
X0107118Y0160271D01*
X0106820Y0160365D01*
X0106524Y0160467D01*
X0106231Y0160576D01*
X0105941Y0160692D01*
X0105653Y0160816D01*
X0105369Y0160946D01*
X0105087Y0161083D01*
X0104810Y0161227D01*
X0104536Y0161378D01*
X0104265Y0161536D01*
X0103999Y0161700D01*
X0103737Y0161870D01*
X0103479Y0162047D01*
X0103225Y0162231D01*
X0102976Y0162420D01*
X0102732Y0162616D01*
X0102492Y0162817D01*
X0102258Y0163024D01*
X0102029Y0163237D01*
X0101805Y0163456D01*
X0101586Y0163680D01*
X0101373Y0163909D01*
X0101166Y0164143D01*
X0100965Y0164383D01*
X0100769Y0164627D01*
X0100580Y0164876D01*
X0100396Y0165130D01*
X0100219Y0165388D01*
X0100049Y0165650D01*
X0099885Y0165916D01*
X0099727Y0166187D01*
X0099576Y0166461D01*
X0099432Y0166738D01*
X0099295Y0167020D01*
X0099165Y0167304D01*
X0099041Y0167592D01*
X0098925Y0167882D01*
X0098816Y0168175D01*
X0098714Y0168471D01*
X0098620Y0168769D01*
X0098533Y0169070D01*
X0098453Y0169372D01*
X0098381Y0169677D01*
X0098316Y0169983D01*
X0098259Y0170291D01*
X0098209Y0170599D01*
X0098167Y0170910D01*
X0098132Y0171220D01*
X0098106Y0171532D01*
X0098086Y0171844D01*
X0098075Y0172157D01*
X0098071Y0172470D01*
X0085227Y0173666D02*
X0085227Y0174866D01*
X0082427Y0174866D02*
X0082427Y0173666D01*
X0075656Y0174687D02*
X0071556Y0174687D01*
X0064802Y0174921D02*
X0064802Y0173721D01*
X0062002Y0173721D02*
X0062002Y0174921D01*
X0056950Y0180878D02*
X0056950Y0182078D01*
X0056983Y0181494D02*
X0056985Y0181596D01*
X0056991Y0181697D01*
X0057001Y0181799D01*
X0057015Y0181899D01*
X0057032Y0182000D01*
X0057054Y0182099D01*
X0057080Y0182198D01*
X0057109Y0182295D01*
X0057142Y0182391D01*
X0057179Y0182486D01*
X0057220Y0182580D01*
X0057264Y0182671D01*
X0057312Y0182761D01*
X0057363Y0182849D01*
X0057417Y0182935D01*
X0057475Y0183019D01*
X0057536Y0183100D01*
X0057600Y0183179D01*
X0057668Y0183255D01*
X0057738Y0183329D01*
X0057811Y0183400D01*
X0057887Y0183468D01*
X0057965Y0183533D01*
X0058046Y0183595D01*
X0058129Y0183654D01*
X0058214Y0183709D01*
X0058302Y0183761D01*
X0058391Y0183810D01*
X0058482Y0183855D01*
X0058575Y0183896D01*
X0058670Y0183934D01*
X0058766Y0183968D01*
X0058863Y0183998D01*
X0058961Y0184025D01*
X0059060Y0184047D01*
X0059160Y0184066D01*
X0059261Y0184081D01*
X0059362Y0184092D01*
X0059464Y0184099D01*
X0059566Y0184102D01*
X0059667Y0184101D01*
X0059769Y0184096D01*
X0059870Y0184087D01*
X0059971Y0184074D01*
X0060072Y0184057D01*
X0060171Y0184037D01*
X0060270Y0184012D01*
X0060368Y0183984D01*
X0060464Y0183951D01*
X0060560Y0183915D01*
X0060653Y0183876D01*
X0060745Y0183833D01*
X0060836Y0183786D01*
X0060924Y0183735D01*
X0061011Y0183682D01*
X0061095Y0183625D01*
X0061177Y0183564D01*
X0061257Y0183501D01*
X0061334Y0183434D01*
X0061408Y0183365D01*
X0061480Y0183293D01*
X0061548Y0183218D01*
X0061614Y0183140D01*
X0061677Y0183060D01*
X0061736Y0182977D01*
X0061792Y0182892D01*
X0061845Y0182805D01*
X0061895Y0182716D01*
X0061941Y0182626D01*
X0061983Y0182533D01*
X0062022Y0182439D01*
X0062057Y0182343D01*
X0062088Y0182246D01*
X0062116Y0182148D01*
X0062139Y0182050D01*
X0062159Y0181950D01*
X0062175Y0181849D01*
X0062187Y0181748D01*
X0062195Y0181647D01*
X0062199Y0181545D01*
X0062199Y0181443D01*
X0062195Y0181341D01*
X0062187Y0181240D01*
X0062175Y0181139D01*
X0062159Y0181038D01*
X0062139Y0180938D01*
X0062116Y0180840D01*
X0062088Y0180742D01*
X0062057Y0180645D01*
X0062022Y0180549D01*
X0061983Y0180455D01*
X0061941Y0180362D01*
X0061895Y0180272D01*
X0061845Y0180183D01*
X0061792Y0180096D01*
X0061736Y0180011D01*
X0061677Y0179928D01*
X0061614Y0179848D01*
X0061548Y0179770D01*
X0061480Y0179695D01*
X0061408Y0179623D01*
X0061334Y0179554D01*
X0061257Y0179487D01*
X0061177Y0179424D01*
X0061095Y0179363D01*
X0061011Y0179306D01*
X0060924Y0179253D01*
X0060836Y0179202D01*
X0060745Y0179155D01*
X0060653Y0179112D01*
X0060560Y0179073D01*
X0060464Y0179037D01*
X0060368Y0179004D01*
X0060270Y0178976D01*
X0060171Y0178951D01*
X0060072Y0178931D01*
X0059971Y0178914D01*
X0059870Y0178901D01*
X0059769Y0178892D01*
X0059667Y0178887D01*
X0059566Y0178886D01*
X0059464Y0178889D01*
X0059362Y0178896D01*
X0059261Y0178907D01*
X0059160Y0178922D01*
X0059060Y0178941D01*
X0058961Y0178963D01*
X0058863Y0178990D01*
X0058766Y0179020D01*
X0058670Y0179054D01*
X0058575Y0179092D01*
X0058482Y0179133D01*
X0058391Y0179178D01*
X0058302Y0179227D01*
X0058214Y0179279D01*
X0058129Y0179334D01*
X0058046Y0179393D01*
X0057965Y0179455D01*
X0057887Y0179520D01*
X0057811Y0179588D01*
X0057738Y0179659D01*
X0057668Y0179733D01*
X0057600Y0179809D01*
X0057536Y0179888D01*
X0057475Y0179969D01*
X0057417Y0180053D01*
X0057363Y0180139D01*
X0057312Y0180227D01*
X0057264Y0180317D01*
X0057220Y0180408D01*
X0057179Y0180502D01*
X0057142Y0180597D01*
X0057109Y0180693D01*
X0057080Y0180790D01*
X0057054Y0180889D01*
X0057032Y0180988D01*
X0057015Y0181089D01*
X0057001Y0181189D01*
X0056991Y0181291D01*
X0056985Y0181392D01*
X0056983Y0181494D01*
X0052800Y0182078D02*
X0052800Y0180878D01*
X0048106Y0182191D02*
X0048106Y0189191D01*
X0053962Y0196776D02*
X0053962Y0197976D01*
X0056762Y0197976D02*
X0056762Y0196776D01*
X0055902Y0204167D02*
X0058402Y0204167D01*
X0055902Y0204167D02*
X0055902Y0206667D01*
X0047557Y0209170D02*
X0047557Y0210370D01*
X0044757Y0210370D02*
X0044757Y0209170D01*
X0038967Y0208918D02*
X0038967Y0210118D01*
X0036167Y0210118D02*
X0036167Y0208918D01*
X0034014Y0208941D02*
X0034014Y0210141D01*
X0031214Y0210141D02*
X0031214Y0208941D01*
X0028839Y0209364D02*
X0028839Y0216364D01*
X0032399Y0216565D02*
X0032401Y0216700D01*
X0032407Y0216835D01*
X0032417Y0216970D01*
X0032431Y0217104D01*
X0032448Y0217238D01*
X0032470Y0217371D01*
X0032496Y0217504D01*
X0032525Y0217636D01*
X0032559Y0217767D01*
X0032596Y0217897D01*
X0032637Y0218025D01*
X0032682Y0218153D01*
X0032730Y0218279D01*
X0032782Y0218403D01*
X0032838Y0218526D01*
X0032897Y0218648D01*
X0032960Y0218767D01*
X0033027Y0218885D01*
X0033097Y0219001D01*
X0033170Y0219114D01*
X0033246Y0219225D01*
X0033326Y0219335D01*
X0033409Y0219441D01*
X0033495Y0219545D01*
X0033584Y0219647D01*
X0033676Y0219746D01*
X0033771Y0219842D01*
X0033868Y0219936D01*
X0033968Y0220026D01*
X0034071Y0220114D01*
X0034177Y0220198D01*
X0034285Y0220279D01*
X0034395Y0220357D01*
X0034507Y0220432D01*
X0034622Y0220504D01*
X0034739Y0220572D01*
X0034857Y0220637D01*
X0034978Y0220698D01*
X0035100Y0220755D01*
X0035224Y0220809D01*
X0035349Y0220860D01*
X0035476Y0220906D01*
X0035604Y0220949D01*
X0035733Y0220988D01*
X0035864Y0221023D01*
X0035995Y0221055D01*
X0036127Y0221082D01*
X0036260Y0221106D01*
X0036394Y0221126D01*
X0036528Y0221142D01*
X0036663Y0221154D01*
X0036797Y0221162D01*
X0036932Y0221166D01*
X0037068Y0221166D01*
X0037203Y0221162D01*
X0037337Y0221154D01*
X0037472Y0221142D01*
X0037606Y0221126D01*
X0037740Y0221106D01*
X0037873Y0221082D01*
X0038005Y0221055D01*
X0038136Y0221023D01*
X0038267Y0220988D01*
X0038396Y0220949D01*
X0038524Y0220906D01*
X0038651Y0220860D01*
X0038776Y0220809D01*
X0038900Y0220755D01*
X0039022Y0220698D01*
X0039143Y0220637D01*
X0039261Y0220572D01*
X0039378Y0220504D01*
X0039493Y0220432D01*
X0039605Y0220357D01*
X0039715Y0220279D01*
X0039823Y0220198D01*
X0039929Y0220114D01*
X0040032Y0220026D01*
X0040132Y0219936D01*
X0040229Y0219842D01*
X0040324Y0219746D01*
X0040416Y0219647D01*
X0040505Y0219545D01*
X0040591Y0219441D01*
X0040674Y0219335D01*
X0040754Y0219225D01*
X0040830Y0219114D01*
X0040903Y0219001D01*
X0040973Y0218885D01*
X0041040Y0218767D01*
X0041103Y0218648D01*
X0041162Y0218526D01*
X0041218Y0218403D01*
X0041270Y0218279D01*
X0041318Y0218153D01*
X0041363Y0218025D01*
X0041404Y0217897D01*
X0041441Y0217767D01*
X0041475Y0217636D01*
X0041504Y0217504D01*
X0041530Y0217371D01*
X0041552Y0217238D01*
X0041569Y0217104D01*
X0041583Y0216970D01*
X0041593Y0216835D01*
X0041599Y0216700D01*
X0041601Y0216565D01*
X0041599Y0216430D01*
X0041593Y0216295D01*
X0041583Y0216160D01*
X0041569Y0216026D01*
X0041552Y0215892D01*
X0041530Y0215759D01*
X0041504Y0215626D01*
X0041475Y0215494D01*
X0041441Y0215363D01*
X0041404Y0215233D01*
X0041363Y0215105D01*
X0041318Y0214977D01*
X0041270Y0214851D01*
X0041218Y0214727D01*
X0041162Y0214604D01*
X0041103Y0214482D01*
X0041040Y0214363D01*
X0040973Y0214245D01*
X0040903Y0214129D01*
X0040830Y0214016D01*
X0040754Y0213905D01*
X0040674Y0213795D01*
X0040591Y0213689D01*
X0040505Y0213585D01*
X0040416Y0213483D01*
X0040324Y0213384D01*
X0040229Y0213288D01*
X0040132Y0213194D01*
X0040032Y0213104D01*
X0039929Y0213016D01*
X0039823Y0212932D01*
X0039715Y0212851D01*
X0039605Y0212773D01*
X0039493Y0212698D01*
X0039378Y0212626D01*
X0039261Y0212558D01*
X0039143Y0212493D01*
X0039022Y0212432D01*
X0038900Y0212375D01*
X0038776Y0212321D01*
X0038651Y0212270D01*
X0038524Y0212224D01*
X0038396Y0212181D01*
X0038267Y0212142D01*
X0038136Y0212107D01*
X0038005Y0212075D01*
X0037873Y0212048D01*
X0037740Y0212024D01*
X0037606Y0212004D01*
X0037472Y0211988D01*
X0037337Y0211976D01*
X0037203Y0211968D01*
X0037068Y0211964D01*
X0036932Y0211964D01*
X0036797Y0211968D01*
X0036663Y0211976D01*
X0036528Y0211988D01*
X0036394Y0212004D01*
X0036260Y0212024D01*
X0036127Y0212048D01*
X0035995Y0212075D01*
X0035864Y0212107D01*
X0035733Y0212142D01*
X0035604Y0212181D01*
X0035476Y0212224D01*
X0035349Y0212270D01*
X0035224Y0212321D01*
X0035100Y0212375D01*
X0034978Y0212432D01*
X0034857Y0212493D01*
X0034739Y0212558D01*
X0034622Y0212626D01*
X0034507Y0212698D01*
X0034395Y0212773D01*
X0034285Y0212851D01*
X0034177Y0212932D01*
X0034071Y0213016D01*
X0033968Y0213104D01*
X0033868Y0213194D01*
X0033771Y0213288D01*
X0033676Y0213384D01*
X0033584Y0213483D01*
X0033495Y0213585D01*
X0033409Y0213689D01*
X0033326Y0213795D01*
X0033246Y0213905D01*
X0033170Y0214016D01*
X0033097Y0214129D01*
X0033027Y0214245D01*
X0032960Y0214363D01*
X0032897Y0214482D01*
X0032838Y0214604D01*
X0032782Y0214727D01*
X0032730Y0214851D01*
X0032682Y0214977D01*
X0032637Y0215105D01*
X0032596Y0215233D01*
X0032559Y0215363D01*
X0032525Y0215494D01*
X0032496Y0215626D01*
X0032470Y0215759D01*
X0032448Y0215892D01*
X0032431Y0216026D01*
X0032417Y0216160D01*
X0032407Y0216295D01*
X0032401Y0216430D01*
X0032399Y0216565D01*
X0033361Y0226937D02*
X0034561Y0226937D01*
X0034561Y0229737D02*
X0033361Y0229737D01*
X0029261Y0232456D02*
X0028061Y0232456D01*
X0028061Y0235256D02*
X0029261Y0235256D01*
X0039935Y0234881D02*
X0041135Y0234881D01*
X0041135Y0237681D02*
X0039935Y0237681D01*
X0045951Y0245819D02*
X0047151Y0245819D01*
X0047151Y0248619D02*
X0045951Y0248619D01*
X0044604Y0255738D02*
X0044606Y0255873D01*
X0044612Y0256008D01*
X0044622Y0256143D01*
X0044636Y0256277D01*
X0044653Y0256411D01*
X0044675Y0256544D01*
X0044701Y0256677D01*
X0044730Y0256809D01*
X0044764Y0256940D01*
X0044801Y0257070D01*
X0044842Y0257198D01*
X0044887Y0257326D01*
X0044935Y0257452D01*
X0044987Y0257576D01*
X0045043Y0257699D01*
X0045102Y0257821D01*
X0045165Y0257940D01*
X0045232Y0258058D01*
X0045302Y0258174D01*
X0045375Y0258287D01*
X0045451Y0258398D01*
X0045531Y0258508D01*
X0045614Y0258614D01*
X0045700Y0258718D01*
X0045789Y0258820D01*
X0045881Y0258919D01*
X0045976Y0259015D01*
X0046073Y0259109D01*
X0046173Y0259199D01*
X0046276Y0259287D01*
X0046382Y0259371D01*
X0046490Y0259452D01*
X0046600Y0259530D01*
X0046712Y0259605D01*
X0046827Y0259677D01*
X0046944Y0259745D01*
X0047062Y0259810D01*
X0047183Y0259871D01*
X0047305Y0259928D01*
X0047429Y0259982D01*
X0047554Y0260033D01*
X0047681Y0260079D01*
X0047809Y0260122D01*
X0047938Y0260161D01*
X0048069Y0260196D01*
X0048200Y0260228D01*
X0048332Y0260255D01*
X0048465Y0260279D01*
X0048599Y0260299D01*
X0048733Y0260315D01*
X0048868Y0260327D01*
X0049002Y0260335D01*
X0049137Y0260339D01*
X0049273Y0260339D01*
X0049408Y0260335D01*
X0049542Y0260327D01*
X0049677Y0260315D01*
X0049811Y0260299D01*
X0049945Y0260279D01*
X0050078Y0260255D01*
X0050210Y0260228D01*
X0050341Y0260196D01*
X0050472Y0260161D01*
X0050601Y0260122D01*
X0050729Y0260079D01*
X0050856Y0260033D01*
X0050981Y0259982D01*
X0051105Y0259928D01*
X0051227Y0259871D01*
X0051348Y0259810D01*
X0051466Y0259745D01*
X0051583Y0259677D01*
X0051698Y0259605D01*
X0051810Y0259530D01*
X0051920Y0259452D01*
X0052028Y0259371D01*
X0052134Y0259287D01*
X0052237Y0259199D01*
X0052337Y0259109D01*
X0052434Y0259015D01*
X0052529Y0258919D01*
X0052621Y0258820D01*
X0052710Y0258718D01*
X0052796Y0258614D01*
X0052879Y0258508D01*
X0052959Y0258398D01*
X0053035Y0258287D01*
X0053108Y0258174D01*
X0053178Y0258058D01*
X0053245Y0257940D01*
X0053308Y0257821D01*
X0053367Y0257699D01*
X0053423Y0257576D01*
X0053475Y0257452D01*
X0053523Y0257326D01*
X0053568Y0257198D01*
X0053609Y0257070D01*
X0053646Y0256940D01*
X0053680Y0256809D01*
X0053709Y0256677D01*
X0053735Y0256544D01*
X0053757Y0256411D01*
X0053774Y0256277D01*
X0053788Y0256143D01*
X0053798Y0256008D01*
X0053804Y0255873D01*
X0053806Y0255738D01*
X0053804Y0255603D01*
X0053798Y0255468D01*
X0053788Y0255333D01*
X0053774Y0255199D01*
X0053757Y0255065D01*
X0053735Y0254932D01*
X0053709Y0254799D01*
X0053680Y0254667D01*
X0053646Y0254536D01*
X0053609Y0254406D01*
X0053568Y0254278D01*
X0053523Y0254150D01*
X0053475Y0254024D01*
X0053423Y0253900D01*
X0053367Y0253777D01*
X0053308Y0253655D01*
X0053245Y0253536D01*
X0053178Y0253418D01*
X0053108Y0253302D01*
X0053035Y0253189D01*
X0052959Y0253078D01*
X0052879Y0252968D01*
X0052796Y0252862D01*
X0052710Y0252758D01*
X0052621Y0252656D01*
X0052529Y0252557D01*
X0052434Y0252461D01*
X0052337Y0252367D01*
X0052237Y0252277D01*
X0052134Y0252189D01*
X0052028Y0252105D01*
X0051920Y0252024D01*
X0051810Y0251946D01*
X0051698Y0251871D01*
X0051583Y0251799D01*
X0051466Y0251731D01*
X0051348Y0251666D01*
X0051227Y0251605D01*
X0051105Y0251548D01*
X0050981Y0251494D01*
X0050856Y0251443D01*
X0050729Y0251397D01*
X0050601Y0251354D01*
X0050472Y0251315D01*
X0050341Y0251280D01*
X0050210Y0251248D01*
X0050078Y0251221D01*
X0049945Y0251197D01*
X0049811Y0251177D01*
X0049677Y0251161D01*
X0049542Y0251149D01*
X0049408Y0251141D01*
X0049273Y0251137D01*
X0049137Y0251137D01*
X0049002Y0251141D01*
X0048868Y0251149D01*
X0048733Y0251161D01*
X0048599Y0251177D01*
X0048465Y0251197D01*
X0048332Y0251221D01*
X0048200Y0251248D01*
X0048069Y0251280D01*
X0047938Y0251315D01*
X0047809Y0251354D01*
X0047681Y0251397D01*
X0047554Y0251443D01*
X0047429Y0251494D01*
X0047305Y0251548D01*
X0047183Y0251605D01*
X0047062Y0251666D01*
X0046944Y0251731D01*
X0046827Y0251799D01*
X0046712Y0251871D01*
X0046600Y0251946D01*
X0046490Y0252024D01*
X0046382Y0252105D01*
X0046276Y0252189D01*
X0046173Y0252277D01*
X0046073Y0252367D01*
X0045976Y0252461D01*
X0045881Y0252557D01*
X0045789Y0252656D01*
X0045700Y0252758D01*
X0045614Y0252862D01*
X0045531Y0252968D01*
X0045451Y0253078D01*
X0045375Y0253189D01*
X0045302Y0253302D01*
X0045232Y0253418D01*
X0045165Y0253536D01*
X0045102Y0253655D01*
X0045043Y0253777D01*
X0044987Y0253900D01*
X0044935Y0254024D01*
X0044887Y0254150D01*
X0044842Y0254278D01*
X0044801Y0254406D01*
X0044764Y0254536D01*
X0044730Y0254667D01*
X0044701Y0254799D01*
X0044675Y0254932D01*
X0044653Y0255065D01*
X0044636Y0255199D01*
X0044622Y0255333D01*
X0044612Y0255468D01*
X0044606Y0255603D01*
X0044604Y0255738D01*
X0039577Y0258505D02*
X0039577Y0260105D01*
X0035777Y0260105D02*
X0035777Y0258505D01*
X0030719Y0258505D02*
X0030719Y0260105D01*
X0026919Y0260105D02*
X0026919Y0258505D01*
X0014879Y0253376D02*
X0014881Y0253511D01*
X0014887Y0253646D01*
X0014897Y0253781D01*
X0014911Y0253915D01*
X0014928Y0254049D01*
X0014950Y0254182D01*
X0014976Y0254315D01*
X0015005Y0254447D01*
X0015039Y0254578D01*
X0015076Y0254708D01*
X0015117Y0254836D01*
X0015162Y0254964D01*
X0015210Y0255090D01*
X0015262Y0255214D01*
X0015318Y0255337D01*
X0015377Y0255459D01*
X0015440Y0255578D01*
X0015507Y0255696D01*
X0015577Y0255812D01*
X0015650Y0255925D01*
X0015726Y0256036D01*
X0015806Y0256146D01*
X0015889Y0256252D01*
X0015975Y0256356D01*
X0016064Y0256458D01*
X0016156Y0256557D01*
X0016251Y0256653D01*
X0016348Y0256747D01*
X0016448Y0256837D01*
X0016551Y0256925D01*
X0016657Y0257009D01*
X0016765Y0257090D01*
X0016875Y0257168D01*
X0016987Y0257243D01*
X0017102Y0257315D01*
X0017219Y0257383D01*
X0017337Y0257448D01*
X0017458Y0257509D01*
X0017580Y0257566D01*
X0017704Y0257620D01*
X0017829Y0257671D01*
X0017956Y0257717D01*
X0018084Y0257760D01*
X0018213Y0257799D01*
X0018344Y0257834D01*
X0018475Y0257866D01*
X0018607Y0257893D01*
X0018740Y0257917D01*
X0018874Y0257937D01*
X0019008Y0257953D01*
X0019143Y0257965D01*
X0019277Y0257973D01*
X0019412Y0257977D01*
X0019548Y0257977D01*
X0019683Y0257973D01*
X0019817Y0257965D01*
X0019952Y0257953D01*
X0020086Y0257937D01*
X0020220Y0257917D01*
X0020353Y0257893D01*
X0020485Y0257866D01*
X0020616Y0257834D01*
X0020747Y0257799D01*
X0020876Y0257760D01*
X0021004Y0257717D01*
X0021131Y0257671D01*
X0021256Y0257620D01*
X0021380Y0257566D01*
X0021502Y0257509D01*
X0021623Y0257448D01*
X0021741Y0257383D01*
X0021858Y0257315D01*
X0021973Y0257243D01*
X0022085Y0257168D01*
X0022195Y0257090D01*
X0022303Y0257009D01*
X0022409Y0256925D01*
X0022512Y0256837D01*
X0022612Y0256747D01*
X0022709Y0256653D01*
X0022804Y0256557D01*
X0022896Y0256458D01*
X0022985Y0256356D01*
X0023071Y0256252D01*
X0023154Y0256146D01*
X0023234Y0256036D01*
X0023310Y0255925D01*
X0023383Y0255812D01*
X0023453Y0255696D01*
X0023520Y0255578D01*
X0023583Y0255459D01*
X0023642Y0255337D01*
X0023698Y0255214D01*
X0023750Y0255090D01*
X0023798Y0254964D01*
X0023843Y0254836D01*
X0023884Y0254708D01*
X0023921Y0254578D01*
X0023955Y0254447D01*
X0023984Y0254315D01*
X0024010Y0254182D01*
X0024032Y0254049D01*
X0024049Y0253915D01*
X0024063Y0253781D01*
X0024073Y0253646D01*
X0024079Y0253511D01*
X0024081Y0253376D01*
X0024079Y0253241D01*
X0024073Y0253106D01*
X0024063Y0252971D01*
X0024049Y0252837D01*
X0024032Y0252703D01*
X0024010Y0252570D01*
X0023984Y0252437D01*
X0023955Y0252305D01*
X0023921Y0252174D01*
X0023884Y0252044D01*
X0023843Y0251916D01*
X0023798Y0251788D01*
X0023750Y0251662D01*
X0023698Y0251538D01*
X0023642Y0251415D01*
X0023583Y0251293D01*
X0023520Y0251174D01*
X0023453Y0251056D01*
X0023383Y0250940D01*
X0023310Y0250827D01*
X0023234Y0250716D01*
X0023154Y0250606D01*
X0023071Y0250500D01*
X0022985Y0250396D01*
X0022896Y0250294D01*
X0022804Y0250195D01*
X0022709Y0250099D01*
X0022612Y0250005D01*
X0022512Y0249915D01*
X0022409Y0249827D01*
X0022303Y0249743D01*
X0022195Y0249662D01*
X0022085Y0249584D01*
X0021973Y0249509D01*
X0021858Y0249437D01*
X0021741Y0249369D01*
X0021623Y0249304D01*
X0021502Y0249243D01*
X0021380Y0249186D01*
X0021256Y0249132D01*
X0021131Y0249081D01*
X0021004Y0249035D01*
X0020876Y0248992D01*
X0020747Y0248953D01*
X0020616Y0248918D01*
X0020485Y0248886D01*
X0020353Y0248859D01*
X0020220Y0248835D01*
X0020086Y0248815D01*
X0019952Y0248799D01*
X0019817Y0248787D01*
X0019683Y0248779D01*
X0019548Y0248775D01*
X0019412Y0248775D01*
X0019277Y0248779D01*
X0019143Y0248787D01*
X0019008Y0248799D01*
X0018874Y0248815D01*
X0018740Y0248835D01*
X0018607Y0248859D01*
X0018475Y0248886D01*
X0018344Y0248918D01*
X0018213Y0248953D01*
X0018084Y0248992D01*
X0017956Y0249035D01*
X0017829Y0249081D01*
X0017704Y0249132D01*
X0017580Y0249186D01*
X0017458Y0249243D01*
X0017337Y0249304D01*
X0017219Y0249369D01*
X0017102Y0249437D01*
X0016987Y0249509D01*
X0016875Y0249584D01*
X0016765Y0249662D01*
X0016657Y0249743D01*
X0016551Y0249827D01*
X0016448Y0249915D01*
X0016348Y0250005D01*
X0016251Y0250099D01*
X0016156Y0250195D01*
X0016064Y0250294D01*
X0015975Y0250396D01*
X0015889Y0250500D01*
X0015806Y0250606D01*
X0015726Y0250716D01*
X0015650Y0250827D01*
X0015577Y0250940D01*
X0015507Y0251056D01*
X0015440Y0251174D01*
X0015377Y0251293D01*
X0015318Y0251415D01*
X0015262Y0251538D01*
X0015210Y0251662D01*
X0015162Y0251788D01*
X0015117Y0251916D01*
X0015076Y0252044D01*
X0015039Y0252174D01*
X0015005Y0252305D01*
X0014976Y0252437D01*
X0014950Y0252570D01*
X0014928Y0252703D01*
X0014911Y0252837D01*
X0014897Y0252971D01*
X0014887Y0253106D01*
X0014881Y0253241D01*
X0014879Y0253376D01*
X0035620Y0272275D02*
X0036820Y0272275D01*
X0036820Y0275075D02*
X0035620Y0275075D01*
X0036312Y0279381D02*
X0034712Y0279381D01*
X0034712Y0283181D02*
X0036312Y0283181D01*
X0034564Y0292746D02*
X0034566Y0292881D01*
X0034572Y0293016D01*
X0034582Y0293151D01*
X0034596Y0293285D01*
X0034613Y0293419D01*
X0034635Y0293552D01*
X0034661Y0293685D01*
X0034690Y0293817D01*
X0034724Y0293948D01*
X0034761Y0294078D01*
X0034802Y0294206D01*
X0034847Y0294334D01*
X0034895Y0294460D01*
X0034947Y0294584D01*
X0035003Y0294707D01*
X0035062Y0294829D01*
X0035125Y0294948D01*
X0035192Y0295066D01*
X0035262Y0295182D01*
X0035335Y0295295D01*
X0035411Y0295406D01*
X0035491Y0295516D01*
X0035574Y0295622D01*
X0035660Y0295726D01*
X0035749Y0295828D01*
X0035841Y0295927D01*
X0035936Y0296023D01*
X0036033Y0296117D01*
X0036133Y0296207D01*
X0036236Y0296295D01*
X0036342Y0296379D01*
X0036450Y0296460D01*
X0036560Y0296538D01*
X0036672Y0296613D01*
X0036787Y0296685D01*
X0036904Y0296753D01*
X0037022Y0296818D01*
X0037143Y0296879D01*
X0037265Y0296936D01*
X0037389Y0296990D01*
X0037514Y0297041D01*
X0037641Y0297087D01*
X0037769Y0297130D01*
X0037898Y0297169D01*
X0038029Y0297204D01*
X0038160Y0297236D01*
X0038292Y0297263D01*
X0038425Y0297287D01*
X0038559Y0297307D01*
X0038693Y0297323D01*
X0038828Y0297335D01*
X0038962Y0297343D01*
X0039097Y0297347D01*
X0039233Y0297347D01*
X0039368Y0297343D01*
X0039502Y0297335D01*
X0039637Y0297323D01*
X0039771Y0297307D01*
X0039905Y0297287D01*
X0040038Y0297263D01*
X0040170Y0297236D01*
X0040301Y0297204D01*
X0040432Y0297169D01*
X0040561Y0297130D01*
X0040689Y0297087D01*
X0040816Y0297041D01*
X0040941Y0296990D01*
X0041065Y0296936D01*
X0041187Y0296879D01*
X0041308Y0296818D01*
X0041426Y0296753D01*
X0041543Y0296685D01*
X0041658Y0296613D01*
X0041770Y0296538D01*
X0041880Y0296460D01*
X0041988Y0296379D01*
X0042094Y0296295D01*
X0042197Y0296207D01*
X0042297Y0296117D01*
X0042394Y0296023D01*
X0042489Y0295927D01*
X0042581Y0295828D01*
X0042670Y0295726D01*
X0042756Y0295622D01*
X0042839Y0295516D01*
X0042919Y0295406D01*
X0042995Y0295295D01*
X0043068Y0295182D01*
X0043138Y0295066D01*
X0043205Y0294948D01*
X0043268Y0294829D01*
X0043327Y0294707D01*
X0043383Y0294584D01*
X0043435Y0294460D01*
X0043483Y0294334D01*
X0043528Y0294206D01*
X0043569Y0294078D01*
X0043606Y0293948D01*
X0043640Y0293817D01*
X0043669Y0293685D01*
X0043695Y0293552D01*
X0043717Y0293419D01*
X0043734Y0293285D01*
X0043748Y0293151D01*
X0043758Y0293016D01*
X0043764Y0292881D01*
X0043766Y0292746D01*
X0043764Y0292611D01*
X0043758Y0292476D01*
X0043748Y0292341D01*
X0043734Y0292207D01*
X0043717Y0292073D01*
X0043695Y0291940D01*
X0043669Y0291807D01*
X0043640Y0291675D01*
X0043606Y0291544D01*
X0043569Y0291414D01*
X0043528Y0291286D01*
X0043483Y0291158D01*
X0043435Y0291032D01*
X0043383Y0290908D01*
X0043327Y0290785D01*
X0043268Y0290663D01*
X0043205Y0290544D01*
X0043138Y0290426D01*
X0043068Y0290310D01*
X0042995Y0290197D01*
X0042919Y0290086D01*
X0042839Y0289976D01*
X0042756Y0289870D01*
X0042670Y0289766D01*
X0042581Y0289664D01*
X0042489Y0289565D01*
X0042394Y0289469D01*
X0042297Y0289375D01*
X0042197Y0289285D01*
X0042094Y0289197D01*
X0041988Y0289113D01*
X0041880Y0289032D01*
X0041770Y0288954D01*
X0041658Y0288879D01*
X0041543Y0288807D01*
X0041426Y0288739D01*
X0041308Y0288674D01*
X0041187Y0288613D01*
X0041065Y0288556D01*
X0040941Y0288502D01*
X0040816Y0288451D01*
X0040689Y0288405D01*
X0040561Y0288362D01*
X0040432Y0288323D01*
X0040301Y0288288D01*
X0040170Y0288256D01*
X0040038Y0288229D01*
X0039905Y0288205D01*
X0039771Y0288185D01*
X0039637Y0288169D01*
X0039502Y0288157D01*
X0039368Y0288149D01*
X0039233Y0288145D01*
X0039097Y0288145D01*
X0038962Y0288149D01*
X0038828Y0288157D01*
X0038693Y0288169D01*
X0038559Y0288185D01*
X0038425Y0288205D01*
X0038292Y0288229D01*
X0038160Y0288256D01*
X0038029Y0288288D01*
X0037898Y0288323D01*
X0037769Y0288362D01*
X0037641Y0288405D01*
X0037514Y0288451D01*
X0037389Y0288502D01*
X0037265Y0288556D01*
X0037143Y0288613D01*
X0037022Y0288674D01*
X0036904Y0288739D01*
X0036787Y0288807D01*
X0036672Y0288879D01*
X0036560Y0288954D01*
X0036450Y0289032D01*
X0036342Y0289113D01*
X0036236Y0289197D01*
X0036133Y0289285D01*
X0036033Y0289375D01*
X0035936Y0289469D01*
X0035841Y0289565D01*
X0035749Y0289664D01*
X0035660Y0289766D01*
X0035574Y0289870D01*
X0035491Y0289976D01*
X0035411Y0290086D01*
X0035335Y0290197D01*
X0035262Y0290310D01*
X0035192Y0290426D01*
X0035125Y0290544D01*
X0035062Y0290663D01*
X0035003Y0290785D01*
X0034947Y0290908D01*
X0034895Y0291032D01*
X0034847Y0291158D01*
X0034802Y0291286D01*
X0034761Y0291414D01*
X0034724Y0291544D01*
X0034690Y0291675D01*
X0034661Y0291807D01*
X0034635Y0291940D01*
X0034613Y0292073D01*
X0034596Y0292207D01*
X0034582Y0292341D01*
X0034572Y0292476D01*
X0034566Y0292611D01*
X0034564Y0292746D01*
X0060374Y0297282D02*
X0060374Y0298682D01*
X0063074Y0298682D02*
X0063074Y0297282D01*
X0063707Y0305842D02*
X0064907Y0305842D01*
X0064907Y0308642D02*
X0063707Y0308642D01*
X0089469Y0321242D02*
X0089469Y0330742D01*
X0095969Y0330742D01*
X0098969Y0328742D01*
X0128969Y0328742D01*
X0131969Y0330742D01*
X0138469Y0330742D01*
X0138469Y0321242D01*
X0140650Y0321242D02*
X0140650Y0330742D01*
X0147150Y0330742D01*
X0150150Y0328742D01*
X0180150Y0328742D01*
X0183150Y0330742D01*
X0189650Y0330742D01*
X0189650Y0321242D01*
X0191831Y0321242D02*
X0191831Y0330742D01*
X0198331Y0330742D01*
X0201331Y0328742D01*
X0231331Y0328742D01*
X0234331Y0330742D01*
X0240831Y0330742D01*
X0240831Y0321242D01*
X0243012Y0321242D02*
X0243012Y0330742D01*
X0249512Y0330742D01*
X0252512Y0328742D01*
X0282512Y0328742D01*
X0285512Y0330742D01*
X0292012Y0330742D01*
X0292012Y0321242D01*
X0294193Y0321242D02*
X0294193Y0330742D01*
X0300693Y0330742D01*
X0303693Y0328742D01*
X0333693Y0328742D01*
X0336693Y0330742D01*
X0343193Y0330742D01*
X0343193Y0321242D01*
X0338393Y0324242D02*
X0338395Y0324319D01*
X0338401Y0324396D01*
X0338411Y0324473D01*
X0338425Y0324549D01*
X0338442Y0324624D01*
X0338464Y0324698D01*
X0338489Y0324771D01*
X0338519Y0324843D01*
X0338551Y0324913D01*
X0338588Y0324981D01*
X0338627Y0325047D01*
X0338670Y0325111D01*
X0338717Y0325173D01*
X0338766Y0325232D01*
X0338819Y0325289D01*
X0338874Y0325343D01*
X0338932Y0325394D01*
X0338993Y0325442D01*
X0339056Y0325487D01*
X0339121Y0325528D01*
X0339188Y0325566D01*
X0339257Y0325601D01*
X0339328Y0325631D01*
X0339400Y0325659D01*
X0339474Y0325682D01*
X0339548Y0325702D01*
X0339624Y0325718D01*
X0339700Y0325730D01*
X0339777Y0325738D01*
X0339854Y0325742D01*
X0339932Y0325742D01*
X0340009Y0325738D01*
X0340086Y0325730D01*
X0340162Y0325718D01*
X0340238Y0325702D01*
X0340312Y0325682D01*
X0340386Y0325659D01*
X0340458Y0325631D01*
X0340529Y0325601D01*
X0340598Y0325566D01*
X0340665Y0325528D01*
X0340730Y0325487D01*
X0340793Y0325442D01*
X0340854Y0325394D01*
X0340912Y0325343D01*
X0340967Y0325289D01*
X0341020Y0325232D01*
X0341069Y0325173D01*
X0341116Y0325111D01*
X0341159Y0325047D01*
X0341198Y0324981D01*
X0341235Y0324913D01*
X0341267Y0324843D01*
X0341297Y0324771D01*
X0341322Y0324698D01*
X0341344Y0324624D01*
X0341361Y0324549D01*
X0341375Y0324473D01*
X0341385Y0324396D01*
X0341391Y0324319D01*
X0341393Y0324242D01*
X0341391Y0324165D01*
X0341385Y0324088D01*
X0341375Y0324011D01*
X0341361Y0323935D01*
X0341344Y0323860D01*
X0341322Y0323786D01*
X0341297Y0323713D01*
X0341267Y0323641D01*
X0341235Y0323571D01*
X0341198Y0323503D01*
X0341159Y0323437D01*
X0341116Y0323373D01*
X0341069Y0323311D01*
X0341020Y0323252D01*
X0340967Y0323195D01*
X0340912Y0323141D01*
X0340854Y0323090D01*
X0340793Y0323042D01*
X0340730Y0322997D01*
X0340665Y0322956D01*
X0340598Y0322918D01*
X0340529Y0322883D01*
X0340458Y0322853D01*
X0340386Y0322825D01*
X0340312Y0322802D01*
X0340238Y0322782D01*
X0340162Y0322766D01*
X0340086Y0322754D01*
X0340009Y0322746D01*
X0339932Y0322742D01*
X0339854Y0322742D01*
X0339777Y0322746D01*
X0339700Y0322754D01*
X0339624Y0322766D01*
X0339548Y0322782D01*
X0339474Y0322802D01*
X0339400Y0322825D01*
X0339328Y0322853D01*
X0339257Y0322883D01*
X0339188Y0322918D01*
X0339121Y0322956D01*
X0339056Y0322997D01*
X0338993Y0323042D01*
X0338932Y0323090D01*
X0338874Y0323141D01*
X0338819Y0323195D01*
X0338766Y0323252D01*
X0338717Y0323311D01*
X0338670Y0323373D01*
X0338627Y0323437D01*
X0338588Y0323503D01*
X0338551Y0323571D01*
X0338519Y0323641D01*
X0338489Y0323713D01*
X0338464Y0323786D01*
X0338442Y0323860D01*
X0338425Y0323935D01*
X0338411Y0324011D01*
X0338401Y0324088D01*
X0338395Y0324165D01*
X0338393Y0324242D01*
X0337093Y0321942D02*
X0337093Y0320642D01*
X0335693Y0320642D01*
X0343193Y0321242D02*
X0343190Y0320988D01*
X0343181Y0320735D01*
X0343165Y0320481D01*
X0343144Y0320229D01*
X0343116Y0319976D01*
X0343083Y0319725D01*
X0343043Y0319474D01*
X0342997Y0319225D01*
X0342946Y0318976D01*
X0342888Y0318729D01*
X0342824Y0318484D01*
X0342755Y0318240D01*
X0342679Y0317997D01*
X0342598Y0317757D01*
X0342511Y0317519D01*
X0342418Y0317283D01*
X0342319Y0317049D01*
X0342215Y0316817D01*
X0342105Y0316588D01*
X0341990Y0316362D01*
X0341870Y0316139D01*
X0341744Y0315919D01*
X0341612Y0315702D01*
X0341476Y0315488D01*
X0341334Y0315277D01*
X0341188Y0315070D01*
X0341036Y0314867D01*
X0340880Y0314667D01*
X0340718Y0314471D01*
X0340552Y0314279D01*
X0340382Y0314091D01*
X0340207Y0313908D01*
X0340027Y0313728D01*
X0339844Y0313553D01*
X0339656Y0313383D01*
X0339464Y0313217D01*
X0339268Y0313055D01*
X0339068Y0312899D01*
X0338865Y0312747D01*
X0338658Y0312601D01*
X0338447Y0312459D01*
X0338233Y0312323D01*
X0338016Y0312191D01*
X0337796Y0312065D01*
X0337573Y0311945D01*
X0337347Y0311830D01*
X0337118Y0311720D01*
X0336886Y0311616D01*
X0336652Y0311517D01*
X0336416Y0311424D01*
X0336178Y0311337D01*
X0335938Y0311256D01*
X0335695Y0311180D01*
X0335451Y0311111D01*
X0335206Y0311047D01*
X0334959Y0310989D01*
X0334710Y0310938D01*
X0334461Y0310892D01*
X0334210Y0310852D01*
X0333959Y0310819D01*
X0333706Y0310791D01*
X0333454Y0310770D01*
X0333200Y0310754D01*
X0332947Y0310745D01*
X0332693Y0310742D01*
X0304693Y0310742D01*
X0306143Y0320642D02*
X0307543Y0320642D01*
X0307543Y0321942D01*
X0304693Y0310742D02*
X0304439Y0310745D01*
X0304186Y0310754D01*
X0303932Y0310770D01*
X0303680Y0310791D01*
X0303427Y0310819D01*
X0303176Y0310852D01*
X0302925Y0310892D01*
X0302676Y0310938D01*
X0302427Y0310989D01*
X0302180Y0311047D01*
X0301935Y0311111D01*
X0301691Y0311180D01*
X0301448Y0311256D01*
X0301208Y0311337D01*
X0300970Y0311424D01*
X0300734Y0311517D01*
X0300500Y0311616D01*
X0300268Y0311720D01*
X0300039Y0311830D01*
X0299813Y0311945D01*
X0299590Y0312065D01*
X0299370Y0312191D01*
X0299153Y0312323D01*
X0298939Y0312459D01*
X0298728Y0312601D01*
X0298521Y0312747D01*
X0298318Y0312899D01*
X0298118Y0313055D01*
X0297922Y0313217D01*
X0297730Y0313383D01*
X0297542Y0313553D01*
X0297359Y0313728D01*
X0297179Y0313908D01*
X0297004Y0314091D01*
X0296834Y0314279D01*
X0296668Y0314471D01*
X0296506Y0314667D01*
X0296350Y0314867D01*
X0296198Y0315070D01*
X0296052Y0315277D01*
X0295910Y0315488D01*
X0295774Y0315702D01*
X0295642Y0315919D01*
X0295516Y0316139D01*
X0295396Y0316362D01*
X0295281Y0316588D01*
X0295171Y0316817D01*
X0295067Y0317049D01*
X0294968Y0317283D01*
X0294875Y0317519D01*
X0294788Y0317757D01*
X0294707Y0317997D01*
X0294631Y0318240D01*
X0294562Y0318484D01*
X0294498Y0318729D01*
X0294440Y0318976D01*
X0294389Y0319225D01*
X0294343Y0319474D01*
X0294303Y0319725D01*
X0294270Y0319976D01*
X0294242Y0320229D01*
X0294221Y0320481D01*
X0294205Y0320735D01*
X0294196Y0320988D01*
X0294193Y0321242D01*
X0287212Y0324242D02*
X0287214Y0324319D01*
X0287220Y0324396D01*
X0287230Y0324473D01*
X0287244Y0324549D01*
X0287261Y0324624D01*
X0287283Y0324698D01*
X0287308Y0324771D01*
X0287338Y0324843D01*
X0287370Y0324913D01*
X0287407Y0324981D01*
X0287446Y0325047D01*
X0287489Y0325111D01*
X0287536Y0325173D01*
X0287585Y0325232D01*
X0287638Y0325289D01*
X0287693Y0325343D01*
X0287751Y0325394D01*
X0287812Y0325442D01*
X0287875Y0325487D01*
X0287940Y0325528D01*
X0288007Y0325566D01*
X0288076Y0325601D01*
X0288147Y0325631D01*
X0288219Y0325659D01*
X0288293Y0325682D01*
X0288367Y0325702D01*
X0288443Y0325718D01*
X0288519Y0325730D01*
X0288596Y0325738D01*
X0288673Y0325742D01*
X0288751Y0325742D01*
X0288828Y0325738D01*
X0288905Y0325730D01*
X0288981Y0325718D01*
X0289057Y0325702D01*
X0289131Y0325682D01*
X0289205Y0325659D01*
X0289277Y0325631D01*
X0289348Y0325601D01*
X0289417Y0325566D01*
X0289484Y0325528D01*
X0289549Y0325487D01*
X0289612Y0325442D01*
X0289673Y0325394D01*
X0289731Y0325343D01*
X0289786Y0325289D01*
X0289839Y0325232D01*
X0289888Y0325173D01*
X0289935Y0325111D01*
X0289978Y0325047D01*
X0290017Y0324981D01*
X0290054Y0324913D01*
X0290086Y0324843D01*
X0290116Y0324771D01*
X0290141Y0324698D01*
X0290163Y0324624D01*
X0290180Y0324549D01*
X0290194Y0324473D01*
X0290204Y0324396D01*
X0290210Y0324319D01*
X0290212Y0324242D01*
X0290210Y0324165D01*
X0290204Y0324088D01*
X0290194Y0324011D01*
X0290180Y0323935D01*
X0290163Y0323860D01*
X0290141Y0323786D01*
X0290116Y0323713D01*
X0290086Y0323641D01*
X0290054Y0323571D01*
X0290017Y0323503D01*
X0289978Y0323437D01*
X0289935Y0323373D01*
X0289888Y0323311D01*
X0289839Y0323252D01*
X0289786Y0323195D01*
X0289731Y0323141D01*
X0289673Y0323090D01*
X0289612Y0323042D01*
X0289549Y0322997D01*
X0289484Y0322956D01*
X0289417Y0322918D01*
X0289348Y0322883D01*
X0289277Y0322853D01*
X0289205Y0322825D01*
X0289131Y0322802D01*
X0289057Y0322782D01*
X0288981Y0322766D01*
X0288905Y0322754D01*
X0288828Y0322746D01*
X0288751Y0322742D01*
X0288673Y0322742D01*
X0288596Y0322746D01*
X0288519Y0322754D01*
X0288443Y0322766D01*
X0288367Y0322782D01*
X0288293Y0322802D01*
X0288219Y0322825D01*
X0288147Y0322853D01*
X0288076Y0322883D01*
X0288007Y0322918D01*
X0287940Y0322956D01*
X0287875Y0322997D01*
X0287812Y0323042D01*
X0287751Y0323090D01*
X0287693Y0323141D01*
X0287638Y0323195D01*
X0287585Y0323252D01*
X0287536Y0323311D01*
X0287489Y0323373D01*
X0287446Y0323437D01*
X0287407Y0323503D01*
X0287370Y0323571D01*
X0287338Y0323641D01*
X0287308Y0323713D01*
X0287283Y0323786D01*
X0287261Y0323860D01*
X0287244Y0323935D01*
X0287230Y0324011D01*
X0287220Y0324088D01*
X0287214Y0324165D01*
X0287212Y0324242D01*
X0285912Y0321942D02*
X0285912Y0320642D01*
X0284512Y0320642D01*
X0292012Y0321242D02*
X0292009Y0320988D01*
X0292000Y0320735D01*
X0291984Y0320481D01*
X0291963Y0320229D01*
X0291935Y0319976D01*
X0291902Y0319725D01*
X0291862Y0319474D01*
X0291816Y0319225D01*
X0291765Y0318976D01*
X0291707Y0318729D01*
X0291643Y0318484D01*
X0291574Y0318240D01*
X0291498Y0317997D01*
X0291417Y0317757D01*
X0291330Y0317519D01*
X0291237Y0317283D01*
X0291138Y0317049D01*
X0291034Y0316817D01*
X0290924Y0316588D01*
X0290809Y0316362D01*
X0290689Y0316139D01*
X0290563Y0315919D01*
X0290431Y0315702D01*
X0290295Y0315488D01*
X0290153Y0315277D01*
X0290007Y0315070D01*
X0289855Y0314867D01*
X0289699Y0314667D01*
X0289537Y0314471D01*
X0289371Y0314279D01*
X0289201Y0314091D01*
X0289026Y0313908D01*
X0288846Y0313728D01*
X0288663Y0313553D01*
X0288475Y0313383D01*
X0288283Y0313217D01*
X0288087Y0313055D01*
X0287887Y0312899D01*
X0287684Y0312747D01*
X0287477Y0312601D01*
X0287266Y0312459D01*
X0287052Y0312323D01*
X0286835Y0312191D01*
X0286615Y0312065D01*
X0286392Y0311945D01*
X0286166Y0311830D01*
X0285937Y0311720D01*
X0285705Y0311616D01*
X0285471Y0311517D01*
X0285235Y0311424D01*
X0284997Y0311337D01*
X0284757Y0311256D01*
X0284514Y0311180D01*
X0284270Y0311111D01*
X0284025Y0311047D01*
X0283778Y0310989D01*
X0283529Y0310938D01*
X0283280Y0310892D01*
X0283029Y0310852D01*
X0282778Y0310819D01*
X0282525Y0310791D01*
X0282273Y0310770D01*
X0282019Y0310754D01*
X0281766Y0310745D01*
X0281512Y0310742D01*
X0253512Y0310742D01*
X0254962Y0320642D02*
X0256362Y0320642D01*
X0256362Y0321942D01*
X0253512Y0310742D02*
X0253258Y0310745D01*
X0253005Y0310754D01*
X0252751Y0310770D01*
X0252499Y0310791D01*
X0252246Y0310819D01*
X0251995Y0310852D01*
X0251744Y0310892D01*
X0251495Y0310938D01*
X0251246Y0310989D01*
X0250999Y0311047D01*
X0250754Y0311111D01*
X0250510Y0311180D01*
X0250267Y0311256D01*
X0250027Y0311337D01*
X0249789Y0311424D01*
X0249553Y0311517D01*
X0249319Y0311616D01*
X0249087Y0311720D01*
X0248858Y0311830D01*
X0248632Y0311945D01*
X0248409Y0312065D01*
X0248189Y0312191D01*
X0247972Y0312323D01*
X0247758Y0312459D01*
X0247547Y0312601D01*
X0247340Y0312747D01*
X0247137Y0312899D01*
X0246937Y0313055D01*
X0246741Y0313217D01*
X0246549Y0313383D01*
X0246361Y0313553D01*
X0246178Y0313728D01*
X0245998Y0313908D01*
X0245823Y0314091D01*
X0245653Y0314279D01*
X0245487Y0314471D01*
X0245325Y0314667D01*
X0245169Y0314867D01*
X0245017Y0315070D01*
X0244871Y0315277D01*
X0244729Y0315488D01*
X0244593Y0315702D01*
X0244461Y0315919D01*
X0244335Y0316139D01*
X0244215Y0316362D01*
X0244100Y0316588D01*
X0243990Y0316817D01*
X0243886Y0317049D01*
X0243787Y0317283D01*
X0243694Y0317519D01*
X0243607Y0317757D01*
X0243526Y0317997D01*
X0243450Y0318240D01*
X0243381Y0318484D01*
X0243317Y0318729D01*
X0243259Y0318976D01*
X0243208Y0319225D01*
X0243162Y0319474D01*
X0243122Y0319725D01*
X0243089Y0319976D01*
X0243061Y0320229D01*
X0243040Y0320481D01*
X0243024Y0320735D01*
X0243015Y0320988D01*
X0243012Y0321242D01*
X0236031Y0324242D02*
X0236033Y0324319D01*
X0236039Y0324396D01*
X0236049Y0324473D01*
X0236063Y0324549D01*
X0236080Y0324624D01*
X0236102Y0324698D01*
X0236127Y0324771D01*
X0236157Y0324843D01*
X0236189Y0324913D01*
X0236226Y0324981D01*
X0236265Y0325047D01*
X0236308Y0325111D01*
X0236355Y0325173D01*
X0236404Y0325232D01*
X0236457Y0325289D01*
X0236512Y0325343D01*
X0236570Y0325394D01*
X0236631Y0325442D01*
X0236694Y0325487D01*
X0236759Y0325528D01*
X0236826Y0325566D01*
X0236895Y0325601D01*
X0236966Y0325631D01*
X0237038Y0325659D01*
X0237112Y0325682D01*
X0237186Y0325702D01*
X0237262Y0325718D01*
X0237338Y0325730D01*
X0237415Y0325738D01*
X0237492Y0325742D01*
X0237570Y0325742D01*
X0237647Y0325738D01*
X0237724Y0325730D01*
X0237800Y0325718D01*
X0237876Y0325702D01*
X0237950Y0325682D01*
X0238024Y0325659D01*
X0238096Y0325631D01*
X0238167Y0325601D01*
X0238236Y0325566D01*
X0238303Y0325528D01*
X0238368Y0325487D01*
X0238431Y0325442D01*
X0238492Y0325394D01*
X0238550Y0325343D01*
X0238605Y0325289D01*
X0238658Y0325232D01*
X0238707Y0325173D01*
X0238754Y0325111D01*
X0238797Y0325047D01*
X0238836Y0324981D01*
X0238873Y0324913D01*
X0238905Y0324843D01*
X0238935Y0324771D01*
X0238960Y0324698D01*
X0238982Y0324624D01*
X0238999Y0324549D01*
X0239013Y0324473D01*
X0239023Y0324396D01*
X0239029Y0324319D01*
X0239031Y0324242D01*
X0239029Y0324165D01*
X0239023Y0324088D01*
X0239013Y0324011D01*
X0238999Y0323935D01*
X0238982Y0323860D01*
X0238960Y0323786D01*
X0238935Y0323713D01*
X0238905Y0323641D01*
X0238873Y0323571D01*
X0238836Y0323503D01*
X0238797Y0323437D01*
X0238754Y0323373D01*
X0238707Y0323311D01*
X0238658Y0323252D01*
X0238605Y0323195D01*
X0238550Y0323141D01*
X0238492Y0323090D01*
X0238431Y0323042D01*
X0238368Y0322997D01*
X0238303Y0322956D01*
X0238236Y0322918D01*
X0238167Y0322883D01*
X0238096Y0322853D01*
X0238024Y0322825D01*
X0237950Y0322802D01*
X0237876Y0322782D01*
X0237800Y0322766D01*
X0237724Y0322754D01*
X0237647Y0322746D01*
X0237570Y0322742D01*
X0237492Y0322742D01*
X0237415Y0322746D01*
X0237338Y0322754D01*
X0237262Y0322766D01*
X0237186Y0322782D01*
X0237112Y0322802D01*
X0237038Y0322825D01*
X0236966Y0322853D01*
X0236895Y0322883D01*
X0236826Y0322918D01*
X0236759Y0322956D01*
X0236694Y0322997D01*
X0236631Y0323042D01*
X0236570Y0323090D01*
X0236512Y0323141D01*
X0236457Y0323195D01*
X0236404Y0323252D01*
X0236355Y0323311D01*
X0236308Y0323373D01*
X0236265Y0323437D01*
X0236226Y0323503D01*
X0236189Y0323571D01*
X0236157Y0323641D01*
X0236127Y0323713D01*
X0236102Y0323786D01*
X0236080Y0323860D01*
X0236063Y0323935D01*
X0236049Y0324011D01*
X0236039Y0324088D01*
X0236033Y0324165D01*
X0236031Y0324242D01*
X0234731Y0321942D02*
X0234731Y0320642D01*
X0233331Y0320642D01*
X0240831Y0321242D02*
X0240828Y0320988D01*
X0240819Y0320735D01*
X0240803Y0320481D01*
X0240782Y0320229D01*
X0240754Y0319976D01*
X0240721Y0319725D01*
X0240681Y0319474D01*
X0240635Y0319225D01*
X0240584Y0318976D01*
X0240526Y0318729D01*
X0240462Y0318484D01*
X0240393Y0318240D01*
X0240317Y0317997D01*
X0240236Y0317757D01*
X0240149Y0317519D01*
X0240056Y0317283D01*
X0239957Y0317049D01*
X0239853Y0316817D01*
X0239743Y0316588D01*
X0239628Y0316362D01*
X0239508Y0316139D01*
X0239382Y0315919D01*
X0239250Y0315702D01*
X0239114Y0315488D01*
X0238972Y0315277D01*
X0238826Y0315070D01*
X0238674Y0314867D01*
X0238518Y0314667D01*
X0238356Y0314471D01*
X0238190Y0314279D01*
X0238020Y0314091D01*
X0237845Y0313908D01*
X0237665Y0313728D01*
X0237482Y0313553D01*
X0237294Y0313383D01*
X0237102Y0313217D01*
X0236906Y0313055D01*
X0236706Y0312899D01*
X0236503Y0312747D01*
X0236296Y0312601D01*
X0236085Y0312459D01*
X0235871Y0312323D01*
X0235654Y0312191D01*
X0235434Y0312065D01*
X0235211Y0311945D01*
X0234985Y0311830D01*
X0234756Y0311720D01*
X0234524Y0311616D01*
X0234290Y0311517D01*
X0234054Y0311424D01*
X0233816Y0311337D01*
X0233576Y0311256D01*
X0233333Y0311180D01*
X0233089Y0311111D01*
X0232844Y0311047D01*
X0232597Y0310989D01*
X0232348Y0310938D01*
X0232099Y0310892D01*
X0231848Y0310852D01*
X0231597Y0310819D01*
X0231344Y0310791D01*
X0231092Y0310770D01*
X0230838Y0310754D01*
X0230585Y0310745D01*
X0230331Y0310742D01*
X0202331Y0310742D01*
X0203781Y0320642D02*
X0205181Y0320642D01*
X0205181Y0321942D01*
X0202331Y0310742D02*
X0202077Y0310745D01*
X0201824Y0310754D01*
X0201570Y0310770D01*
X0201318Y0310791D01*
X0201065Y0310819D01*
X0200814Y0310852D01*
X0200563Y0310892D01*
X0200314Y0310938D01*
X0200065Y0310989D01*
X0199818Y0311047D01*
X0199573Y0311111D01*
X0199329Y0311180D01*
X0199086Y0311256D01*
X0198846Y0311337D01*
X0198608Y0311424D01*
X0198372Y0311517D01*
X0198138Y0311616D01*
X0197906Y0311720D01*
X0197677Y0311830D01*
X0197451Y0311945D01*
X0197228Y0312065D01*
X0197008Y0312191D01*
X0196791Y0312323D01*
X0196577Y0312459D01*
X0196366Y0312601D01*
X0196159Y0312747D01*
X0195956Y0312899D01*
X0195756Y0313055D01*
X0195560Y0313217D01*
X0195368Y0313383D01*
X0195180Y0313553D01*
X0194997Y0313728D01*
X0194817Y0313908D01*
X0194642Y0314091D01*
X0194472Y0314279D01*
X0194306Y0314471D01*
X0194144Y0314667D01*
X0193988Y0314867D01*
X0193836Y0315070D01*
X0193690Y0315277D01*
X0193548Y0315488D01*
X0193412Y0315702D01*
X0193280Y0315919D01*
X0193154Y0316139D01*
X0193034Y0316362D01*
X0192919Y0316588D01*
X0192809Y0316817D01*
X0192705Y0317049D01*
X0192606Y0317283D01*
X0192513Y0317519D01*
X0192426Y0317757D01*
X0192345Y0317997D01*
X0192269Y0318240D01*
X0192200Y0318484D01*
X0192136Y0318729D01*
X0192078Y0318976D01*
X0192027Y0319225D01*
X0191981Y0319474D01*
X0191941Y0319725D01*
X0191908Y0319976D01*
X0191880Y0320229D01*
X0191859Y0320481D01*
X0191843Y0320735D01*
X0191834Y0320988D01*
X0191831Y0321242D01*
X0184850Y0324242D02*
X0184852Y0324319D01*
X0184858Y0324396D01*
X0184868Y0324473D01*
X0184882Y0324549D01*
X0184899Y0324624D01*
X0184921Y0324698D01*
X0184946Y0324771D01*
X0184976Y0324843D01*
X0185008Y0324913D01*
X0185045Y0324981D01*
X0185084Y0325047D01*
X0185127Y0325111D01*
X0185174Y0325173D01*
X0185223Y0325232D01*
X0185276Y0325289D01*
X0185331Y0325343D01*
X0185389Y0325394D01*
X0185450Y0325442D01*
X0185513Y0325487D01*
X0185578Y0325528D01*
X0185645Y0325566D01*
X0185714Y0325601D01*
X0185785Y0325631D01*
X0185857Y0325659D01*
X0185931Y0325682D01*
X0186005Y0325702D01*
X0186081Y0325718D01*
X0186157Y0325730D01*
X0186234Y0325738D01*
X0186311Y0325742D01*
X0186389Y0325742D01*
X0186466Y0325738D01*
X0186543Y0325730D01*
X0186619Y0325718D01*
X0186695Y0325702D01*
X0186769Y0325682D01*
X0186843Y0325659D01*
X0186915Y0325631D01*
X0186986Y0325601D01*
X0187055Y0325566D01*
X0187122Y0325528D01*
X0187187Y0325487D01*
X0187250Y0325442D01*
X0187311Y0325394D01*
X0187369Y0325343D01*
X0187424Y0325289D01*
X0187477Y0325232D01*
X0187526Y0325173D01*
X0187573Y0325111D01*
X0187616Y0325047D01*
X0187655Y0324981D01*
X0187692Y0324913D01*
X0187724Y0324843D01*
X0187754Y0324771D01*
X0187779Y0324698D01*
X0187801Y0324624D01*
X0187818Y0324549D01*
X0187832Y0324473D01*
X0187842Y0324396D01*
X0187848Y0324319D01*
X0187850Y0324242D01*
X0187848Y0324165D01*
X0187842Y0324088D01*
X0187832Y0324011D01*
X0187818Y0323935D01*
X0187801Y0323860D01*
X0187779Y0323786D01*
X0187754Y0323713D01*
X0187724Y0323641D01*
X0187692Y0323571D01*
X0187655Y0323503D01*
X0187616Y0323437D01*
X0187573Y0323373D01*
X0187526Y0323311D01*
X0187477Y0323252D01*
X0187424Y0323195D01*
X0187369Y0323141D01*
X0187311Y0323090D01*
X0187250Y0323042D01*
X0187187Y0322997D01*
X0187122Y0322956D01*
X0187055Y0322918D01*
X0186986Y0322883D01*
X0186915Y0322853D01*
X0186843Y0322825D01*
X0186769Y0322802D01*
X0186695Y0322782D01*
X0186619Y0322766D01*
X0186543Y0322754D01*
X0186466Y0322746D01*
X0186389Y0322742D01*
X0186311Y0322742D01*
X0186234Y0322746D01*
X0186157Y0322754D01*
X0186081Y0322766D01*
X0186005Y0322782D01*
X0185931Y0322802D01*
X0185857Y0322825D01*
X0185785Y0322853D01*
X0185714Y0322883D01*
X0185645Y0322918D01*
X0185578Y0322956D01*
X0185513Y0322997D01*
X0185450Y0323042D01*
X0185389Y0323090D01*
X0185331Y0323141D01*
X0185276Y0323195D01*
X0185223Y0323252D01*
X0185174Y0323311D01*
X0185127Y0323373D01*
X0185084Y0323437D01*
X0185045Y0323503D01*
X0185008Y0323571D01*
X0184976Y0323641D01*
X0184946Y0323713D01*
X0184921Y0323786D01*
X0184899Y0323860D01*
X0184882Y0323935D01*
X0184868Y0324011D01*
X0184858Y0324088D01*
X0184852Y0324165D01*
X0184850Y0324242D01*
X0183550Y0321942D02*
X0183550Y0320642D01*
X0182150Y0320642D01*
X0189650Y0321242D02*
X0189647Y0320988D01*
X0189638Y0320735D01*
X0189622Y0320481D01*
X0189601Y0320229D01*
X0189573Y0319976D01*
X0189540Y0319725D01*
X0189500Y0319474D01*
X0189454Y0319225D01*
X0189403Y0318976D01*
X0189345Y0318729D01*
X0189281Y0318484D01*
X0189212Y0318240D01*
X0189136Y0317997D01*
X0189055Y0317757D01*
X0188968Y0317519D01*
X0188875Y0317283D01*
X0188776Y0317049D01*
X0188672Y0316817D01*
X0188562Y0316588D01*
X0188447Y0316362D01*
X0188327Y0316139D01*
X0188201Y0315919D01*
X0188069Y0315702D01*
X0187933Y0315488D01*
X0187791Y0315277D01*
X0187645Y0315070D01*
X0187493Y0314867D01*
X0187337Y0314667D01*
X0187175Y0314471D01*
X0187009Y0314279D01*
X0186839Y0314091D01*
X0186664Y0313908D01*
X0186484Y0313728D01*
X0186301Y0313553D01*
X0186113Y0313383D01*
X0185921Y0313217D01*
X0185725Y0313055D01*
X0185525Y0312899D01*
X0185322Y0312747D01*
X0185115Y0312601D01*
X0184904Y0312459D01*
X0184690Y0312323D01*
X0184473Y0312191D01*
X0184253Y0312065D01*
X0184030Y0311945D01*
X0183804Y0311830D01*
X0183575Y0311720D01*
X0183343Y0311616D01*
X0183109Y0311517D01*
X0182873Y0311424D01*
X0182635Y0311337D01*
X0182395Y0311256D01*
X0182152Y0311180D01*
X0181908Y0311111D01*
X0181663Y0311047D01*
X0181416Y0310989D01*
X0181167Y0310938D01*
X0180918Y0310892D01*
X0180667Y0310852D01*
X0180416Y0310819D01*
X0180163Y0310791D01*
X0179911Y0310770D01*
X0179657Y0310754D01*
X0179404Y0310745D01*
X0179150Y0310742D01*
X0151150Y0310742D01*
X0152600Y0320642D02*
X0154000Y0320642D01*
X0154000Y0321942D01*
X0151150Y0310742D02*
X0150896Y0310745D01*
X0150643Y0310754D01*
X0150389Y0310770D01*
X0150137Y0310791D01*
X0149884Y0310819D01*
X0149633Y0310852D01*
X0149382Y0310892D01*
X0149133Y0310938D01*
X0148884Y0310989D01*
X0148637Y0311047D01*
X0148392Y0311111D01*
X0148148Y0311180D01*
X0147905Y0311256D01*
X0147665Y0311337D01*
X0147427Y0311424D01*
X0147191Y0311517D01*
X0146957Y0311616D01*
X0146725Y0311720D01*
X0146496Y0311830D01*
X0146270Y0311945D01*
X0146047Y0312065D01*
X0145827Y0312191D01*
X0145610Y0312323D01*
X0145396Y0312459D01*
X0145185Y0312601D01*
X0144978Y0312747D01*
X0144775Y0312899D01*
X0144575Y0313055D01*
X0144379Y0313217D01*
X0144187Y0313383D01*
X0143999Y0313553D01*
X0143816Y0313728D01*
X0143636Y0313908D01*
X0143461Y0314091D01*
X0143291Y0314279D01*
X0143125Y0314471D01*
X0142963Y0314667D01*
X0142807Y0314867D01*
X0142655Y0315070D01*
X0142509Y0315277D01*
X0142367Y0315488D01*
X0142231Y0315702D01*
X0142099Y0315919D01*
X0141973Y0316139D01*
X0141853Y0316362D01*
X0141738Y0316588D01*
X0141628Y0316817D01*
X0141524Y0317049D01*
X0141425Y0317283D01*
X0141332Y0317519D01*
X0141245Y0317757D01*
X0141164Y0317997D01*
X0141088Y0318240D01*
X0141019Y0318484D01*
X0140955Y0318729D01*
X0140897Y0318976D01*
X0140846Y0319225D01*
X0140800Y0319474D01*
X0140760Y0319725D01*
X0140727Y0319976D01*
X0140699Y0320229D01*
X0140678Y0320481D01*
X0140662Y0320735D01*
X0140653Y0320988D01*
X0140650Y0321242D01*
X0133669Y0324242D02*
X0133671Y0324319D01*
X0133677Y0324396D01*
X0133687Y0324473D01*
X0133701Y0324549D01*
X0133718Y0324624D01*
X0133740Y0324698D01*
X0133765Y0324771D01*
X0133795Y0324843D01*
X0133827Y0324913D01*
X0133864Y0324981D01*
X0133903Y0325047D01*
X0133946Y0325111D01*
X0133993Y0325173D01*
X0134042Y0325232D01*
X0134095Y0325289D01*
X0134150Y0325343D01*
X0134208Y0325394D01*
X0134269Y0325442D01*
X0134332Y0325487D01*
X0134397Y0325528D01*
X0134464Y0325566D01*
X0134533Y0325601D01*
X0134604Y0325631D01*
X0134676Y0325659D01*
X0134750Y0325682D01*
X0134824Y0325702D01*
X0134900Y0325718D01*
X0134976Y0325730D01*
X0135053Y0325738D01*
X0135130Y0325742D01*
X0135208Y0325742D01*
X0135285Y0325738D01*
X0135362Y0325730D01*
X0135438Y0325718D01*
X0135514Y0325702D01*
X0135588Y0325682D01*
X0135662Y0325659D01*
X0135734Y0325631D01*
X0135805Y0325601D01*
X0135874Y0325566D01*
X0135941Y0325528D01*
X0136006Y0325487D01*
X0136069Y0325442D01*
X0136130Y0325394D01*
X0136188Y0325343D01*
X0136243Y0325289D01*
X0136296Y0325232D01*
X0136345Y0325173D01*
X0136392Y0325111D01*
X0136435Y0325047D01*
X0136474Y0324981D01*
X0136511Y0324913D01*
X0136543Y0324843D01*
X0136573Y0324771D01*
X0136598Y0324698D01*
X0136620Y0324624D01*
X0136637Y0324549D01*
X0136651Y0324473D01*
X0136661Y0324396D01*
X0136667Y0324319D01*
X0136669Y0324242D01*
X0136667Y0324165D01*
X0136661Y0324088D01*
X0136651Y0324011D01*
X0136637Y0323935D01*
X0136620Y0323860D01*
X0136598Y0323786D01*
X0136573Y0323713D01*
X0136543Y0323641D01*
X0136511Y0323571D01*
X0136474Y0323503D01*
X0136435Y0323437D01*
X0136392Y0323373D01*
X0136345Y0323311D01*
X0136296Y0323252D01*
X0136243Y0323195D01*
X0136188Y0323141D01*
X0136130Y0323090D01*
X0136069Y0323042D01*
X0136006Y0322997D01*
X0135941Y0322956D01*
X0135874Y0322918D01*
X0135805Y0322883D01*
X0135734Y0322853D01*
X0135662Y0322825D01*
X0135588Y0322802D01*
X0135514Y0322782D01*
X0135438Y0322766D01*
X0135362Y0322754D01*
X0135285Y0322746D01*
X0135208Y0322742D01*
X0135130Y0322742D01*
X0135053Y0322746D01*
X0134976Y0322754D01*
X0134900Y0322766D01*
X0134824Y0322782D01*
X0134750Y0322802D01*
X0134676Y0322825D01*
X0134604Y0322853D01*
X0134533Y0322883D01*
X0134464Y0322918D01*
X0134397Y0322956D01*
X0134332Y0322997D01*
X0134269Y0323042D01*
X0134208Y0323090D01*
X0134150Y0323141D01*
X0134095Y0323195D01*
X0134042Y0323252D01*
X0133993Y0323311D01*
X0133946Y0323373D01*
X0133903Y0323437D01*
X0133864Y0323503D01*
X0133827Y0323571D01*
X0133795Y0323641D01*
X0133765Y0323713D01*
X0133740Y0323786D01*
X0133718Y0323860D01*
X0133701Y0323935D01*
X0133687Y0324011D01*
X0133677Y0324088D01*
X0133671Y0324165D01*
X0133669Y0324242D01*
X0132369Y0321942D02*
X0132369Y0320642D01*
X0130969Y0320642D01*
X0138469Y0321242D02*
X0138466Y0320988D01*
X0138457Y0320735D01*
X0138441Y0320481D01*
X0138420Y0320229D01*
X0138392Y0319976D01*
X0138359Y0319725D01*
X0138319Y0319474D01*
X0138273Y0319225D01*
X0138222Y0318976D01*
X0138164Y0318729D01*
X0138100Y0318484D01*
X0138031Y0318240D01*
X0137955Y0317997D01*
X0137874Y0317757D01*
X0137787Y0317519D01*
X0137694Y0317283D01*
X0137595Y0317049D01*
X0137491Y0316817D01*
X0137381Y0316588D01*
X0137266Y0316362D01*
X0137146Y0316139D01*
X0137020Y0315919D01*
X0136888Y0315702D01*
X0136752Y0315488D01*
X0136610Y0315277D01*
X0136464Y0315070D01*
X0136312Y0314867D01*
X0136156Y0314667D01*
X0135994Y0314471D01*
X0135828Y0314279D01*
X0135658Y0314091D01*
X0135483Y0313908D01*
X0135303Y0313728D01*
X0135120Y0313553D01*
X0134932Y0313383D01*
X0134740Y0313217D01*
X0134544Y0313055D01*
X0134344Y0312899D01*
X0134141Y0312747D01*
X0133934Y0312601D01*
X0133723Y0312459D01*
X0133509Y0312323D01*
X0133292Y0312191D01*
X0133072Y0312065D01*
X0132849Y0311945D01*
X0132623Y0311830D01*
X0132394Y0311720D01*
X0132162Y0311616D01*
X0131928Y0311517D01*
X0131692Y0311424D01*
X0131454Y0311337D01*
X0131214Y0311256D01*
X0130971Y0311180D01*
X0130727Y0311111D01*
X0130482Y0311047D01*
X0130235Y0310989D01*
X0129986Y0310938D01*
X0129737Y0310892D01*
X0129486Y0310852D01*
X0129235Y0310819D01*
X0128982Y0310791D01*
X0128730Y0310770D01*
X0128476Y0310754D01*
X0128223Y0310745D01*
X0127969Y0310742D01*
X0099969Y0310742D01*
X0101402Y0309557D02*
X0332402Y0309557D01*
X0332402Y0289557D01*
X0101402Y0289557D01*
X0101402Y0309557D01*
X0101419Y0320642D02*
X0102819Y0320642D01*
X0102819Y0321942D01*
X0099969Y0310742D02*
X0099715Y0310745D01*
X0099462Y0310754D01*
X0099208Y0310770D01*
X0098956Y0310791D01*
X0098703Y0310819D01*
X0098452Y0310852D01*
X0098201Y0310892D01*
X0097952Y0310938D01*
X0097703Y0310989D01*
X0097456Y0311047D01*
X0097211Y0311111D01*
X0096967Y0311180D01*
X0096724Y0311256D01*
X0096484Y0311337D01*
X0096246Y0311424D01*
X0096010Y0311517D01*
X0095776Y0311616D01*
X0095544Y0311720D01*
X0095315Y0311830D01*
X0095089Y0311945D01*
X0094866Y0312065D01*
X0094646Y0312191D01*
X0094429Y0312323D01*
X0094215Y0312459D01*
X0094004Y0312601D01*
X0093797Y0312747D01*
X0093594Y0312899D01*
X0093394Y0313055D01*
X0093198Y0313217D01*
X0093006Y0313383D01*
X0092818Y0313553D01*
X0092635Y0313728D01*
X0092455Y0313908D01*
X0092280Y0314091D01*
X0092110Y0314279D01*
X0091944Y0314471D01*
X0091782Y0314667D01*
X0091626Y0314867D01*
X0091474Y0315070D01*
X0091328Y0315277D01*
X0091186Y0315488D01*
X0091050Y0315702D01*
X0090918Y0315919D01*
X0090792Y0316139D01*
X0090672Y0316362D01*
X0090557Y0316588D01*
X0090447Y0316817D01*
X0090343Y0317049D01*
X0090244Y0317283D01*
X0090151Y0317519D01*
X0090064Y0317757D01*
X0089983Y0317997D01*
X0089907Y0318240D01*
X0089838Y0318484D01*
X0089774Y0318729D01*
X0089716Y0318976D01*
X0089665Y0319225D01*
X0089619Y0319474D01*
X0089579Y0319725D01*
X0089546Y0319976D01*
X0089518Y0320229D01*
X0089497Y0320481D01*
X0089481Y0320735D01*
X0089472Y0320988D01*
X0089469Y0321242D01*
X0095569Y0326542D02*
X0095569Y0327842D01*
X0096969Y0327842D01*
X0105419Y0327842D02*
X0106819Y0327842D01*
X0105419Y0327842D02*
X0105419Y0326542D01*
X0111269Y0320642D02*
X0112669Y0320642D01*
X0112669Y0321942D01*
X0115269Y0326542D02*
X0115269Y0327842D01*
X0116669Y0327842D01*
X0122519Y0321942D02*
X0122519Y0320642D01*
X0121119Y0320642D01*
X0125119Y0326542D02*
X0125119Y0327842D01*
X0126519Y0327842D01*
X0146750Y0327842D02*
X0148150Y0327842D01*
X0146750Y0327842D02*
X0146750Y0326542D01*
X0156600Y0326542D02*
X0156600Y0327842D01*
X0158000Y0327842D01*
X0163850Y0321942D02*
X0163850Y0320642D01*
X0162450Y0320642D01*
X0166450Y0326542D02*
X0166450Y0327842D01*
X0167850Y0327842D01*
X0173700Y0321942D02*
X0173700Y0320642D01*
X0172300Y0320642D01*
X0176300Y0326542D02*
X0176300Y0327842D01*
X0177700Y0327842D01*
X0197931Y0327842D02*
X0199331Y0327842D01*
X0197931Y0327842D02*
X0197931Y0326542D01*
X0207781Y0326542D02*
X0207781Y0327842D01*
X0209181Y0327842D01*
X0215031Y0321942D02*
X0215031Y0320642D01*
X0213631Y0320642D01*
X0217631Y0326542D02*
X0217631Y0327842D01*
X0219031Y0327842D01*
X0224881Y0321942D02*
X0224881Y0320642D01*
X0223481Y0320642D01*
X0227481Y0326542D02*
X0227481Y0327842D01*
X0228881Y0327842D01*
X0249112Y0327842D02*
X0250512Y0327842D01*
X0249112Y0327842D02*
X0249112Y0326542D01*
X0258962Y0326542D02*
X0258962Y0327842D01*
X0260362Y0327842D01*
X0266212Y0321942D02*
X0266212Y0320642D01*
X0264812Y0320642D01*
X0268812Y0326542D02*
X0268812Y0327842D01*
X0270212Y0327842D01*
X0276062Y0321942D02*
X0276062Y0320642D01*
X0274662Y0320642D01*
X0278662Y0326542D02*
X0278662Y0327842D01*
X0280062Y0327842D01*
X0300293Y0327842D02*
X0301693Y0327842D01*
X0300293Y0327842D02*
X0300293Y0326542D01*
X0310143Y0326542D02*
X0310143Y0327842D01*
X0311543Y0327842D01*
X0317393Y0321942D02*
X0317393Y0320642D01*
X0315993Y0320642D01*
X0319993Y0326542D02*
X0319993Y0327842D01*
X0321393Y0327842D01*
X0327243Y0321942D02*
X0327243Y0320642D01*
X0325843Y0320642D01*
X0329843Y0326542D02*
X0329843Y0327842D01*
X0331243Y0327842D01*
X0331853Y0283806D02*
X0331853Y0282206D01*
X0328053Y0282206D02*
X0328053Y0283806D01*
X0323357Y0283806D02*
X0323357Y0282206D01*
X0319557Y0282206D02*
X0319557Y0283806D01*
X0316528Y0276474D02*
X0326028Y0276474D01*
X0326028Y0269974D01*
X0324028Y0266974D01*
X0324028Y0236974D01*
X0326028Y0233974D01*
X0326028Y0227474D01*
X0316528Y0227474D01*
X0318028Y0230774D02*
X0318030Y0230851D01*
X0318036Y0230928D01*
X0318046Y0231005D01*
X0318060Y0231081D01*
X0318077Y0231156D01*
X0318099Y0231230D01*
X0318124Y0231303D01*
X0318154Y0231375D01*
X0318186Y0231445D01*
X0318223Y0231513D01*
X0318262Y0231579D01*
X0318305Y0231643D01*
X0318352Y0231705D01*
X0318401Y0231764D01*
X0318454Y0231821D01*
X0318509Y0231875D01*
X0318567Y0231926D01*
X0318628Y0231974D01*
X0318691Y0232019D01*
X0318756Y0232060D01*
X0318823Y0232098D01*
X0318892Y0232133D01*
X0318963Y0232163D01*
X0319035Y0232191D01*
X0319109Y0232214D01*
X0319183Y0232234D01*
X0319259Y0232250D01*
X0319335Y0232262D01*
X0319412Y0232270D01*
X0319489Y0232274D01*
X0319567Y0232274D01*
X0319644Y0232270D01*
X0319721Y0232262D01*
X0319797Y0232250D01*
X0319873Y0232234D01*
X0319947Y0232214D01*
X0320021Y0232191D01*
X0320093Y0232163D01*
X0320164Y0232133D01*
X0320233Y0232098D01*
X0320300Y0232060D01*
X0320365Y0232019D01*
X0320428Y0231974D01*
X0320489Y0231926D01*
X0320547Y0231875D01*
X0320602Y0231821D01*
X0320655Y0231764D01*
X0320704Y0231705D01*
X0320751Y0231643D01*
X0320794Y0231579D01*
X0320833Y0231513D01*
X0320870Y0231445D01*
X0320902Y0231375D01*
X0320932Y0231303D01*
X0320957Y0231230D01*
X0320979Y0231156D01*
X0320996Y0231081D01*
X0321010Y0231005D01*
X0321020Y0230928D01*
X0321026Y0230851D01*
X0321028Y0230774D01*
X0321026Y0230697D01*
X0321020Y0230620D01*
X0321010Y0230543D01*
X0320996Y0230467D01*
X0320979Y0230392D01*
X0320957Y0230318D01*
X0320932Y0230245D01*
X0320902Y0230173D01*
X0320870Y0230103D01*
X0320833Y0230035D01*
X0320794Y0229969D01*
X0320751Y0229905D01*
X0320704Y0229843D01*
X0320655Y0229784D01*
X0320602Y0229727D01*
X0320547Y0229673D01*
X0320489Y0229622D01*
X0320428Y0229574D01*
X0320365Y0229529D01*
X0320300Y0229488D01*
X0320233Y0229450D01*
X0320164Y0229415D01*
X0320093Y0229385D01*
X0320021Y0229357D01*
X0319947Y0229334D01*
X0319873Y0229314D01*
X0319797Y0229298D01*
X0319721Y0229286D01*
X0319644Y0229278D01*
X0319567Y0229274D01*
X0319489Y0229274D01*
X0319412Y0229278D01*
X0319335Y0229286D01*
X0319259Y0229298D01*
X0319183Y0229314D01*
X0319109Y0229334D01*
X0319035Y0229357D01*
X0318963Y0229385D01*
X0318892Y0229415D01*
X0318823Y0229450D01*
X0318756Y0229488D01*
X0318691Y0229529D01*
X0318628Y0229574D01*
X0318567Y0229622D01*
X0318509Y0229673D01*
X0318454Y0229727D01*
X0318401Y0229784D01*
X0318352Y0229843D01*
X0318305Y0229905D01*
X0318262Y0229969D01*
X0318223Y0230035D01*
X0318186Y0230103D01*
X0318154Y0230173D01*
X0318124Y0230245D01*
X0318099Y0230318D01*
X0318077Y0230392D01*
X0318060Y0230467D01*
X0318046Y0230543D01*
X0318036Y0230620D01*
X0318030Y0230697D01*
X0318028Y0230774D01*
X0317228Y0233574D02*
X0315928Y0233574D01*
X0315928Y0234974D01*
X0316528Y0227474D02*
X0316274Y0227477D01*
X0316021Y0227486D01*
X0315767Y0227502D01*
X0315515Y0227523D01*
X0315262Y0227551D01*
X0315011Y0227584D01*
X0314760Y0227624D01*
X0314511Y0227670D01*
X0314262Y0227721D01*
X0314015Y0227779D01*
X0313770Y0227843D01*
X0313526Y0227912D01*
X0313283Y0227988D01*
X0313043Y0228069D01*
X0312805Y0228156D01*
X0312569Y0228249D01*
X0312335Y0228348D01*
X0312103Y0228452D01*
X0311874Y0228562D01*
X0311648Y0228677D01*
X0311425Y0228797D01*
X0311205Y0228923D01*
X0310988Y0229055D01*
X0310774Y0229191D01*
X0310563Y0229333D01*
X0310356Y0229479D01*
X0310153Y0229631D01*
X0309953Y0229787D01*
X0309757Y0229949D01*
X0309565Y0230115D01*
X0309377Y0230285D01*
X0309194Y0230460D01*
X0309014Y0230640D01*
X0308839Y0230823D01*
X0308669Y0231011D01*
X0308503Y0231203D01*
X0308341Y0231399D01*
X0308185Y0231599D01*
X0308033Y0231802D01*
X0307887Y0232009D01*
X0307745Y0232220D01*
X0307609Y0232434D01*
X0307477Y0232651D01*
X0307351Y0232871D01*
X0307231Y0233094D01*
X0307116Y0233320D01*
X0307006Y0233549D01*
X0306902Y0233781D01*
X0306803Y0234015D01*
X0306710Y0234251D01*
X0306623Y0234489D01*
X0306542Y0234729D01*
X0306466Y0234972D01*
X0306397Y0235216D01*
X0306333Y0235461D01*
X0306275Y0235708D01*
X0306224Y0235957D01*
X0306178Y0236206D01*
X0306138Y0236457D01*
X0306105Y0236708D01*
X0306077Y0236961D01*
X0306056Y0237213D01*
X0306040Y0237467D01*
X0306031Y0237720D01*
X0306028Y0237974D01*
X0306028Y0265974D01*
X0301578Y0270611D02*
X0301578Y0271811D01*
X0297428Y0271811D02*
X0297428Y0270611D01*
X0291428Y0270411D02*
X0291428Y0272011D01*
X0287628Y0272011D02*
X0287628Y0270411D01*
X0281578Y0270611D02*
X0281578Y0271811D01*
X0277428Y0271811D02*
X0277428Y0270611D01*
X0271428Y0270411D02*
X0271428Y0272011D01*
X0267628Y0272011D02*
X0267628Y0270411D01*
X0257028Y0267411D02*
X0250028Y0267411D01*
X0239628Y0261811D02*
X0239628Y0260611D01*
X0235478Y0260611D02*
X0235478Y0261811D01*
X0228525Y0261856D02*
X0228525Y0260256D01*
X0224725Y0260256D02*
X0224725Y0261856D01*
X0250028Y0255011D02*
X0257028Y0255011D01*
X0275828Y0257111D02*
X0287228Y0257111D01*
X0284028Y0257211D02*
X0284028Y0255179D01*
X0284028Y0251242D02*
X0284028Y0249211D01*
X0287228Y0249311D02*
X0275828Y0249311D01*
X0258043Y0236352D02*
X0257043Y0236352D01*
X0257042Y0236352D02*
X0257066Y0236424D01*
X0257085Y0236497D01*
X0257102Y0236571D01*
X0257114Y0236646D01*
X0257122Y0236721D01*
X0257127Y0236797D01*
X0257128Y0236872D01*
X0257125Y0236948D01*
X0257118Y0237023D01*
X0257108Y0237098D01*
X0257093Y0237173D01*
X0257075Y0237246D01*
X0257054Y0237319D01*
X0257028Y0237390D01*
X0256999Y0237460D01*
X0256967Y0237528D01*
X0256931Y0237595D01*
X0256892Y0237660D01*
X0256850Y0237723D01*
X0256805Y0237783D01*
X0256756Y0237841D01*
X0256705Y0237897D01*
X0256651Y0237950D01*
X0256594Y0238000D01*
X0256535Y0238048D01*
X0256474Y0238092D01*
X0256410Y0238133D01*
X0256345Y0238171D01*
X0256277Y0238205D01*
X0256208Y0238237D01*
X0256138Y0238264D01*
X0256066Y0238288D01*
X0255993Y0238308D01*
X0255919Y0238325D01*
X0255845Y0238338D01*
X0255770Y0238347D01*
X0255694Y0238352D01*
X0255618Y0238354D01*
X0255543Y0238352D01*
X0255542Y0238352D02*
X0255467Y0238354D01*
X0255391Y0238352D01*
X0255315Y0238347D01*
X0255240Y0238338D01*
X0255166Y0238325D01*
X0255092Y0238308D01*
X0255019Y0238288D01*
X0254947Y0238264D01*
X0254877Y0238237D01*
X0254808Y0238205D01*
X0254740Y0238171D01*
X0254675Y0238133D01*
X0254611Y0238092D01*
X0254550Y0238048D01*
X0254491Y0238000D01*
X0254434Y0237950D01*
X0254380Y0237897D01*
X0254329Y0237841D01*
X0254280Y0237783D01*
X0254235Y0237723D01*
X0254193Y0237660D01*
X0254154Y0237595D01*
X0254118Y0237528D01*
X0254086Y0237460D01*
X0254057Y0237390D01*
X0254031Y0237319D01*
X0254010Y0237246D01*
X0253992Y0237173D01*
X0253977Y0237098D01*
X0253967Y0237023D01*
X0253960Y0236948D01*
X0253957Y0236872D01*
X0253958Y0236797D01*
X0253963Y0236721D01*
X0253971Y0236646D01*
X0253983Y0236571D01*
X0254000Y0236497D01*
X0254019Y0236424D01*
X0254043Y0236352D01*
X0254043Y0236353D02*
X0254055Y0236324D01*
X0254070Y0236297D01*
X0254089Y0236272D01*
X0254110Y0236249D01*
X0254134Y0236229D01*
X0254160Y0236212D01*
X0254187Y0236198D01*
X0254216Y0236187D01*
X0254247Y0236180D01*
X0254277Y0236176D01*
X0254309Y0236176D01*
X0254339Y0236180D01*
X0254370Y0236187D01*
X0254399Y0236198D01*
X0254426Y0236212D01*
X0254452Y0236229D01*
X0254476Y0236249D01*
X0254497Y0236272D01*
X0254516Y0236297D01*
X0254531Y0236324D01*
X0254543Y0236353D01*
X0254542Y0236352D02*
X0254566Y0236424D01*
X0254585Y0236497D01*
X0254602Y0236571D01*
X0254614Y0236646D01*
X0254622Y0236721D01*
X0254627Y0236797D01*
X0254628Y0236872D01*
X0254625Y0236948D01*
X0254618Y0237023D01*
X0254608Y0237098D01*
X0254593Y0237173D01*
X0254575Y0237246D01*
X0254554Y0237319D01*
X0254528Y0237390D01*
X0254499Y0237460D01*
X0254467Y0237528D01*
X0254431Y0237595D01*
X0254392Y0237660D01*
X0254350Y0237723D01*
X0254305Y0237783D01*
X0254256Y0237841D01*
X0254205Y0237897D01*
X0254151Y0237950D01*
X0254094Y0238000D01*
X0254035Y0238048D01*
X0253974Y0238092D01*
X0253910Y0238133D01*
X0253845Y0238171D01*
X0253777Y0238205D01*
X0253708Y0238237D01*
X0253638Y0238264D01*
X0253566Y0238288D01*
X0253493Y0238308D01*
X0253419Y0238325D01*
X0253345Y0238338D01*
X0253270Y0238347D01*
X0253194Y0238352D01*
X0253118Y0238354D01*
X0253043Y0238352D01*
X0253042Y0238352D02*
X0252967Y0238354D01*
X0252891Y0238352D01*
X0252815Y0238347D01*
X0252740Y0238338D01*
X0252666Y0238325D01*
X0252592Y0238308D01*
X0252519Y0238288D01*
X0252447Y0238264D01*
X0252377Y0238237D01*
X0252308Y0238205D01*
X0252240Y0238171D01*
X0252175Y0238133D01*
X0252111Y0238092D01*
X0252050Y0238048D01*
X0251991Y0238000D01*
X0251934Y0237950D01*
X0251880Y0237897D01*
X0251829Y0237841D01*
X0251780Y0237783D01*
X0251735Y0237723D01*
X0251693Y0237660D01*
X0251654Y0237595D01*
X0251618Y0237528D01*
X0251586Y0237460D01*
X0251557Y0237390D01*
X0251531Y0237319D01*
X0251510Y0237246D01*
X0251492Y0237173D01*
X0251477Y0237098D01*
X0251467Y0237023D01*
X0251460Y0236948D01*
X0251457Y0236872D01*
X0251458Y0236797D01*
X0251463Y0236721D01*
X0251471Y0236646D01*
X0251483Y0236571D01*
X0251500Y0236497D01*
X0251519Y0236424D01*
X0251543Y0236352D01*
X0251543Y0236353D02*
X0251555Y0236324D01*
X0251570Y0236297D01*
X0251589Y0236272D01*
X0251610Y0236249D01*
X0251634Y0236229D01*
X0251660Y0236212D01*
X0251687Y0236198D01*
X0251716Y0236187D01*
X0251747Y0236180D01*
X0251777Y0236176D01*
X0251809Y0236176D01*
X0251839Y0236180D01*
X0251870Y0236187D01*
X0251899Y0236198D01*
X0251926Y0236212D01*
X0251952Y0236229D01*
X0251976Y0236249D01*
X0251997Y0236272D01*
X0252016Y0236297D01*
X0252031Y0236324D01*
X0252043Y0236353D01*
X0234088Y0236352D02*
X0234093Y0236788D01*
X0234109Y0237223D01*
X0234136Y0237658D01*
X0234173Y0238092D01*
X0234222Y0238525D01*
X0234280Y0238957D01*
X0234349Y0239387D01*
X0234429Y0239816D01*
X0234519Y0240242D01*
X0234620Y0240666D01*
X0234731Y0241087D01*
X0234853Y0241506D01*
X0234984Y0241921D01*
X0235126Y0242333D01*
X0235278Y0242742D01*
X0235440Y0243147D01*
X0235611Y0243547D01*
X0235793Y0243943D01*
X0235984Y0244335D01*
X0236184Y0244722D01*
X0236395Y0245103D01*
X0236614Y0245480D01*
X0236843Y0245851D01*
X0237080Y0246216D01*
X0237327Y0246575D01*
X0237582Y0246929D01*
X0237846Y0247275D01*
X0238118Y0247616D01*
X0238399Y0247949D01*
X0238687Y0248276D01*
X0238984Y0248595D01*
X0239288Y0248907D01*
X0239600Y0249211D01*
X0239919Y0249508D01*
X0240246Y0249796D01*
X0240579Y0250077D01*
X0240920Y0250349D01*
X0241266Y0250613D01*
X0241620Y0250868D01*
X0241979Y0251115D01*
X0242344Y0251352D01*
X0242715Y0251581D01*
X0243092Y0251800D01*
X0243473Y0252011D01*
X0243860Y0252211D01*
X0244252Y0252402D01*
X0244648Y0252584D01*
X0245048Y0252755D01*
X0245453Y0252917D01*
X0245862Y0253069D01*
X0246274Y0253211D01*
X0246689Y0253342D01*
X0247108Y0253464D01*
X0247529Y0253575D01*
X0247953Y0253676D01*
X0248379Y0253766D01*
X0248808Y0253846D01*
X0249238Y0253915D01*
X0249670Y0253973D01*
X0250103Y0254022D01*
X0250537Y0254059D01*
X0250972Y0254086D01*
X0251407Y0254102D01*
X0251843Y0254107D01*
X0252279Y0254102D01*
X0252714Y0254086D01*
X0253149Y0254059D01*
X0253583Y0254022D01*
X0254016Y0253973D01*
X0254448Y0253915D01*
X0254878Y0253846D01*
X0255307Y0253766D01*
X0255733Y0253676D01*
X0256157Y0253575D01*
X0256578Y0253464D01*
X0256997Y0253342D01*
X0257412Y0253211D01*
X0257824Y0253069D01*
X0258233Y0252917D01*
X0258638Y0252755D01*
X0259038Y0252584D01*
X0259434Y0252402D01*
X0259826Y0252211D01*
X0260213Y0252011D01*
X0260594Y0251800D01*
X0260971Y0251581D01*
X0261342Y0251352D01*
X0261707Y0251115D01*
X0262066Y0250868D01*
X0262420Y0250613D01*
X0262766Y0250349D01*
X0263107Y0250077D01*
X0263440Y0249796D01*
X0263767Y0249508D01*
X0264086Y0249211D01*
X0264398Y0248907D01*
X0264702Y0248595D01*
X0264999Y0248276D01*
X0265287Y0247949D01*
X0265568Y0247616D01*
X0265840Y0247275D01*
X0266104Y0246929D01*
X0266359Y0246575D01*
X0266606Y0246216D01*
X0266843Y0245851D01*
X0267072Y0245480D01*
X0267291Y0245103D01*
X0267502Y0244722D01*
X0267702Y0244335D01*
X0267893Y0243943D01*
X0268075Y0243547D01*
X0268246Y0243147D01*
X0268408Y0242742D01*
X0268560Y0242333D01*
X0268702Y0241921D01*
X0268833Y0241506D01*
X0268955Y0241087D01*
X0269066Y0240666D01*
X0269167Y0240242D01*
X0269257Y0239816D01*
X0269337Y0239387D01*
X0269406Y0238957D01*
X0269464Y0238525D01*
X0269513Y0238092D01*
X0269550Y0237658D01*
X0269577Y0237223D01*
X0269593Y0236788D01*
X0269598Y0236352D01*
X0269593Y0235916D01*
X0269577Y0235481D01*
X0269550Y0235046D01*
X0269513Y0234612D01*
X0269464Y0234179D01*
X0269406Y0233747D01*
X0269337Y0233317D01*
X0269257Y0232888D01*
X0269167Y0232462D01*
X0269066Y0232038D01*
X0268955Y0231617D01*
X0268833Y0231198D01*
X0268702Y0230783D01*
X0268560Y0230371D01*
X0268408Y0229962D01*
X0268246Y0229557D01*
X0268075Y0229157D01*
X0267893Y0228761D01*
X0267702Y0228369D01*
X0267502Y0227982D01*
X0267291Y0227601D01*
X0267072Y0227224D01*
X0266843Y0226853D01*
X0266606Y0226488D01*
X0266359Y0226129D01*
X0266104Y0225775D01*
X0265840Y0225429D01*
X0265568Y0225088D01*
X0265287Y0224755D01*
X0264999Y0224428D01*
X0264702Y0224109D01*
X0264398Y0223797D01*
X0264086Y0223493D01*
X0263767Y0223196D01*
X0263440Y0222908D01*
X0263107Y0222627D01*
X0262766Y0222355D01*
X0262420Y0222091D01*
X0262066Y0221836D01*
X0261707Y0221589D01*
X0261342Y0221352D01*
X0260971Y0221123D01*
X0260594Y0220904D01*
X0260213Y0220693D01*
X0259826Y0220493D01*
X0259434Y0220302D01*
X0259038Y0220120D01*
X0258638Y0219949D01*
X0258233Y0219787D01*
X0257824Y0219635D01*
X0257412Y0219493D01*
X0256997Y0219362D01*
X0256578Y0219240D01*
X0256157Y0219129D01*
X0255733Y0219028D01*
X0255307Y0218938D01*
X0254878Y0218858D01*
X0254448Y0218789D01*
X0254016Y0218731D01*
X0253583Y0218682D01*
X0253149Y0218645D01*
X0252714Y0218618D01*
X0252279Y0218602D01*
X0251843Y0218597D01*
X0251407Y0218602D01*
X0250972Y0218618D01*
X0250537Y0218645D01*
X0250103Y0218682D01*
X0249670Y0218731D01*
X0249238Y0218789D01*
X0248808Y0218858D01*
X0248379Y0218938D01*
X0247953Y0219028D01*
X0247529Y0219129D01*
X0247108Y0219240D01*
X0246689Y0219362D01*
X0246274Y0219493D01*
X0245862Y0219635D01*
X0245453Y0219787D01*
X0245048Y0219949D01*
X0244648Y0220120D01*
X0244252Y0220302D01*
X0243860Y0220493D01*
X0243473Y0220693D01*
X0243092Y0220904D01*
X0242715Y0221123D01*
X0242344Y0221352D01*
X0241979Y0221589D01*
X0241620Y0221836D01*
X0241266Y0222091D01*
X0240920Y0222355D01*
X0240579Y0222627D01*
X0240246Y0222908D01*
X0239919Y0223196D01*
X0239600Y0223493D01*
X0239288Y0223797D01*
X0238984Y0224109D01*
X0238687Y0224428D01*
X0238399Y0224755D01*
X0238118Y0225088D01*
X0237846Y0225429D01*
X0237582Y0225775D01*
X0237327Y0226129D01*
X0237080Y0226488D01*
X0236843Y0226853D01*
X0236614Y0227224D01*
X0236395Y0227601D01*
X0236184Y0227982D01*
X0235984Y0228369D01*
X0235793Y0228761D01*
X0235611Y0229157D01*
X0235440Y0229557D01*
X0235278Y0229962D01*
X0235126Y0230371D01*
X0234984Y0230783D01*
X0234853Y0231198D01*
X0234731Y0231617D01*
X0234620Y0232038D01*
X0234519Y0232462D01*
X0234429Y0232888D01*
X0234349Y0233317D01*
X0234280Y0233747D01*
X0234222Y0234179D01*
X0234173Y0234612D01*
X0234136Y0235046D01*
X0234109Y0235481D01*
X0234093Y0235916D01*
X0234088Y0236352D01*
X0245543Y0236352D02*
X0246543Y0236352D01*
X0246519Y0236424D01*
X0246500Y0236497D01*
X0246483Y0236571D01*
X0246471Y0236646D01*
X0246463Y0236721D01*
X0246458Y0236797D01*
X0246457Y0236872D01*
X0246460Y0236948D01*
X0246467Y0237023D01*
X0246477Y0237098D01*
X0246492Y0237173D01*
X0246510Y0237246D01*
X0246531Y0237319D01*
X0246557Y0237390D01*
X0246586Y0237460D01*
X0246618Y0237528D01*
X0246654Y0237595D01*
X0246693Y0237660D01*
X0246735Y0237723D01*
X0246780Y0237783D01*
X0246829Y0237841D01*
X0246880Y0237897D01*
X0246934Y0237950D01*
X0246991Y0238000D01*
X0247050Y0238048D01*
X0247111Y0238092D01*
X0247175Y0238133D01*
X0247240Y0238171D01*
X0247308Y0238205D01*
X0247377Y0238237D01*
X0247447Y0238264D01*
X0247519Y0238288D01*
X0247592Y0238308D01*
X0247666Y0238325D01*
X0247740Y0238338D01*
X0247815Y0238347D01*
X0247891Y0238352D01*
X0247967Y0238354D01*
X0248042Y0238352D01*
X0248043Y0238352D02*
X0248118Y0238354D01*
X0248194Y0238352D01*
X0248270Y0238347D01*
X0248345Y0238338D01*
X0248419Y0238325D01*
X0248493Y0238308D01*
X0248566Y0238288D01*
X0248638Y0238264D01*
X0248708Y0238237D01*
X0248777Y0238205D01*
X0248845Y0238171D01*
X0248910Y0238133D01*
X0248974Y0238092D01*
X0249035Y0238048D01*
X0249094Y0238000D01*
X0249151Y0237950D01*
X0249205Y0237897D01*
X0249256Y0237841D01*
X0249305Y0237783D01*
X0249350Y0237723D01*
X0249392Y0237660D01*
X0249431Y0237595D01*
X0249467Y0237528D01*
X0249499Y0237460D01*
X0249528Y0237390D01*
X0249554Y0237319D01*
X0249575Y0237246D01*
X0249593Y0237173D01*
X0249608Y0237098D01*
X0249618Y0237023D01*
X0249625Y0236948D01*
X0249628Y0236872D01*
X0249627Y0236797D01*
X0249622Y0236721D01*
X0249614Y0236646D01*
X0249602Y0236571D01*
X0249585Y0236497D01*
X0249566Y0236424D01*
X0249542Y0236352D01*
X0249543Y0236353D02*
X0249531Y0236324D01*
X0249516Y0236297D01*
X0249497Y0236272D01*
X0249476Y0236249D01*
X0249452Y0236229D01*
X0249426Y0236212D01*
X0249399Y0236198D01*
X0249370Y0236187D01*
X0249339Y0236180D01*
X0249309Y0236176D01*
X0249277Y0236176D01*
X0249247Y0236180D01*
X0249216Y0236187D01*
X0249187Y0236198D01*
X0249160Y0236212D01*
X0249134Y0236229D01*
X0249110Y0236249D01*
X0249089Y0236272D01*
X0249070Y0236297D01*
X0249055Y0236324D01*
X0249043Y0236353D01*
X0249043Y0236352D02*
X0249019Y0236424D01*
X0249000Y0236497D01*
X0248983Y0236571D01*
X0248971Y0236646D01*
X0248963Y0236721D01*
X0248958Y0236797D01*
X0248957Y0236872D01*
X0248960Y0236948D01*
X0248967Y0237023D01*
X0248977Y0237098D01*
X0248992Y0237173D01*
X0249010Y0237246D01*
X0249031Y0237319D01*
X0249057Y0237390D01*
X0249086Y0237460D01*
X0249118Y0237528D01*
X0249154Y0237595D01*
X0249193Y0237660D01*
X0249235Y0237723D01*
X0249280Y0237783D01*
X0249329Y0237841D01*
X0249380Y0237897D01*
X0249434Y0237950D01*
X0249491Y0238000D01*
X0249550Y0238048D01*
X0249611Y0238092D01*
X0249675Y0238133D01*
X0249740Y0238171D01*
X0249808Y0238205D01*
X0249877Y0238237D01*
X0249947Y0238264D01*
X0250019Y0238288D01*
X0250092Y0238308D01*
X0250166Y0238325D01*
X0250240Y0238338D01*
X0250315Y0238347D01*
X0250391Y0238352D01*
X0250467Y0238354D01*
X0250542Y0238352D01*
X0250543Y0238352D02*
X0250618Y0238354D01*
X0250694Y0238352D01*
X0250770Y0238347D01*
X0250845Y0238338D01*
X0250919Y0238325D01*
X0250993Y0238308D01*
X0251066Y0238288D01*
X0251138Y0238264D01*
X0251208Y0238237D01*
X0251277Y0238205D01*
X0251345Y0238171D01*
X0251410Y0238133D01*
X0251474Y0238092D01*
X0251535Y0238048D01*
X0251594Y0238000D01*
X0251651Y0237950D01*
X0251705Y0237897D01*
X0251756Y0237841D01*
X0251805Y0237783D01*
X0251850Y0237723D01*
X0251892Y0237660D01*
X0251931Y0237595D01*
X0251967Y0237528D01*
X0251999Y0237460D01*
X0252028Y0237390D01*
X0252054Y0237319D01*
X0252075Y0237246D01*
X0252093Y0237173D01*
X0252108Y0237098D01*
X0252118Y0237023D01*
X0252125Y0236948D01*
X0252128Y0236872D01*
X0252127Y0236797D01*
X0252122Y0236721D01*
X0252114Y0236646D01*
X0252102Y0236571D01*
X0252085Y0236497D01*
X0252066Y0236424D01*
X0252042Y0236352D01*
X0250076Y0217511D02*
X0236476Y0217511D01*
X0236476Y0204911D02*
X0250076Y0204911D01*
X0255276Y0193211D02*
X0255276Y0179211D01*
X0261226Y0177811D02*
X0261226Y0176611D01*
X0265376Y0176611D02*
X0265376Y0177811D01*
X0265176Y0196611D02*
X0265176Y0197811D01*
X0269326Y0197811D02*
X0269326Y0196611D01*
X0274176Y0196611D02*
X0274176Y0197811D01*
X0278326Y0197811D02*
X0278326Y0196611D01*
X0286276Y0192711D02*
X0298276Y0192711D01*
X0298276Y0201711D02*
X0286276Y0201711D01*
X0287488Y0200873D02*
X0287490Y0200920D01*
X0287496Y0200966D01*
X0287505Y0201012D01*
X0287519Y0201056D01*
X0287536Y0201100D01*
X0287557Y0201141D01*
X0287581Y0201181D01*
X0287608Y0201219D01*
X0287639Y0201254D01*
X0287672Y0201287D01*
X0287708Y0201317D01*
X0287747Y0201343D01*
X0287787Y0201367D01*
X0287829Y0201386D01*
X0287873Y0201403D01*
X0287918Y0201415D01*
X0287964Y0201424D01*
X0288010Y0201429D01*
X0288057Y0201430D01*
X0288103Y0201427D01*
X0288149Y0201420D01*
X0288195Y0201409D01*
X0288239Y0201395D01*
X0288282Y0201377D01*
X0288323Y0201355D01*
X0288363Y0201330D01*
X0288400Y0201302D01*
X0288435Y0201271D01*
X0288467Y0201237D01*
X0288496Y0201200D01*
X0288521Y0201162D01*
X0288544Y0201121D01*
X0288563Y0201078D01*
X0288578Y0201034D01*
X0288590Y0200989D01*
X0288598Y0200943D01*
X0288602Y0200896D01*
X0288602Y0200850D01*
X0288598Y0200803D01*
X0288590Y0200757D01*
X0288578Y0200712D01*
X0288563Y0200668D01*
X0288544Y0200625D01*
X0288521Y0200584D01*
X0288496Y0200546D01*
X0288467Y0200509D01*
X0288435Y0200475D01*
X0288400Y0200444D01*
X0288363Y0200416D01*
X0288324Y0200391D01*
X0288282Y0200369D01*
X0288239Y0200351D01*
X0288195Y0200337D01*
X0288149Y0200326D01*
X0288103Y0200319D01*
X0288057Y0200316D01*
X0288010Y0200317D01*
X0287964Y0200322D01*
X0287918Y0200331D01*
X0287873Y0200343D01*
X0287829Y0200360D01*
X0287787Y0200379D01*
X0287747Y0200403D01*
X0287708Y0200429D01*
X0287672Y0200459D01*
X0287639Y0200492D01*
X0287608Y0200527D01*
X0287581Y0200565D01*
X0287557Y0200605D01*
X0287536Y0200646D01*
X0287519Y0200690D01*
X0287505Y0200734D01*
X0287496Y0200780D01*
X0287490Y0200826D01*
X0287488Y0200873D01*
X0284476Y0204911D02*
X0298076Y0204911D01*
X0326276Y0220211D02*
X0326702Y0219486D01*
X0327110Y0218751D01*
X0327500Y0218006D01*
X0327873Y0217253D01*
X0328227Y0216490D01*
X0328562Y0215719D01*
X0328879Y0214941D01*
X0329177Y0214154D01*
X0329456Y0213361D01*
X0329716Y0212562D01*
X0329956Y0211756D01*
X0330177Y0210945D01*
X0330378Y0210128D01*
X0330559Y0209307D01*
X0330721Y0208482D01*
X0330862Y0207654D01*
X0330983Y0206822D01*
X0331085Y0205987D01*
X0331166Y0205150D01*
X0331227Y0204312D01*
X0331267Y0203472D01*
X0331287Y0202631D01*
X0331287Y0201791D01*
X0331267Y0200950D01*
X0331227Y0200110D01*
X0331166Y0199272D01*
X0331085Y0198435D01*
X0330983Y0197600D01*
X0330862Y0196768D01*
X0330721Y0195940D01*
X0330559Y0195115D01*
X0330378Y0194294D01*
X0330177Y0193477D01*
X0329956Y0192666D01*
X0329716Y0191860D01*
X0329456Y0191061D01*
X0329177Y0190268D01*
X0328879Y0189481D01*
X0328562Y0188703D01*
X0328227Y0187932D01*
X0327873Y0187169D01*
X0327500Y0186416D01*
X0327110Y0185671D01*
X0326702Y0184936D01*
X0326276Y0184211D01*
X0298076Y0217511D02*
X0284476Y0217511D01*
X0293257Y0227785D02*
X0293259Y0227920D01*
X0293265Y0228055D01*
X0293275Y0228190D01*
X0293289Y0228324D01*
X0293306Y0228458D01*
X0293328Y0228591D01*
X0293354Y0228724D01*
X0293383Y0228856D01*
X0293417Y0228987D01*
X0293454Y0229117D01*
X0293495Y0229245D01*
X0293540Y0229373D01*
X0293588Y0229499D01*
X0293640Y0229623D01*
X0293696Y0229746D01*
X0293755Y0229868D01*
X0293818Y0229987D01*
X0293885Y0230105D01*
X0293955Y0230221D01*
X0294028Y0230334D01*
X0294104Y0230445D01*
X0294184Y0230555D01*
X0294267Y0230661D01*
X0294353Y0230765D01*
X0294442Y0230867D01*
X0294534Y0230966D01*
X0294629Y0231062D01*
X0294726Y0231156D01*
X0294826Y0231246D01*
X0294929Y0231334D01*
X0295035Y0231418D01*
X0295143Y0231499D01*
X0295253Y0231577D01*
X0295365Y0231652D01*
X0295480Y0231724D01*
X0295597Y0231792D01*
X0295715Y0231857D01*
X0295836Y0231918D01*
X0295958Y0231975D01*
X0296082Y0232029D01*
X0296207Y0232080D01*
X0296334Y0232126D01*
X0296462Y0232169D01*
X0296591Y0232208D01*
X0296722Y0232243D01*
X0296853Y0232275D01*
X0296985Y0232302D01*
X0297118Y0232326D01*
X0297252Y0232346D01*
X0297386Y0232362D01*
X0297521Y0232374D01*
X0297655Y0232382D01*
X0297790Y0232386D01*
X0297926Y0232386D01*
X0298061Y0232382D01*
X0298195Y0232374D01*
X0298330Y0232362D01*
X0298464Y0232346D01*
X0298598Y0232326D01*
X0298731Y0232302D01*
X0298863Y0232275D01*
X0298994Y0232243D01*
X0299125Y0232208D01*
X0299254Y0232169D01*
X0299382Y0232126D01*
X0299509Y0232080D01*
X0299634Y0232029D01*
X0299758Y0231975D01*
X0299880Y0231918D01*
X0300001Y0231857D01*
X0300119Y0231792D01*
X0300236Y0231724D01*
X0300351Y0231652D01*
X0300463Y0231577D01*
X0300573Y0231499D01*
X0300681Y0231418D01*
X0300787Y0231334D01*
X0300890Y0231246D01*
X0300990Y0231156D01*
X0301087Y0231062D01*
X0301182Y0230966D01*
X0301274Y0230867D01*
X0301363Y0230765D01*
X0301449Y0230661D01*
X0301532Y0230555D01*
X0301612Y0230445D01*
X0301688Y0230334D01*
X0301761Y0230221D01*
X0301831Y0230105D01*
X0301898Y0229987D01*
X0301961Y0229868D01*
X0302020Y0229746D01*
X0302076Y0229623D01*
X0302128Y0229499D01*
X0302176Y0229373D01*
X0302221Y0229245D01*
X0302262Y0229117D01*
X0302299Y0228987D01*
X0302333Y0228856D01*
X0302362Y0228724D01*
X0302388Y0228591D01*
X0302410Y0228458D01*
X0302427Y0228324D01*
X0302441Y0228190D01*
X0302451Y0228055D01*
X0302457Y0227920D01*
X0302459Y0227785D01*
X0302457Y0227650D01*
X0302451Y0227515D01*
X0302441Y0227380D01*
X0302427Y0227246D01*
X0302410Y0227112D01*
X0302388Y0226979D01*
X0302362Y0226846D01*
X0302333Y0226714D01*
X0302299Y0226583D01*
X0302262Y0226453D01*
X0302221Y0226325D01*
X0302176Y0226197D01*
X0302128Y0226071D01*
X0302076Y0225947D01*
X0302020Y0225824D01*
X0301961Y0225702D01*
X0301898Y0225583D01*
X0301831Y0225465D01*
X0301761Y0225349D01*
X0301688Y0225236D01*
X0301612Y0225125D01*
X0301532Y0225015D01*
X0301449Y0224909D01*
X0301363Y0224805D01*
X0301274Y0224703D01*
X0301182Y0224604D01*
X0301087Y0224508D01*
X0300990Y0224414D01*
X0300890Y0224324D01*
X0300787Y0224236D01*
X0300681Y0224152D01*
X0300573Y0224071D01*
X0300463Y0223993D01*
X0300351Y0223918D01*
X0300236Y0223846D01*
X0300119Y0223778D01*
X0300001Y0223713D01*
X0299880Y0223652D01*
X0299758Y0223595D01*
X0299634Y0223541D01*
X0299509Y0223490D01*
X0299382Y0223444D01*
X0299254Y0223401D01*
X0299125Y0223362D01*
X0298994Y0223327D01*
X0298863Y0223295D01*
X0298731Y0223268D01*
X0298598Y0223244D01*
X0298464Y0223224D01*
X0298330Y0223208D01*
X0298195Y0223196D01*
X0298061Y0223188D01*
X0297926Y0223184D01*
X0297790Y0223184D01*
X0297655Y0223188D01*
X0297521Y0223196D01*
X0297386Y0223208D01*
X0297252Y0223224D01*
X0297118Y0223244D01*
X0296985Y0223268D01*
X0296853Y0223295D01*
X0296722Y0223327D01*
X0296591Y0223362D01*
X0296462Y0223401D01*
X0296334Y0223444D01*
X0296207Y0223490D01*
X0296082Y0223541D01*
X0295958Y0223595D01*
X0295836Y0223652D01*
X0295715Y0223713D01*
X0295597Y0223778D01*
X0295480Y0223846D01*
X0295365Y0223918D01*
X0295253Y0223993D01*
X0295143Y0224071D01*
X0295035Y0224152D01*
X0294929Y0224236D01*
X0294826Y0224324D01*
X0294726Y0224414D01*
X0294629Y0224508D01*
X0294534Y0224604D01*
X0294442Y0224703D01*
X0294353Y0224805D01*
X0294267Y0224909D01*
X0294184Y0225015D01*
X0294104Y0225125D01*
X0294028Y0225236D01*
X0293955Y0225349D01*
X0293885Y0225465D01*
X0293818Y0225583D01*
X0293755Y0225702D01*
X0293696Y0225824D01*
X0293640Y0225947D01*
X0293588Y0226071D01*
X0293540Y0226197D01*
X0293495Y0226325D01*
X0293454Y0226453D01*
X0293417Y0226583D01*
X0293383Y0226714D01*
X0293354Y0226846D01*
X0293328Y0226979D01*
X0293306Y0227112D01*
X0293289Y0227246D01*
X0293275Y0227380D01*
X0293265Y0227515D01*
X0293259Y0227650D01*
X0293257Y0227785D01*
X0294728Y0235311D02*
X0296328Y0235311D01*
X0296328Y0239111D02*
X0294728Y0239111D01*
X0296572Y0255400D02*
X0296574Y0255535D01*
X0296580Y0255670D01*
X0296590Y0255805D01*
X0296604Y0255939D01*
X0296621Y0256073D01*
X0296643Y0256206D01*
X0296669Y0256339D01*
X0296698Y0256471D01*
X0296732Y0256602D01*
X0296769Y0256732D01*
X0296810Y0256860D01*
X0296855Y0256988D01*
X0296903Y0257114D01*
X0296955Y0257238D01*
X0297011Y0257361D01*
X0297070Y0257483D01*
X0297133Y0257602D01*
X0297200Y0257720D01*
X0297270Y0257836D01*
X0297343Y0257949D01*
X0297419Y0258060D01*
X0297499Y0258170D01*
X0297582Y0258276D01*
X0297668Y0258380D01*
X0297757Y0258482D01*
X0297849Y0258581D01*
X0297944Y0258677D01*
X0298041Y0258771D01*
X0298141Y0258861D01*
X0298244Y0258949D01*
X0298350Y0259033D01*
X0298458Y0259114D01*
X0298568Y0259192D01*
X0298680Y0259267D01*
X0298795Y0259339D01*
X0298912Y0259407D01*
X0299030Y0259472D01*
X0299151Y0259533D01*
X0299273Y0259590D01*
X0299397Y0259644D01*
X0299522Y0259695D01*
X0299649Y0259741D01*
X0299777Y0259784D01*
X0299906Y0259823D01*
X0300037Y0259858D01*
X0300168Y0259890D01*
X0300300Y0259917D01*
X0300433Y0259941D01*
X0300567Y0259961D01*
X0300701Y0259977D01*
X0300836Y0259989D01*
X0300970Y0259997D01*
X0301105Y0260001D01*
X0301241Y0260001D01*
X0301376Y0259997D01*
X0301510Y0259989D01*
X0301645Y0259977D01*
X0301779Y0259961D01*
X0301913Y0259941D01*
X0302046Y0259917D01*
X0302178Y0259890D01*
X0302309Y0259858D01*
X0302440Y0259823D01*
X0302569Y0259784D01*
X0302697Y0259741D01*
X0302824Y0259695D01*
X0302949Y0259644D01*
X0303073Y0259590D01*
X0303195Y0259533D01*
X0303316Y0259472D01*
X0303434Y0259407D01*
X0303551Y0259339D01*
X0303666Y0259267D01*
X0303778Y0259192D01*
X0303888Y0259114D01*
X0303996Y0259033D01*
X0304102Y0258949D01*
X0304205Y0258861D01*
X0304305Y0258771D01*
X0304402Y0258677D01*
X0304497Y0258581D01*
X0304589Y0258482D01*
X0304678Y0258380D01*
X0304764Y0258276D01*
X0304847Y0258170D01*
X0304927Y0258060D01*
X0305003Y0257949D01*
X0305076Y0257836D01*
X0305146Y0257720D01*
X0305213Y0257602D01*
X0305276Y0257483D01*
X0305335Y0257361D01*
X0305391Y0257238D01*
X0305443Y0257114D01*
X0305491Y0256988D01*
X0305536Y0256860D01*
X0305577Y0256732D01*
X0305614Y0256602D01*
X0305648Y0256471D01*
X0305677Y0256339D01*
X0305703Y0256206D01*
X0305725Y0256073D01*
X0305742Y0255939D01*
X0305756Y0255805D01*
X0305766Y0255670D01*
X0305772Y0255535D01*
X0305774Y0255400D01*
X0305772Y0255265D01*
X0305766Y0255130D01*
X0305756Y0254995D01*
X0305742Y0254861D01*
X0305725Y0254727D01*
X0305703Y0254594D01*
X0305677Y0254461D01*
X0305648Y0254329D01*
X0305614Y0254198D01*
X0305577Y0254068D01*
X0305536Y0253940D01*
X0305491Y0253812D01*
X0305443Y0253686D01*
X0305391Y0253562D01*
X0305335Y0253439D01*
X0305276Y0253317D01*
X0305213Y0253198D01*
X0305146Y0253080D01*
X0305076Y0252964D01*
X0305003Y0252851D01*
X0304927Y0252740D01*
X0304847Y0252630D01*
X0304764Y0252524D01*
X0304678Y0252420D01*
X0304589Y0252318D01*
X0304497Y0252219D01*
X0304402Y0252123D01*
X0304305Y0252029D01*
X0304205Y0251939D01*
X0304102Y0251851D01*
X0303996Y0251767D01*
X0303888Y0251686D01*
X0303778Y0251608D01*
X0303666Y0251533D01*
X0303551Y0251461D01*
X0303434Y0251393D01*
X0303316Y0251328D01*
X0303195Y0251267D01*
X0303073Y0251210D01*
X0302949Y0251156D01*
X0302824Y0251105D01*
X0302697Y0251059D01*
X0302569Y0251016D01*
X0302440Y0250977D01*
X0302309Y0250942D01*
X0302178Y0250910D01*
X0302046Y0250883D01*
X0301913Y0250859D01*
X0301779Y0250839D01*
X0301645Y0250823D01*
X0301510Y0250811D01*
X0301376Y0250803D01*
X0301241Y0250799D01*
X0301105Y0250799D01*
X0300970Y0250803D01*
X0300836Y0250811D01*
X0300701Y0250823D01*
X0300567Y0250839D01*
X0300433Y0250859D01*
X0300300Y0250883D01*
X0300168Y0250910D01*
X0300037Y0250942D01*
X0299906Y0250977D01*
X0299777Y0251016D01*
X0299649Y0251059D01*
X0299522Y0251105D01*
X0299397Y0251156D01*
X0299273Y0251210D01*
X0299151Y0251267D01*
X0299030Y0251328D01*
X0298912Y0251393D01*
X0298795Y0251461D01*
X0298680Y0251533D01*
X0298568Y0251608D01*
X0298458Y0251686D01*
X0298350Y0251767D01*
X0298244Y0251851D01*
X0298141Y0251939D01*
X0298041Y0252029D01*
X0297944Y0252123D01*
X0297849Y0252219D01*
X0297757Y0252318D01*
X0297668Y0252420D01*
X0297582Y0252524D01*
X0297499Y0252630D01*
X0297419Y0252740D01*
X0297343Y0252851D01*
X0297270Y0252964D01*
X0297200Y0253080D01*
X0297133Y0253198D01*
X0297070Y0253317D01*
X0297011Y0253439D01*
X0296955Y0253562D01*
X0296903Y0253686D01*
X0296855Y0253812D01*
X0296810Y0253940D01*
X0296769Y0254068D01*
X0296732Y0254198D01*
X0296698Y0254329D01*
X0296669Y0254461D01*
X0296643Y0254594D01*
X0296621Y0254727D01*
X0296604Y0254861D01*
X0296590Y0254995D01*
X0296580Y0255130D01*
X0296574Y0255265D01*
X0296572Y0255400D01*
X0315928Y0254674D02*
X0315928Y0253274D01*
X0317228Y0253274D01*
X0321828Y0250674D02*
X0323128Y0250674D01*
X0323128Y0249274D01*
X0317228Y0243424D02*
X0315928Y0243424D01*
X0315928Y0244824D01*
X0321828Y0240824D02*
X0323128Y0240824D01*
X0323128Y0239424D01*
X0323128Y0259124D02*
X0323128Y0260524D01*
X0321828Y0260524D01*
X0317228Y0263124D02*
X0315928Y0263124D01*
X0315928Y0264524D01*
X0306028Y0265974D02*
X0306031Y0266228D01*
X0306040Y0266481D01*
X0306056Y0266735D01*
X0306077Y0266987D01*
X0306105Y0267240D01*
X0306138Y0267491D01*
X0306178Y0267742D01*
X0306224Y0267991D01*
X0306275Y0268240D01*
X0306333Y0268487D01*
X0306397Y0268732D01*
X0306466Y0268976D01*
X0306542Y0269219D01*
X0306623Y0269459D01*
X0306710Y0269697D01*
X0306803Y0269933D01*
X0306902Y0270167D01*
X0307006Y0270399D01*
X0307116Y0270628D01*
X0307231Y0270854D01*
X0307351Y0271077D01*
X0307477Y0271297D01*
X0307609Y0271514D01*
X0307745Y0271728D01*
X0307887Y0271939D01*
X0308033Y0272146D01*
X0308185Y0272349D01*
X0308341Y0272549D01*
X0308503Y0272745D01*
X0308669Y0272937D01*
X0308839Y0273125D01*
X0309014Y0273308D01*
X0309194Y0273488D01*
X0309377Y0273663D01*
X0309565Y0273833D01*
X0309757Y0273999D01*
X0309953Y0274161D01*
X0310153Y0274317D01*
X0310356Y0274469D01*
X0310563Y0274615D01*
X0310774Y0274757D01*
X0310988Y0274893D01*
X0311205Y0275025D01*
X0311425Y0275151D01*
X0311648Y0275271D01*
X0311874Y0275386D01*
X0312103Y0275496D01*
X0312335Y0275600D01*
X0312569Y0275699D01*
X0312805Y0275792D01*
X0313043Y0275879D01*
X0313283Y0275960D01*
X0313526Y0276036D01*
X0313770Y0276105D01*
X0314015Y0276169D01*
X0314262Y0276227D01*
X0314511Y0276278D01*
X0314760Y0276324D01*
X0315011Y0276364D01*
X0315262Y0276397D01*
X0315515Y0276425D01*
X0315767Y0276446D01*
X0316021Y0276462D01*
X0316274Y0276471D01*
X0316528Y0276474D01*
X0321828Y0270374D02*
X0323128Y0270374D01*
X0323128Y0268974D01*
X0196077Y0282597D02*
X0196077Y0283897D01*
X0193277Y0283897D02*
X0193277Y0282597D01*
X0188203Y0282597D02*
X0188203Y0283897D01*
X0185403Y0283897D02*
X0185403Y0282597D01*
X0154375Y0281489D02*
X0152775Y0281489D01*
X0152775Y0277689D02*
X0154375Y0277689D01*
X0137934Y0281407D02*
X0137936Y0281542D01*
X0137942Y0281677D01*
X0137952Y0281812D01*
X0137966Y0281946D01*
X0137983Y0282080D01*
X0138005Y0282213D01*
X0138031Y0282346D01*
X0138060Y0282478D01*
X0138094Y0282609D01*
X0138131Y0282739D01*
X0138172Y0282867D01*
X0138217Y0282995D01*
X0138265Y0283121D01*
X0138317Y0283245D01*
X0138373Y0283368D01*
X0138432Y0283490D01*
X0138495Y0283609D01*
X0138562Y0283727D01*
X0138632Y0283843D01*
X0138705Y0283956D01*
X0138781Y0284067D01*
X0138861Y0284177D01*
X0138944Y0284283D01*
X0139030Y0284387D01*
X0139119Y0284489D01*
X0139211Y0284588D01*
X0139306Y0284684D01*
X0139403Y0284778D01*
X0139503Y0284868D01*
X0139606Y0284956D01*
X0139712Y0285040D01*
X0139820Y0285121D01*
X0139930Y0285199D01*
X0140042Y0285274D01*
X0140157Y0285346D01*
X0140274Y0285414D01*
X0140392Y0285479D01*
X0140513Y0285540D01*
X0140635Y0285597D01*
X0140759Y0285651D01*
X0140884Y0285702D01*
X0141011Y0285748D01*
X0141139Y0285791D01*
X0141268Y0285830D01*
X0141399Y0285865D01*
X0141530Y0285897D01*
X0141662Y0285924D01*
X0141795Y0285948D01*
X0141929Y0285968D01*
X0142063Y0285984D01*
X0142198Y0285996D01*
X0142332Y0286004D01*
X0142467Y0286008D01*
X0142603Y0286008D01*
X0142738Y0286004D01*
X0142872Y0285996D01*
X0143007Y0285984D01*
X0143141Y0285968D01*
X0143275Y0285948D01*
X0143408Y0285924D01*
X0143540Y0285897D01*
X0143671Y0285865D01*
X0143802Y0285830D01*
X0143931Y0285791D01*
X0144059Y0285748D01*
X0144186Y0285702D01*
X0144311Y0285651D01*
X0144435Y0285597D01*
X0144557Y0285540D01*
X0144678Y0285479D01*
X0144796Y0285414D01*
X0144913Y0285346D01*
X0145028Y0285274D01*
X0145140Y0285199D01*
X0145250Y0285121D01*
X0145358Y0285040D01*
X0145464Y0284956D01*
X0145567Y0284868D01*
X0145667Y0284778D01*
X0145764Y0284684D01*
X0145859Y0284588D01*
X0145951Y0284489D01*
X0146040Y0284387D01*
X0146126Y0284283D01*
X0146209Y0284177D01*
X0146289Y0284067D01*
X0146365Y0283956D01*
X0146438Y0283843D01*
X0146508Y0283727D01*
X0146575Y0283609D01*
X0146638Y0283490D01*
X0146697Y0283368D01*
X0146753Y0283245D01*
X0146805Y0283121D01*
X0146853Y0282995D01*
X0146898Y0282867D01*
X0146939Y0282739D01*
X0146976Y0282609D01*
X0147010Y0282478D01*
X0147039Y0282346D01*
X0147065Y0282213D01*
X0147087Y0282080D01*
X0147104Y0281946D01*
X0147118Y0281812D01*
X0147128Y0281677D01*
X0147134Y0281542D01*
X0147136Y0281407D01*
X0147134Y0281272D01*
X0147128Y0281137D01*
X0147118Y0281002D01*
X0147104Y0280868D01*
X0147087Y0280734D01*
X0147065Y0280601D01*
X0147039Y0280468D01*
X0147010Y0280336D01*
X0146976Y0280205D01*
X0146939Y0280075D01*
X0146898Y0279947D01*
X0146853Y0279819D01*
X0146805Y0279693D01*
X0146753Y0279569D01*
X0146697Y0279446D01*
X0146638Y0279324D01*
X0146575Y0279205D01*
X0146508Y0279087D01*
X0146438Y0278971D01*
X0146365Y0278858D01*
X0146289Y0278747D01*
X0146209Y0278637D01*
X0146126Y0278531D01*
X0146040Y0278427D01*
X0145951Y0278325D01*
X0145859Y0278226D01*
X0145764Y0278130D01*
X0145667Y0278036D01*
X0145567Y0277946D01*
X0145464Y0277858D01*
X0145358Y0277774D01*
X0145250Y0277693D01*
X0145140Y0277615D01*
X0145028Y0277540D01*
X0144913Y0277468D01*
X0144796Y0277400D01*
X0144678Y0277335D01*
X0144557Y0277274D01*
X0144435Y0277217D01*
X0144311Y0277163D01*
X0144186Y0277112D01*
X0144059Y0277066D01*
X0143931Y0277023D01*
X0143802Y0276984D01*
X0143671Y0276949D01*
X0143540Y0276917D01*
X0143408Y0276890D01*
X0143275Y0276866D01*
X0143141Y0276846D01*
X0143007Y0276830D01*
X0142872Y0276818D01*
X0142738Y0276810D01*
X0142603Y0276806D01*
X0142467Y0276806D01*
X0142332Y0276810D01*
X0142198Y0276818D01*
X0142063Y0276830D01*
X0141929Y0276846D01*
X0141795Y0276866D01*
X0141662Y0276890D01*
X0141530Y0276917D01*
X0141399Y0276949D01*
X0141268Y0276984D01*
X0141139Y0277023D01*
X0141011Y0277066D01*
X0140884Y0277112D01*
X0140759Y0277163D01*
X0140635Y0277217D01*
X0140513Y0277274D01*
X0140392Y0277335D01*
X0140274Y0277400D01*
X0140157Y0277468D01*
X0140042Y0277540D01*
X0139930Y0277615D01*
X0139820Y0277693D01*
X0139712Y0277774D01*
X0139606Y0277858D01*
X0139503Y0277946D01*
X0139403Y0278036D01*
X0139306Y0278130D01*
X0139211Y0278226D01*
X0139119Y0278325D01*
X0139030Y0278427D01*
X0138944Y0278531D01*
X0138861Y0278637D01*
X0138781Y0278747D01*
X0138705Y0278858D01*
X0138632Y0278971D01*
X0138562Y0279087D01*
X0138495Y0279205D01*
X0138432Y0279324D01*
X0138373Y0279446D01*
X0138317Y0279569D01*
X0138265Y0279693D01*
X0138217Y0279819D01*
X0138172Y0279947D01*
X0138131Y0280075D01*
X0138094Y0280205D01*
X0138060Y0280336D01*
X0138031Y0280468D01*
X0138005Y0280601D01*
X0137983Y0280734D01*
X0137966Y0280868D01*
X0137952Y0281002D01*
X0137942Y0281137D01*
X0137936Y0281272D01*
X0137934Y0281407D01*
X0125965Y0279237D02*
X0124365Y0279237D01*
X0124365Y0275437D02*
X0125965Y0275437D01*
X0118380Y0267373D02*
X0118380Y0265773D01*
X0114580Y0265773D02*
X0114580Y0267373D01*
X0109916Y0268773D02*
X0109916Y0270373D01*
X0106116Y0270373D02*
X0106116Y0268773D01*
X0097433Y0262234D02*
X0096118Y0262234D01*
X0097433Y0262234D02*
X0097433Y0260919D01*
X0098970Y0259944D02*
X0098970Y0258744D01*
X0101770Y0258744D02*
X0101770Y0259944D01*
X0097433Y0251344D02*
X0097433Y0250030D01*
X0096118Y0250030D01*
X0088118Y0250030D02*
X0086803Y0250030D01*
X0086803Y0251344D01*
X0079802Y0254012D02*
X0079802Y0255212D01*
X0077002Y0255212D02*
X0077002Y0254012D01*
X0074707Y0253910D02*
X0074707Y0255110D01*
X0071907Y0255110D02*
X0071907Y0253910D01*
X0065106Y0253356D02*
X0058106Y0253356D01*
X0058106Y0258356D02*
X0065106Y0258356D01*
X0066257Y0246683D02*
X0066259Y0246818D01*
X0066265Y0246953D01*
X0066275Y0247088D01*
X0066289Y0247222D01*
X0066306Y0247356D01*
X0066328Y0247489D01*
X0066354Y0247622D01*
X0066383Y0247754D01*
X0066417Y0247885D01*
X0066454Y0248015D01*
X0066495Y0248143D01*
X0066540Y0248271D01*
X0066588Y0248397D01*
X0066640Y0248521D01*
X0066696Y0248644D01*
X0066755Y0248766D01*
X0066818Y0248885D01*
X0066885Y0249003D01*
X0066955Y0249119D01*
X0067028Y0249232D01*
X0067104Y0249343D01*
X0067184Y0249453D01*
X0067267Y0249559D01*
X0067353Y0249663D01*
X0067442Y0249765D01*
X0067534Y0249864D01*
X0067629Y0249960D01*
X0067726Y0250054D01*
X0067826Y0250144D01*
X0067929Y0250232D01*
X0068035Y0250316D01*
X0068143Y0250397D01*
X0068253Y0250475D01*
X0068365Y0250550D01*
X0068480Y0250622D01*
X0068597Y0250690D01*
X0068715Y0250755D01*
X0068836Y0250816D01*
X0068958Y0250873D01*
X0069082Y0250927D01*
X0069207Y0250978D01*
X0069334Y0251024D01*
X0069462Y0251067D01*
X0069591Y0251106D01*
X0069722Y0251141D01*
X0069853Y0251173D01*
X0069985Y0251200D01*
X0070118Y0251224D01*
X0070252Y0251244D01*
X0070386Y0251260D01*
X0070521Y0251272D01*
X0070655Y0251280D01*
X0070790Y0251284D01*
X0070926Y0251284D01*
X0071061Y0251280D01*
X0071195Y0251272D01*
X0071330Y0251260D01*
X0071464Y0251244D01*
X0071598Y0251224D01*
X0071731Y0251200D01*
X0071863Y0251173D01*
X0071994Y0251141D01*
X0072125Y0251106D01*
X0072254Y0251067D01*
X0072382Y0251024D01*
X0072509Y0250978D01*
X0072634Y0250927D01*
X0072758Y0250873D01*
X0072880Y0250816D01*
X0073001Y0250755D01*
X0073119Y0250690D01*
X0073236Y0250622D01*
X0073351Y0250550D01*
X0073463Y0250475D01*
X0073573Y0250397D01*
X0073681Y0250316D01*
X0073787Y0250232D01*
X0073890Y0250144D01*
X0073990Y0250054D01*
X0074087Y0249960D01*
X0074182Y0249864D01*
X0074274Y0249765D01*
X0074363Y0249663D01*
X0074449Y0249559D01*
X0074532Y0249453D01*
X0074612Y0249343D01*
X0074688Y0249232D01*
X0074761Y0249119D01*
X0074831Y0249003D01*
X0074898Y0248885D01*
X0074961Y0248766D01*
X0075020Y0248644D01*
X0075076Y0248521D01*
X0075128Y0248397D01*
X0075176Y0248271D01*
X0075221Y0248143D01*
X0075262Y0248015D01*
X0075299Y0247885D01*
X0075333Y0247754D01*
X0075362Y0247622D01*
X0075388Y0247489D01*
X0075410Y0247356D01*
X0075427Y0247222D01*
X0075441Y0247088D01*
X0075451Y0246953D01*
X0075457Y0246818D01*
X0075459Y0246683D01*
X0075457Y0246548D01*
X0075451Y0246413D01*
X0075441Y0246278D01*
X0075427Y0246144D01*
X0075410Y0246010D01*
X0075388Y0245877D01*
X0075362Y0245744D01*
X0075333Y0245612D01*
X0075299Y0245481D01*
X0075262Y0245351D01*
X0075221Y0245223D01*
X0075176Y0245095D01*
X0075128Y0244969D01*
X0075076Y0244845D01*
X0075020Y0244722D01*
X0074961Y0244600D01*
X0074898Y0244481D01*
X0074831Y0244363D01*
X0074761Y0244247D01*
X0074688Y0244134D01*
X0074612Y0244023D01*
X0074532Y0243913D01*
X0074449Y0243807D01*
X0074363Y0243703D01*
X0074274Y0243601D01*
X0074182Y0243502D01*
X0074087Y0243406D01*
X0073990Y0243312D01*
X0073890Y0243222D01*
X0073787Y0243134D01*
X0073681Y0243050D01*
X0073573Y0242969D01*
X0073463Y0242891D01*
X0073351Y0242816D01*
X0073236Y0242744D01*
X0073119Y0242676D01*
X0073001Y0242611D01*
X0072880Y0242550D01*
X0072758Y0242493D01*
X0072634Y0242439D01*
X0072509Y0242388D01*
X0072382Y0242342D01*
X0072254Y0242299D01*
X0072125Y0242260D01*
X0071994Y0242225D01*
X0071863Y0242193D01*
X0071731Y0242166D01*
X0071598Y0242142D01*
X0071464Y0242122D01*
X0071330Y0242106D01*
X0071195Y0242094D01*
X0071061Y0242086D01*
X0070926Y0242082D01*
X0070790Y0242082D01*
X0070655Y0242086D01*
X0070521Y0242094D01*
X0070386Y0242106D01*
X0070252Y0242122D01*
X0070118Y0242142D01*
X0069985Y0242166D01*
X0069853Y0242193D01*
X0069722Y0242225D01*
X0069591Y0242260D01*
X0069462Y0242299D01*
X0069334Y0242342D01*
X0069207Y0242388D01*
X0069082Y0242439D01*
X0068958Y0242493D01*
X0068836Y0242550D01*
X0068715Y0242611D01*
X0068597Y0242676D01*
X0068480Y0242744D01*
X0068365Y0242816D01*
X0068253Y0242891D01*
X0068143Y0242969D01*
X0068035Y0243050D01*
X0067929Y0243134D01*
X0067826Y0243222D01*
X0067726Y0243312D01*
X0067629Y0243406D01*
X0067534Y0243502D01*
X0067442Y0243601D01*
X0067353Y0243703D01*
X0067267Y0243807D01*
X0067184Y0243913D01*
X0067104Y0244023D01*
X0067028Y0244134D01*
X0066955Y0244247D01*
X0066885Y0244363D01*
X0066818Y0244481D01*
X0066755Y0244600D01*
X0066696Y0244722D01*
X0066640Y0244845D01*
X0066588Y0244969D01*
X0066540Y0245095D01*
X0066495Y0245223D01*
X0066454Y0245351D01*
X0066417Y0245481D01*
X0066383Y0245612D01*
X0066354Y0245744D01*
X0066328Y0245877D01*
X0066306Y0246010D01*
X0066289Y0246144D01*
X0066275Y0246278D01*
X0066265Y0246413D01*
X0066259Y0246548D01*
X0066257Y0246683D01*
X0058402Y0241167D02*
X0055902Y0241167D01*
X0055902Y0238667D01*
X0082844Y0261437D02*
X0082844Y0262637D01*
X0085644Y0262637D02*
X0085644Y0261437D01*
X0086803Y0260919D02*
X0086803Y0262234D01*
X0088118Y0262234D01*
X0090402Y0241167D02*
X0092902Y0241167D01*
X0092902Y0238667D01*
X0107211Y0228500D02*
X0108411Y0228500D01*
X0108411Y0225700D02*
X0107211Y0225700D01*
X0107306Y0223532D02*
X0108506Y0223532D01*
X0108506Y0220732D02*
X0107306Y0220732D01*
X0107206Y0216579D02*
X0108506Y0216579D01*
X0108506Y0213779D02*
X0107206Y0213779D01*
X0111483Y0204087D02*
X0113083Y0204087D01*
X0113083Y0200287D02*
X0111483Y0200287D01*
X0111483Y0195622D02*
X0113083Y0195622D01*
X0113083Y0191822D02*
X0111483Y0191822D01*
X0110819Y0178770D02*
X0110819Y0177770D01*
X0110891Y0177794D01*
X0110964Y0177813D01*
X0111038Y0177830D01*
X0111113Y0177842D01*
X0111188Y0177850D01*
X0111264Y0177855D01*
X0111339Y0177856D01*
X0111415Y0177853D01*
X0111490Y0177846D01*
X0111565Y0177836D01*
X0111640Y0177821D01*
X0111713Y0177803D01*
X0111786Y0177782D01*
X0111857Y0177756D01*
X0111927Y0177727D01*
X0111995Y0177695D01*
X0112062Y0177659D01*
X0112127Y0177620D01*
X0112190Y0177578D01*
X0112250Y0177533D01*
X0112308Y0177484D01*
X0112364Y0177433D01*
X0112417Y0177379D01*
X0112467Y0177322D01*
X0112515Y0177263D01*
X0112559Y0177202D01*
X0112600Y0177138D01*
X0112638Y0177073D01*
X0112672Y0177005D01*
X0112704Y0176936D01*
X0112731Y0176866D01*
X0112755Y0176794D01*
X0112775Y0176721D01*
X0112792Y0176647D01*
X0112805Y0176573D01*
X0112814Y0176498D01*
X0112819Y0176422D01*
X0112821Y0176346D01*
X0112819Y0176271D01*
X0112819Y0176270D02*
X0112821Y0176195D01*
X0112819Y0176119D01*
X0112814Y0176043D01*
X0112805Y0175968D01*
X0112792Y0175894D01*
X0112775Y0175820D01*
X0112755Y0175747D01*
X0112731Y0175675D01*
X0112704Y0175605D01*
X0112672Y0175536D01*
X0112638Y0175468D01*
X0112600Y0175403D01*
X0112559Y0175339D01*
X0112515Y0175278D01*
X0112467Y0175219D01*
X0112417Y0175162D01*
X0112364Y0175108D01*
X0112308Y0175057D01*
X0112250Y0175008D01*
X0112190Y0174963D01*
X0112127Y0174921D01*
X0112062Y0174882D01*
X0111995Y0174846D01*
X0111927Y0174814D01*
X0111857Y0174785D01*
X0111786Y0174759D01*
X0111713Y0174738D01*
X0111640Y0174720D01*
X0111565Y0174705D01*
X0111490Y0174695D01*
X0111415Y0174688D01*
X0111339Y0174685D01*
X0111264Y0174686D01*
X0111188Y0174691D01*
X0111113Y0174699D01*
X0111038Y0174711D01*
X0110964Y0174728D01*
X0110891Y0174747D01*
X0110819Y0174771D01*
X0110819Y0174770D02*
X0110790Y0174782D01*
X0110763Y0174797D01*
X0110738Y0174816D01*
X0110715Y0174837D01*
X0110695Y0174861D01*
X0110678Y0174887D01*
X0110664Y0174914D01*
X0110653Y0174943D01*
X0110646Y0174974D01*
X0110642Y0175004D01*
X0110642Y0175036D01*
X0110646Y0175066D01*
X0110653Y0175097D01*
X0110664Y0175126D01*
X0110678Y0175153D01*
X0110695Y0175179D01*
X0110715Y0175203D01*
X0110738Y0175224D01*
X0110763Y0175243D01*
X0110790Y0175258D01*
X0110819Y0175270D01*
X0110891Y0175294D01*
X0110964Y0175313D01*
X0111038Y0175330D01*
X0111113Y0175342D01*
X0111188Y0175350D01*
X0111264Y0175355D01*
X0111339Y0175356D01*
X0111415Y0175353D01*
X0111490Y0175346D01*
X0111565Y0175336D01*
X0111640Y0175321D01*
X0111713Y0175303D01*
X0111786Y0175282D01*
X0111857Y0175256D01*
X0111927Y0175227D01*
X0111995Y0175195D01*
X0112062Y0175159D01*
X0112127Y0175120D01*
X0112190Y0175078D01*
X0112250Y0175033D01*
X0112308Y0174984D01*
X0112364Y0174933D01*
X0112417Y0174879D01*
X0112467Y0174822D01*
X0112515Y0174763D01*
X0112559Y0174702D01*
X0112600Y0174638D01*
X0112638Y0174573D01*
X0112672Y0174505D01*
X0112704Y0174436D01*
X0112731Y0174366D01*
X0112755Y0174294D01*
X0112775Y0174221D01*
X0112792Y0174147D01*
X0112805Y0174073D01*
X0112814Y0173998D01*
X0112819Y0173922D01*
X0112821Y0173846D01*
X0112819Y0173771D01*
X0112819Y0173770D02*
X0112821Y0173695D01*
X0112819Y0173619D01*
X0112814Y0173543D01*
X0112805Y0173468D01*
X0112792Y0173394D01*
X0112775Y0173320D01*
X0112755Y0173247D01*
X0112731Y0173175D01*
X0112704Y0173105D01*
X0112672Y0173036D01*
X0112638Y0172968D01*
X0112600Y0172903D01*
X0112559Y0172839D01*
X0112515Y0172778D01*
X0112467Y0172719D01*
X0112417Y0172662D01*
X0112364Y0172608D01*
X0112308Y0172557D01*
X0112250Y0172508D01*
X0112190Y0172463D01*
X0112127Y0172421D01*
X0112062Y0172382D01*
X0111995Y0172346D01*
X0111927Y0172314D01*
X0111857Y0172285D01*
X0111786Y0172259D01*
X0111713Y0172238D01*
X0111640Y0172220D01*
X0111565Y0172205D01*
X0111490Y0172195D01*
X0111415Y0172188D01*
X0111339Y0172185D01*
X0111264Y0172186D01*
X0111188Y0172191D01*
X0111113Y0172199D01*
X0111038Y0172211D01*
X0110964Y0172228D01*
X0110891Y0172247D01*
X0110819Y0172271D01*
X0089278Y0184168D02*
X0089278Y0185468D01*
X0086478Y0185468D02*
X0086478Y0184168D01*
X0075656Y0181687D02*
X0071556Y0181687D01*
X0070896Y0195004D02*
X0070896Y0196204D01*
X0068096Y0196204D02*
X0068096Y0195004D01*
X0071581Y0197258D02*
X0071583Y0197360D01*
X0071589Y0197461D01*
X0071599Y0197563D01*
X0071613Y0197663D01*
X0071630Y0197764D01*
X0071652Y0197863D01*
X0071678Y0197962D01*
X0071707Y0198059D01*
X0071740Y0198155D01*
X0071777Y0198250D01*
X0071818Y0198344D01*
X0071862Y0198435D01*
X0071910Y0198525D01*
X0071961Y0198613D01*
X0072015Y0198699D01*
X0072073Y0198783D01*
X0072134Y0198864D01*
X0072198Y0198943D01*
X0072266Y0199019D01*
X0072336Y0199093D01*
X0072409Y0199164D01*
X0072485Y0199232D01*
X0072563Y0199297D01*
X0072644Y0199359D01*
X0072727Y0199418D01*
X0072812Y0199473D01*
X0072900Y0199525D01*
X0072989Y0199574D01*
X0073080Y0199619D01*
X0073173Y0199660D01*
X0073268Y0199698D01*
X0073364Y0199732D01*
X0073461Y0199762D01*
X0073559Y0199789D01*
X0073658Y0199811D01*
X0073758Y0199830D01*
X0073859Y0199845D01*
X0073960Y0199856D01*
X0074062Y0199863D01*
X0074164Y0199866D01*
X0074265Y0199865D01*
X0074367Y0199860D01*
X0074468Y0199851D01*
X0074569Y0199838D01*
X0074670Y0199821D01*
X0074769Y0199801D01*
X0074868Y0199776D01*
X0074966Y0199748D01*
X0075062Y0199715D01*
X0075158Y0199679D01*
X0075251Y0199640D01*
X0075343Y0199597D01*
X0075434Y0199550D01*
X0075522Y0199499D01*
X0075609Y0199446D01*
X0075693Y0199389D01*
X0075775Y0199328D01*
X0075855Y0199265D01*
X0075932Y0199198D01*
X0076006Y0199129D01*
X0076078Y0199057D01*
X0076146Y0198982D01*
X0076212Y0198904D01*
X0076275Y0198824D01*
X0076334Y0198741D01*
X0076390Y0198656D01*
X0076443Y0198569D01*
X0076493Y0198480D01*
X0076539Y0198390D01*
X0076581Y0198297D01*
X0076620Y0198203D01*
X0076655Y0198107D01*
X0076686Y0198010D01*
X0076714Y0197912D01*
X0076737Y0197814D01*
X0076757Y0197714D01*
X0076773Y0197613D01*
X0076785Y0197512D01*
X0076793Y0197411D01*
X0076797Y0197309D01*
X0076797Y0197207D01*
X0076793Y0197105D01*
X0076785Y0197004D01*
X0076773Y0196903D01*
X0076757Y0196802D01*
X0076737Y0196702D01*
X0076714Y0196604D01*
X0076686Y0196506D01*
X0076655Y0196409D01*
X0076620Y0196313D01*
X0076581Y0196219D01*
X0076539Y0196126D01*
X0076493Y0196036D01*
X0076443Y0195947D01*
X0076390Y0195860D01*
X0076334Y0195775D01*
X0076275Y0195692D01*
X0076212Y0195612D01*
X0076146Y0195534D01*
X0076078Y0195459D01*
X0076006Y0195387D01*
X0075932Y0195318D01*
X0075855Y0195251D01*
X0075775Y0195188D01*
X0075693Y0195127D01*
X0075609Y0195070D01*
X0075522Y0195017D01*
X0075434Y0194966D01*
X0075343Y0194919D01*
X0075251Y0194876D01*
X0075158Y0194837D01*
X0075062Y0194801D01*
X0074966Y0194768D01*
X0074868Y0194740D01*
X0074769Y0194715D01*
X0074670Y0194695D01*
X0074569Y0194678D01*
X0074468Y0194665D01*
X0074367Y0194656D01*
X0074265Y0194651D01*
X0074164Y0194650D01*
X0074062Y0194653D01*
X0073960Y0194660D01*
X0073859Y0194671D01*
X0073758Y0194686D01*
X0073658Y0194705D01*
X0073559Y0194727D01*
X0073461Y0194754D01*
X0073364Y0194784D01*
X0073268Y0194818D01*
X0073173Y0194856D01*
X0073080Y0194897D01*
X0072989Y0194942D01*
X0072900Y0194991D01*
X0072812Y0195043D01*
X0072727Y0195098D01*
X0072644Y0195157D01*
X0072563Y0195219D01*
X0072485Y0195284D01*
X0072409Y0195352D01*
X0072336Y0195423D01*
X0072266Y0195497D01*
X0072198Y0195573D01*
X0072134Y0195652D01*
X0072073Y0195733D01*
X0072015Y0195817D01*
X0071961Y0195903D01*
X0071910Y0195991D01*
X0071862Y0196081D01*
X0071818Y0196172D01*
X0071777Y0196266D01*
X0071740Y0196361D01*
X0071707Y0196457D01*
X0071678Y0196554D01*
X0071652Y0196653D01*
X0071630Y0196752D01*
X0071613Y0196853D01*
X0071599Y0196953D01*
X0071589Y0197055D01*
X0071583Y0197156D01*
X0071581Y0197258D01*
X0077450Y0196385D02*
X0077450Y0195185D01*
X0080250Y0195185D02*
X0080250Y0196385D01*
X0088101Y0197211D02*
X0088103Y0197313D01*
X0088109Y0197414D01*
X0088119Y0197516D01*
X0088133Y0197616D01*
X0088150Y0197717D01*
X0088172Y0197816D01*
X0088198Y0197915D01*
X0088227Y0198012D01*
X0088260Y0198108D01*
X0088297Y0198203D01*
X0088338Y0198297D01*
X0088382Y0198388D01*
X0088430Y0198478D01*
X0088481Y0198566D01*
X0088535Y0198652D01*
X0088593Y0198736D01*
X0088654Y0198817D01*
X0088718Y0198896D01*
X0088786Y0198972D01*
X0088856Y0199046D01*
X0088929Y0199117D01*
X0089005Y0199185D01*
X0089083Y0199250D01*
X0089164Y0199312D01*
X0089247Y0199371D01*
X0089332Y0199426D01*
X0089420Y0199478D01*
X0089509Y0199527D01*
X0089600Y0199572D01*
X0089693Y0199613D01*
X0089788Y0199651D01*
X0089884Y0199685D01*
X0089981Y0199715D01*
X0090079Y0199742D01*
X0090178Y0199764D01*
X0090278Y0199783D01*
X0090379Y0199798D01*
X0090480Y0199809D01*
X0090582Y0199816D01*
X0090684Y0199819D01*
X0090785Y0199818D01*
X0090887Y0199813D01*
X0090988Y0199804D01*
X0091089Y0199791D01*
X0091190Y0199774D01*
X0091289Y0199754D01*
X0091388Y0199729D01*
X0091486Y0199701D01*
X0091582Y0199668D01*
X0091678Y0199632D01*
X0091771Y0199593D01*
X0091863Y0199550D01*
X0091954Y0199503D01*
X0092042Y0199452D01*
X0092129Y0199399D01*
X0092213Y0199342D01*
X0092295Y0199281D01*
X0092375Y0199218D01*
X0092452Y0199151D01*
X0092526Y0199082D01*
X0092598Y0199010D01*
X0092666Y0198935D01*
X0092732Y0198857D01*
X0092795Y0198777D01*
X0092854Y0198694D01*
X0092910Y0198609D01*
X0092963Y0198522D01*
X0093013Y0198433D01*
X0093059Y0198343D01*
X0093101Y0198250D01*
X0093140Y0198156D01*
X0093175Y0198060D01*
X0093206Y0197963D01*
X0093234Y0197865D01*
X0093257Y0197767D01*
X0093277Y0197667D01*
X0093293Y0197566D01*
X0093305Y0197465D01*
X0093313Y0197364D01*
X0093317Y0197262D01*
X0093317Y0197160D01*
X0093313Y0197058D01*
X0093305Y0196957D01*
X0093293Y0196856D01*
X0093277Y0196755D01*
X0093257Y0196655D01*
X0093234Y0196557D01*
X0093206Y0196459D01*
X0093175Y0196362D01*
X0093140Y0196266D01*
X0093101Y0196172D01*
X0093059Y0196079D01*
X0093013Y0195989D01*
X0092963Y0195900D01*
X0092910Y0195813D01*
X0092854Y0195728D01*
X0092795Y0195645D01*
X0092732Y0195565D01*
X0092666Y0195487D01*
X0092598Y0195412D01*
X0092526Y0195340D01*
X0092452Y0195271D01*
X0092375Y0195204D01*
X0092295Y0195141D01*
X0092213Y0195080D01*
X0092129Y0195023D01*
X0092042Y0194970D01*
X0091954Y0194919D01*
X0091863Y0194872D01*
X0091771Y0194829D01*
X0091678Y0194790D01*
X0091582Y0194754D01*
X0091486Y0194721D01*
X0091388Y0194693D01*
X0091289Y0194668D01*
X0091190Y0194648D01*
X0091089Y0194631D01*
X0090988Y0194618D01*
X0090887Y0194609D01*
X0090785Y0194604D01*
X0090684Y0194603D01*
X0090582Y0194606D01*
X0090480Y0194613D01*
X0090379Y0194624D01*
X0090278Y0194639D01*
X0090178Y0194658D01*
X0090079Y0194680D01*
X0089981Y0194707D01*
X0089884Y0194737D01*
X0089788Y0194771D01*
X0089693Y0194809D01*
X0089600Y0194850D01*
X0089509Y0194895D01*
X0089420Y0194944D01*
X0089332Y0194996D01*
X0089247Y0195051D01*
X0089164Y0195110D01*
X0089083Y0195172D01*
X0089005Y0195237D01*
X0088929Y0195305D01*
X0088856Y0195376D01*
X0088786Y0195450D01*
X0088718Y0195526D01*
X0088654Y0195605D01*
X0088593Y0195686D01*
X0088535Y0195770D01*
X0088481Y0195856D01*
X0088430Y0195944D01*
X0088382Y0196034D01*
X0088338Y0196125D01*
X0088297Y0196219D01*
X0088260Y0196314D01*
X0088227Y0196410D01*
X0088198Y0196507D01*
X0088172Y0196606D01*
X0088150Y0196705D01*
X0088133Y0196806D01*
X0088119Y0196906D01*
X0088109Y0197008D01*
X0088103Y0197109D01*
X0088101Y0197211D01*
X0090402Y0204167D02*
X0092902Y0204167D01*
X0092902Y0206667D01*
X0090863Y0205667D02*
X0090865Y0205713D01*
X0090871Y0205759D01*
X0090881Y0205805D01*
X0090895Y0205849D01*
X0090912Y0205892D01*
X0090933Y0205933D01*
X0090958Y0205972D01*
X0090986Y0206009D01*
X0091017Y0206044D01*
X0091051Y0206076D01*
X0091087Y0206104D01*
X0091126Y0206130D01*
X0091167Y0206152D01*
X0091209Y0206170D01*
X0091253Y0206185D01*
X0091298Y0206196D01*
X0091344Y0206203D01*
X0091390Y0206206D01*
X0091437Y0206205D01*
X0091483Y0206200D01*
X0091528Y0206191D01*
X0091573Y0206178D01*
X0091616Y0206162D01*
X0091658Y0206141D01*
X0091698Y0206118D01*
X0091735Y0206090D01*
X0091771Y0206060D01*
X0091803Y0206027D01*
X0091833Y0205991D01*
X0091859Y0205953D01*
X0091882Y0205913D01*
X0091901Y0205871D01*
X0091917Y0205827D01*
X0091929Y0205782D01*
X0091937Y0205736D01*
X0091941Y0205690D01*
X0091941Y0205644D01*
X0091937Y0205598D01*
X0091929Y0205552D01*
X0091917Y0205507D01*
X0091901Y0205463D01*
X0091882Y0205421D01*
X0091859Y0205381D01*
X0091833Y0205343D01*
X0091803Y0205307D01*
X0091771Y0205274D01*
X0091735Y0205244D01*
X0091698Y0205216D01*
X0091658Y0205193D01*
X0091616Y0205172D01*
X0091573Y0205156D01*
X0091528Y0205143D01*
X0091483Y0205134D01*
X0091437Y0205129D01*
X0091390Y0205128D01*
X0091344Y0205131D01*
X0091298Y0205138D01*
X0091253Y0205149D01*
X0091209Y0205164D01*
X0091167Y0205182D01*
X0091126Y0205204D01*
X0091087Y0205230D01*
X0091051Y0205258D01*
X0091017Y0205290D01*
X0090986Y0205325D01*
X0090958Y0205362D01*
X0090933Y0205401D01*
X0090912Y0205442D01*
X0090895Y0205485D01*
X0090881Y0205529D01*
X0090871Y0205575D01*
X0090865Y0205621D01*
X0090863Y0205667D01*
X0093101Y0197211D02*
X0093103Y0197313D01*
X0093109Y0197414D01*
X0093119Y0197516D01*
X0093133Y0197616D01*
X0093150Y0197717D01*
X0093172Y0197816D01*
X0093198Y0197915D01*
X0093227Y0198012D01*
X0093260Y0198108D01*
X0093297Y0198203D01*
X0093338Y0198297D01*
X0093382Y0198388D01*
X0093430Y0198478D01*
X0093481Y0198566D01*
X0093535Y0198652D01*
X0093593Y0198736D01*
X0093654Y0198817D01*
X0093718Y0198896D01*
X0093786Y0198972D01*
X0093856Y0199046D01*
X0093929Y0199117D01*
X0094005Y0199185D01*
X0094083Y0199250D01*
X0094164Y0199312D01*
X0094247Y0199371D01*
X0094332Y0199426D01*
X0094420Y0199478D01*
X0094509Y0199527D01*
X0094600Y0199572D01*
X0094693Y0199613D01*
X0094788Y0199651D01*
X0094884Y0199685D01*
X0094981Y0199715D01*
X0095079Y0199742D01*
X0095178Y0199764D01*
X0095278Y0199783D01*
X0095379Y0199798D01*
X0095480Y0199809D01*
X0095582Y0199816D01*
X0095684Y0199819D01*
X0095785Y0199818D01*
X0095887Y0199813D01*
X0095988Y0199804D01*
X0096089Y0199791D01*
X0096190Y0199774D01*
X0096289Y0199754D01*
X0096388Y0199729D01*
X0096486Y0199701D01*
X0096582Y0199668D01*
X0096678Y0199632D01*
X0096771Y0199593D01*
X0096863Y0199550D01*
X0096954Y0199503D01*
X0097042Y0199452D01*
X0097129Y0199399D01*
X0097213Y0199342D01*
X0097295Y0199281D01*
X0097375Y0199218D01*
X0097452Y0199151D01*
X0097526Y0199082D01*
X0097598Y0199010D01*
X0097666Y0198935D01*
X0097732Y0198857D01*
X0097795Y0198777D01*
X0097854Y0198694D01*
X0097910Y0198609D01*
X0097963Y0198522D01*
X0098013Y0198433D01*
X0098059Y0198343D01*
X0098101Y0198250D01*
X0098140Y0198156D01*
X0098175Y0198060D01*
X0098206Y0197963D01*
X0098234Y0197865D01*
X0098257Y0197767D01*
X0098277Y0197667D01*
X0098293Y0197566D01*
X0098305Y0197465D01*
X0098313Y0197364D01*
X0098317Y0197262D01*
X0098317Y0197160D01*
X0098313Y0197058D01*
X0098305Y0196957D01*
X0098293Y0196856D01*
X0098277Y0196755D01*
X0098257Y0196655D01*
X0098234Y0196557D01*
X0098206Y0196459D01*
X0098175Y0196362D01*
X0098140Y0196266D01*
X0098101Y0196172D01*
X0098059Y0196079D01*
X0098013Y0195989D01*
X0097963Y0195900D01*
X0097910Y0195813D01*
X0097854Y0195728D01*
X0097795Y0195645D01*
X0097732Y0195565D01*
X0097666Y0195487D01*
X0097598Y0195412D01*
X0097526Y0195340D01*
X0097452Y0195271D01*
X0097375Y0195204D01*
X0097295Y0195141D01*
X0097213Y0195080D01*
X0097129Y0195023D01*
X0097042Y0194970D01*
X0096954Y0194919D01*
X0096863Y0194872D01*
X0096771Y0194829D01*
X0096678Y0194790D01*
X0096582Y0194754D01*
X0096486Y0194721D01*
X0096388Y0194693D01*
X0096289Y0194668D01*
X0096190Y0194648D01*
X0096089Y0194631D01*
X0095988Y0194618D01*
X0095887Y0194609D01*
X0095785Y0194604D01*
X0095684Y0194603D01*
X0095582Y0194606D01*
X0095480Y0194613D01*
X0095379Y0194624D01*
X0095278Y0194639D01*
X0095178Y0194658D01*
X0095079Y0194680D01*
X0094981Y0194707D01*
X0094884Y0194737D01*
X0094788Y0194771D01*
X0094693Y0194809D01*
X0094600Y0194850D01*
X0094509Y0194895D01*
X0094420Y0194944D01*
X0094332Y0194996D01*
X0094247Y0195051D01*
X0094164Y0195110D01*
X0094083Y0195172D01*
X0094005Y0195237D01*
X0093929Y0195305D01*
X0093856Y0195376D01*
X0093786Y0195450D01*
X0093718Y0195526D01*
X0093654Y0195605D01*
X0093593Y0195686D01*
X0093535Y0195770D01*
X0093481Y0195856D01*
X0093430Y0195944D01*
X0093382Y0196034D01*
X0093338Y0196125D01*
X0093297Y0196219D01*
X0093260Y0196314D01*
X0093227Y0196410D01*
X0093198Y0196507D01*
X0093172Y0196606D01*
X0093150Y0196705D01*
X0093133Y0196806D01*
X0093119Y0196906D01*
X0093109Y0197008D01*
X0093103Y0197109D01*
X0093101Y0197211D01*
X0119601Y0222711D02*
X0119603Y0222813D01*
X0119609Y0222914D01*
X0119619Y0223016D01*
X0119633Y0223116D01*
X0119650Y0223217D01*
X0119672Y0223316D01*
X0119698Y0223415D01*
X0119727Y0223512D01*
X0119760Y0223608D01*
X0119797Y0223703D01*
X0119838Y0223797D01*
X0119882Y0223888D01*
X0119930Y0223978D01*
X0119981Y0224066D01*
X0120035Y0224152D01*
X0120093Y0224236D01*
X0120154Y0224317D01*
X0120218Y0224396D01*
X0120286Y0224472D01*
X0120356Y0224546D01*
X0120429Y0224617D01*
X0120505Y0224685D01*
X0120583Y0224750D01*
X0120664Y0224812D01*
X0120747Y0224871D01*
X0120832Y0224926D01*
X0120920Y0224978D01*
X0121009Y0225027D01*
X0121100Y0225072D01*
X0121193Y0225113D01*
X0121288Y0225151D01*
X0121384Y0225185D01*
X0121481Y0225215D01*
X0121579Y0225242D01*
X0121678Y0225264D01*
X0121778Y0225283D01*
X0121879Y0225298D01*
X0121980Y0225309D01*
X0122082Y0225316D01*
X0122184Y0225319D01*
X0122285Y0225318D01*
X0122387Y0225313D01*
X0122488Y0225304D01*
X0122589Y0225291D01*
X0122690Y0225274D01*
X0122789Y0225254D01*
X0122888Y0225229D01*
X0122986Y0225201D01*
X0123082Y0225168D01*
X0123178Y0225132D01*
X0123271Y0225093D01*
X0123363Y0225050D01*
X0123454Y0225003D01*
X0123542Y0224952D01*
X0123629Y0224899D01*
X0123713Y0224842D01*
X0123795Y0224781D01*
X0123875Y0224718D01*
X0123952Y0224651D01*
X0124026Y0224582D01*
X0124098Y0224510D01*
X0124166Y0224435D01*
X0124232Y0224357D01*
X0124295Y0224277D01*
X0124354Y0224194D01*
X0124410Y0224109D01*
X0124463Y0224022D01*
X0124513Y0223933D01*
X0124559Y0223843D01*
X0124601Y0223750D01*
X0124640Y0223656D01*
X0124675Y0223560D01*
X0124706Y0223463D01*
X0124734Y0223365D01*
X0124757Y0223267D01*
X0124777Y0223167D01*
X0124793Y0223066D01*
X0124805Y0222965D01*
X0124813Y0222864D01*
X0124817Y0222762D01*
X0124817Y0222660D01*
X0124813Y0222558D01*
X0124805Y0222457D01*
X0124793Y0222356D01*
X0124777Y0222255D01*
X0124757Y0222155D01*
X0124734Y0222057D01*
X0124706Y0221959D01*
X0124675Y0221862D01*
X0124640Y0221766D01*
X0124601Y0221672D01*
X0124559Y0221579D01*
X0124513Y0221489D01*
X0124463Y0221400D01*
X0124410Y0221313D01*
X0124354Y0221228D01*
X0124295Y0221145D01*
X0124232Y0221065D01*
X0124166Y0220987D01*
X0124098Y0220912D01*
X0124026Y0220840D01*
X0123952Y0220771D01*
X0123875Y0220704D01*
X0123795Y0220641D01*
X0123713Y0220580D01*
X0123629Y0220523D01*
X0123542Y0220470D01*
X0123454Y0220419D01*
X0123363Y0220372D01*
X0123271Y0220329D01*
X0123178Y0220290D01*
X0123082Y0220254D01*
X0122986Y0220221D01*
X0122888Y0220193D01*
X0122789Y0220168D01*
X0122690Y0220148D01*
X0122589Y0220131D01*
X0122488Y0220118D01*
X0122387Y0220109D01*
X0122285Y0220104D01*
X0122184Y0220103D01*
X0122082Y0220106D01*
X0121980Y0220113D01*
X0121879Y0220124D01*
X0121778Y0220139D01*
X0121678Y0220158D01*
X0121579Y0220180D01*
X0121481Y0220207D01*
X0121384Y0220237D01*
X0121288Y0220271D01*
X0121193Y0220309D01*
X0121100Y0220350D01*
X0121009Y0220395D01*
X0120920Y0220444D01*
X0120832Y0220496D01*
X0120747Y0220551D01*
X0120664Y0220610D01*
X0120583Y0220672D01*
X0120505Y0220737D01*
X0120429Y0220805D01*
X0120356Y0220876D01*
X0120286Y0220950D01*
X0120218Y0221026D01*
X0120154Y0221105D01*
X0120093Y0221186D01*
X0120035Y0221270D01*
X0119981Y0221356D01*
X0119930Y0221444D01*
X0119882Y0221534D01*
X0119838Y0221625D01*
X0119797Y0221719D01*
X0119760Y0221814D01*
X0119727Y0221910D01*
X0119698Y0222007D01*
X0119672Y0222106D01*
X0119650Y0222205D01*
X0119633Y0222306D01*
X0119619Y0222406D01*
X0119609Y0222508D01*
X0119603Y0222609D01*
X0119601Y0222711D01*
X0126454Y0219333D02*
X0126454Y0217733D01*
X0130254Y0217733D02*
X0130254Y0219333D01*
X0133775Y0228988D02*
X0135375Y0228988D01*
X0135375Y0232788D02*
X0133775Y0232788D01*
X0133244Y0244388D02*
X0133244Y0258168D01*
X0140528Y0258168D01*
X0143210Y0258168D02*
X0143751Y0258168D01*
X0146433Y0258168D02*
X0153717Y0258168D01*
X0153717Y0260136D01*
X0153717Y0257774D02*
X0153717Y0244388D01*
X0151542Y0234472D02*
X0151542Y0233272D01*
X0148742Y0233272D02*
X0148742Y0234472D01*
X0149172Y0215500D02*
X0150772Y0215500D01*
X0150772Y0211700D02*
X0149172Y0211700D01*
X0127123Y0246933D02*
X0125523Y0246933D01*
X0125523Y0250733D02*
X0127123Y0250733D01*
X0133244Y0258168D02*
X0133244Y0260136D01*
X0035106Y0189191D02*
X0035106Y0182191D01*
X0023416Y0191713D02*
X0023416Y0192913D01*
X0020616Y0192913D02*
X0020616Y0191713D01*
X0015839Y0209364D02*
X0015839Y0216364D01*
X0019904Y0172982D02*
X0019906Y0173084D01*
X0019912Y0173185D01*
X0019922Y0173287D01*
X0019936Y0173387D01*
X0019953Y0173488D01*
X0019975Y0173587D01*
X0020001Y0173686D01*
X0020030Y0173783D01*
X0020063Y0173879D01*
X0020100Y0173974D01*
X0020141Y0174068D01*
X0020185Y0174159D01*
X0020233Y0174249D01*
X0020284Y0174337D01*
X0020338Y0174423D01*
X0020396Y0174507D01*
X0020457Y0174588D01*
X0020521Y0174667D01*
X0020589Y0174743D01*
X0020659Y0174817D01*
X0020732Y0174888D01*
X0020808Y0174956D01*
X0020886Y0175021D01*
X0020967Y0175083D01*
X0021050Y0175142D01*
X0021135Y0175197D01*
X0021223Y0175249D01*
X0021312Y0175298D01*
X0021403Y0175343D01*
X0021496Y0175384D01*
X0021591Y0175422D01*
X0021687Y0175456D01*
X0021784Y0175486D01*
X0021882Y0175513D01*
X0021981Y0175535D01*
X0022081Y0175554D01*
X0022182Y0175569D01*
X0022283Y0175580D01*
X0022385Y0175587D01*
X0022487Y0175590D01*
X0022588Y0175589D01*
X0022690Y0175584D01*
X0022791Y0175575D01*
X0022892Y0175562D01*
X0022993Y0175545D01*
X0023092Y0175525D01*
X0023191Y0175500D01*
X0023289Y0175472D01*
X0023385Y0175439D01*
X0023481Y0175403D01*
X0023574Y0175364D01*
X0023666Y0175321D01*
X0023757Y0175274D01*
X0023845Y0175223D01*
X0023932Y0175170D01*
X0024016Y0175113D01*
X0024098Y0175052D01*
X0024178Y0174989D01*
X0024255Y0174922D01*
X0024329Y0174853D01*
X0024401Y0174781D01*
X0024469Y0174706D01*
X0024535Y0174628D01*
X0024598Y0174548D01*
X0024657Y0174465D01*
X0024713Y0174380D01*
X0024766Y0174293D01*
X0024816Y0174204D01*
X0024862Y0174114D01*
X0024904Y0174021D01*
X0024943Y0173927D01*
X0024978Y0173831D01*
X0025009Y0173734D01*
X0025037Y0173636D01*
X0025060Y0173538D01*
X0025080Y0173438D01*
X0025096Y0173337D01*
X0025108Y0173236D01*
X0025116Y0173135D01*
X0025120Y0173033D01*
X0025120Y0172931D01*
X0025116Y0172829D01*
X0025108Y0172728D01*
X0025096Y0172627D01*
X0025080Y0172526D01*
X0025060Y0172426D01*
X0025037Y0172328D01*
X0025009Y0172230D01*
X0024978Y0172133D01*
X0024943Y0172037D01*
X0024904Y0171943D01*
X0024862Y0171850D01*
X0024816Y0171760D01*
X0024766Y0171671D01*
X0024713Y0171584D01*
X0024657Y0171499D01*
X0024598Y0171416D01*
X0024535Y0171336D01*
X0024469Y0171258D01*
X0024401Y0171183D01*
X0024329Y0171111D01*
X0024255Y0171042D01*
X0024178Y0170975D01*
X0024098Y0170912D01*
X0024016Y0170851D01*
X0023932Y0170794D01*
X0023845Y0170741D01*
X0023757Y0170690D01*
X0023666Y0170643D01*
X0023574Y0170600D01*
X0023481Y0170561D01*
X0023385Y0170525D01*
X0023289Y0170492D01*
X0023191Y0170464D01*
X0023092Y0170439D01*
X0022993Y0170419D01*
X0022892Y0170402D01*
X0022791Y0170389D01*
X0022690Y0170380D01*
X0022588Y0170375D01*
X0022487Y0170374D01*
X0022385Y0170377D01*
X0022283Y0170384D01*
X0022182Y0170395D01*
X0022081Y0170410D01*
X0021981Y0170429D01*
X0021882Y0170451D01*
X0021784Y0170478D01*
X0021687Y0170508D01*
X0021591Y0170542D01*
X0021496Y0170580D01*
X0021403Y0170621D01*
X0021312Y0170666D01*
X0021223Y0170715D01*
X0021135Y0170767D01*
X0021050Y0170822D01*
X0020967Y0170881D01*
X0020886Y0170943D01*
X0020808Y0171008D01*
X0020732Y0171076D01*
X0020659Y0171147D01*
X0020589Y0171221D01*
X0020521Y0171297D01*
X0020457Y0171376D01*
X0020396Y0171457D01*
X0020338Y0171541D01*
X0020284Y0171627D01*
X0020233Y0171715D01*
X0020185Y0171805D01*
X0020141Y0171896D01*
X0020100Y0171990D01*
X0020063Y0172085D01*
X0020030Y0172181D01*
X0020001Y0172278D01*
X0019975Y0172377D01*
X0019953Y0172476D01*
X0019936Y0172577D01*
X0019922Y0172677D01*
X0019912Y0172779D01*
X0019906Y0172880D01*
X0019904Y0172982D01*
X0027029Y0170436D02*
X0027029Y0168836D01*
X0030829Y0168836D02*
X0030829Y0170436D01*
X0039572Y0166661D02*
X0039572Y0165461D01*
X0043722Y0165461D02*
X0043722Y0166661D01*
X0042088Y0136241D02*
X0040888Y0136241D01*
X0040888Y0133441D02*
X0042088Y0133441D01*
X0042088Y0130634D02*
X0040888Y0130634D01*
X0040888Y0127834D02*
X0042088Y0127834D01*
X0046872Y0122200D02*
X0046872Y0095700D01*
X0055272Y0094670D02*
X0055274Y0094737D01*
X0055280Y0094803D01*
X0055290Y0094869D01*
X0055304Y0094934D01*
X0055321Y0094998D01*
X0055343Y0095061D01*
X0055368Y0095123D01*
X0055397Y0095183D01*
X0055430Y0095241D01*
X0055466Y0095298D01*
X0055505Y0095351D01*
X0055547Y0095403D01*
X0055592Y0095452D01*
X0055641Y0095498D01*
X0055691Y0095541D01*
X0055745Y0095581D01*
X0055800Y0095618D01*
X0055858Y0095651D01*
X0055918Y0095681D01*
X0055979Y0095707D01*
X0056042Y0095729D01*
X0056106Y0095748D01*
X0056171Y0095763D01*
X0056236Y0095774D01*
X0056303Y0095781D01*
X0056369Y0095784D01*
X0056436Y0095783D01*
X0056502Y0095778D01*
X0056568Y0095769D01*
X0056634Y0095756D01*
X0056698Y0095739D01*
X0056762Y0095719D01*
X0056824Y0095694D01*
X0056884Y0095666D01*
X0056943Y0095635D01*
X0057000Y0095600D01*
X0057054Y0095561D01*
X0057106Y0095520D01*
X0057156Y0095475D01*
X0057203Y0095428D01*
X0057246Y0095378D01*
X0057287Y0095325D01*
X0057325Y0095270D01*
X0057359Y0095213D01*
X0057390Y0095153D01*
X0057417Y0095092D01*
X0057440Y0095030D01*
X0057460Y0094966D01*
X0057476Y0094902D01*
X0057488Y0094836D01*
X0057496Y0094770D01*
X0057500Y0094703D01*
X0057500Y0094637D01*
X0057496Y0094570D01*
X0057488Y0094504D01*
X0057476Y0094438D01*
X0057460Y0094374D01*
X0057440Y0094310D01*
X0057417Y0094248D01*
X0057390Y0094187D01*
X0057359Y0094127D01*
X0057325Y0094070D01*
X0057287Y0094015D01*
X0057246Y0093962D01*
X0057203Y0093912D01*
X0057156Y0093865D01*
X0057106Y0093820D01*
X0057054Y0093779D01*
X0057000Y0093740D01*
X0056943Y0093705D01*
X0056884Y0093674D01*
X0056824Y0093646D01*
X0056762Y0093621D01*
X0056698Y0093601D01*
X0056634Y0093584D01*
X0056568Y0093571D01*
X0056502Y0093562D01*
X0056436Y0093557D01*
X0056369Y0093556D01*
X0056303Y0093559D01*
X0056236Y0093566D01*
X0056171Y0093577D01*
X0056106Y0093592D01*
X0056042Y0093611D01*
X0055979Y0093633D01*
X0055918Y0093659D01*
X0055858Y0093689D01*
X0055800Y0093722D01*
X0055745Y0093759D01*
X0055691Y0093799D01*
X0055641Y0093842D01*
X0055592Y0093888D01*
X0055547Y0093937D01*
X0055505Y0093989D01*
X0055466Y0094042D01*
X0055430Y0094099D01*
X0055397Y0094157D01*
X0055368Y0094217D01*
X0055343Y0094279D01*
X0055321Y0094342D01*
X0055304Y0094406D01*
X0055290Y0094471D01*
X0055280Y0094537D01*
X0055274Y0094603D01*
X0055272Y0094670D01*
X0060509Y0065000D02*
X0060509Y0063800D01*
X0064659Y0063800D02*
X0064659Y0065000D01*
X0070659Y0065200D02*
X0070659Y0063600D01*
X0074459Y0063600D02*
X0074459Y0065200D01*
X0079509Y0065000D02*
X0079509Y0063800D01*
X0083659Y0063800D02*
X0083659Y0065000D01*
X0055654Y0042521D02*
X0055654Y0041321D01*
X0051504Y0041321D02*
X0051504Y0042521D01*
X0019872Y0095700D02*
X0019872Y0122200D01*
X0062352Y0132313D02*
X0062354Y0132448D01*
X0062360Y0132583D01*
X0062370Y0132718D01*
X0062384Y0132852D01*
X0062401Y0132986D01*
X0062423Y0133119D01*
X0062449Y0133252D01*
X0062478Y0133384D01*
X0062512Y0133515D01*
X0062549Y0133645D01*
X0062590Y0133773D01*
X0062635Y0133901D01*
X0062683Y0134027D01*
X0062735Y0134151D01*
X0062791Y0134274D01*
X0062850Y0134396D01*
X0062913Y0134515D01*
X0062980Y0134633D01*
X0063050Y0134749D01*
X0063123Y0134862D01*
X0063199Y0134973D01*
X0063279Y0135083D01*
X0063362Y0135189D01*
X0063448Y0135293D01*
X0063537Y0135395D01*
X0063629Y0135494D01*
X0063724Y0135590D01*
X0063821Y0135684D01*
X0063921Y0135774D01*
X0064024Y0135862D01*
X0064130Y0135946D01*
X0064238Y0136027D01*
X0064348Y0136105D01*
X0064460Y0136180D01*
X0064575Y0136252D01*
X0064692Y0136320D01*
X0064810Y0136385D01*
X0064931Y0136446D01*
X0065053Y0136503D01*
X0065177Y0136557D01*
X0065302Y0136608D01*
X0065429Y0136654D01*
X0065557Y0136697D01*
X0065686Y0136736D01*
X0065817Y0136771D01*
X0065948Y0136803D01*
X0066080Y0136830D01*
X0066213Y0136854D01*
X0066347Y0136874D01*
X0066481Y0136890D01*
X0066616Y0136902D01*
X0066750Y0136910D01*
X0066885Y0136914D01*
X0067021Y0136914D01*
X0067156Y0136910D01*
X0067290Y0136902D01*
X0067425Y0136890D01*
X0067559Y0136874D01*
X0067693Y0136854D01*
X0067826Y0136830D01*
X0067958Y0136803D01*
X0068089Y0136771D01*
X0068220Y0136736D01*
X0068349Y0136697D01*
X0068477Y0136654D01*
X0068604Y0136608D01*
X0068729Y0136557D01*
X0068853Y0136503D01*
X0068975Y0136446D01*
X0069096Y0136385D01*
X0069214Y0136320D01*
X0069331Y0136252D01*
X0069446Y0136180D01*
X0069558Y0136105D01*
X0069668Y0136027D01*
X0069776Y0135946D01*
X0069882Y0135862D01*
X0069985Y0135774D01*
X0070085Y0135684D01*
X0070182Y0135590D01*
X0070277Y0135494D01*
X0070369Y0135395D01*
X0070458Y0135293D01*
X0070544Y0135189D01*
X0070627Y0135083D01*
X0070707Y0134973D01*
X0070783Y0134862D01*
X0070856Y0134749D01*
X0070926Y0134633D01*
X0070993Y0134515D01*
X0071056Y0134396D01*
X0071115Y0134274D01*
X0071171Y0134151D01*
X0071223Y0134027D01*
X0071271Y0133901D01*
X0071316Y0133773D01*
X0071357Y0133645D01*
X0071394Y0133515D01*
X0071428Y0133384D01*
X0071457Y0133252D01*
X0071483Y0133119D01*
X0071505Y0132986D01*
X0071522Y0132852D01*
X0071536Y0132718D01*
X0071546Y0132583D01*
X0071552Y0132448D01*
X0071554Y0132313D01*
X0071552Y0132178D01*
X0071546Y0132043D01*
X0071536Y0131908D01*
X0071522Y0131774D01*
X0071505Y0131640D01*
X0071483Y0131507D01*
X0071457Y0131374D01*
X0071428Y0131242D01*
X0071394Y0131111D01*
X0071357Y0130981D01*
X0071316Y0130853D01*
X0071271Y0130725D01*
X0071223Y0130599D01*
X0071171Y0130475D01*
X0071115Y0130352D01*
X0071056Y0130230D01*
X0070993Y0130111D01*
X0070926Y0129993D01*
X0070856Y0129877D01*
X0070783Y0129764D01*
X0070707Y0129653D01*
X0070627Y0129543D01*
X0070544Y0129437D01*
X0070458Y0129333D01*
X0070369Y0129231D01*
X0070277Y0129132D01*
X0070182Y0129036D01*
X0070085Y0128942D01*
X0069985Y0128852D01*
X0069882Y0128764D01*
X0069776Y0128680D01*
X0069668Y0128599D01*
X0069558Y0128521D01*
X0069446Y0128446D01*
X0069331Y0128374D01*
X0069214Y0128306D01*
X0069096Y0128241D01*
X0068975Y0128180D01*
X0068853Y0128123D01*
X0068729Y0128069D01*
X0068604Y0128018D01*
X0068477Y0127972D01*
X0068349Y0127929D01*
X0068220Y0127890D01*
X0068089Y0127855D01*
X0067958Y0127823D01*
X0067826Y0127796D01*
X0067693Y0127772D01*
X0067559Y0127752D01*
X0067425Y0127736D01*
X0067290Y0127724D01*
X0067156Y0127716D01*
X0067021Y0127712D01*
X0066885Y0127712D01*
X0066750Y0127716D01*
X0066616Y0127724D01*
X0066481Y0127736D01*
X0066347Y0127752D01*
X0066213Y0127772D01*
X0066080Y0127796D01*
X0065948Y0127823D01*
X0065817Y0127855D01*
X0065686Y0127890D01*
X0065557Y0127929D01*
X0065429Y0127972D01*
X0065302Y0128018D01*
X0065177Y0128069D01*
X0065053Y0128123D01*
X0064931Y0128180D01*
X0064810Y0128241D01*
X0064692Y0128306D01*
X0064575Y0128374D01*
X0064460Y0128446D01*
X0064348Y0128521D01*
X0064238Y0128599D01*
X0064130Y0128680D01*
X0064024Y0128764D01*
X0063921Y0128852D01*
X0063821Y0128942D01*
X0063724Y0129036D01*
X0063629Y0129132D01*
X0063537Y0129231D01*
X0063448Y0129333D01*
X0063362Y0129437D01*
X0063279Y0129543D01*
X0063199Y0129653D01*
X0063123Y0129764D01*
X0063050Y0129877D01*
X0062980Y0129993D01*
X0062913Y0130111D01*
X0062850Y0130230D01*
X0062791Y0130352D01*
X0062735Y0130475D01*
X0062683Y0130599D01*
X0062635Y0130725D01*
X0062590Y0130853D01*
X0062549Y0130981D01*
X0062512Y0131111D01*
X0062478Y0131242D01*
X0062449Y0131374D01*
X0062423Y0131507D01*
X0062401Y0131640D01*
X0062384Y0131774D01*
X0062370Y0131908D01*
X0062360Y0132043D01*
X0062354Y0132178D01*
X0062352Y0132313D01*
X0085541Y0118612D02*
X0085543Y0118747D01*
X0085549Y0118882D01*
X0085559Y0119017D01*
X0085573Y0119151D01*
X0085590Y0119285D01*
X0085612Y0119418D01*
X0085638Y0119551D01*
X0085667Y0119683D01*
X0085701Y0119814D01*
X0085738Y0119944D01*
X0085779Y0120072D01*
X0085824Y0120200D01*
X0085872Y0120326D01*
X0085924Y0120450D01*
X0085980Y0120573D01*
X0086039Y0120695D01*
X0086102Y0120814D01*
X0086169Y0120932D01*
X0086239Y0121048D01*
X0086312Y0121161D01*
X0086388Y0121272D01*
X0086468Y0121382D01*
X0086551Y0121488D01*
X0086637Y0121592D01*
X0086726Y0121694D01*
X0086818Y0121793D01*
X0086913Y0121889D01*
X0087010Y0121983D01*
X0087110Y0122073D01*
X0087213Y0122161D01*
X0087319Y0122245D01*
X0087427Y0122326D01*
X0087537Y0122404D01*
X0087649Y0122479D01*
X0087764Y0122551D01*
X0087881Y0122619D01*
X0087999Y0122684D01*
X0088120Y0122745D01*
X0088242Y0122802D01*
X0088366Y0122856D01*
X0088491Y0122907D01*
X0088618Y0122953D01*
X0088746Y0122996D01*
X0088875Y0123035D01*
X0089006Y0123070D01*
X0089137Y0123102D01*
X0089269Y0123129D01*
X0089402Y0123153D01*
X0089536Y0123173D01*
X0089670Y0123189D01*
X0089805Y0123201D01*
X0089939Y0123209D01*
X0090074Y0123213D01*
X0090210Y0123213D01*
X0090345Y0123209D01*
X0090479Y0123201D01*
X0090614Y0123189D01*
X0090748Y0123173D01*
X0090882Y0123153D01*
X0091015Y0123129D01*
X0091147Y0123102D01*
X0091278Y0123070D01*
X0091409Y0123035D01*
X0091538Y0122996D01*
X0091666Y0122953D01*
X0091793Y0122907D01*
X0091918Y0122856D01*
X0092042Y0122802D01*
X0092164Y0122745D01*
X0092285Y0122684D01*
X0092403Y0122619D01*
X0092520Y0122551D01*
X0092635Y0122479D01*
X0092747Y0122404D01*
X0092857Y0122326D01*
X0092965Y0122245D01*
X0093071Y0122161D01*
X0093174Y0122073D01*
X0093274Y0121983D01*
X0093371Y0121889D01*
X0093466Y0121793D01*
X0093558Y0121694D01*
X0093647Y0121592D01*
X0093733Y0121488D01*
X0093816Y0121382D01*
X0093896Y0121272D01*
X0093972Y0121161D01*
X0094045Y0121048D01*
X0094115Y0120932D01*
X0094182Y0120814D01*
X0094245Y0120695D01*
X0094304Y0120573D01*
X0094360Y0120450D01*
X0094412Y0120326D01*
X0094460Y0120200D01*
X0094505Y0120072D01*
X0094546Y0119944D01*
X0094583Y0119814D01*
X0094617Y0119683D01*
X0094646Y0119551D01*
X0094672Y0119418D01*
X0094694Y0119285D01*
X0094711Y0119151D01*
X0094725Y0119017D01*
X0094735Y0118882D01*
X0094741Y0118747D01*
X0094743Y0118612D01*
X0094741Y0118477D01*
X0094735Y0118342D01*
X0094725Y0118207D01*
X0094711Y0118073D01*
X0094694Y0117939D01*
X0094672Y0117806D01*
X0094646Y0117673D01*
X0094617Y0117541D01*
X0094583Y0117410D01*
X0094546Y0117280D01*
X0094505Y0117152D01*
X0094460Y0117024D01*
X0094412Y0116898D01*
X0094360Y0116774D01*
X0094304Y0116651D01*
X0094245Y0116529D01*
X0094182Y0116410D01*
X0094115Y0116292D01*
X0094045Y0116176D01*
X0093972Y0116063D01*
X0093896Y0115952D01*
X0093816Y0115842D01*
X0093733Y0115736D01*
X0093647Y0115632D01*
X0093558Y0115530D01*
X0093466Y0115431D01*
X0093371Y0115335D01*
X0093274Y0115241D01*
X0093174Y0115151D01*
X0093071Y0115063D01*
X0092965Y0114979D01*
X0092857Y0114898D01*
X0092747Y0114820D01*
X0092635Y0114745D01*
X0092520Y0114673D01*
X0092403Y0114605D01*
X0092285Y0114540D01*
X0092164Y0114479D01*
X0092042Y0114422D01*
X0091918Y0114368D01*
X0091793Y0114317D01*
X0091666Y0114271D01*
X0091538Y0114228D01*
X0091409Y0114189D01*
X0091278Y0114154D01*
X0091147Y0114122D01*
X0091015Y0114095D01*
X0090882Y0114071D01*
X0090748Y0114051D01*
X0090614Y0114035D01*
X0090479Y0114023D01*
X0090345Y0114015D01*
X0090210Y0114011D01*
X0090074Y0114011D01*
X0089939Y0114015D01*
X0089805Y0114023D01*
X0089670Y0114035D01*
X0089536Y0114051D01*
X0089402Y0114071D01*
X0089269Y0114095D01*
X0089137Y0114122D01*
X0089006Y0114154D01*
X0088875Y0114189D01*
X0088746Y0114228D01*
X0088618Y0114271D01*
X0088491Y0114317D01*
X0088366Y0114368D01*
X0088242Y0114422D01*
X0088120Y0114479D01*
X0087999Y0114540D01*
X0087881Y0114605D01*
X0087764Y0114673D01*
X0087649Y0114745D01*
X0087537Y0114820D01*
X0087427Y0114898D01*
X0087319Y0114979D01*
X0087213Y0115063D01*
X0087110Y0115151D01*
X0087010Y0115241D01*
X0086913Y0115335D01*
X0086818Y0115431D01*
X0086726Y0115530D01*
X0086637Y0115632D01*
X0086551Y0115736D01*
X0086468Y0115842D01*
X0086388Y0115952D01*
X0086312Y0116063D01*
X0086239Y0116176D01*
X0086169Y0116292D01*
X0086102Y0116410D01*
X0086039Y0116529D01*
X0085980Y0116651D01*
X0085924Y0116774D01*
X0085872Y0116898D01*
X0085824Y0117024D01*
X0085779Y0117152D01*
X0085738Y0117280D01*
X0085701Y0117410D01*
X0085667Y0117541D01*
X0085638Y0117673D01*
X0085612Y0117806D01*
X0085590Y0117939D01*
X0085573Y0118073D01*
X0085559Y0118207D01*
X0085549Y0118342D01*
X0085543Y0118477D01*
X0085541Y0118612D01*
X0128828Y0097367D02*
X0130128Y0097367D01*
X0130128Y0094567D02*
X0128828Y0094567D01*
X0138128Y0083504D02*
X0138128Y0082304D01*
X0140928Y0082304D02*
X0140928Y0083504D01*
X0150841Y0068654D02*
X0150843Y0068698D01*
X0150849Y0068742D01*
X0150859Y0068785D01*
X0150872Y0068827D01*
X0150889Y0068868D01*
X0150910Y0068907D01*
X0150934Y0068944D01*
X0150961Y0068979D01*
X0150991Y0069011D01*
X0151024Y0069041D01*
X0151060Y0069067D01*
X0151097Y0069091D01*
X0151137Y0069110D01*
X0151178Y0069127D01*
X0151221Y0069139D01*
X0151264Y0069148D01*
X0151308Y0069153D01*
X0151352Y0069154D01*
X0151396Y0069151D01*
X0151440Y0069144D01*
X0151483Y0069133D01*
X0151525Y0069119D01*
X0151565Y0069101D01*
X0151604Y0069079D01*
X0151640Y0069055D01*
X0151674Y0069027D01*
X0151706Y0068996D01*
X0151735Y0068962D01*
X0151761Y0068926D01*
X0151783Y0068888D01*
X0151802Y0068848D01*
X0151817Y0068806D01*
X0151829Y0068764D01*
X0151837Y0068720D01*
X0151841Y0068676D01*
X0151841Y0068632D01*
X0151837Y0068588D01*
X0151829Y0068544D01*
X0151817Y0068502D01*
X0151802Y0068460D01*
X0151783Y0068420D01*
X0151761Y0068382D01*
X0151735Y0068346D01*
X0151706Y0068312D01*
X0151674Y0068281D01*
X0151640Y0068253D01*
X0151604Y0068229D01*
X0151565Y0068207D01*
X0151525Y0068189D01*
X0151483Y0068175D01*
X0151440Y0068164D01*
X0151396Y0068157D01*
X0151352Y0068154D01*
X0151308Y0068155D01*
X0151264Y0068160D01*
X0151221Y0068169D01*
X0151178Y0068181D01*
X0151137Y0068198D01*
X0151097Y0068217D01*
X0151060Y0068241D01*
X0151024Y0068267D01*
X0150991Y0068297D01*
X0150961Y0068329D01*
X0150934Y0068364D01*
X0150910Y0068401D01*
X0150889Y0068440D01*
X0150872Y0068481D01*
X0150859Y0068523D01*
X0150849Y0068566D01*
X0150843Y0068610D01*
X0150841Y0068654D01*
X0148565Y0060504D02*
X0148565Y0059304D01*
X0145765Y0059304D02*
X0145765Y0060504D01*
X0135128Y0057516D02*
X0133828Y0057516D01*
X0133828Y0054716D02*
X0135128Y0054716D01*
X0135228Y0052622D02*
X0133928Y0052622D01*
X0133928Y0049822D02*
X0135228Y0049822D01*
X0131628Y0045835D02*
X0130428Y0045835D01*
X0130428Y0043035D02*
X0131628Y0043035D01*
X0249136Y0092705D02*
X0249136Y0094005D01*
X0251936Y0094005D02*
X0251936Y0092705D01*
X0253809Y0083504D02*
X0253809Y0082304D01*
X0256609Y0082304D02*
X0256609Y0083504D01*
X0255535Y0025108D02*
X0258343Y0024363D01*
X0261167Y0023685D01*
X0264007Y0023073D01*
X0266861Y0022529D01*
X0269726Y0022052D01*
X0272602Y0021642D01*
X0275487Y0021301D01*
X0278379Y0021027D01*
X0281277Y0020822D01*
X0284178Y0020685D01*
X0287083Y0020617D01*
X0289987Y0020617D01*
X0292892Y0020685D01*
X0295793Y0020822D01*
X0298691Y0021027D01*
X0301583Y0021301D01*
X0304468Y0021642D01*
X0307344Y0022052D01*
X0310209Y0022529D01*
X0313063Y0023073D01*
X0315903Y0023685D01*
X0318727Y0024363D01*
X0321535Y0025108D01*
D15*
X0334865Y0102153D02*
X0334098Y0102920D01*
X0334098Y0104455D01*
X0334865Y0105222D01*
X0335632Y0105222D01*
X0338702Y0102153D01*
X0338702Y0105222D01*
X0340098Y0104549D02*
X0340098Y0106851D01*
X0340865Y0107619D01*
X0342400Y0107619D01*
X0343167Y0106851D01*
X0343167Y0104549D01*
X0344702Y0104549D02*
X0340098Y0104549D01*
X0340865Y0109153D02*
X0340098Y0109920D01*
X0340098Y0111455D01*
X0340865Y0112222D01*
X0341632Y0112222D01*
X0342400Y0111455D01*
X0342400Y0109920D01*
X0341632Y0109153D01*
X0340865Y0109153D01*
X0342400Y0109920D02*
X0343167Y0109153D01*
X0343934Y0109153D01*
X0344702Y0109920D01*
X0344702Y0111455D01*
X0343934Y0112222D01*
X0343167Y0112222D01*
X0342400Y0111455D01*
X0338702Y0112153D02*
X0338702Y0115222D01*
X0338702Y0113688D02*
X0334098Y0113688D01*
X0335632Y0112153D01*
X0334865Y0292153D02*
X0334098Y0292920D01*
X0334098Y0294455D01*
X0334865Y0295222D01*
X0335632Y0295222D01*
X0338702Y0292153D01*
X0338702Y0295222D01*
X0340098Y0294549D02*
X0340098Y0296851D01*
X0340865Y0297619D01*
X0342400Y0297619D01*
X0343167Y0296851D01*
X0343167Y0294549D01*
X0344702Y0294549D02*
X0340098Y0294549D01*
X0340865Y0299153D02*
X0340098Y0299920D01*
X0340098Y0301455D01*
X0340865Y0302222D01*
X0343934Y0302222D01*
X0344702Y0301455D01*
X0344702Y0299920D01*
X0343934Y0299153D01*
X0342400Y0299920D02*
X0342400Y0302222D01*
X0342400Y0299920D02*
X0341632Y0299153D01*
X0340865Y0299153D01*
X0338702Y0302453D02*
X0338702Y0305522D01*
X0338702Y0303988D02*
X0334098Y0303988D01*
X0335632Y0302453D01*
X0099702Y0302351D02*
X0095098Y0302351D01*
X0097400Y0300049D01*
X0097400Y0303119D01*
X0097400Y0304653D02*
X0096632Y0306188D01*
X0096632Y0306955D01*
X0097400Y0307722D01*
X0098934Y0307722D01*
X0099702Y0306955D01*
X0099702Y0305420D01*
X0098934Y0304653D01*
X0097400Y0304653D02*
X0095098Y0304653D01*
X0095098Y0307722D01*
X0095098Y0297222D02*
X0095865Y0295688D01*
X0097400Y0294153D01*
X0097400Y0296455D01*
X0098167Y0297222D01*
X0098934Y0297222D01*
X0099702Y0296455D01*
X0099702Y0294920D01*
X0098934Y0294153D01*
X0097400Y0294153D01*
X0097400Y0292619D02*
X0097400Y0289549D01*
X0095098Y0291851D01*
X0099702Y0291851D01*
X0098934Y0117222D02*
X0099702Y0116455D01*
X0099702Y0114920D01*
X0098934Y0114153D01*
X0097400Y0114153D02*
X0096632Y0115688D01*
X0096632Y0116455D01*
X0097400Y0117222D01*
X0098934Y0117222D01*
X0097400Y0114153D02*
X0095098Y0114153D01*
X0095098Y0117222D01*
X0097400Y0112619D02*
X0097400Y0109549D01*
X0095098Y0111851D01*
X0099702Y0111851D01*
X0098934Y0107222D02*
X0098167Y0107222D01*
X0097400Y0106455D01*
X0097400Y0104153D01*
X0098934Y0104153D01*
X0099702Y0104920D01*
X0099702Y0106455D01*
X0098934Y0107222D01*
X0095865Y0105688D02*
X0097400Y0104153D01*
X0097400Y0102619D02*
X0097400Y0099549D01*
X0095098Y0101851D01*
X0099702Y0101851D01*
X0095865Y0105688D02*
X0095098Y0107222D01*
M02*
